<?xml version="1.0" encoding="UTF-8"?>
<svg version="1.1" xmlns="http://www.w3.org/2000/svg" width="48" height="48">
<path d="M0 0 C5.61 0 11.22 0 17 0 C17.04125 2.43375 17.0825 4.8675 17.125 7.375 C17.14320801 8.13989746 17.16141602 8.90479492 17.18017578 9.69287109 C17.1948117 11.46287275 17.09928514 13.23272455 17 15 C15 17 15 17 11.5234375 17.1953125 C10.14047367 17.18387695 8.75761943 17.15791258 7.375 17.125 C3.724375 17.063125 3.724375 17.063125 0 17 C0 11.39 0 5.78 0 0 Z " fill="#FFFFFF" transform="translate(25,25)"/>
<path d="M0 0 C5.61 0 11.22 0 17 0 C17 5.61 17 11.22 17 17 C14.56625 17.04125 12.1325 17.0825 9.625 17.125 C8.86010254 17.14320801 8.09520508 17.16141602 7.30712891 17.18017578 C5.53712725 17.1948117 3.76727545 17.09928514 2 17 C0 15 0 15 -0.1953125 11.5234375 C-0.18387695 10.14047367 -0.15791258 8.75761943 -0.125 7.375 C-0.08375 4.94125 -0.0425 2.5075 0 0 Z " fill="#FFFFFF" transform="translate(6,25)"/>
<path d="M0 0 C2.43375 -0.04125 4.8675 -0.0825 7.375 -0.125 C8.13989746 -0.14320801 8.90479492 -0.16141602 9.69287109 -0.18017578 C11.46287275 -0.1948117 13.23272455 -0.09928514 15 0 C17 2 17 2 17.1953125 5.4765625 C17.18387695 6.85952633 17.15791258 8.24238057 17.125 9.625 C17.08375 12.05875 17.0425 14.4925 17 17 C11.39 17 5.78 17 0 17 C0 11.39 0 5.78 0 0 Z " fill="#FFFFFF" transform="translate(25,6)"/>
<path d="M0 0 C1.38296383 0.01143555 2.76581807 0.03739992 4.1484375 0.0703125 C7.7990625 0.1321875 7.7990625 0.1321875 11.5234375 0.1953125 C11.5234375 5.8053125 11.5234375 11.4153125 11.5234375 17.1953125 C5.9134375 17.1953125 0.3034375 17.1953125 -5.4765625 17.1953125 C-5.5178125 14.7615625 -5.5590625 12.3278125 -5.6015625 9.8203125 C-5.61977051 9.05541504 -5.63797852 8.29051758 -5.65673828 7.50244141 C-5.6713742 5.73243975 -5.57584764 3.96258795 -5.4765625 2.1953125 C-3.4765625 0.1953125 -3.4765625 0.1953125 0 0 Z " fill="#FFFFFF" transform="translate(11.4765625,5.8046875)"/>
</svg>
