<?xml version="1.0" encoding="UTF-8"?>
<svg version="1.1" xmlns="http://www.w3.org/2000/svg" width="48" height="48">
<path d="M0 0 C1.20269531 -0.02578125 2.40539062 -0.0515625 3.64453125 -0.078125 C8.59311289 0.38017804 11.84093643 2.08061585 15.5625 5.3125 C17.92788084 9.58838076 18.12265454 13.47206754 17.1875 18.25 C14.8125 21.25 14.8125 21.25 12.1875 23.25 C9.93156025 25.03872525 9.93156025 25.03872525 10.16796875 27.45703125 C10.27044922 28.74673828 10.27044922 28.74673828 10.375 30.0625 C10.41812061 33.78704267 10.30214153 35.0523422 8.375 38.375 C3.6700355 41.14262618 -0.48534277 41.08947839 -5.8125 40.25 C-11.23378438 37.63975196 -15.28542142 33.3842487 -17.9296875 27.95703125 C-19.75077284 22.37290673 -19.88433879 15.60456572 -18.08984375 9.98828125 C-13.92399745 2.21315921 -8.35746037 0.10680461 0 0 Z M-1.8125 28.25 C-2.1425 29.9 -2.4725 31.55 -2.8125 33.25 C-0.8325 34.24 -0.8325 34.24 1.1875 35.25 C2.1775 34.26 3.1675 33.27 4.1875 32.25 C3.5275 30.93 2.8675 29.61 2.1875 28.25 C0.8675 28.25 -0.4525 28.25 -1.8125 28.25 Z " fill="#FDC008" transform="translate(24.8125,3.75)"/>
<path d="M0 0 C2.125 0.375 2.125 0.375 4 1 C4.625 2.875 4.625 2.875 5 5 C4.34 5.66 3.68 6.32 3 7 C0.875 6.625 0.875 6.625 -1 6 C-1.625 4.125 -1.625 4.125 -2 2 C-1.34 1.34 -0.68 0.68 0 0 Z " fill="#FF4300" transform="translate(13,23)"/>
<path d="M0 0 C2.125 0.375 2.125 0.375 4 1 C4.625 2.875 4.625 2.875 5 5 C4.34 5.66 3.68 6.32 3 7 C0.875 6.625 0.875 6.625 -1 6 C-1.625 4.125 -1.625 4.125 -2 2 C-1.34 1.34 -0.68 0.68 0 0 Z " fill="#A12EA7" transform="translate(33,13)"/>
<path d="M0 0 C2.125 0.375 2.125 0.375 4 1 C4.625 2.875 4.625 2.875 5 5 C4.34 5.66 3.68 6.32 3 7 C0.875 6.625 0.875 6.625 -1 6 C-1.625 4.125 -1.625 4.125 -2 2 C-1.34 1.34 -0.68 0.68 0 0 Z " fill="#54AF4C" transform="translate(14,12)"/>
<path d="M0 0 C2.125 0.375 2.125 0.375 4 1 C4.625 2.875 4.625 2.875 5 5 C4.34 5.66 3.68 6.32 3 7 C0.875 6.625 0.875 6.625 -1 6 C-1.625 4.125 -1.625 4.125 -2 2 C-1.34 1.34 -0.68 0.68 0 0 Z " fill="#2C98E7" transform="translate(24,7)"/>
</svg>
