<?xml version="1.0" encoding="UTF-8"?>
<svg version="1.1" xmlns="http://www.w3.org/2000/svg" width="24" height="24">
<path d="M0 0 C1.47726562 0.05414062 1.47726562 0.05414062 2.984375 0.109375 C3.73203125 0.15578125 4.4796875 0.2021875 5.25 0.25 C5.25 1.24 5.25 2.23 5.25 3.25 C6.24 3.25 7.23 3.25 8.25 3.25 C8.25 10.18 8.25 17.11 8.25 24.25 C3.3 24.25 -1.65 24.25 -6.75 24.25 C-6.75 23.26 -6.75 22.27 -6.75 21.25 C-7.74 21.25 -8.73 21.25 -9.75 21.25 C-9.85812003 18.49894578 -9.93734945 15.75214913 -10 13 C-10.03351562 12.22269531 -10.06703125 11.44539062 -10.1015625 10.64453125 C-10.16488491 6.94017038 -10.16063203 4.87756971 -8.09375 1.71875 C-5.16942699 -0.11382576 -3.42424058 -0.16305908 0 0 Z M-5.75 3.25 C-6.08 3.91 -6.41 4.57 -6.75 5.25 C-6.09 5.25 -5.43 5.25 -4.75 5.25 C-5.08 4.59 -5.41 3.93 -5.75 3.25 Z M-6.75 8.25 C-6.75 8.58 -6.75 8.91 -6.75 9.25 C-4.11 9.25 -1.47 9.25 1.25 9.25 C1.25 8.92 1.25 8.59 1.25 8.25 C-1.39 8.25 -4.03 8.25 -6.75 8.25 Z M-6.75 12.25 C-6.75 12.58 -6.75 12.91 -6.75 13.25 C-4.11 13.25 -1.47 13.25 1.25 13.25 C1.25 12.92 1.25 12.59 1.25 12.25 C-1.39 12.25 -4.03 12.25 -6.75 12.25 Z M-6.75 16.25 C-6.75 16.58 -6.75 16.91 -6.75 17.25 C-4.11 17.25 -1.47 17.25 1.25 17.25 C1.25 16.92 1.25 16.59 1.25 16.25 C-1.39 16.25 -4.03 16.25 -6.75 16.25 Z " fill="#FFFFFF" transform="translate(12.75,-0.25)"/>
</svg>
