<svg fill="#FFFFFF" xmlns="http://www.w3.org/2000/svg"  viewBox="0 0 48 48" width="48px" height="48px"><path d="M 13.5 4 C 10.467 4 8 6.467 8 9.5 L 8 36 L 8 37.5 L 8 38.5 C 8 41.519774 10.480226 44 13.5 44 L 39.5 44 A 1.50015 1.50015 0 1 0 39.5 41 L 13.5 41 C 12.273237 41 11.277238 40.152347 11.050781 39 L 39.5 39 C 40.329 39 41 38.329 41 37.5 L 41 9.5 C 41 6.988 39.305 4.8678906 37 4.2128906 L 37 7.5136719 C 37.603 7.9706719 38 8.687 38 9.5 L 38 36 L 11 36 L 11 9.5 C 11 8.122 12.122 7 13.5 7 L 19 7 L 19 4 L 13.5 4 z M 21 4 L 21 5.5 L 21 7 L 21 20.5 A 1.50015 1.50015 0 0 0 23.21875 21.816406 L 28 19.208984 L 32.78125 21.816406 A 1.50015 1.50015 0 0 0 35 20.5 L 35 5.5 L 35 4 L 33.5 4 L 24 4 L 21 4 z M 24 7 L 32 7 L 32 17.972656 L 28.71875 16.183594 A 1.50015 1.50015 0 0 0 27.28125 16.183594 L 24 17.972656 L 24 7 z"/></svg>