<?xml version="1.0" encoding="UTF-8"?>
<svg version="1.1" xmlns="http://www.w3.org/2000/svg" width="94" height="94">
<path d="M0 0 C2.75 -0.328125 2.75 -0.328125 6 -0.25 C7.0725 -0.23453125 8.145 -0.2190625 9.25 -0.203125 C12 0 12 0 14 1 C14 20.8 14 40.6 14 61 C7.07 60.505 7.07 60.505 0 60 C-0.99 60 -1.98 60 -3 60 C-13.33333333 60 -23.66666667 60 -34 60 C-36.11588667 60.02332445 -38.23177187 60.04678116 -40.34765625 60.0703125 C-42.91926786 60.08895702 -45.49088263 60.10716808 -48.0625 60.125 C-49.36767578 60.14175781 -50.67285156 60.15851563 -52.01757812 60.17578125 C-53.26087891 60.18222656 -54.50417969 60.18867187 -55.78515625 60.1953125 C-56.92863525 60.20578613 -58.07211426 60.21625977 -59.25024414 60.22705078 C-62 60 -62 60 -64 58 C-64.265625 55.90625 -64.265625 55.90625 -64.25 53.5 C-64.25515625 52.7059375 -64.2603125 51.911875 -64.265625 51.09375 C-64 49 -64 49 -62 47 C-59.21484375 46.76953125 -59.21484375 46.76953125 -55.9375 46.8125 C-54.31134766 46.82216797 -54.31134766 46.82216797 -52.65234375 46.83203125 C-50 47 -50 47 -49 48 C-48.93941406 47.15695313 -48.87882812 46.31390625 -48.81640625 45.4453125 C-48.73261719 44.34960938 -48.64882813 43.25390625 -48.5625 42.125 C-48.48128906 41.03445312 -48.40007813 39.94390625 -48.31640625 38.8203125 C-48 36 -48 36 -47 34 C-43.37 34 -39.74 34 -36 34 C-35.67 31.03 -35.34 28.06 -35 25 C-34.67 25 -34.34 25 -34 25 C-34.01160156 25.71027344 -34.02320312 26.42054687 -34.03515625 27.15234375 C-34.04417969 28.07144531 -34.05320312 28.99054687 -34.0625 29.9375 C-34.07410156 30.85402344 -34.08570312 31.77054688 -34.09765625 32.71484375 C-34.25949049 34.96593327 -34.25949049 34.96593327 -33 36 C-33 32.37 -33 28.74 -33 25 C-28.80866878 22.90433439 -27.68835147 22.84662483 -23.25 23.375 C-21.77273437 23.54128906 -21.77273437 23.54128906 -20.265625 23.7109375 C-19.51796875 23.80632813 -18.7703125 23.90171875 -18 24 C-17.90912109 22.86111328 -17.90912109 22.86111328 -17.81640625 21.69921875 C-17.73261719 20.70535156 -17.64882813 19.71148437 -17.5625 18.6875 C-17.48128906 17.70136719 -17.40007813 16.71523438 -17.31640625 15.69921875 C-17 13 -17 13 -16 10 C-11.38 10 -6.76 10 -2 10 C-2 7.69 -2 5.38 -2 3 C-1.34 2.01 -0.68 1.02 0 0 Z " fill="#1BCDEF" transform="translate(72,23)"/>
<path d="M0 0 C2.75 -0.328125 2.75 -0.328125 6 -0.25 C7.0725 -0.23453125 8.145 -0.2190625 9.25 -0.203125 C12 0 12 0 14 1 C14 1.66 14 2.32 14 3 C13.01 3 12.02 3 11 3 C11.33 21.15 11.66 39.3 12 58 C8.04 58 4.08 58 0 58 C-0.33 43.15 -0.66 28.3 -1 13 C-3.31 13.33 -5.62 13.66 -8 14 C-9.64485066 14.06056151 -11.29172957 14.08781955 -12.9375 14.0625 C-13.70964844 14.05347656 -14.48179688 14.04445313 -15.27734375 14.03515625 C-15.84582031 14.02355469 -16.41429687 14.01195312 -17 14 C-16.67 12.68 -16.34 11.36 -16 10 C-11.38 10 -6.76 10 -2 10 C-2 7.69 -2 5.38 -2 3 C-1.34 2.01 -0.68 1.02 0 0 Z " fill="#64EEF7" transform="translate(72,23)"/>
<path d="M0 0 C0.66 0 1.32 0 2 0 C3.46098845 2.9219769 3.11134901 5.49893475 3.09765625 8.7578125 C3.0962413 9.42086395 3.09482635 10.08391541 3.09336853 10.76705933 C3.08776754 12.88641863 3.075215 15.00567259 3.0625 17.125 C3.05748512 18.56119639 3.05292219 19.99739444 3.04882812 21.43359375 C3.03864833 24.95580248 3.01907338 28.47778321 3 32 C7.62 32 12.24 32 17 32 C16.505 32.99 16.505 32.99 16 34 C5.66666667 34 -4.66666667 34 -15 34 C-17.11588667 34.02332445 -19.23177187 34.04678116 -21.34765625 34.0703125 C-23.91926786 34.08895702 -26.49088263 34.10716808 -29.0625 34.125 C-30.36767578 34.14175781 -31.67285156 34.15851563 -33.01757812 34.17578125 C-34.26087891 34.18222656 -35.50417969 34.18867187 -36.78515625 34.1953125 C-37.92863525 34.20578613 -39.07211426 34.21625977 -40.25024414 34.22705078 C-43 34 -43 34 -45 32 C-45.265625 29.90625 -45.265625 29.90625 -45.25 27.5 C-45.25515625 26.7059375 -45.2603125 25.911875 -45.265625 25.09375 C-45 23 -45 23 -43 21 C-40.21484375 20.76953125 -40.21484375 20.76953125 -36.9375 20.8125 C-35.31134766 20.82216797 -35.31134766 20.82216797 -33.65234375 20.83203125 C-31 21 -31 21 -30 22 C-29.67 18.7 -29.34 15.4 -29 12 C-23.39 12 -17.78 12 -12 12 C-12 18.6 -12 25.2 -12 32 C-8.04 32 -4.08 32 0 32 C0 21.44 0 10.88 0 0 Z " fill="#0A74EA" transform="translate(53,49)"/>
<path d="M0 0 C-0.33 11.22 -0.66 22.44 -1 34 C-4.96 34 -8.92 34 -13 34 C-13 27.4 -13 20.8 -13 14 C-15.64 14.33 -18.28 14.66 -21 15 C-23.75 14.87890625 -23.75 14.87890625 -26 14.5625 C-26.763125 14.46066406 -27.52625 14.35882813 -28.3125 14.25390625 C-28.869375 14.17011719 -29.42625 14.08632813 -30 14 C-29.67 12.68 -29.34 11.36 -29 10 C-25.37 10 -21.74 10 -18 10 C-17.67 7.03 -17.34 4.06 -17 1 C-16.67 1 -16.34 1 -16 1 C-16.01160156 1.71027344 -16.02320313 2.42054687 -16.03515625 3.15234375 C-16.04417969 4.07144531 -16.05320312 4.99054687 -16.0625 5.9375 C-16.07410156 6.85402344 -16.08570313 7.77054688 -16.09765625 8.71484375 C-16.25949049 10.96593327 -16.25949049 10.96593327 -15 12 C-15.03480469 11.22914062 -15.06960937 10.45828125 -15.10546875 9.6640625 C-15.13253906 8.66117188 -15.15960938 7.65828125 -15.1875 6.625 C-15.22230469 5.62726562 -15.25710937 4.62953125 -15.29296875 3.6015625 C-15.14794922 2.31378906 -15.14794922 2.31378906 -15 1 C-12 -1 -12 -1 0 0 Z " fill="#15B3F0" transform="translate(54,47)"/>
<path d="M0 0 C0.02691685 2.45840605 0.04679802 4.91651882 0.0625 7.375 C0.07087891 8.07367188 0.07925781 8.77234375 0.08789062 9.4921875 C0.11328125 14.7734375 0.11328125 14.7734375 -1 17 C-1.598125 16.835 -2.19625 16.67 -2.8125 16.5 C-5.11344336 15.8885876 -5.11344336 15.8885876 -8 16 C-9.84126251 17.50718965 -9.84126251 17.50718965 -11.65234375 19.53515625 C-12.69358398 20.62473633 -12.69358398 20.62473633 -13.75585938 21.73632812 C-15.21041247 23.28724373 -16.66094235 24.84194239 -18.10742188 26.40039062 C-18.80287109 27.12548828 -19.49832031 27.85058594 -20.21484375 28.59765625 C-20.84511475 29.27320557 -21.47538574 29.94875488 -22.12475586 30.64477539 C-24 32 -24 32 -26.09204102 31.82592773 C-28.75726364 30.67219157 -30.2313536 29.29268978 -32 27 C-31.67242994 23.34441237 -29.96284106 21.60938812 -27.40234375 19.109375 C-26.68369141 18.40039062 -25.96503906 17.69140625 -25.22460938 16.9609375 C-24.46986328 16.23132813 -23.71511719 15.50171875 -22.9375 14.75 C-21.79958008 13.63238281 -21.79958008 13.63238281 -20.63867188 12.4921875 C-18.76567793 10.65453306 -16.88604389 8.82424276 -15 7 C-15.66 6.01 -16.32 5.02 -17 4 C-16.625 1.8125 -16.625 1.8125 -16 0 C-14.08416353 -0.1958009 -12.16727461 -0.38132214 -10.25 -0.5625 C-8.64898437 -0.71912109 -8.64898437 -0.71912109 -7.015625 -0.87890625 C-4.35858796 -0.98560074 -2.50039428 -0.81930395 0 0 Z " fill="#7AF9FC" transform="translate(45,14)"/>
<path d="M0 0 C0.66 0 1.32 0 2 0 C3.46098845 2.9219769 3.11134901 5.49893475 3.09765625 8.7578125 C3.0962413 9.42086395 3.09482635 10.08391541 3.09336853 10.76705933 C3.08776754 12.88641863 3.075215 15.00567259 3.0625 17.125 C3.05748512 18.56119639 3.05292219 19.99739444 3.04882812 21.43359375 C3.03864833 24.95580248 3.01907338 28.47778321 3 32 C7.62 32 12.24 32 17 32 C16.505 32.99 16.505 32.99 16 34 C5.66666667 34 -4.66666667 34 -15 34 C-17.11588667 34.02332445 -19.23177187 34.04678116 -21.34765625 34.0703125 C-23.91926786 34.08895702 -26.49088263 34.10716808 -29.0625 34.125 C-30.36767578 34.14175781 -31.67285156 34.15851563 -33.01757812 34.17578125 C-34.26087891 34.18222656 -35.50417969 34.18867187 -36.78515625 34.1953125 C-37.92863525 34.20578613 -39.07211426 34.21625977 -40.25024414 34.22705078 C-43 34 -43 34 -45 32 C-45.26991906 29.31160615 -45.08737357 26.70858064 -45 24 C-43.35 24 -41.7 24 -40 24 C-40.020625 24.969375 -40.04125 25.93875 -40.0625 26.9375 C-40.35618499 29.87465895 -40.35618499 29.87465895 -39 31 C-37.65252916 31.23075082 -36.29622435 31.41153063 -34.9375 31.5625 C-33.638125 31.706875 -32.33875 31.85125 -31 32 C-31 29.36 -31 26.72 -31 24 C-29.68 24.33 -28.36 24.66 -27 25 C-27 27.31 -27 29.62 -27 32 C-23.04 32 -19.08 32 -15 32 C-15 25.4 -15 18.8 -15 12 C-14.01 12 -13.02 12 -12 12 C-12 18.6 -12 25.2 -12 32 C-8.04 32 -4.08 32 0 32 C0 21.44 0 10.88 0 0 Z " fill="#1F62B8" transform="translate(53,49)"/>
<path d="M0 0 C1.65 0 3.3 0 5 0 C6.7538308 18.40356226 7.26062021 36.52804176 7 55 C5.35 55 3.7 55 2 55 C1.67 40.15 1.34 25.3 1 10 C-1.31 10.33 -3.62 10.66 -6 11 C-7.64485066 11.06056151 -9.29172957 11.08781955 -10.9375 11.0625 C-11.70964844 11.05347656 -12.48179688 11.04445313 -13.27734375 11.03515625 C-13.84582031 11.02355469 -14.41429687 11.01195312 -15 11 C-14.67 9.68 -14.34 8.36 -14 7 C-9.38 7 -4.76 7 0 7 C0 4.69 0 2.38 0 0 Z " fill="#5EF0FA" transform="translate(70,26)"/>
<path d="M0 0 C0.99 0 1.98 0 3 0 C3 19.14 3 38.28 3 58 C-3.93 57.505 -3.93 57.505 -11 57 C-13.04514127 53.93228809 -13.24827274 53.34431952 -13.22705078 49.89575195 C-13.22689972 49.07512772 -13.22674866 48.25450348 -13.22659302 47.40901184 C-13.21627045 46.52767075 -13.20594788 45.64632965 -13.1953125 44.73828125 C-13.1924826 43.83248825 -13.18965271 42.92669525 -13.18673706 41.99345398 C-13.17553964 39.09966842 -13.15043589 36.20619206 -13.125 33.3125 C-13.11496963 31.35091593 -13.10584388 29.389327 -13.09765625 27.42773438 C-13.07560173 22.6183704 -13.04107489 17.80923763 -13 13 C-12.34 13 -11.68 13 -11 13 C-11 26.86 -11 40.72 -11 55 C-7.04 55 -3.08 55 1 55 C0.75552124 52.60850708 0.75552124 52.60850708 0.50610352 50.16870117 C-0.00471029 44.52992714 -0.12990289 38.95923234 -0.09765625 33.30078125 C-0.0962413 32.3397197 -0.09482635 31.37865814 -0.09336853 30.38847351 C-0.08783675 27.36311534 -0.07529773 24.33783525 -0.0625 21.3125 C-0.05747616 19.24283962 -0.05291481 17.17317807 -0.04882812 15.10351562 C-0.03788981 10.068981 -0.02067362 5.03450367 0 0 Z " fill="#43A2BC" transform="translate(83,26)"/>
<path d="M0 0 C0.99 0 1.98 0 3 0 C2.67 14.52 2.34 29.04 2 44 C-0.48754786 45.24377393 -2.22655301 45.13306235 -5 45.125 C-5.886875 45.12757812 -6.77375 45.13015625 -7.6875 45.1328125 C-10 45 -10 45 -12 44 C-12 34.76 -12 25.52 -12 16 C-11.34 16 -10.68 16 -10 16 C-8.83760438 24.96705193 -8.45755984 33.97536234 -8 43 C-5.69 43.33 -3.38 43.66 -1 44 C-1.00523682 43.41323486 -1.01047363 42.82646973 -1.01586914 42.22192383 C-1.12408528 28.11136057 -0.81412916 14.08734215 0 0 Z " fill="#10ACDE" transform="translate(68,37)"/>
<path d="M0 0 C1.98 0 3.96 0 6 0 C5.01 0.33 4.02 0.66 3 1 C3.33 19.15 3.66 37.3 4 56 C2.35 56 0.7 56 -1 56 C-0.67 37.52 -0.34 19.04 0 0 Z " fill="#4BDDEC" transform="translate(80,25)"/>
<path d="M0 0 C0.33 0 0.66 0 1 0 C1.02887814 3.47914941 1.04675687 6.95826831 1.0625 10.4375 C1.07087891 11.43072266 1.07925781 12.42394531 1.08789062 13.44726562 C1.09272461 14.86362305 1.09272461 14.86362305 1.09765625 16.30859375 C1.10551147 17.62041626 1.10551147 17.62041626 1.11352539 18.95874023 C1 21 1 21 0 22 C-4.64015325 22.2541555 -9.29121306 22.18522798 -13.9375 22.1875 C-15.25169922 22.19974609 -16.56589844 22.21199219 -17.91992188 22.22460938 C-19.17224609 22.22654297 -20.42457031 22.22847656 -21.71484375 22.23046875 C-23.44915649 22.23663208 -23.44915649 22.23663208 -25.21850586 22.24291992 C-28 22 -28 22 -30 20 C-30.26991906 17.31160615 -30.08737357 14.70858064 -30 12 C-28.35 12 -26.7 12 -25 12 C-25.020625 12.969375 -25.04125 13.93875 -25.0625 14.9375 C-25.35618499 17.87465895 -25.35618499 17.87465895 -24 19 C-22.65252916 19.23075082 -21.29622435 19.41153063 -19.9375 19.5625 C-18.638125 19.706875 -17.33875 19.85125 -16 20 C-16 17.36 -16 14.72 -16 12 C-14.68 12.33 -13.36 12.66 -12 13 C-12 15.31 -12 17.62 -12 20 C-8.04 20 -4.08 20 0 20 C0 13.4 0 6.8 0 0 Z " fill="#1F42A0" transform="translate(38,61)"/>
<path d="M0 0 C0.99 0 1.98 0 3 0 C3.13651983 14.69863461 2.75785359 29.32061786 2 44 C1.01 43.67 0.02 43.34 -1 43 C-1.11352035 28.62657682 -1.02565369 14.34083646 0 0 Z " fill="#16BBE6" transform="translate(65,37)"/>
<path d="M0 0 C2.8203125 -0.29296875 2.8203125 -0.29296875 6.125 -0.1875 C7.76855469 -0.14689453 7.76855469 -0.14689453 9.4453125 -0.10546875 C10.28835937 -0.07066406 11.13140625 -0.03585938 12 0 C13.35015859 4.05047576 12.62084998 6.7920168 12 11 C5.9453125 11.1953125 5.9453125 11.1953125 4 11 C3.34 10.34 2.68 9.68 2 9 C2.375 5.875 2.375 5.875 3 3 C1.35 3 -0.3 3 -2 3 C-1.34 2.01 -0.68 1.02 0 0 Z " fill="#3777D9" transform="translate(10,70)"/>
<path d="M0 0 C6.36001046 6.36001046 4.04190763 19.71710113 4.0637207 28.34741211 C4.06194659 33.56509076 4.03853419 38.78247013 4 44 C3.01 44 2.02 44 1 44 C0.67 29.48 0.34 14.96 0 0 Z " fill="#2DDDED" transform="translate(71,37)"/>
<path d="M0 0 C0.99 0 1.98 0 3 0 C2.67 14.52 2.34 29.04 2 44 C1.34 44 0.68 44 0 44 C0 29.48 0 14.96 0 0 Z " fill="#048ECD" transform="translate(68,37)"/>
<path d="M0 0 C0.33 0 0.66 0 1 0 C0.98839844 0.71027344 0.97679687 1.42054687 0.96484375 2.15234375 C0.95582031 3.07144531 0.94679688 3.99054687 0.9375 4.9375 C0.92589844 5.85402344 0.91429687 6.77054688 0.90234375 7.71484375 C0.74050951 9.96593327 0.74050951 9.96593327 2 11 C2 7.7 2 4.4 2 1 C2.66 1 3.32 1 4 1 C4 4.96 4 8.92 4 13 C-1.93024803 13.97040422 -7.06390334 13.89316269 -13 13 C-12.67 11.68 -12.34 10.36 -12 9 C-8.37 9 -4.74 9 -1 9 C-0.67 6.03 -0.34 3.06 0 0 Z " fill="#59B3F0" transform="translate(37,48)"/>
<path d="M0 0 C4.13533231 4.13533231 3.06388591 11.6010342 3.09765625 17.125 C3.09106073 19.75001787 3.07921139 22.37502704 3.0625 25 C3.05747487 26.36067544 3.05291376 27.72135267 3.04882812 29.08203125 C3.03710459 32.38806725 3.02069427 35.69401001 3 39 C2.34 39 1.68 39 1 39 C0.82897375 34.93767164 0.66401182 30.87511713 0.5 26.8125 C0.45230469 25.68134766 0.40460938 24.55019531 0.35546875 23.38476562 C0.04438094 15.58534972 -0.05818215 7.80529668 0 0 Z " fill="#52EBF5" transform="translate(74,42)"/>
<path d="M0 0 C0.66 0.33 1.32 0.66 2 1 C1.67 11.56 1.34 22.12 1 33 C0.01 32.67 -0.98 32.34 -2 32 C-2.13311716 24.58981159 -1.92912155 17.21241163 -1.5625 9.8125 C-1.52326416 8.96260498 -1.48402832 8.11270996 -1.44360352 7.23706055 C-1.12008893 1.12008893 -1.12008893 1.12008893 0 0 Z " fill="#0896E9" transform="translate(52,48)"/>
<path d="M0 0 C1.32 0.66 2.64 1.32 4 2 C4 2.66 4 3.32 4 4 C4.66 4.33 5.32 4.66 6 5 C5.401875 4.835 4.80375 4.67 4.1875 4.5 C1.88655664 3.8885876 1.88655664 3.8885876 -1 4 C-2.84126251 5.50718965 -2.84126251 5.50718965 -4.65234375 7.53515625 C-5.69358398 8.62473633 -5.69358398 8.62473633 -6.75585938 9.73632812 C-8.21041247 11.28724373 -9.66094235 12.84194239 -11.10742188 14.40039062 C-11.80287109 15.12548828 -12.49832031 15.85058594 -13.21484375 16.59765625 C-13.84511475 17.27320557 -14.47538574 17.94875488 -15.12475586 18.64477539 C-17 20 -17 20 -19.09594727 19.87280273 C-21.90204761 18.5865085 -23.22945571 16.46611526 -25 14 C-23.0625 14.375 -23.0625 14.375 -21 15 C-20.67 15.66 -20.34 16.32 -20 17 C-16.33622257 16.42619828 -14.67232775 15.02730342 -12.109375 12.40234375 C-11.40039062 11.68369141 -10.69140625 10.96503906 -9.9609375 10.22460938 C-9.23132812 9.46986328 -8.50171875 8.71511719 -7.75 7.9375 C-6.63238281 6.79958008 -6.63238281 6.79958008 -5.4921875 5.63867188 C-3.65453306 3.76567793 -1.82424276 1.88604389 0 0 Z " fill="#4FBACD" transform="translate(38,26)"/>
<path d="M0 0 C0.33 0 0.66 0 1 0 C1 19.14 1 38.28 1 58 C0.67 58 0.34 58 0 58 C0 38.86 0 19.72 0 0 Z " fill="#3AC9DD" transform="translate(87,24)"/>
<path d="M0 0 C0 0.66 0 1.32 0 2 C-10.37883008 4.53252499 -10.37883008 4.53252499 -14 4 C-15.8125 2.5 -15.8125 2.5 -17 1 C-15.21873911 -0.78126089 -12.60537435 -0.42034316 -10.1875 -0.625 C-9.12917969 -0.72039063 -8.07085937 -0.81578125 -6.98046875 -0.9140625 C-4.35673078 -0.98971418 -2.47294346 -0.80235938 0 0 Z " fill="#A0FDFD" transform="translate(45,14)"/>
<path d="M0 0 C1.95803507 -0.05389087 3.91648909 -0.09274217 5.875 -0.125 C7.51082031 -0.15980469 7.51082031 -0.15980469 9.1796875 -0.1953125 C12 0 12 0 14 2 C11.36 2.66 8.72 3.32 6 4 C5.34 6.97 4.68 9.94 4 13 C3.67 13 3.34 13 3 13 C3 9.7 3 6.4 3 3 C1.68 3 0.36 3 -1 3 C-0.67 2.01 -0.34 1.02 0 0 Z " fill="#97F9FD" transform="translate(72,23)"/>
<path d="M0 0 C0.99 0 1.98 0 3 0 C2.97679687 0.80824219 2.95359375 1.61648437 2.9296875 2.44921875 C2.91164063 3.51785156 2.89359375 4.58648437 2.875 5.6875 C2.84019531 7.27111328 2.84019531 7.27111328 2.8046875 8.88671875 C3.00279423 12.04454005 3.75564627 14.12426914 5 17 C5 17.99 5 18.98 5 20 C4.01 20 3.02 20 2 20 C1.87625 18.88625 1.7525 17.7725 1.625 16.625 C1.3534187 12.96896323 1.3534187 12.96896323 -1 11 C-0.9765625 8.3984375 -0.9765625 8.3984375 -0.625 5.375 C-0.51414062 4.37210937 -0.40328125 3.36921875 -0.2890625 2.3359375 C-0.19367187 1.56507812 -0.09828125 0.79421875 0 0 Z " fill="#1665D6" transform="translate(24,61)"/>
<path d="M0 0 C0.99 0.495 0.99 0.495 2 1 C2.33 6.94 2.66 12.88 3 19 C2.01 19 1.02 19 0 19 C0 12.73 0 6.46 0 0 Z " fill="#0592E6" transform="translate(41,62)"/>
<path d="M0 0 C0.33 0 0.66 0 1 0 C1 4.29 1 8.58 1 13 C0.01 13.33 -0.98 13.66 -2 14 C-3.32 12.35 -4.64 10.7 -6 9 C-2.25 6 -2.25 6 0 6 C0 4.02 0 2.04 0 0 Z " fill="#52F3FC" transform="translate(44,16)"/>
<path d="M0 0 C0.66 0.66 1.32 1.32 2 2 C-2.95 6.95 -7.9 11.9 -13 17 C-13.66 16.67 -14.32 16.34 -15 16 C-14.58113525 15.58637207 -14.16227051 15.17274414 -13.73071289 14.74658203 C-11.83870591 12.87533169 -9.95056815 11.00022415 -8.0625 9.125 C-7.40314453 8.47402344 -6.74378906 7.82304687 -6.06445312 7.15234375 C-5.43603516 6.52714844 -4.80761719 5.90195312 -4.16015625 5.2578125 C-3.57886963 4.6817627 -2.99758301 4.10571289 -2.39868164 3.51220703 C-0.90048064 2.03347525 -0.90048064 2.03347525 0 0 Z " fill="#ADFAFB" transform="translate(28,19)"/>
<path d="M0 0 C0.99 0 1.98 0 3 0 C2.979375 0.94875 2.95875 1.8975 2.9375 2.875 C2.77448174 5.90666283 2.77448174 5.90666283 4 8 C2.68 8 1.36 8 0 8 C0 5.36 0 2.72 0 0 Z " fill="#093FAE" transform="translate(10,73)"/>
<path d="M0 0 C0.33 0 0.66 0 1 0 C1 3.3 1 6.6 1 10 C-3.29 9.67 -7.58 9.34 -12 9 C-12 8.67 -12 8.34 -12 8 C-8.04 8 -4.08 8 0 8 C0 5.36 0 2.72 0 0 Z " fill="#8EB6EC" transform="translate(22,60)"/>
<path d="M0 0 C1.32 0.66 2.64 1.32 4 2 C4 2.66 4 3.32 4 4 C4.66 4.33 5.32 4.66 6 5 C5.401875 4.835 4.80375 4.67 4.1875 4.5 C1.88655664 3.8885876 1.88655664 3.8885876 -1 4 C-1.99 4.66 -2.98 5.32 -4 6 C-2.84826645 3.53199953 -1.95216435 1.95216435 0 0 Z " fill="#4CABC4" transform="translate(38,26)"/>
<path d="M0 0 C1.485 0.99 1.485 0.99 3 2 C3.6875 5.625 3.6875 5.625 4 9 C3.01 9 2.02 9 1 9 C0.67 6.03 0.34 3.06 0 0 Z " fill="#055CD8" transform="translate(25,72)"/>
<path d="M0 0 C0.33 0 0.66 0 1 0 C1 4.29 1 8.58 1 13 C0.01 13.33 -0.98 13.66 -2 14 C-1.34 9.38 -0.68 4.76 0 0 Z " fill="#30CDE7" transform="translate(44,16)"/>
<path d="M0 0 C0.33 0 0.66 0 1 0 C1 4.29 1 8.58 1 13 C0.67 13 0.34 13 0 13 C0 8.71 0 4.42 0 0 Z " fill="#46E1F2" transform="translate(46,14)"/>
<path d="M0 0 C3.96 0 7.92 0 12 0 C12 0.33 12 0.66 12 1 C8.04 1 4.08 1 0 1 C0 0.67 0 0.34 0 0 Z " fill="#43B4C0" transform="translate(72,84)"/>
<path d="M0 0 C3.96 0 7.92 0 12 0 C12 0.33 12 0.66 12 1 C8.04 1 4.08 1 0 1 C0 0.67 0 0.34 0 0 Z " fill="#258CB8" transform="translate(57,84)"/>
<path d="M0 0 C3.96 0 7.92 0 12 0 C12 0.33 12 0.66 12 1 C8.04 1 4.08 1 0 1 C0 0.67 0 0.34 0 0 Z " fill="#1F70B9" transform="translate(41,84)"/>
<path d="M0 0 C3.96 0 7.92 0 12 0 C12 0.33 12 0.66 12 1 C8.04 1 4.08 1 0 1 C0 0.67 0 0.34 0 0 Z " fill="#1D4DAF" transform="translate(26,84)"/>
<path d="M0 0 C3.96 0 7.92 0 12 0 C12 0.33 12 0.66 12 1 C8.04 1 4.08 1 0 1 C0 0.67 0 0.34 0 0 Z " fill="#1C377B" transform="translate(10,84)"/>
<path d="M0 0 C3.96 0 7.92 0 12 0 C12 0.33 12 0.66 12 1 C8.04 1 4.08 1 0 1 C0 0.67 0 0.34 0 0 Z " fill="#C5FDFD" transform="translate(72,21)"/>
<path d="M0 0 C3.96 0 7.92 0 12 0 C12 0.33 12 0.66 12 1 C8.04 1 4.08 1 0 1 C0 0.67 0 0.34 0 0 Z " fill="#A3FDFD" transform="translate(29,12)"/>
<path d="M0 0 C0.33 0 0.66 0 1 0 C1 3.3 1 6.6 1 10 C0.67 10 0.34 10 0 10 C0 6.7 0 3.4 0 0 Z " fill="#2CC7EC" transform="translate(53,36)"/>
<path d="M0 0 C0.33 0 0.66 0 1 0 C1 2.97 1 5.94 1 9 C0.67 9 0.34 9 0 9 C0 6.03 0 3.06 0 0 Z " fill="#2D519C" transform="translate(6,72)"/>
<path d="M0 0 C0.33 0 0.66 0 1 0 C1 1.98 1 3.96 1 6 C0.67 6 0.34 6 0 6 C0 4.02 0 2.04 0 0 Z " fill="#6AEAF5" transform="translate(68,26)"/>
<path d="M0 0 C4 1 4 1 4 1 Z " fill="#CFF0FD" transform="translate(30,56)"/>
<path d="M0 0 C3 1 3 1 3 1 Z " fill="#5BA5B8" transform="translate(18,47)"/>
<path d="" fill="#7FCDD3" transform="translate(0,0)"/>
<path d="M0 0 C2 1 2 1 2 1 Z " fill="#1E298C" transform="translate(24,83)"/>
<path d="M0 0 C2 1 2 1 2 1 Z " fill="#52CDFD" transform="translate(40,45)"/>
<path d="" fill="#99F7FC" transform="translate(0,0)"/>
<path d="" fill="#87FCFE" transform="translate(0,0)"/>
<path d="M0 0 C2 1 2 1 2 1 Z " fill="#7BE6F8" transform="translate(84,22)"/>
<path d="" fill="#7EE7F2" transform="translate(0,0)"/>
<path d="M0 0 C2 1 2 1 2 1 Z " fill="#64FCFD" transform="translate(43,12)"/>
<path d="" fill="#3292A9" transform="translate(0,0)"/>
<path d="" fill="#2A83B1" transform="translate(0,0)"/>
<path d="" fill="#0079C9" transform="translate(0,0)"/>
<path d="" fill="#006DDD" transform="translate(0,0)"/>
<path d="" fill="#1F53A9" transform="translate(0,0)"/>
<path d="" fill="#325CBF" transform="translate(0,0)"/>
<path d="" fill="#10339D" transform="translate(0,0)"/>
<path d="" fill="#1C3881" transform="translate(0,0)"/>
<path d="" fill="#4FB6C3" transform="translate(0,0)"/>
<path d="" fill="#1E84B1" transform="translate(0,0)"/>
<path d="" fill="#0023C8" transform="translate(0,0)"/>
<path d="" fill="#001653" transform="translate(0,0)"/>
<path d="" fill="#87B6EE" transform="translate(0,0)"/>
<path d="" fill="#AFD0F2" transform="translate(0,0)"/>
<path d="" fill="#A1E3FA" transform="translate(0,0)"/>
<path d="" fill="#3BBBD9" transform="translate(0,0)"/>
<path d="" fill="#76A2A5" transform="translate(0,0)"/>
<path d="" fill="#2CC1DE" transform="translate(0,0)"/>
<path d="" fill="#72A2A6" transform="translate(0,0)"/>
<path d="" fill="#29C8E6" transform="translate(0,0)"/>
<path d="" fill="#71A4A6" transform="translate(0,0)"/>
<path d="" fill="#29C9E6" transform="translate(0,0)"/>
<path d="" fill="#73A7A7" transform="translate(0,0)"/>
<path d="" fill="#2ACAE6" transform="translate(0,0)"/>
<path d="" fill="#75A9AC" transform="translate(0,0)"/>
<path d="" fill="#27C9E7" transform="translate(0,0)"/>
<path d="" fill="#72A3A7" transform="translate(0,0)"/>
<path d="" fill="#27C9E6" transform="translate(0,0)"/>
<path d="" fill="#26CBE8" transform="translate(0,0)"/>
<path d="" fill="#24CAE8" transform="translate(0,0)"/>
<path d="" fill="#24CBE8" transform="translate(0,0)"/>
<path d="" fill="#24CCE9" transform="translate(0,0)"/>
<path d="" fill="#23CBE9" transform="translate(0,0)"/>
<path d="" fill="#23CCE9" transform="translate(0,0)"/>
<path d="" fill="#22CBE8" transform="translate(0,0)"/>
<path d="" fill="#529CB9" transform="translate(0,0)"/>
<path d="" fill="#20CBE8" transform="translate(0,0)"/>
<path d="" fill="#6093A6" transform="translate(0,0)"/>
<path d="" fill="#21CCE8" transform="translate(0,0)"/>
<path d="" fill="#5C94A7" transform="translate(0,0)"/>
<path d="" fill="#20C9E6" transform="translate(0,0)"/>
<path d="" fill="#179DC8" transform="translate(0,0)"/>
<path d="" fill="#35AFC9" transform="translate(0,0)"/>
<path d="" fill="#D9FAFE" transform="translate(0,0)"/>
<path d="" fill="#CEFEFE" transform="translate(0,0)"/>
<path d="" fill="#59C6D0" transform="translate(0,0)"/>
<path d="" fill="#AFF7FD" transform="translate(0,0)"/>
<path d="" fill="#B2F5FB" transform="translate(0,0)"/>
</svg>
