<?xml version="1.0" encoding="UTF-8"?>
<svg version="1.1" xmlns="http://www.w3.org/2000/svg" width="32" height="32">
<path d="M0 0 C1.8253125 -0.00386719 1.8253125 -0.00386719 3.6875 -0.0078125 C7 0.125 7 0.125 11 1.125 C11 8.385 11 15.645 11 23.125 C3.74 23.125 -3.52 23.125 -11 23.125 C-11 21.805 -11 20.485 -11 19.125 C-11.99 19.125 -12.98 19.125 -14 19.125 C-13.86722656 18.41214844 -13.73445312 17.69929688 -13.59765625 16.96484375 C-12.62594212 11.69489045 -11.7082546 6.4369095 -11 1.125 C-7.3226718 -0.03335838 -3.83678577 -0.00812878 0 0 Z M-9 3.125 C-9 3.785 -9 4.445 -9 5.125 C-3.06 5.125 2.88 5.125 9 5.125 C9 4.465 9 3.805 9 3.125 C3.06 3.125 -2.88 3.125 -9 3.125 Z M-9 7.125 C-9.33 10.425 -9.66 13.725 -10 17.125 C-7.37438891 17.20574203 -4.75124324 17.2653623 -2.125 17.3125 C-1.37863281 17.33763672 -0.63226563 17.36277344 0.13671875 17.38867188 C2.56221828 17.4548764 2.56221828 17.4548764 6 17.125 C8.56873679 13.73930493 8.56873679 13.73930493 9 7.125 C3.06 7.125 -2.88 7.125 -9 7.125 Z M-9 19.125 C-9 19.785 -9 20.445 -9 21.125 C-3.06 21.125 2.88 21.125 9 21.125 C9 20.465 9 19.805 9 19.125 C3.06 19.125 -2.88 19.125 -9 19.125 Z " fill="#191919" transform="translate(16,3.875)"/>
<path d="M0 0 C0.99 0 1.98 0 3 0 C3 0.66 3 1.32 3 2 C2.01 2 1.02 2 0 2 C0 1.34 0 0.68 0 0 Z " fill="#191919" transform="translate(16,17)"/>
<path d="M0 0 C0.99 0 1.98 0 3 0 C3 0.66 3 1.32 3 2 C2.01 2 1.02 2 0 2 C0 1.34 0 0.68 0 0 Z " fill="#191919" transform="translate(12,17)"/>
<path d="M0 0 C0.99 0 1.98 0 3 0 C3 0.66 3 1.32 3 2 C2.01 2 1.02 2 0 2 C0 1.34 0 0.68 0 0 Z " fill="#191919" transform="translate(8,17)"/>
<path d="M0 0 C0.66 0 1.32 0 2 0 C2 0.66 2 1.32 2 2 C1.34 2 0.68 2 0 2 C0 1.34 0 0.68 0 0 Z " fill="#1A1A1A" transform="translate(21,13)"/>
<path d="M0 0 C0.66 0 1.32 0 2 0 C2 0.66 2 1.32 2 2 C1.34 2 0.68 2 0 2 C0 1.34 0 0.68 0 0 Z " fill="#1A1A1A" transform="translate(17,13)"/>
<path d="M0 0 C0.66 0 1.32 0 2 0 C2 0.66 2 1.32 2 2 C1.34 2 0.68 2 0 2 C0 1.34 0 0.68 0 0 Z " fill="#1A1A1A" transform="translate(13,13)"/>
<path d="M0 0 C0.66 0 1.32 0 2 0 C2 0.66 2 1.32 2 2 C1.34 2 0.68 2 0 2 C0 1.34 0 0.68 0 0 Z " fill="#1A1A1A" transform="translate(9,13)"/>
</svg>
