<?xml version="1.0" encoding="UTF-8"?>
<svg version="1.1" xmlns="http://www.w3.org/2000/svg" width="64" height="64">
<path d="M0 0 C1.32 0.66 2.64 1.32 4 2 C4 17.51 4 33.02 4 49 C-1.28 49 -6.56 49 -12 49 C-12 47.35 -12 45.7 -12 44 C-8.37 44 -4.74 44 -1 44 C-1 43.34 -1 42.68 -1 42 C-4.63 42 -8.26 42 -12 42 C-12 40.68 -12 39.36 -12 38 C-8.37 38 -4.74 38 -1 38 C-1 37.34 -1 36.68 -1 36 C-4.63 36 -8.26 36 -12 36 C-12 27.09 -12 18.18 -12 9 C-8.04 9 -4.08 9 0 9 C0 8.34 0 7.68 0 7 C-3.96 7 -7.92 7 -12 7 C-12 5.35 -12 3.7 -12 2 C-8.28165469 -0.47889687 -4.32320112 -0.57417515 0 0 Z " fill="#FFFFFF" transform="translate(19,7)"/>
<path d="M0 0 C4.12974965 2.06487482 6.29527061 3.7458555 8 8 C8.7121481 13.01815989 8.52912753 16.94174495 6.25 21.5 C3.55891188 24.49009791 1.62679122 25.76913524 -2.3671875 26.3359375 C-8.08522757 26.42500354 -11.56237048 25.99386657 -16 22 C-18.73957509 17.559999 -18.65531007 13.06666568 -18 8 C-13.98902931 -0.02194138 -8.43057162 -1.09038939 0 0 Z M0 9 C-0.515625 9.66 -1.03125 10.32 -1.5625 11 C-4.79995755 13.65637543 -6.92552281 13.31342132 -11 13 C-9.68 14.65 -8.36 16.3 -7 18 C-2.7257442 16.4169423 -0.73468206 13.49431596 2 10 C1.34 9.67 0.68 9.34 0 9 Z " fill="#FFFFFF" transform="translate(56,38)"/>
<path d="M0 0 C0.9796875 -0.00257813 1.959375 -0.00515625 2.96875 -0.0078125 C5.5 0.125 5.5 0.125 7.5 1.125 C7.5 3.105 7.5 5.085 7.5 7.125 C3.87 7.125 0.24 7.125 -3.5 7.125 C-3.5 7.785 -3.5 8.445 -3.5 9.125 C0.13 9.125 3.76 9.125 7.5 9.125 C7.5 16.385 7.5 23.645 7.5 31.125 C3.87 31.125 0.24 31.125 -3.5 31.125 C-4.82 31.455 -6.14 31.785 -7.5 32.125 C-7.5 21.895 -7.5 11.665 -7.5 1.125 C-4.89080172 -0.17959914 -2.91057385 -0.0076594 0 0 Z " fill="#FFFFFF" transform="translate(49.5,6.875)"/>
<path d="M0 0 C1.08152344 -0.01417969 2.16304687 -0.02835938 3.27734375 -0.04296875 C6.0625 0.1875 6.0625 0.1875 8.0625 2.1875 C8.51859055 5.93879412 8.3865046 9.72418979 8.375 13.5 C8.39111328 14.54607422 8.40722656 15.59214844 8.42382812 16.66992188 C8.42447266 17.68248047 8.42511719 18.69503906 8.42578125 19.73828125 C8.43025269 21.12527222 8.43025269 21.12527222 8.43481445 22.5402832 C7.98527088 25.73661174 7.00515071 27.62416124 5.0625 30.1875 C0.98096799 30.87048728 -2.77486593 30.41129753 -6.9375 30.1875 C-6.9375 23.2575 -6.9375 16.3275 -6.9375 9.1875 C-3.6375 9.1875 -0.3375 9.1875 3.0625 9.1875 C3.0625 8.5275 3.0625 7.8675 3.0625 7.1875 C-0.2375 7.1875 -3.5375 7.1875 -6.9375 7.1875 C-6.98004356 5.18795254 -6.97830783 3.18708364 -6.9375 1.1875 C-5.13003866 -0.61996134 -2.43304219 0.01446517 0 0 Z " fill="#FFFFFF" transform="translate(31.9375,16.8125)"/>
<path d="M0 0 C3.63 0 7.26 0 11 0 C11 2.31 11 4.62 11 7 C7.37 7 3.74 7 0 7 C0 4.69 0 2.38 0 0 Z " fill="#FFFFFF" transform="translate(25,49)"/>
</svg>
