<?xml version="1.0" encoding="UTF-8"?>
<svg version="1.1" xmlns="http://www.w3.org/2000/svg" width="50" height="50">
<path d="M0 0 C15.84 0 31.68 0 48 0 C48 11.88 48 23.76 48 36 C32.16 36 16.32 36 0 36 C0 24.12 0 12.24 0 0 Z M15 5 C15 8.3 15 11.6 15 15 C18.3 15 21.6 15 25 15 C24.84876423 12.35337395 24.49998757 10.55721506 22.703125 8.5546875 C19.3230761 5.61396997 19.3230761 5.61396997 15 5 Z M8.875 8.5 C6.5834372 11.55541707 6.40184104 13.35583747 6.625 17.09375 C6.92719931 19.19912072 6.92719931 19.19912072 8.5 21.5 C12.01042517 23.6062551 15.00456889 23.8351106 19 23 C21.54645504 21.29039594 21.54645504 21.29039594 23 19 C23 18.34 23 17.68 23 17 C19.7 17 16.4 17 13 17 C13 13.7 13 10.4 13 7 C10.83880904 6.80777227 10.83880904 6.80777227 8.875 8.5 Z M32 8 C32 8.66 32 9.32 32 10 C34.64 10 37.28 10 40 10 C40 9.34 40 8.68 40 8 C37.36 8 34.72 8 32 8 Z M32 14 C32 14.66 32 15.32 32 16 C34.64 16 37.28 16 40 16 C40 15.34 40 14.68 40 14 C37.36 14 34.72 14 32 14 Z M32 20 C32 20.66 32 21.32 32 22 C34.64 22 37.28 22 40 22 C40 21.34 40 20.68 40 20 C37.36 20 34.72 20 32 20 Z M8 28 C8 28.66 8 29.32 8 30 C13.28 30 18.56 30 24 30 C24 29.34 24 28.68 24 28 C18.72 28 13.44 28 8 28 Z M26 28 C26 28.66 26 29.32 26 30 C30.62 30 35.24 30 40 30 C40 29.34 40 28.68 40 28 C35.38 28 30.76 28 26 28 Z " fill="#FFFFFF" transform="translate(1,7)"/>
</svg>
