<?xml version="1.0" encoding="UTF-8"?>
<svg version="1.1" xmlns="http://www.w3.org/2000/svg" width="512" height="512">
<path d="M0 0 C2.35838488 0.00315227 4.71549993 -0.02037878 7.07373047 -0.0456543 C18.01946963 -0.0912565 28.40558835 1.13314859 39.12451172 3.31567383 C40.07729004 3.50911377 41.03006836 3.70255371 42.01171875 3.90185547 C44.2122196 4.38627539 46.38581673 4.91990625 48.56201172 5.50317383 C49.33657715 5.71039062 50.11114258 5.91760742 50.90917969 6.13110352 C88.04808313 16.56682845 120.37995248 40.47167126 143.12451172 71.31567383 C143.54732422 71.88350586 143.97013672 72.45133789 144.40576172 73.03637695 C169.47245352 107.15057783 175.88169235 146.08011779 175.4574585 187.30059814 C175.42980415 190.44865307 175.42157972 193.59663616 175.41389179 196.74479389 C175.40396727 200.51455579 175.38414096 204.28424303 175.36279297 208.05395508 C175.35939722 208.76673426 175.35600147 209.47951344 175.35250282 210.21389198 C175.34097484 212.21310893 175.32145082 214.21227501 175.30151367 216.21142578 C175.29166946 217.34562454 175.28182526 218.4798233 175.27168274 219.64839172 C175.12451172 222.31567383 175.12451172 222.31567383 174.12451172 224.31567383 C175.00880859 224.58508789 175.89310547 224.85450195 176.80419922 225.13208008 C194.9527499 231.60150462 208.89633833 248.76422455 216.93701172 265.69067383 C232.94718252 301.27446548 231.8712809 342.52239026 218.21337891 378.73120117 C207.71817097 404.91472877 191.74104117 429.13234827 169.12451172 446.31567383 C168.34720703 446.92024414 167.56990234 447.52481445 166.76904297 448.14770508 C155.48696898 456.51949533 138.48692382 466.31567383 124.12451172 466.31567383 C124.30111328 466.85192383 124.47771484 467.38817383 124.65966797 467.94067383 C126.68999976 478.31413372 121.3063711 488.65305041 115.97216797 497.15161133 C110.03126912 505.14328309 100.49876558 509.77593303 91.12451172 512.31567383 C86.50534623 512.85648768 81.93745311 512.86352398 77.29052734 512.83325195 C75.9373042 512.83868585 74.58408698 512.84581556 73.23088074 512.85449219 C69.58819742 512.87257834 65.94597212 512.86571978 62.30328178 512.85297585 C58.47142273 512.84277111 54.63960004 512.85226209 50.80773926 512.85852051 C44.37566161 512.86577535 37.94376833 512.85626638 31.51171875 512.8371582 C24.10037601 512.8153935 16.68947359 512.82244642 9.2781415 512.84446383 C2.88795371 512.86267986 -3.50210237 512.86514601 -9.89230776 512.85470915 C-13.69709255 512.84850812 -17.50167113 512.84754412 -21.30644226 512.8608551 C-24.88541215 512.872504 -28.46382042 512.86422569 -32.04273033 512.84127808 C-33.96445848 512.83356133 -35.88623475 512.84526931 -37.80793762 512.85778809 C-49.87409615 512.74134496 -59.71953854 509.27058758 -68.87548828 501.31567383 C-73.42673503 496.39587037 -78.87548828 490.29110899 -78.87548828 483.31567383 C-79.92736328 483.25379883 -80.97923828 483.19192383 -82.06298828 483.12817383 C-90.99703519 482.00349771 -99.51500645 477.94839027 -106.97314453 473.03833008 C-108.84485583 472.09571628 -108.84485583 472.09571628 -110.63867188 472.91821289 C-113.7163344 474.84099616 -116.07450755 477.34901128 -118.56689453 479.95239258 C-119.68834204 481.09916774 -120.81009719 482.24564213 -121.93212891 483.3918457 C-123.67797553 485.18691229 -125.42046461 486.98496822 -127.15698242 488.7890625 C-139.41480166 501.49274828 -152.69043433 512.23153905 -171.08520508 512.6081543 C-187.07700891 512.72289119 -200.11866675 509.05157527 -212.22314453 498.05786133 C-222.23281138 487.50393363 -227.05255848 474.87536193 -227.06298828 460.56567383 C-227.07523438 459.6968457 -227.08748047 458.82801758 -227.10009766 457.93286133 C-227.10950463 453.75616307 -226.92745599 450.0224978 -225.80126953 445.98754883 C-224.89929817 442.41010967 -224.59306294 440.71971528 -225.87548828 437.31567383 C-227.43318198 435.2445912 -227.43318198 435.2445912 -229.43798828 433.31567383 C-250.82090455 410.1349095 -254.99301611 377.17588412 -254.06201172 346.98364258 C-252.56647504 317.57403116 -241.78796955 288.32713358 -224.87548828 264.31567383 C-224.12783203 263.24961914 -223.38017578 262.18356445 -222.60986328 261.08520508 C-213.14374244 248.21817658 -201.99489688 237.14471959 -188.70361328 228.26879883 C-186.44827666 226.71124591 -184.75029999 225.26796853 -182.87548828 223.31567383 C-183.384104 222.92299316 -183.89271973 222.5303125 -184.41674805 222.12573242 C-186.75863081 220.31593861 -189.09831741 218.50332609 -191.43798828 216.69067383 C-192.23785156 216.07321289 -193.03771484 215.45575195 -193.86181641 214.81958008 C-209.08052734 203.01731445 -209.08052734 203.01731445 -210.87548828 197.31567383 C-211.93793094 187.91305632 -210.56961255 181.98987188 -204.77001953 174.65161133 C-203.08676019 172.62313664 -201.39325487 170.61173548 -199.67626953 168.61254883 C-196.69098488 165.12778075 -193.83550407 161.54817741 -191.00048828 157.94067383 C-190.54859131 157.37010254 -190.09669434 156.79953125 -189.63110352 156.21166992 C-184.26710636 150.262379 -184.26710636 150.262379 -181.87939453 143.15551758 C-183.55367485 140.06302334 -186.23560678 138.32980981 -188.96533203 136.19458008 C-191.95460881 133.25420762 -192.74903842 130.5358329 -193.17626953 126.41333008 C-193.20981355 117.72542814 -191.95047815 113.32811855 -185.87548828 107.00317383 C-181.62354021 102.88950049 -177.13912651 99.13182868 -172.49658203 95.46801758 C-170.1162003 93.5133375 -168.03202748 91.44499383 -165.87548828 89.25317383 C-163.51263134 87.11742175 -162.46558839 86.34909231 -159.25439453 86.16723633 C-158.32498047 86.2368457 -157.39556641 86.30645508 -156.43798828 86.37817383 C-151.66783598 86.69796057 -149.42719269 85.88835096 -145.68798828 82.87817383 C-142.69609878 79.95133478 -142.69609878 79.95133478 -141.60205078 76.06176758 C-141.74383638 74.55201351 -141.89238483 73.04288072 -142.04736328 71.53442383 C-141.74607362 67.64504822 -139.1330563 65.82362547 -136.34033203 63.33520508 C-135.52693359 62.66875977 -134.71353516 62.00231445 -133.87548828 61.31567383 C-133.03115234 60.61829102 -132.18681641 59.9209082 -131.31689453 59.20239258 C-129.48159258 57.70271914 -127.63879263 56.21218641 -125.78955078 54.72973633 C-122.7557049 52.21644309 -119.87269537 49.57133913 -117.00048828 46.87817383 C-95.13161366 26.57741618 -68.66154666 11.94751334 -39.75048828 4.56567383 C-38.97608398 4.3669165 -38.20167969 4.16815918 -37.40380859 3.96337891 C-24.98606794 0.95188317 -12.72773727 -0.03537666 0 0 Z " fill="#020101" transform="translate(268.87548828125,-0.315673828125)"/>
<path d="M0 0 C34.54634232 -1.0814624 69.79686388 7.90028023 97.66357422 29.07373047 C98.51564453 29.71826172 99.36771484 30.36279297 100.24560547 31.02685547 C119.83502713 46.31322445 135.34846501 63.92260088 146.66357422 86.07373047 C147.01258789 86.73808105 147.36160156 87.40243164 147.72119141 88.08691406 C152.00316614 96.28975691 155.37534494 104.5633863 157.97607422 113.44873047 C158.32158325 114.61311646 158.32158325 114.61311646 158.67407227 115.80102539 C163.74364695 134.25055644 164.14149748 152.46636023 164.04443359 171.49261475 C164.03658553 174.19635525 164.05110327 176.89979973 164.06540489 179.60349941 C164.07895809 182.88396513 164.06942716 186.16434919 164.06201172 189.44482422 C164.06808441 190.63571152 164.0741571 191.82659882 164.08041382 193.05357361 C163.94977922 208.78822577 159.43348519 222.28673869 148.60107422 233.94873047 C125.55222251 255.52170203 83.21543846 255.20763167 53.13671875 257.76416016 C51.29088711 257.92868388 49.44511116 258.10053841 47.60575867 258.32624817 C39.47143835 259.28148472 31.34409212 259.23778521 23.16748047 259.24169922 C21.56819124 259.24492266 19.9689023 259.24828749 18.36961365 259.25178528 C15.02529215 259.25774628 11.68099635 259.25962852 8.33666992 259.2590332 C4.94566481 259.25895222 1.55479559 259.26585285 -1.83618164 259.27954102 C-34.12510307 259.40690296 -34.12510307 259.40690296 -45.91845703 258.49169922 C-47.00857338 258.43637276 -47.00857338 258.43637276 -48.12071228 258.37992859 C-50.83749606 258.09801193 -52.80794718 257.65540996 -54.67953491 255.59541321 C-56.60295766 252.61423238 -58.04854343 249.5093248 -59.02392578 246.09326172 C-62.57735533 234.78275969 -70.12979075 226.2803655 -78.33642578 218.07373047 C-79.01705078 217.39310547 -79.69767578 216.71248047 -80.39892578 216.01123047 C-89.85466313 207.18587561 -101.10645135 202.55634833 -113.33642578 199.07373047 C-114.17560547 198.82623047 -115.01478516 198.57873047 -115.87939453 198.32373047 C-127.98395534 195.32363278 -140.89437501 196.3627124 -152.76635742 199.73828125 C-156.75373848 200.85328469 -159.36203587 201.21144915 -163.33642578 200.07373047 C-165.48950195 198.80200195 -165.48950195 198.80200195 -167.62939453 197.19482422 C-168.42047607 196.60652832 -169.21155762 196.01823242 -170.02661133 195.41210938 C-170.8507251 194.78481934 -171.67483887 194.1575293 -172.52392578 193.51123047 C-173.36802002 192.87878418 -174.21211426 192.24633789 -175.08178711 191.59472656 C-180.92331606 187.20022312 -186.70478638 182.73539599 -192.33642578 178.07373047 C-191.89419028 172.8889004 -190.39408782 170.4287074 -186.96142578 166.57373047 C-186.05072553 165.52715694 -185.14194583 164.47890982 -184.23486328 163.42919922 C-183.76016602 162.88440918 -183.28546875 162.33961914 -182.79638672 161.77832031 C-168.33627751 145.81914354 -168.33627751 145.81914354 -162.99267578 125.92919922 C-163.71669314 119.91491868 -167.15250578 115.89728952 -171.64892578 112.07373047 C-172.53580078 111.41373047 -173.42267578 110.75373047 -174.33642578 110.07373047 C-174.06535233 105.70466428 -172.36604542 103.71744262 -169.18310547 100.82324219 C-168.33087402 100.08098389 -168.33087402 100.08098389 -167.46142578 99.32373047 C-166.88295898 98.80439941 -166.30449219 98.28506836 -165.70849609 97.75 C-161.06192993 93.61280317 -156.26738522 89.66954529 -151.38330078 85.81591797 C-149.25297392 84.23286902 -149.25297392 84.23286902 -148.33642578 82.07373047 C-148.52330505 80.55282074 -148.71091198 79.03200037 -148.89892578 77.51123047 C-148.96993334 73.76421645 -148.57962797 72.38857008 -146.25439453 69.37841797 C-143.69259078 66.9854007 -141.35914184 64.855301 -138.33642578 63.07373047 C-136.44580078 63.33544922 -136.44580078 63.33544922 -134.33642578 64.07373047 C-130.35188599 64.42851826 -128.1029772 64.53233204 -124.63330078 62.45654297 C-123.79283203 61.71146484 -122.95236328 60.96638672 -122.08642578 60.19873047 C-120.67103516 58.96509766 -120.67103516 58.96509766 -119.22705078 57.70654297 C-117.79619141 56.40330078 -117.79619141 56.40330078 -116.33642578 55.07373047 C-115.42376953 54.24615234 -114.51111328 53.41857422 -113.57080078 52.56591797 C-111.74056052 50.89778471 -109.9137573 49.22587295 -108.09033203 47.55029297 C-103.64403009 43.55177463 -98.99452422 39.82060965 -94.33642578 36.07373047 C-93.52560547 35.39439453 -92.71478516 34.71505859 -91.87939453 34.01513672 C-66.09695479 12.64778359 -33.24333085 1.04905809 0 0 Z " fill="#FEF7E5" transform="translate(265.33642578125,14.92626953125)"/>
<path d="M0 0 C14.19832087 4.15763422 24.3546653 16.13175415 31.25585938 28.70800781 C32.18674428 30.46352511 33.09388023 32.23157284 34 34 C34.47308594 34.8971875 34.94617188 35.794375 35.43359375 36.71875 C49.45869704 66.42924919 45.63989688 102.09207759 35.07714844 132.13916016 C28.64226064 149.22982543 19.68630912 164.00968278 8 178 C7.44828125 178.68707031 6.8965625 179.37414062 6.328125 180.08203125 C-6.15110211 195.14624112 -27.78593813 210.01681315 -47.54296875 212.29296875 C-50 212 -50 212 -51.51953125 210.27734375 C-51.94621094 209.50519531 -52.37289062 208.73304688 -52.8125 207.9375 C-55.82729392 202.96269645 -59.46169214 199.58226839 -64 196 C-62.54116091 192.64617405 -60.67277468 190.47876973 -58.125 187.875 C-45.46164237 174.12875862 -45.46164237 174.12875862 -38.8125 157.4375 C-38.91157555 154.8610473 -38.91157555 154.8610473 -40 152 C-41.41493551 151.89115881 -42.83232943 151.81402383 -44.25 151.75 C-45.03890625 151.70359375 -45.8278125 151.6571875 -46.640625 151.609375 C-49.93603812 152.1549732 -50.89557041 153.43352 -53 156 C-54.401805 158.12907809 -55.74376817 160.25915707 -57.0625 162.4375 C-68.72956237 181.07789462 -90.4168556 207.13082143 -112.875 212.71484375 C-113.57625 212.80894531 -114.2775 212.90304687 -115 213 C-115.40089844 212.28714844 -115.80179688 211.57429687 -116.21484375 210.83984375 C-122.49264069 200.26296591 -130.29806888 193.98854554 -142 190 C-146.53180726 189.23853312 -150.90313303 188.86767917 -155.49511719 188.83886719 C-157.36305939 188.82445587 -157.36305939 188.82445587 -159.26873779 188.80975342 C-160.6114483 188.80490374 -161.95416097 188.80062533 -163.296875 188.796875 C-163.98280983 188.79404762 -164.66874466 188.79122025 -165.37546539 188.78830719 C-169.00617346 188.77337785 -172.63684244 188.76410914 -176.26757812 188.75976562 C-179.98706267 188.75429252 -183.70617906 188.73027129 -187.42554855 188.70179367 C-190.31346635 188.68302583 -193.20129796 188.67795423 -196.08927155 188.67642975 C-197.45899719 188.6734341 -198.82872248 188.66551225 -200.19838715 188.65224457 C-210.52343725 188.55936968 -220.4668448 189.20648548 -229.375 194.9375 C-230.53128906 195.66259766 -230.53128906 195.66259766 -231.7109375 196.40234375 C-242.00929964 203.59010845 -247.33288225 213.36129892 -249.6875 225.5625 C-249.790625 226.366875 -249.89375 227.17125 -250 228 C-264.41213679 224.65204787 -274.77989867 216.31805757 -285 206 C-283.7632781 202.28983431 -282.66493678 201.91442232 -279.4375 199.8125 C-265.26562729 189.72654384 -254.28372202 176.58921848 -245 162 C-244.61908203 161.41041504 -244.23816406 160.82083008 -243.84570312 160.21337891 C-237.40687141 150.11559083 -233.10432748 139.20277674 -229 128 C-228.74589355 127.31711914 -228.49178711 126.63423828 -228.22998047 125.93066406 C-219.08659429 100.9086663 -217.89980058 74.13823464 -222 48 C-221.02289063 48.06928711 -220.04578125 48.13857422 -219.0390625 48.20996094 C-202.37651503 49.28552078 -185.68968161 49.24421675 -169 49.25 C-168.2211293 49.25058914 -167.44225861 49.25117828 -166.63978577 49.25178528 C-143.64546898 49.26405459 -120.82648665 49.0925372 -98 46 C-96.82937012 45.8448291 -95.65874023 45.6896582 -94.45263672 45.52978516 C-86.93987796 44.50716599 -79.46821531 43.3057434 -72 42 C-70.49348877 41.74234863 -70.49348877 41.74234863 -68.95654297 41.47949219 C-59.3426591 39.83033298 -49.76673511 38.15074524 -40.33984375 35.61328125 C-37.90731136 34.97570598 -35.4671304 34.48390661 -33 34 C-32.90601731 41.83412826 -32.83560159 49.66811682 -32.79275131 57.5026722 C-32.7721527 61.1432645 -32.74436616 64.78346264 -32.69824219 68.42382812 C-32.24565294 105.12742221 -32.24565294 105.12742221 -38.14746094 122.34814453 C-39.28186523 125.87675262 -38.82516543 128.42428314 -38 132 C-36.06268472 134.36410488 -36.06268472 134.36410488 -32.5625 134.3125 C-29.15916766 134.31773354 -29.15916766 134.31773354 -27.40234375 132.859375 C-18.35139371 120.85867245 -18.56061213 97.54365127 -18.65044022 83.14422989 C-18.66450741 80.67987043 -18.65755932 78.21628655 -18.64559937 75.75192261 C-18.61504933 68.76245216 -18.61969487 61.77318705 -18.63964844 54.78369141 C-18.65054961 50.47038141 -18.63743975 46.15767412 -18.60975266 41.84444809 C-18.60432191 40.21218108 -18.60835103 38.57985336 -18.62215042 36.94763565 C-18.64115594 34.67941792 -18.6298387 32.41320157 -18.61181641 30.14501953 C-18.61420319 28.85806183 -18.61658997 27.57110413 -18.61904907 26.24514771 C-18 23 -18 23 -15.60653687 20.72653198 C-14.7463797 20.15677643 -13.88622253 19.58702087 -13 19 C-8.05307773 13.08538298 -3.57401685 6.83724963 0 0 Z " fill="#CF743A" transform="translate(438,239)"/>
<path d="M0 0 C3.53921848 2.81255471 6.80179422 5.80728941 10 9 C10.62648437 9.61488281 11.25296875 10.22976562 11.8984375 10.86328125 C20.94840159 20.42512114 26.17007397 32.58791318 30 45 C30.22300781 45.71414063 30.44601563 46.42828125 30.67578125 47.1640625 C31.21583001 49.10164201 31.62709146 51.0232227 32 53 C32.18433594 53.93070312 32.36867187 54.86140625 32.55859375 55.8203125 C39.09288014 93.94449377 27.68684337 133.08946545 5.6640625 164.36328125 C-10.48135843 186.5525132 -32.54034764 203.27675679 -59.83203125 208.546875 C-77.08982392 211.0153139 -93.60168075 207.19901698 -107.625 196.6875 C-109.09905072 195.47722678 -110.55785031 194.24811501 -112 193 C-112.66773437 192.42765625 -113.33546875 191.8553125 -114.0234375 191.265625 C-129.23884614 177.19287551 -135.83432606 156.9437458 -139 137 C-139.18175781 136.08863281 -139.36351562 135.17726563 -139.55078125 134.23828125 C-144.38514269 99.38884099 -132.19761695 61.75315473 -111.68457031 33.72558594 C-107.75539833 28.53093044 -103.49303533 23.70817146 -99 19 C-98.41347656 18.33871094 -97.82695313 17.67742187 -97.22265625 16.99609375 C-72.99727541 -9.24365136 -31.00085615 -21.51079814 0 0 Z " fill="#DE8956" transform="translate(170,237)"/>
<path d="M0 0 C15.71957432 -0.49209634 31.55579643 0.39072657 46.66357422 5.07373047 C44.24314778 6.6873481 41.96780151 7.97031722 39.37451172 9.25341797 C24.26005907 16.8571481 10.3479624 25.29656963 -2.02392578 36.93701172 C-4.5025782 39.22725305 -7.07971139 41.33663014 -9.71142578 43.44873047 C-14.26583501 47.13074582 -18.57390143 51.00273404 -22.85766602 54.98950195 C-26.06905985 57.96059797 -29.36252341 60.77319635 -32.77392578 63.51123047 C-36.95880131 66.8771951 -40.91955009 70.40550875 -44.83642578 74.07373047 C-49.6113425 78.54516565 -54.52837974 82.74303168 -59.62939453 86.84326172 C-70.22891111 94.88162474 -70.22891111 94.88162474 -78.33642578 105.07373047 C-78.73007505 109.16768287 -78.62485855 111.51905207 -76.71142578 115.19873047 C-74.13221717 118.32093037 -71.49073371 120.55028413 -68.33642578 123.07373047 C-67.17344605 125.39968992 -67.17041887 126.86096277 -67.14892578 129.44873047 C-67.13474609 130.21958984 -67.12056641 130.99044922 -67.10595703 131.78466797 C-67.35840971 134.29207935 -68.08449111 135.90634949 -69.33642578 138.07373047 C-68.44955078 137.74373047 -67.56267578 137.41373047 -66.64892578 137.07373047 C-60.06010096 135.16999215 -51.91235884 135.07375083 -45.33642578 137.07373047 C-45.38283203 135.96513672 -45.42923828 134.85654297 -45.47705078 133.71435547 C-45.5145768 132.25084079 -45.55097607 130.78729691 -45.58642578 129.32373047 C-45.61994141 128.59412109 -45.65345703 127.86451172 -45.68798828 127.11279297 C-45.75292325 123.54136946 -45.65643963 121.50701148 -43.50439453 118.59326172 C-41.33642578 117.07373047 -41.33642578 117.07373047 -38.39892578 116.51123047 C-34.2066548 117.28123942 -32.9438748 118.72939368 -30.33642578 122.07373047 C-29.69258141 124.93489785 -29.77039733 127.6553786 -29.89892578 130.57373047 C-29.90762695 131.69328125 -29.90762695 131.69328125 -29.91650391 132.83544922 C-29.99204642 136.24997076 -30.1656536 138.68006733 -31.53955078 141.84716797 C-31.93400391 142.94931641 -31.93400391 142.94931641 -32.33642578 144.07373047 C-31.31680421 146.29783428 -31.31680421 146.29783428 -29.52392578 148.19873047 C-25.56903748 152.85047552 -24.97083407 156.44058522 -25.06689453 162.44873047 C-25.69698461 168.58525997 -28.60489088 172.66930844 -33.02392578 176.82373047 C-34.43323541 177.94349103 -35.87080839 179.02875056 -37.33642578 180.07373047 C-37.94744141 180.51072266 -38.55845703 180.94771484 -39.18798828 181.39794922 C-46.78203548 185.70931068 -56.91806472 185.24279553 -65.33642578 184.07373047 C-73.28978521 181.74301337 -80.03711092 177.26439743 -84.33642578 170.07373047 C-85.64029543 166.79060546 -86.59382143 163.52507261 -87.33642578 160.07373047 C-94.34384939 168.171065 -94.34384939 168.171065 -96.71142578 178.07373047 C-95.48958351 185.0246554 -87.39440687 189.52689279 -82.14892578 193.57373047 C-81.36807617 194.18539062 -80.58722656 194.79705078 -79.78271484 195.42724609 C-75.73420214 198.57087331 -71.65081851 201.57505081 -67.36376953 204.38623047 C-58.41878535 210.30558572 -53.14375329 214.19007563 -49.66064453 224.58154297 C-45.60350023 235.28091466 -36.92389787 243.2209132 -27.33642578 249.07373047 C-26.59392578 249.55326172 -25.85142578 250.03279297 -25.08642578 250.52685547 C-16.95462142 255.21393715 -7.45228 256.39843488 1.66357422 258.07373047 C1.66357422 258.40373047 1.66357422 258.73373047 1.66357422 259.07373047 C-8.8705357 259.18505754 -19.39977462 259.20134507 -29.93408203 259.10253906 C-32.55634809 259.07952568 -35.17080959 259.0846906 -37.79345703 259.11914062 C-43.32638287 259.18857996 -48.17216228 259.1904263 -53.33642578 257.07373047 C-56.59139518 252.99326322 -58.12214623 248.96360974 -59.67236328 244.02929688 C-63.18933209 233.67234094 -70.76910453 225.64105172 -78.33642578 218.07373047 C-79.01705078 217.39310547 -79.69767578 216.71248047 -80.39892578 216.01123047 C-89.85466313 207.18587561 -101.10645135 202.55634833 -113.33642578 199.07373047 C-114.17560547 198.82623047 -115.01478516 198.57873047 -115.87939453 198.32373047 C-127.98395534 195.32363278 -140.89437501 196.3627124 -152.76635742 199.73828125 C-156.75373848 200.85328469 -159.36203587 201.21144915 -163.33642578 200.07373047 C-165.48950195 198.80200195 -165.48950195 198.80200195 -167.62939453 197.19482422 C-168.42047607 196.60652832 -169.21155762 196.01823242 -170.02661133 195.41210938 C-170.8507251 194.78481934 -171.67483887 194.1575293 -172.52392578 193.51123047 C-173.36802002 192.87878418 -174.21211426 192.24633789 -175.08178711 191.59472656 C-180.92331606 187.20022312 -186.70478638 182.73539599 -192.33642578 178.07373047 C-191.89419028 172.8889004 -190.39408782 170.4287074 -186.96142578 166.57373047 C-186.05072553 165.52715694 -185.14194583 164.47890982 -184.23486328 163.42919922 C-183.76016602 162.88440918 -183.28546875 162.33961914 -182.79638672 161.77832031 C-168.33627751 145.81914354 -168.33627751 145.81914354 -162.99267578 125.92919922 C-163.71669314 119.91491868 -167.15250578 115.89728952 -171.64892578 112.07373047 C-172.53580078 111.41373047 -173.42267578 110.75373047 -174.33642578 110.07373047 C-174.06535233 105.70466428 -172.36604542 103.71744262 -169.18310547 100.82324219 C-168.33087402 100.08098389 -168.33087402 100.08098389 -167.46142578 99.32373047 C-166.88295898 98.80439941 -166.30449219 98.28506836 -165.70849609 97.75 C-161.06192993 93.61280317 -156.26738522 89.66954529 -151.38330078 85.81591797 C-149.25297392 84.23286902 -149.25297392 84.23286902 -148.33642578 82.07373047 C-148.52330505 80.55282074 -148.71091198 79.03200037 -148.89892578 77.51123047 C-148.96993334 73.76421645 -148.57962797 72.38857008 -146.25439453 69.37841797 C-143.69259078 66.9854007 -141.35914184 64.855301 -138.33642578 63.07373047 C-136.44580078 63.33544922 -136.44580078 63.33544922 -134.33642578 64.07373047 C-130.35188599 64.42851826 -128.1029772 64.53233204 -124.63330078 62.45654297 C-123.79283203 61.71146484 -122.95236328 60.96638672 -122.08642578 60.19873047 C-120.67103516 58.96509766 -120.67103516 58.96509766 -119.22705078 57.70654297 C-117.79619141 56.40330078 -117.79619141 56.40330078 -116.33642578 55.07373047 C-115.42376953 54.24615234 -114.51111328 53.41857422 -113.57080078 52.56591797 C-111.74056052 50.89778471 -109.9137573 49.22587295 -108.09033203 47.55029297 C-103.64403009 43.55177463 -98.99452422 39.82060965 -94.33642578 36.07373047 C-93.52560547 35.39439453 -92.71478516 34.71505859 -91.87939453 34.01513672 C-66.09695479 12.64778359 -33.24333085 1.04905809 0 0 Z " fill="#FEF0CE" transform="translate(265.33642578125,14.92626953125)"/>
<path d="M0 0 C-1.25196561 3.75589682 -2.56855806 4.30952704 -5.8125 6.5 C-37.19996081 28.83260472 -54.74134829 64.92888916 -62 102 C-67.06814304 132.6654731 -61.99960936 166.58402407 -43.73046875 192.1796875 C-39.58295755 197.39410532 -35.23258757 201.88072894 -30 206 C-37.35778813 213.35778813 -51.97510038 214.18872555 -61.8125 214.375 C-77.44286271 214.35832663 -91.32099173 208.10765079 -103 198 C-103.66773437 197.42765625 -104.33546875 196.8553125 -105.0234375 196.265625 C-120.23884614 182.19287551 -126.83432606 161.9437458 -130 142 C-130.18175781 141.08863281 -130.36351562 140.17726563 -130.55078125 139.23828125 C-135.38514269 104.38884099 -123.19761695 66.75315473 -102.68457031 38.72558594 C-98.75539833 33.53093044 -94.49303533 28.70817146 -90 24 C-89.41347656 23.33871094 -88.82695313 22.67742187 -88.22265625 21.99609375 C-66.74461731 -1.26786527 -29.70283176 -14.85141588 0 0 Z " fill="#D77B40" transform="translate(161,232)"/>
<path d="M0 0 C11.51153958 8.25575061 23.64227644 19.93659291 26.1484375 34.5078125 C26.52630063 42.29666853 23.72305579 48.66536638 19.70703125 55.19140625 C13.89214326 61.38293589 5.63749915 64.26004519 -2.64697266 64.7019043 C-5.35974731 64.73443019 -8.05818604 64.73594958 -10.76953125 64.703125 C-12.23058383 64.70463223 -13.69163555 64.70807399 -15.15267944 64.71333313 C-18.19367343 64.71763283 -21.23359519 64.70106791 -24.27441406 64.66870117 C-28.14567272 64.62885013 -32.01493204 64.6382713 -35.88625526 64.66293621 C-38.89608783 64.67720613 -41.90546362 64.66696589 -44.91526413 64.6494236 C-46.34160646 64.64363165 -47.76799669 64.64478929 -49.19432449 64.6534481 C-59.54650861 64.69539881 -67.08602574 63.33838034 -75.10546875 56.56640625 C-82.99371306 47.10051308 -85.18185718 39.42885493 -84.29296875 26.94140625 C-82.72457819 15.54918754 -77.53366506 5.71586431 -68.52734375 -1.5625 C-48.07351183 -15.25798536 -20.22135787 -12.80778207 0 0 Z " fill="#040303" transform="translate(339.29296875,161.05859375)"/>
<path d="M0 0 C1.42192837 -0.00457062 2.84385455 -0.00987879 4.26577759 -0.0158844 C7.23619599 -0.02478247 10.20634508 -0.02243116 13.17675781 -0.01245117 C16.95815919 -0.00097607 20.73862463 -0.02116628 24.51990318 -0.05036831 C27.45415014 -0.06883569 30.38817724 -0.06841693 33.3224678 -0.06273079 C34.71534155 -0.0625788 36.10823139 -0.06852044 37.50104904 -0.08102226 C47.26269646 -0.15630373 54.73562783 0.98745202 63.1015625 6.12109375 C70.0957567 13.30957113 72.6385291 19.70101016 72.6706543 29.66577148 C72.56671974 35.22928781 71.57993555 38.96106364 68.3515625 43.43359375 C67.6915625 44.46484375 67.0315625 45.49609375 66.3515625 46.55859375 C60.62482906 52.89524845 52.31192346 55.74955886 43.99755859 56.1940918 C41.28478394 56.22661769 38.58634521 56.22813708 35.875 56.1953125 C34.41394742 56.19681973 32.9528957 56.20026149 31.49185181 56.20552063 C28.45085782 56.20982033 25.41093606 56.19325541 22.37011719 56.16088867 C18.49885853 56.12103763 14.62959921 56.1304588 10.75827599 56.15512371 C7.74844342 56.16939363 4.73906763 56.15915339 1.72926712 56.1416111 C0.30292479 56.13581915 -1.12346544 56.13697679 -2.54979324 56.1456356 C-12.9165897 56.18764553 -20.36254743 54.77977003 -28.4609375 48.12109375 C-35.43631707 39.55134171 -37.72977504 32.57773119 -36.6484375 21.43359375 C-34.42680069 13.67412079 -29.33712343 7.82843595 -22.6484375 3.43359375 C-15.2399023 -0.1700765 -8.11349437 -0.022953 0 0 Z " fill="#F7EC7F" transform="translate(239.6484375,441.56640625)"/>
<path d="M0 0 C6.30996914 5.32314689 13.5678894 12.04084557 14.8515625 20.58984375 C14.6218569 24.78023083 13.73521703 26.73475053 11.09765625 30.06640625 C7.21733265 33.02284328 4.3740615 33.19928285 -0.37231445 33.2434082 C-1.57398758 33.25624344 -2.77566071 33.26907867 -4.01374817 33.28230286 C-5.31374252 33.28968979 -6.61373688 33.29707672 -7.953125 33.3046875 C-8.61587118 33.30876303 -9.27861736 33.31283855 -9.96144676 33.31703758 C-13.46965597 33.33787717 -16.97782632 33.35218773 -20.48608398 33.36157227 C-24.10091908 33.37263022 -27.71513751 33.40702793 -31.32975483 33.44674397 C-34.11711231 33.472947 -36.90432365 33.48126731 -39.69179344 33.48485374 C-41.66931818 33.49206423 -43.64674286 33.51848664 -45.62409973 33.54524231 C-56.76057903 33.51834137 -56.76057903 33.51834137 -61.52734375 29.06640625 C-64.85565087 25.47533804 -65.82295812 22.66153001 -66.02734375 17.87890625 C-65.72826092 10.04934506 -63.35242656 1.56787335 -57.52734375 -3.93359375 C-41.2090305 -17.15103987 -15.50832074 -11.864944 0 0 Z " fill="#F7EC7F" transform="translate(335.52734375,176.93359375)"/>
<path d="M0 0 C4.19227098 0.77000896 5.45505098 2.21816321 8.0625 5.5625 C8.70634437 8.42366738 8.62852845 11.14414813 8.5 14.0625 C8.49419922 14.80886719 8.48839844 15.55523437 8.48242188 16.32421875 C8.40687936 19.7387403 8.23327218 22.16883686 6.859375 25.3359375 C6.59640625 26.07070312 6.3334375 26.80546875 6.0625 27.5625 C7.08212157 29.78660381 7.08212157 29.78660381 8.875 31.6875 C12.8298883 36.33924505 13.42809171 39.92935475 13.33203125 45.9375 C12.70194117 52.0740295 9.7940349 56.15807797 5.375 60.3125 C3.96569037 61.43226056 2.52811739 62.51752009 1.0625 63.5625 C0.45148438 63.99949219 -0.15953125 64.43648437 -0.7890625 64.88671875 C-8.3831097 69.19808021 -18.51913894 68.73156507 -26.9375 67.5625 C-36.21289704 64.84436226 -42.43635738 59.3469965 -47.375 51.1875 C-48.93824488 43.89235721 -48.55595249 38.01092524 -44.55859375 31.6015625 C-39.50614254 25.2464311 -31.92641486 20.82931364 -23.9375 19.5625 C-21.75149532 19.47152796 -19.56289091 19.43242957 -17.375 19.4375 C-16.25996094 19.43492187 -15.14492187 19.43234375 -13.99609375 19.4296875 C-11.44556272 19.54043853 -9.36159171 19.8157138 -6.9375 20.5625 C-6.98390625 19.45390625 -7.0303125 18.3453125 -7.078125 17.203125 C-7.11565102 15.73961032 -7.15205029 14.27606644 -7.1875 12.8125 C-7.22101563 12.08289063 -7.25453125 11.35328125 -7.2890625 10.6015625 C-7.35399747 7.03013899 -7.25751385 4.99578101 -5.10546875 2.08203125 C-2.9375 0.5625 -2.9375 0.5625 0 0 Z " fill="#FEA1AC" transform="translate(226.9375,131.4375)"/>
<path d="M0 0 C2.71900701 1.05626852 5.37640053 2.17458371 8.0234375 3.40234375 C26.85237809 12.02678857 48.08664064 13.9591626 67.95068359 7.35107422 C70.79890335 6.28883745 73.58683009 5.12776329 76.36328125 3.890625 C79.21788759 2.92640242 80.28316279 2.77656168 83 4 C84.703125 5.41015625 84.703125 5.41015625 86.25 7.0625 C87.03117187 7.88427734 87.03117187 7.88427734 87.828125 8.72265625 C88.21484375 9.14417969 88.6015625 9.56570313 89 10 C87.39454652 13.95847558 84.65071687 16.67216499 81.6875 19.6484375 C80.89496826 20.45095444 80.89496826 20.45095444 80.08642578 21.26968384 C78.96602642 22.40019266 77.84291144 23.52801573 76.71728516 24.65332031 C75.02298283 26.35195835 73.34530108 28.06587508 71.66796875 29.78125 C61.4601275 40.0956784 51.16779961 47.87513569 36.1875 48.5 C25.09071706 48.22467529 16.62481847 43.89204341 9 36 C8.113125 35.13375 7.22625 34.2675 6.3125 33.375 C-0.06951804 25.21296333 -2.03889211 15.09209475 -1 5 C-0.69231685 3.32840795 -0.36680058 1.65962231 0 0 Z " fill="#B45724" transform="translate(58,449)"/>
<path d="M0 0 C2.75 1.375 2.75 1.375 5 4 C5.67122777 6.4967963 6.07944008 8.97972048 6.4921875 11.53125 C7.54780717 16.66318562 10.08471857 19.3180256 14.1875 22.375 C18.4196451 24.51820169 22.35705464 24.90146534 27 24 C31.77929201 22.1676566 34.99340243 19.64394298 37.4375 15.125 C38.65112956 12.34048196 39.0886767 10.33492478 39.5 7.25 C40 4 40 4 41.625 1.5625 C44.9617771 -0.63274809 47.08548544 -0.55921637 51 0 C53.3125 1.375 53.3125 1.375 55 4 C55.5944051 6.49735667 56.02178393 9.00160743 56.45703125 11.53125 C57.5830405 16.65094675 60.07286417 19.30919291 64.1875 22.375 C68.4196451 24.51820169 72.35705464 24.90146534 77 24 C81.77929201 22.1676566 84.99340243 19.64394298 87.4375 15.125 C88.65112956 12.34048196 89.0886767 10.33492478 89.5 7.25 C90 4 90 4 91.625 1.5625 C94.9617771 -0.63274809 97.08548544 -0.55921637 101 0 C103.4375 1.4375 103.4375 1.4375 105 4 C106.40207209 10.96699741 104.22216156 17.84938597 101 24 C96.37893214 30.46404777 91.47158733 35.20574783 84 38 C83.22527344 38.35320312 82.45054687 38.70640625 81.65234375 39.0703125 C74.09224208 41.72024504 65.48556899 40.61272931 58.30078125 37.35546875 C54.41814364 35.06807443 51.18528479 32.16748991 48 29 C47.52691406 29.38671875 47.05382812 29.7734375 46.56640625 30.171875 C41.64630946 34.04657111 36.78857183 36.6581504 31 39 C30.01 39.495 30.01 39.495 29 40 C19.15410022 40.87296495 11.34116173 39.93437239 3.30078125 34.01171875 C-1.93577089 29.58549439 -5.6297257 25.44935099 -8 19 C-8.4125 18.030625 -8.825 17.06125 -9.25 16.0625 C-10.25064885 11.97651721 -10.63407785 8.17698785 -10 4 C-7.34545768 -0.18600905 -4.80463883 -0.78443083 0 0 Z " fill="#040201" transform="translate(259,321)"/>
<path d="M0 0 C2.671875 2.046875 2.671875 2.046875 5 5 C5.36771245 7.8387401 5.48630804 10.01820151 5.3125 12.8125 C5.28994141 13.50537109 5.26738281 14.19824219 5.24414062 14.91210938 C5.18562661 16.60901573 5.0959548 18.30479861 5 20 C5.66 19.67 6.32 19.34 7 19 C17.90772973 18.23763179 28.26920405 18.82134556 37 26 C41.96953216 31.00105139 45.54867573 35.08852298 46.375 42.25 C45.64261054 49.57389465 42.31697925 55.91419377 37 61 C29.49357876 65.50385274 23.59098594 67.17177631 14.875 67.125 C14.14667969 67.12886719 13.41835938 67.13273437 12.66796875 67.13671875 C7.25342069 67.12671034 7.25342069 67.12671034 5 66 C4.359375 64.06640625 4.359375 64.06640625 3.75 61.5625 C1.00597026 52.01273312 -4.38522285 45.17822799 -11.2421875 38.12890625 C-13 36 -13 36 -13 33 C-11.90625 31.17578125 -11.90625 31.17578125 -10.5 29.3125 C-10.0359375 28.68988281 -9.571875 28.06726563 -9.09375 27.42578125 C-8.7328125 26.95527344 -8.371875 26.48476562 -8 26 C-8.66 25.01 -9.32 24.02 -10 23 C-10.45000334 19.86926251 -10.37028046 16.72223347 -10.375 13.5625 C-10.39949219 12.70333984 -10.42398437 11.84417969 -10.44921875 10.95898438 C-10.47850902 4.66645842 -10.47850902 4.66645842 -8.16015625 1.4375 C-5.15749243 -0.56065603 -3.53842943 -0.64991561 0 0 Z " fill="#FEA1AB" transform="translate(360,132)"/>
<path d="M0 0 C6.28972918 2.68028232 10.60159256 7.88650468 13.37109375 13.984375 C16.26936136 21.92595575 15.9098697 29.78388132 12.4453125 37.48828125 C8.60908155 44.12040933 3.49395386 48.38518954 -3.63330078 51.09814453 C-11.11018645 52.8648861 -18.92787909 52.27885434 -26.5625 52.12890625 C-28.34763619 52.10880848 -30.13279425 52.09056351 -31.91796875 52.07421875 C-36.2583596 52.03048711 -40.5976846 51.96164214 -44.9375 51.87890625 C-43.95379372 49.90457701 -42.96720705 47.93518718 -41.9375 45.984375 C-38.01027951 38.65583883 -38.01027951 38.65583883 -37.1953125 30.5703125 C-37.42072947 27.42917602 -37.29195619 25.75604727 -35.9375 22.87890625 C-31.60680495 19.18625362 -26.24551217 16.79738124 -21.23974609 14.15966797 C-17.66425923 12.17059013 -14.36658465 9.84759847 -11.0625 7.44140625 C-10.48669189 7.02826172 -9.91088379 6.61511719 -9.31762695 6.18945312 C-7.12288616 4.59087594 -5.10756776 3.07135135 -3.3046875 1.03125 C-1.9375 -0.12109375 -1.9375 -0.12109375 0 0 Z " fill="#F5E767" transform="translate(362.9375,445.12109375)"/>
<path d="M0 0 C-0.75925781 0.56460938 -1.51851563 1.12921875 -2.30078125 1.7109375 C-9.95766831 8.20433232 -12.40828782 16.92097059 -13.21484375 26.5703125 C-13.45624638 32.88540525 -12.44809831 35.47173783 -10 42 C9.8 42.495 9.8 42.495 30 43 C30 43.33 30 43.66 30 44 C22.15030608 44.09285592 14.30074185 44.16384356 6.45063591 44.20724869 C2.8051088 44.22808571 -0.84004136 44.25633084 -4.48535156 44.30175781 C-8.00614987 44.34535643 -11.52658661 44.36916631 -15.04763412 44.37950897 C-17.03847947 44.39045006 -19.02918022 44.42165399 -21.01980591 44.45318604 C-32.24758227 44.45596466 -32.24758227 44.45596466 -37 40 C-40.32830712 36.40893179 -41.29561437 33.59512376 -41.5 28.8125 C-41.20091717 20.98293881 -38.82508281 12.5014671 -33 7 C-23.34028772 -0.8241375 -11.88952454 -0.31242546 0 0 Z " fill="#F4E668" transform="translate(311,166)"/>
<path d="M0 0 C2.64870655 1.99821538 4.66040953 3.59546807 5.46508789 6.92358398 C5.63707001 9.13628393 5.63336601 11.28208554 5.5625 13.5 C5.57345703 14.24636719 5.58441406 14.99273437 5.59570312 15.76171875 C5.54455357 19.61498495 5.22353465 21.63128801 3.18359375 24.99609375 C1 27 1 27 -2.5 27.5625 C-6 27 -6 27 -8.1875 25.55859375 C-10.92795889 21.69005803 -10.58373522 18.12637094 -10.5 13.5 C-10.51546875 12.64535156 -10.5309375 11.79070312 -10.546875 10.91015625 C-10.50814496 4.70366797 -10.50814496 4.70366797 -8.15234375 1.44140625 C-5.1557063 -0.56541629 -3.53738038 -0.64972293 0 0 Z " fill="#050504" transform="translate(360,132)"/>
<path d="M0 0 C2.64870655 1.99821538 4.66040953 3.59546807 5.46508789 6.92358398 C5.63707001 9.13628393 5.63336601 11.28208554 5.5625 13.5 C5.57345703 14.24636719 5.58441406 14.99273437 5.59570312 15.76171875 C5.54455357 19.61498495 5.22353465 21.63128801 3.18359375 24.99609375 C1 27 1 27 -2.5 27.5625 C-6 27 -6 27 -8.1875 25.55859375 C-10.92795889 21.69005803 -10.58373522 18.12637094 -10.5 13.5 C-10.51546875 12.64535156 -10.5309375 11.79070312 -10.546875 10.91015625 C-10.50814496 4.70366797 -10.50814496 4.70366797 -8.15234375 1.44140625 C-5.1557063 -0.56541629 -3.53738038 -0.64972293 0 0 Z " fill="#040403" transform="translate(230,132)"/>
</svg>
