<?xml version="1.0" encoding="utf-8"?>
<!-- Generator: Adobe Illustrator 27.5.0, SVG Export Plug-In . SVG Version: 6.00 Build 0)  -->
<svg version="1.1" xmlns="http://www.w3.org/2000/svg" xmlns:xlink="http://www.w3.org/1999/xlink" x="0px" y="0px"
	 viewBox="0 0 500 500" style="enable-background:new 0 0 500 500;" xml:space="preserve">
<g id="Background_Complete">
	<g>
		<g>
			<g>
				<g>
					<g>
						<g>
							<g>
								<g>
									<g>
										
											<rect x="30.417" y="286.453" transform="matrix(0.9829 -0.1839 0.1839 0.9829 -56.6515 17.3132)" style="fill:#F5F5F5;" width="69.22" height="55.34"/>
										<g>
											<path style="fill:#E0E0E0;" d="M93.959,280.56c0,0-0.115,0.031-0.331,0.076c-0.232,0.047-0.547,0.11-0.955,0.193
												c-0.857,0.167-2.093,0.408-3.697,0.721c-3.242,0.621-7.955,1.525-13.925,2.669c-11.948,2.265-28.919,5.482-49.088,9.305
												l0.191-0.279c3.037,16.19,6.518,34.748,10.202,54.385l0.001,0.006l-0.312-0.214c25.191-4.696,48.601-9.059,68.048-12.684
												l-0.178,0.259c-3.015-16.375-5.514-29.952-7.264-39.456c-0.863-4.749-1.541-8.48-2.007-11.043
												c-0.225-1.266-0.399-2.239-0.52-2.919C94.009,280.917,93.959,280.56,93.959,280.56s0.076,0.318,0.205,0.964
												c0.131,0.668,0.319,1.625,0.562,2.868c0.49,2.547,1.203,6.254,2.111,10.973c1.81,9.527,4.397,23.137,7.516,39.551
												l0.041,0.218l-0.219,0.041c-19.442,3.65-42.846,8.044-68.032,12.772l-0.263,0.049l-0.049-0.263l-0.001-0.006
												c-3.664-19.641-7.126-38.202-10.147-54.396l-0.044-0.236l0.236-0.043c20.25-3.738,37.288-6.883,49.284-9.098
												c5.957-1.087,10.66-1.945,13.895-2.535c1.588-0.285,2.812-0.504,3.661-0.656c0.4-0.069,0.708-0.122,0.935-0.161
												C93.859,280.57,93.963,280.555,93.959,280.56z"/>
										</g>
									</g>
								</g>
							</g>
						</g>
					</g>
				</g>
			</g>
		</g>
		<g>
			<g>
				<g>
					<g>
						
							<rect x="32.804" y="289.945" transform="matrix(0.9829 -0.1839 0.1839 0.9829 -56.6534 17.305)" style="fill:#EBEBEB;" width="64.357" height="48.372"/>
					</g>
				</g>
			</g>
		</g>
		<g>
			<g>
				<g>
					<g>
						<polygon style="fill:#E0E0E0;" points="37.8,343.822 54.366,310.133 71.512,326.064 78.946,314.442 101.06,331.988 						"/>
					</g>
				</g>
			</g>
		</g>
		<g>
			<g>
				<g>
					<g>
						<g>
							<g>
								<path style="fill:#E0E0E0;" d="M73.186,302.866c0.514,2.751-1.298,5.398-4.049,5.913c-2.751,0.514-5.398-1.298-5.913-4.049
									c-0.515-2.751,1.298-5.398,4.049-5.913C70.024,298.302,72.671,300.115,73.186,302.866z"/>
							</g>
						</g>
					</g>
				</g>
			</g>
		</g>
	</g>
	<g>
		<g>
			
				<rect x="151.966" y="89.375" transform="matrix(0.1781 -0.984 0.984 0.1781 46.0714 378.7081)" style="fill:#FAFAFA;" width="195.567" height="144.796"/>
			<g>
				<path style="fill:#E0E0E0;" d="M303.569,270.891c0,0,0.048-0.318,0.153-0.925c0.108-0.614,0.266-1.515,0.475-2.701
					c0.425-2.382,1.052-5.9,1.867-10.476c1.642-9.154,4.042-22.535,7.082-39.478c6.1-33.857,14.763-81.944,25.025-138.901
					l0.195,0.281c-42.827-7.746-91.309-16.514-142.468-25.767l-0.016-0.003l0.311-0.215
					c-13.014,71.783-25.071,138.283-34.888,192.43l-0.176-0.254c43.127,7.856,78.714,14.339,103.528,18.859
					c12.415,2.272,22.134,4.051,28.757,5.263c3.308,0.61,5.841,1.077,7.556,1.393C302.679,270.713,303.569,270.891,303.569,270.891
					s-0.864-0.141-2.562-0.44c-1.708-0.303-4.23-0.752-7.525-1.337c-6.617-1.185-16.325-2.923-28.728-5.144
					c-24.856-4.472-60.503-10.886-103.704-18.659l-0.215-0.039l0.039-0.216c9.79-54.152,21.813-120.658,34.792-192.448l0.048-0.263
					l0.263,0.048l0.016,0.003c51.156,9.271,99.635,18.056,142.459,25.817l0.238,0.043l-0.043,0.238
					c-10.37,57.003-19.125,105.129-25.29,139.013c-3.09,16.911-5.53,30.266-7.199,39.401c-0.837,4.551-1.48,8.049-1.916,10.419
					c-0.219,1.172-0.385,2.063-0.498,2.67C303.632,270.595,303.569,270.891,303.569,270.891z"/>
			</g>
		</g>
		
			<rect x="202.692" y="78.043" transform="matrix(0.984 0.1781 -0.1781 0.984 22.4086 -39.9084)" style="fill:#E0E0E0;" width="61.476" height="53.565"/>
		
			<rect x="277.034" y="89.122" transform="matrix(0.984 0.1781 -0.1781 0.984 21.2459 -51.3781)" style="fill:#E0E0E0;" width="39.363" height="6.988"/>
		
			<rect x="195.709" y="146.522" transform="matrix(0.984 0.1781 -0.1781 0.984 30.7544 -42.4721)" style="fill:#E0E0E0;" width="112.338" height="6.988"/>
		
			<rect x="193.517" y="158.627" transform="matrix(0.984 0.1781 -0.1781 0.984 32.8756 -41.8878)" style="fill:#E0E0E0;" width="112.338" height="6.988"/>
		
			<rect x="191.326" y="170.731" transform="matrix(0.984 0.1781 -0.1781 0.984 34.9971 -41.304)" style="fill:#E0E0E0;" width="112.338" height="6.988"/>
		
			<rect x="189.134" y="182.836" transform="matrix(0.984 0.1781 -0.1781 0.984 37.1183 -40.7197)" style="fill:#E0E0E0;" width="112.338" height="6.988"/>
		
			<rect x="186.943" y="194.941" transform="matrix(0.984 0.1781 -0.1781 0.984 39.2399 -40.1359)" style="fill:#E0E0E0;" width="112.338" height="6.988"/>
		
			<rect x="179.431" y="236.436" transform="matrix(0.984 0.1781 -0.1781 0.984 46.5117 -38.1336)" style="fill:#E0E0E0;" width="112.338" height="6.988"/>
		
			<rect x="185.157" y="202.532" transform="matrix(0.984 0.1781 -0.1781 0.984 40.1582 -35.1826)" style="fill:#E0E0E0;" width="61.667" height="6.988"/>
		
			<rect x="275.02" y="100.251" transform="matrix(0.984 0.1781 -0.1781 0.984 23.1962 -50.841)" style="fill:#E0E0E0;" width="39.363" height="6.988"/>
		
			<rect x="273.005" y="111.38" transform="matrix(0.984 0.1781 -0.1781 0.984 25.1467 -50.3041)" style="fill:#E0E0E0;" width="39.363" height="6.988"/>
		
			<rect x="271.111" y="121.165" transform="matrix(0.984 0.1781 -0.1781 0.984 26.7389 -48.4661)" style="fill:#E0E0E0;" width="24.271" height="6.988"/>
	</g>
	<g>
		<g>
			<path style="fill:#E0E0E0;" d="M367.999,51.763l-12.29,0.493l-1.327,3.446c-0.434,1.148-0.636,2.09-0.607,2.826
				c0.039,0.975,0.461,1.678,1.267,2.108c0.473,0.256,1.618,0.414,3.437,0.479l0.038,0.949l-11.572,0.465l-0.038-0.949
				c1.24-0.239,2.247-0.797,3.016-1.676c0.77-0.879,1.692-2.668,2.766-5.367l11.329-28.262l0.488-0.02l13.693,28.029
				c1.305,2.654,2.357,4.317,3.155,4.987c0.603,0.507,1.436,0.782,2.501,0.825l0.038,0.949l-16.832,0.676l-0.038-0.949l0.693-0.028
				c1.35-0.054,2.293-0.281,2.825-0.679c0.365-0.288,0.537-0.69,0.517-1.203c-0.012-0.308-0.076-0.622-0.192-0.943
				c-0.041-0.153-0.323-0.784-0.847-1.893L367.999,51.763z M367.051,49.899l-5.664-11.775l-4.856,12.197L367.051,49.899z"/>
		</g>
	</g>
	<g>
		<g>
			<g>
				<g>
					<g>
						<g>
							<g>
								<g>
									<g>
										
											<rect x="341.035" y="132.605" transform="matrix(0.9485 -0.3168 0.3168 0.9485 -30.4204 125.4626)" style="fill:#F5F5F5;" width="59.258" height="47.375"/>
									</g>
								</g>
							</g>
						</g>
					</g>
				</g>
			</g>
			<g>
				<g>
					<g>
						<g>
							
								<rect x="343.08" y="135.6" transform="matrix(0.9485 -0.3168 0.3168 0.9485 -30.426 125.4499)" style="fill:#EBEBEB;" width="55.095" height="41.411"/>
						</g>
					</g>
				</g>
			</g>
			<g>
				<g>
					<g>
						<g>
							<polygon style="fill:#E0E0E0;" points="351.058,184.67 361.156,154.16 377.564,165.659 382.505,154.932 403.315,167.218 
															"/>
						</g>
					</g>
				</g>
			</g>
			<g>
				<g>
					<g>
						<g>
							<g>
								<g>
									<path style="fill:#E0E0E0;" d="M376.263,145.79c0.759,2.273-0.468,4.73-2.74,5.489c-2.272,0.759-4.73-0.468-5.489-2.741
										c-0.759-2.273,0.468-4.73,2.741-5.489C373.047,142.291,375.504,143.517,376.263,145.79z"/>
								</g>
							</g>
						</g>
					</g>
				</g>
			</g>
		</g>
		<g>
			<g>
				<g>
					<g>
						<g>
							<g>
								<g>
									<g>
										<g>
											
												<rect x="394.108" y="71.125" transform="matrix(0.1922 -0.9814 0.9814 0.1922 233.5417 515.5078)" style="fill:#F5F5F5;" width="71.586" height="89.542"/>
											<g>
												<path style="fill:#E0E0E0;" d="M480.717,89.374c0,0-0.15-0.02-0.429-0.07c-0.292-0.054-0.701-0.129-1.236-0.228
													c-1.099-0.208-2.7-0.512-4.78-0.907c-4.182-0.804-10.277-1.976-18.003-3.461c-15.44-2.994-37.385-7.25-63.47-12.308
													l0.281-0.189c-4.087,20.911-8.772,44.883-13.73,70.249l-0.001,0.007l-0.211-0.314
													c32.528,6.387,62.757,12.324,87.864,17.254l-0.261,0.175c4.19-21.143,7.662-38.669,10.091-50.927
													c1.225-6.128,2.187-10.936,2.845-14.23c0.331-1.634,0.586-2.889,0.761-3.753
													C480.613,89.823,480.717,89.374,480.717,89.374s-0.066,0.423-0.222,1.262c-0.162,0.857-0.397,2.101-0.703,3.721
													c-0.63,3.287-1.55,8.086-2.723,14.203c-2.381,12.302-5.785,29.89-9.892,51.109l-0.042,0.218l-0.219-0.043
													c-25.111-4.905-55.346-10.81-87.881-17.165l-0.263-0.051l0.051-0.263l0.001-0.007
													c4.978-25.363,9.681-49.331,13.785-70.239l0.046-0.236l0.235,0.047c26.128,5.167,48.111,9.515,63.576,12.573
													c7.693,1.534,13.762,2.745,17.925,3.575c2.056,0.415,3.637,0.735,4.723,0.954c0.521,0.108,0.92,0.191,1.205,0.25
													C480.589,89.34,480.717,89.374,480.717,89.374z"/>
											</g>
										</g>
									</g>
								</g>
							</g>
						</g>
					</g>
				</g>
			</g>
			<g>
				<g>
					<g>
						<g>
							
								<rect x="398.558" y="74.259" transform="matrix(0.1922 -0.9814 0.9814 0.1922 233.5065 515.4425)" style="fill:#EBEBEB;" width="62.573" height="83.251"/>
						</g>
					</g>
				</g>
			</g>
			<g>
				<g>
					<g>
						<g>
							<polygon style="fill:#E0E0E0;" points="382.982,138.587 418.992,106.006 431.992,133.349 446.481,122.93 464.68,154.588 
															"/>
						</g>
					</g>
				</g>
			</g>
			<g>
				<g>
					<g>
						<g>
							<g>
								<g>
									<path style="fill:#E0E0E0;" d="M445.088,106.262c-0.696,3.553-4.14,5.869-7.693,5.173c-3.553-0.696-5.869-4.14-5.173-7.693
										c0.696-3.553,4.14-5.869,7.692-5.173C443.468,99.265,445.783,102.709,445.088,106.262z"/>
								</g>
							</g>
						</g>
					</g>
				</g>
			</g>
		</g>
	</g>
	<g>
		<g>
			<polygon style="fill:#F5F5F5;" points="54.743,33.21 59.285,86.194 79.834,91.764 119.687,87.127 114.075,27.487 			"/>
			<path style="fill:#EBEBEB;" d="M65.549,81.426l-6.264,4.768c0,0,3.789,3.395,8.174,4.538c4.384,1.143,8.389,1.495,12.376,1.032
				C79.834,91.764,70.339,90.117,65.549,81.426z"/>
		</g>
		<g>
			<path style="fill:#E0E0E0;" d="M109.282,46.967c0.009,0.098-10.081,1.157-22.535,2.365c-12.458,1.208-22.562,2.107-22.572,2.009
				c-0.01-0.098,10.079-1.157,22.537-2.365C99.166,47.769,109.272,46.869,109.282,46.967z"/>
		</g>
		<g>
			<path style="fill:#E0E0E0;" d="M109.871,55.122c0.009,0.098-10.081,1.157-22.535,2.365c-12.458,1.208-22.562,2.107-22.572,2.009
				c-0.009-0.098,10.079-1.157,22.537-2.365C99.755,55.923,109.862,55.023,109.871,55.122z"/>
		</g>
		<g>
			<path style="fill:#E0E0E0;" d="M110.823,62.309c0.009,0.098-10.081,1.157-22.535,2.365c-12.458,1.208-22.562,2.107-22.572,2.009
				c-0.01-0.098,10.079-1.157,22.537-2.365C100.707,63.11,110.813,62.21,110.823,62.309z"/>
		</g>
		<g>
			<path style="fill:#E0E0E0;" d="M111.448,69.257c0.01,0.098-10.081,1.157-22.535,2.365c-12.459,1.208-22.562,2.107-22.572,2.009
				c-0.009-0.098,10.079-1.157,22.537-2.365C101.333,70.058,111.439,69.158,111.448,69.257z"/>
		</g>
	</g>
</g>
<g id="Background_Simple" style="display:none;">
	<path style="display:inline;fill:#F5F5F5;" d="M441.534,59.159l-1.085-1.788c-9.148-15.074-25.687-24.161-43.124-23.059
		c-2.241,0.142-4.473,0.445-6.675,0.917C374.795,38.622,361,50.611,355.282,65.966c-3.363,9.03-4.302,19.427-10.684,26.595
		c-8.305,9.329-22.406,9.622-34.803,9.235c-12.397-0.386-26.507-0.057-34.772,9.309c-5.176,5.865-6.821,14.206-6.404,22.061
		c1.105,20.796,15.596,39.391,34.025,48.634c18.429,9.243,40.127,10.07,60.296,6.005c28.255-5.696,55.125-21.337,71.276-45.496
		C450.369,118.148,454.456,85.234,441.534,59.159z"/>
	<circle style="display:inline;fill:#F5F5F5;" cx="305.682" cy="64.192" r="21.727"/>
</g>
<g id="Floor">
	<g>
		<path style="fill:#263238;" d="M484.391,459.896c0,0.148-105.397,0.268-235.38,0.268c-130.028,0-235.402-0.12-235.402-0.268
			c0-0.148,105.374-0.268,235.402-0.268C378.994,459.628,484.391,459.748,484.391,459.896z"/>
	</g>
</g>
<g id="Thesis">
	<g>
		<polygon style="fill:#E0E0E0;" points="41.938,125.35 84.101,366.775 261.875,338.856 270.115,318.953 222.023,95.717 
			55.384,105.662 		"/>
		<polygon style="opacity:0.3;" points="84.101,366.775 96.731,347.416 54.567,105.991 41.938,125.35 		"/>
		<g>
			<polygon style="fill:#FAFAFA;" points="54.567,105.991 96.731,347.416 270.115,318.953 226.314,81.5 			"/>
			<g>
				<path style="fill:#263238;" d="M54.567,105.991c1.764-0.254,67.494-9.711,171.716-24.706l0.206-0.03l0.038,0.205
					c12.254,66.352,27.433,148.542,43.851,237.443l0.05,0.268l-0.269,0.044c-0.902,0.148-1.882,0.309-2.862,0.47
					c-61.009,10.007-118.919,19.505-170.526,27.97l-0.238,0.039l-0.041-0.238C71.732,204.856,54.937,108.122,54.567,105.991
					c0.374,2.129,17.361,98.83,42.403,241.383l-0.279-0.198c51.605-8.479,109.512-17.993,170.518-28.017
					c0.98-0.161,1.96-0.322,2.862-0.47l-0.22,0.312c-16.381-88.908-31.525-171.104-43.751-237.462l0.244,0.175
					C122.086,96.449,56.331,105.742,54.567,105.991z"/>
			</g>
		</g>
		
			<ellipse transform="matrix(0.1317 -0.9913 0.9913 0.1317 -71.8789 350.7754)" style="fill:#FF725E;" cx="164.289" cy="216.417" rx="29.554" ry="29.555"/>
		<path style="fill:#FFFFFF;" d="M150.742,224.177l-1.343-8.502l29.475-4.656l1.258,7.966c0,0-1.798,6.875-13.722,8.759
			C154.487,229.627,150.742,224.177,150.742,224.177z"/>
		<polygon style="fill:#FFFFFF;" points="144.752,215.724 165.775,219.457 184.021,209.196 162.956,205.874 		"/>
		<path style="fill:#E0E0E0;" d="M204.68,140.059l-104.502,16.509c-1.28,0.202-2.482-0.672-2.684-1.952l-0.354-2.241
			c-0.202-1.28,0.672-2.482,1.952-2.685l104.502-16.509c1.28-0.202,2.482,0.672,2.684,1.952l0.354,2.241
			C206.834,138.655,205.961,139.857,204.68,140.059z"/>
		<path style="fill:#E0E0E0;" d="M188.14,157.445l-66.271,10.469c-1.28,0.202-2.482-0.672-2.685-1.952l-0.354-2.241
			c-0.202-1.28,0.672-2.482,1.952-2.684l66.271-10.469c1.28-0.202,2.482,0.672,2.684,1.952l0.354,2.241
			C190.294,156.041,189.42,157.243,188.14,157.445z"/>
		<path style="fill:#E0E0E0;" d="M212.005,305.573l-66.271,10.469c-1.28,0.202-2.482-0.672-2.685-1.952l-0.354-2.241
			c-0.202-1.28,0.672-2.482,1.952-2.684l66.271-10.469c1.28-0.202,2.482,0.672,2.684,1.952l0.354,2.241
			C214.159,304.169,213.285,305.371,212.005,305.573z"/>
		<g>
			<path style="fill:#263238;" d="M261.193,325.661c0,0-0.283,0.063-0.841,0.161c-0.571,0.098-1.399,0.24-2.482,0.426
				c-2.199,0.366-5.424,0.904-9.59,1.598c-8.364,1.372-20.493,3.362-35.607,5.842c-30.262,4.919-72.469,11.78-120.305,19.555
				l-0.257,0.042l-0.045-0.257c-1.686-9.545-3.453-19.553-5.253-29.74c-9.632-54.745-18.351-104.3-24.664-140.182
				c-3.129-17.933-5.661-32.446-7.414-42.491c-0.862-5.01-1.532-8.903-1.989-11.557c-0.22-1.313-0.388-2.318-0.504-3.008
				c-0.111-0.678-0.154-1.028-0.154-1.028s0.079,0.343,0.208,1.018c0.128,0.688,0.313,1.689,0.556,2.999
				c0.48,2.651,1.183,6.537,2.088,11.54c1.792,10.038,4.382,24.541,7.581,42.462c6.353,35.875,15.126,85.42,24.819,140.155
				c1.797,10.188,3.563,20.196,5.247,29.742l-0.303-0.215c47.847-7.705,90.065-14.504,120.333-19.379
				c15.125-2.413,27.262-4.349,35.633-5.684c4.172-0.655,7.403-1.162,9.605-1.507c1.087-0.165,1.917-0.291,2.49-0.378
				C260.904,325.691,261.193,325.661,261.193,325.661z"/>
		</g>
		<g>
			<path style="fill:#263238;" d="M247.972,334.743c0,0-0.267,0.06-0.793,0.155c-0.539,0.094-1.32,0.231-2.342,0.41
				c-2.076,0.352-5.121,0.869-9.055,1.537c-7.903,1.32-19.368,3.236-33.679,5.627c-28.655,4.743-68.692,11.37-114.275,18.915
				l-0.255,0.042l-0.046-0.255c-2.096-11.508-4.275-23.478-6.503-35.71C71.231,271.484,62.368,222.621,55.95,187.24
				c-3.181-17.683-5.756-31.994-7.538-41.899c-0.877-4.94-1.558-8.778-2.023-11.396c-0.224-1.295-0.395-2.285-0.513-2.966
				c-0.113-0.669-0.157-1.014-0.157-1.014s0.08,0.338,0.21,1.004c0.13,0.679,0.318,1.666,0.565,2.957
				c0.487,2.614,1.202,6.446,2.121,11.378c1.822,9.898,4.453,24.198,7.705,41.868c6.457,35.374,15.375,84.227,25.227,138.198
				c2.224,12.233,4.401,24.203,6.494,35.712l-0.302-0.212c45.595-7.473,85.643-14.038,114.305-18.736
				c14.322-2.325,25.796-4.188,33.704-5.472c3.941-0.629,6.991-1.116,9.07-1.448c1.025-0.158,1.809-0.279,2.35-0.363
				C247.7,334.772,247.972,334.743,247.972,334.743z"/>
		</g>
		<g>
			<polygon style="fill:#263238;" points="58.755,208.227 54.855,213.755 64.339,270.639 69.99,272.557 			"/>
			
				<rect x="64.168" y="205.377" transform="matrix(0.9851 -0.172 0.172 0.9851 -39.7892 16.9523)" style="fill:#263238;" width="27.478" height="65.304"/>
			<path style="fill:#263238;" d="M98.729,269.784l-1.761,0.307c-1.006,0.176-1.964-0.497-2.14-1.503L83.45,203.434
				c-0.176-1.006,0.497-1.964,1.503-2.14l1.761-0.308c1.006-0.176,1.964,0.497,2.14,1.503l11.379,65.154
				C100.408,268.65,99.735,269.608,98.729,269.784z"/>
			<path style="fill:none;stroke:#455A64;stroke-width:2;stroke-miterlimit:10;" d="M80.008,224.603l-17.567,9.973
				c-2.475-2.642-6.154-4.061-9.979-3.498c-6.093,0.896-10.477,6.702-9.649,12.805c0.875,6.447,6.914,10.821,13.264,9.712
				c3.966-0.693,7.085-3.361,8.542-6.814l19.829,3.16c0.892,0.142,1.66-0.636,1.504-1.527l-3.998-22.893
				C81.798,224.625,80.8,224.154,80.008,224.603z"/>
			<g>
				<path style="fill:#455A64;" d="M94.683,267.752c-0.018-0.001-0.067-0.225-0.142-0.643c-0.09-0.477-0.204-1.087-0.346-1.843
					c-0.306-1.67-0.727-3.974-1.243-6.792c-1.035-5.799-2.445-13.699-4.003-22.428c-1.514-8.74-2.884-16.648-3.89-22.452
					c-0.466-2.827-0.847-5.138-1.123-6.814c-0.114-0.761-0.207-1.377-0.279-1.857c-0.058-0.426-0.08-0.651-0.061-0.654
					c0.018-0.003,0.075,0.215,0.168,0.635c0.098,0.476,0.223,1.086,0.378,1.84c0.317,1.668,0.755,3.969,1.29,6.784
					c1.065,5.733,2.5,13.66,4.044,22.425c1.544,8.762,2.904,16.701,3.849,22.456c0.472,2.877,0.84,5.208,1.076,6.823
					c0.113,0.809,0.206,1.432,0.248,1.865C94.689,267.53,94.701,267.753,94.683,267.752z"/>
			</g>
			<g>
				<path style="fill:#455A64;" d="M69.455,272.777c-0.018-0.001-0.067-0.225-0.142-0.643c-0.09-0.477-0.204-1.087-0.346-1.843
					c-0.306-1.67-0.727-3.974-1.243-6.792c-1.035-5.799-2.445-13.699-4.003-22.428c-1.514-8.739-2.884-16.648-3.89-22.452
					c-0.466-2.827-0.847-5.138-1.123-6.814c-0.114-0.761-0.207-1.377-0.279-1.857c-0.058-0.426-0.08-0.651-0.061-0.654
					c0.018-0.003,0.075,0.215,0.168,0.635c0.098,0.476,0.223,1.086,0.378,1.84c0.317,1.668,0.755,3.969,1.29,6.784
					c1.065,5.733,2.5,13.66,4.044,22.425c1.543,8.762,2.904,16.701,3.849,22.456c0.472,2.877,0.84,5.208,1.076,6.823
					c0.113,0.809,0.206,1.432,0.248,1.865C69.461,272.555,69.473,272.778,69.455,272.777z"/>
			</g>
		</g>
		<g>
			<path style="fill:#263238;" d="M184.021,209.196c0.018,0.032-0.474,0.349-1.38,0.895c-0.993,0.583-2.294,1.348-3.864,2.271
				c-3.276,1.898-7.822,4.489-12.869,7.329l-0.084,0.047l-0.094-0.017c-0.065-0.012-0.135-0.024-0.205-0.036
				c-5.75-1.021-10.949-1.975-14.708-2.691c-1.807-0.356-3.304-0.651-4.446-0.876c-1.048-0.219-1.624-0.357-1.618-0.393
				c0.007-0.036,0.595,0.033,1.654,0.188c1.149,0.182,2.657,0.421,4.476,0.708c3.775,0.621,8.985,1.516,14.735,2.537
				c0.07,0.012,0.141,0.025,0.206,0.036l-0.178,0.03c5.048-2.838,9.624-5.377,12.947-7.191c1.604-0.863,2.933-1.577,3.947-2.123
				C183.476,209.42,184.003,209.164,184.021,209.196z"/>
		</g>
		
			<text transform="matrix(0.9877 -0.156 0.156 0.9877 121.2645 135.835)" style="fill:#263238; font-family:'Montserrat-ExtraBold'; font-size:14.6842px;">THESIS</text>
	</g>
</g>
<g id="Books">
	<g>
		<g>
			<path style="fill:#FF725E;" d="M284.445,370.535h-85.261c-9.746,0-17.647-7.901-17.647-17.647v-9.447
				c0-9.746,7.901-17.647,17.647-17.647h85.261V370.535z"/>
			<path style="fill:#FF725E;" d="M441.984,333.221H262.155v-7.427h179.829c1.618,0,2.93,1.312,2.93,2.93v1.568
				C444.913,331.91,443.602,333.221,441.984,333.221z"/>
			<path style="fill:#FF725E;" d="M441.984,370.535H262.155v-7.427h179.829c1.618,0,2.93,1.312,2.93,2.93v1.568
				C444.913,369.224,443.602,370.535,441.984,370.535z"/>
			<path style="fill:#F5F5F5;" d="M439.462,363.108H282.549c-8.253,0-14.943-6.69-14.943-14.943l0,0
				c0-8.253,6.69-14.943,14.943-14.943h156.913C435.254,343.184,435.254,353.146,439.462,363.108z"/>
			<path style="opacity:0.3;" d="M267.606,370.535h-68.073c-9.939,0-17.996-8.057-17.996-17.996v-8.886
				c0-9.863,7.996-17.859,17.859-17.859h69.913C253.109,335.607,254.32,359.108,267.606,370.535z"/>
			<g>
				<path style="fill:#263238;" d="M420.398,349.552c0,0.148-32.207,0.268-71.928,0.268c-39.734,0-71.934-0.12-71.934-0.268
					c0-0.148,32.2-0.268,71.934-0.268C388.191,349.284,420.398,349.404,420.398,349.552z"/>
			</g>
			<g>
				<path style="fill:#263238;" d="M435.202,356.195c0,0.148-32.207,0.268-71.928,0.268c-39.734,0-71.935-0.12-71.935-0.268
					c0-0.148,32.2-0.267,71.935-0.267C402.994,355.927,435.202,356.047,435.202,356.195z"/>
			</g>
			<g>
				<path style="fill:#263238;" d="M430.836,340.132c0,0.148-32.207,0.267-71.928,0.267c-39.734,0-71.935-0.12-71.935-0.267
					c0-0.148,32.2-0.268,71.935-0.268C398.629,339.864,430.836,339.984,430.836,340.132z"/>
			</g>
			<g>
				<path style="fill:#263238;" d="M259.728,367.4c0,0.148-15.076,0.268-33.669,0.268c-18.599,0-33.672-0.12-33.672-0.268
					c0-0.148,15.073-0.268,33.672-0.268C244.652,367.132,259.728,367.252,259.728,367.4z"/>
			</g>
			<g>
				<path style="fill:#263238;" d="M259.728,329.508c0,0.148-15.076,0.268-33.669,0.268c-18.599,0-33.672-0.12-33.672-0.268
					c0-0.148,15.073-0.268,33.672-0.268C244.652,329.24,259.728,329.36,259.728,329.508z"/>
			</g>
		</g>
		<g>
			<path style="fill:#FF725E;" d="M276.425,459.562H161.543c-9.746,0-17.647-7.901-17.647-17.647v-22.326
				c0-9.746,7.901-17.647,17.647-17.647h114.882V459.562z"/>
			<path style="fill:#FF725E;" d="M480.154,411.508H247.719v-9.565h232.435c1.618,0,2.929,1.311,2.929,2.929v3.706
				C483.083,410.196,481.772,411.508,480.154,411.508z"/>
			<path style="fill:#FF725E;" d="M480.154,459.562H247.719v-9.565h232.435c1.618,0,2.929,1.312,2.929,2.93v3.706
				C483.083,458.25,481.772,459.562,480.154,459.562z"/>
			<path style="fill:#F5F5F5;" d="M476.063,449.997l-202.079,0c-10.629,0-19.245-8.616-19.245-19.245v0
				c0-10.628,8.616-19.245,19.245-19.245h202.079C470.644,424.337,470.644,437.167,476.063,449.997z"/>
			<path style="opacity:0.3;" d="M254.74,459.562h-93.425c-9.62,0-17.418-7.799-17.418-17.418v-22.165
				c0-9.961,8.075-18.036,18.036-18.036h95.001C236.07,414.58,237.629,444.846,254.74,459.562z"/>
			<g>
				<path style="fill:#263238;" d="M451.511,432.539c0,0.148-41.478,0.268-92.632,0.268c-51.171,0-92.64-0.12-92.64-0.268
					c0-0.148,41.469-0.267,92.64-0.267C410.033,432.271,451.511,432.391,451.511,432.539z"/>
			</g>
			<g>
				<path style="fill:#263238;" d="M470.576,441.094c0,0.148-41.478,0.268-92.632,0.268c-51.171,0-92.64-0.12-92.64-0.268
					c0-0.148,41.469-0.268,92.64-0.268C429.098,440.826,470.576,440.946,470.576,441.094z"/>
			</g>
			<g>
				<path style="fill:#263238;" d="M464.955,424.6c0,0.148-41.478,0.268-92.632,0.268c-51.172,0-92.64-0.12-92.64-0.268
					c0-0.148,41.469-0.267,92.64-0.267C423.477,424.333,464.955,424.453,464.955,424.6z"/>
			</g>
			<g>
				<path style="fill:#263238;" d="M244.594,455.524c0,0.148-19.415,0.268-43.36,0.268c-23.953,0-43.364-0.12-43.364-0.268
					c0-0.148,19.411-0.268,43.364-0.268C225.179,455.257,244.594,455.376,244.594,455.524z"/>
			</g>
			<g>
				<path style="fill:#263238;" d="M244.594,406.725c0,0.148-19.415,0.267-43.36,0.267c-23.953,0-43.364-0.12-43.364-0.267
					c0-0.148,19.411-0.268,43.364-0.268C225.179,406.457,244.594,406.577,244.594,406.725z"/>
			</g>
		</g>
		<g>
			<path style="fill:#455A64;" d="M310.842,402.152h-94.664c-7.186,0-13.012-5.826-13.012-13.012v-6.966
				c0-7.186,5.826-13.012,13.012-13.012h94.664V402.152z"/>
			<path style="fill:#455A64;" d="M475.68,376.933H287.519v-7.772H475.68c1.693,0,3.065,1.372,3.065,3.065v1.641
				C478.745,375.561,477.373,376.933,475.68,376.933z"/>
			<path style="fill:#455A64;" d="M475.68,402.152H287.519v-7.771H475.68c1.693,0,3.065,1.372,3.065,3.065v1.641
				C478.745,400.78,477.373,402.152,475.68,402.152z"/>
			<path style="fill:#F5F5F5;" d="M473.042,394.381H301.947c-4.818,0-8.724-3.906-8.724-8.724l0,0c0-4.818,3.906-8.724,8.724-8.724
				h171.095C468.639,382.749,468.639,388.565,473.042,394.381z"/>
			<path style="opacity:0.3;" d="M293.223,402.152h-76.958c-7.234,0-13.099-5.865-13.099-13.099v-6.528
				c0-7.381,5.983-13.364,13.364-13.364h78.475C278.054,376.397,279.321,393.726,293.223,402.152z"/>
			<g>
				<path style="fill:#263238;" d="M453.094,384.283c0,0.148-33.699,0.268-75.26,0.268c-41.575,0-75.268-0.12-75.268-0.268
					c0-0.148,33.692-0.268,75.268-0.268C419.395,384.016,453.094,384.135,453.094,384.283z"/>
			</g>
			<g>
				<path style="fill:#263238;" d="M468.584,388.979c0,0.148-33.699,0.268-75.26,0.268c-41.575,0-75.268-0.12-75.268-0.268
					c0-0.148,33.692-0.268,75.268-0.268C434.884,388.711,468.584,388.831,468.584,388.979z"/>
			</g>
			<g>
				<path style="fill:#263238;" d="M284.98,398.872c0,0.148-15.775,0.268-35.229,0.268c-19.461,0-35.232-0.12-35.232-0.268
					c0-0.148,15.771-0.268,35.232-0.268C269.205,398.604,284.98,398.724,284.98,398.872z"/>
			</g>
			<g>
				<path style="fill:#263238;" d="M284.98,373.047c0,0.148-15.775,0.268-35.229,0.268c-19.461,0-35.232-0.12-35.232-0.268
					c0-0.148,15.771-0.268,35.232-0.268C269.205,372.78,284.98,372.9,284.98,373.047z"/>
			</g>
			<g>
				<path style="fill:#263238;" d="M476.5,369.161c0,0.148-57.866,0.268-129.23,0.268c-71.389,0-129.243-0.12-129.243-0.268
					c0-0.148,57.853-0.267,129.243-0.267C418.634,368.894,476.5,369.014,476.5,369.161z"/>
			</g>
		</g>
		<polygon style="fill:#FF725E;" points="372.725,339.642 372.725,357.561 378.936,353.578 385.864,357.561 385.864,339.642 		"/>
	</g>
</g>
<g id="Pencil">
	<g>
		<g>
			<g>
				<polygon style="fill:#FF725E;" points="435.837,161.773 404.572,187.816 357.007,281.782 386.662,295.183 432.916,203.026 				
					"/>
				<g style="opacity:0.7;">
					<path style="fill:#FFFFFF;" d="M432.916,203.026c-1.605,0.212-3.067-0.804-2.951-2.419c-1.956,2.282-5.417,3.127-8.204,2.003
						c-2.788-1.124-4.695-4.132-4.523-7.132c-2.62,1.406-5.993,1.285-8.506-0.303c-2.513-1.589-4.069-4.583-3.924-7.553
						l31.03-25.849L432.916,203.026z"/>
				</g>
				<path style="fill:#FF725E;" d="M423.264,172.246c0,0,0.473,7.78,11.377,6.428l1.197-16.901L423.264,172.246z"/>
			</g>
		</g>
		<path style="opacity:0.3;" d="M417.237,195.479l-45.845,92.296l-14.385-5.993l47.565-93.966l0.235-0.194
			c0,0-0.178,1.74,0.647,3.658c0.552,1.284,1.555,2.729,3.076,3.76c1.958,1.326,4.052,1.589,5.693,1.389
			C415.993,196.214,417.237,195.479,417.237,195.479z"/>
		<path style="opacity:0.3;" d="M429.964,200.607l-47.105,92.857l3.803,1.718l46.254-92.156c0,0-2.318,0.404-2.928-1.816
			C429.939,201.033,429.972,200.823,429.964,200.607z"/>
		<g>
			<path style="fill:#FFFFFF;" d="M417.01,186.518c0.021,0.008-0.155,0.109-0.163,0.416c-0.015,0.281,0.212,0.796,0.803,0.864
				c0.559,0.069,1.278-0.151,1.973-0.555c0.34-0.215,0.668-0.522,0.842-0.941c0.178-0.409,0.202-0.94-0.087-1.345
				c-0.279-0.412-0.81-0.619-1.354-0.685c-0.551-0.07-1.137-0.001-1.735,0.099c-1.186,0.214-2.454,0.635-3.572,1.393
				c-0.539,0.385-1.035,0.938-1.099,1.625c-0.069,0.68,0.313,1.373,0.876,1.808c1.185,0.864,2.876,0.846,4.377,0.545
				c3.07-0.669,5.523-3.1,6.115-5.735c0.124-0.657-0.043-1.327-0.467-1.796c-0.411-0.478-0.976-0.781-1.533-1.003
				c-1.135-0.419-2.268-0.606-3.298-0.661c-2.074-0.107-3.733,0.333-4.819,0.72c-0.543,0.205-0.954,0.39-1.229,0.525
				c-0.273,0.138-0.423,0.2-0.423,0.2s0.534-0.371,1.62-0.808c1.084-0.415,2.754-0.885,4.857-0.798
				c1.047,0.046,2.191,0.224,3.359,0.646c0.574,0.225,1.166,0.533,1.615,1.048c0.465,0.502,0.656,1.261,0.522,1.96
				c-0.609,2.754-3.115,5.226-6.272,5.923c-0.786,0.176-1.588,0.223-2.372,0.164c-0.778-0.069-1.568-0.274-2.19-0.755
				c-0.61-0.475-1.033-1.229-0.955-2.004c0.079-0.781,0.631-1.374,1.193-1.773c1.168-0.783,2.448-1.197,3.662-1.409
				c0.607-0.097,1.209-0.165,1.789-0.087c0.568,0.074,1.149,0.297,1.464,0.768c0.323,0.465,0.284,1.056,0.087,1.492
				c-0.194,0.452-0.55,0.774-0.907,0.992c-0.73,0.409-1.453,0.619-2.054,0.535c-0.633-0.088-0.87-0.658-0.834-0.952
				C416.828,186.604,417.023,186.514,417.01,186.518z"/>
		</g>
		<g>
			<path style="fill:#FFFFFF;" d="M433.781,185.952c-0.003,0.028-0.458-0.073-1.285-0.04c-0.824,0.026-2.018,0.267-3.355,0.9
				c-1.348,0.617-2.784,1.654-4.318,2.88c-1.544,1.195-3.256,2.611-5.439,3.373c-2.173,0.756-4.449,0.75-6.364,0.247
				c-1.932-0.496-3.474-1.507-4.567-2.52c-1.099-1.024-1.763-2.059-2.155-2.791c-0.389-0.739-0.52-1.185-0.52-1.185
				c0.007-0.003,0.06,0.1,0.154,0.297c0.091,0.198,0.237,0.486,0.443,0.845c0.413,0.714,1.089,1.722,2.186,2.716
				c1.092,0.983,2.615,1.961,4.511,2.436c1.881,0.482,4.111,0.481,6.238-0.259c2.133-0.743,3.834-2.136,5.385-3.324
				c1.541-1.216,3.006-2.255,4.379-2.861c1.364-0.623,2.584-0.844,3.419-0.843C433.332,185.818,433.781,185.952,433.781,185.952z"/>
		</g>
		<g>
			<path style="fill:#FFFFFF;" d="M433.597,195.371c-0.022,0.063-0.602-0.87-2.145-1.027c-1.498-0.149-3.596,0.278-5.832,0.851
				c-2.241,0.602-4.19,1.406-5.559,2.066c-0.687,0.326-1.231,0.616-1.608,0.813c-0.374,0.203-0.585,0.309-0.594,0.296
				c-0.008-0.013,0.188-0.145,0.55-0.372c0.365-0.222,0.899-0.534,1.581-0.88c1.357-0.701,3.313-1.535,5.571-2.141
				c1.127-0.307,2.219-0.527,3.219-0.678c0.998-0.154,1.923-0.224,2.692-0.113c0.773,0.099,1.352,0.41,1.682,0.686
				C433.482,195.157,433.597,195.371,433.597,195.371z"/>
		</g>
		<g>
			<path style="fill:#FFFFFF;" d="M420.618,201.988c-0.016-0.022,0.369-0.36,1.045-0.843c0.675-0.468,1.682-1.11,2.964-1.326
				c1.284-0.242,2.497,0.191,3.117,0.767c0.319,0.28,0.517,0.567,0.624,0.777c0.107,0.21,0.134,0.339,0.124,0.343
				c-0.039,0.025-0.21-0.489-0.849-0.996c-0.62-0.516-1.751-0.896-2.978-0.667c-1.226,0.206-2.22,0.805-2.912,1.236
				C421.059,201.722,420.638,202.016,420.618,201.988z"/>
		</g>
		<g>
			<path style="fill:#FFFFFF;" d="M434.598,180.351c0.004,0.007-0.047,0.049-0.15,0.125c-0.102,0.075-0.253,0.185-0.457,0.317
				c-0.203,0.128-0.465,0.289-0.815,0.363c-0.348,0.08-0.761,0.032-1.179-0.073c-0.852-0.191-1.797-0.617-2.863-0.989
				c-1.068-0.373-2.279-0.678-3.569-0.891c-2.584-0.424-4.97-0.436-6.687-0.45c-0.745-0.001-1.42-0.002-2.038-0.003
				c-0.482-0.002-0.748-0.011-0.748-0.026c0-0.015,0.265-0.037,0.746-0.062c0.481-0.024,1.177-0.053,2.039-0.069
				c1.719-0.026,4.116-0.041,6.725,0.387c1.301,0.215,2.525,0.529,3.601,0.918c1.077,0.388,2.004,0.824,2.833,1.03
				c0.827,0.281,1.51,0.053,1.91-0.21C434.36,180.475,434.589,180.335,434.598,180.351z"/>
		</g>
	</g>
</g>
<g id="Graduation_Cap">
	<g>
		<g>
			<path style="fill:#FF725E;" d="M467.743,265.27c0,21.246,0,42.493,0,63.739c0,6.058,0,12.116,0,18.175
				c0,0.826,1.284,0.828,1.284,0c0-21.246,0-42.493,0-63.739c0-6.058,0-12.117,0-18.175
				C469.028,264.444,467.743,264.442,467.743,265.27L467.743,265.27z"/>
		</g>
		<path style="fill:#FF725E;" d="M473.023,329.134c0,2.551-2.069,4.62-4.62,4.62c-2.552,0-4.62-2.068-4.62-4.62
			c0-2.552,2.068-4.62,4.62-4.62C470.954,324.514,473.023,326.582,473.023,329.134z"/>
		<path style="fill:#FF725E;" d="M467.098,331.525c0,0-3.365,3.365-4.374,13.233c-1.009,9.869-1.234,14.804-1.234,14.804
			l9.084,0.561c0,0,0-7.402,0-7.065c0,0.336,1.794,5.271,1.794,5.271l7.178-2.355C479.546,355.973,476.967,329.731,467.098,331.525z
			"/>
		<rect x="265.667" y="271.973" style="fill:#263238;" width="154.202" height="55.595"/>
		<rect x="210.281" y="262.406" style="fill:#263238;" width="263.753" height="9.567"/>
		<path style="opacity:0.3;" d="M265.667,311.795c0,0,46.846-16.808,77.101-23.014s77.101-4.137,77.101-4.137v-12.671H265.667
			V311.795z"/>
		<rect x="210.281" y="262.406" style="opacity:0.3;" width="95.4" height="9.567"/>
		<g>
			<path style="fill:#455A64;" d="M472.121,271.973c0,0.148-58.647,0.268-130.974,0.268c-72.353,0-130.986-0.12-130.986-0.268
				c0-0.148,58.634-0.267,130.986-0.267C413.475,271.706,472.121,271.826,472.121,271.973z"/>
		</g>
		<g>
			<path style="fill:#455A64;" d="M305.527,272.054c-0.148,0-0.268-2.178-0.268-4.864c0-2.687,0.12-4.865,0.268-4.865
				c0.148,0,0.267,2.178,0.267,4.865C305.794,269.876,305.674,272.054,305.527,272.054z"/>
		</g>
		<g>
			<path style="fill:#455A64;" d="M327.524,327.568c-0.148,0-0.268-10.847-0.268-24.224c0-13.382,0.12-24.227,0.268-24.227
				c0.148,0,0.268,10.845,0.268,24.227C327.792,316.721,327.672,327.568,327.524,327.568z"/>
		</g>
	</g>
</g>
<g id="Character">
	<g>
		<g>
			<g>
				<g>
					<path style="fill:#FFBF9D;" d="M104.448,395.838l17.73-7.155l13.542-35.376l18.052,9.302c0,0-1.746,3.495-5.477,12.139
						c-1.44,3.337-6.213,12.64-8.158,17.172c-3.67,8.553-11.964,14.204-21.269,14.447l-16.638,0.434L104.448,395.838z"/>
				</g>
			</g>
			<path style="fill:#FFBF9D;" d="M95.642,388.991l-2.677-2.815c-0.516-0.332-1.12-0.499-1.733-0.481l-8.486,0.258
				c-1.601,0.158-3.044,1.032-3.926,2.377l-3.085,5.252c0,0-2.074,3.593-1.81,4.466c0.399,1.318,1.79,1.05,1.79,1.05
				s0.294,1.66,0.85,1.998c0.928,0.563,2.061,0.133,2.061,0.133c0.308,0.637,0.964,1.061,1.671,1.011
				c0.141-0.01,0.288-0.036,0.44-0.081c1.008-0.305,1.462-2.256,1.462-2.256l4.302-0.797c0,0,6.179,4.131,8.357,6.838
				c2.178,2.706,7.882,0.638,7.882,0.638l2.135-10.204L95.642,388.991z"/>
			<g>
				<path style="fill:#FF9A6C;" d="M89.388,390.209c0.006,0.06-0.684,0.192-1.856,0.309c-1.17,0.13-2.826,0.177-4.689,0.419
					l0.201-0.148c-0.303,0.664-0.676,1.351-1.102,2.032c-1.318,2.108-2.871,3.752-4.079,4.826c-1.216,1.075-2.094,1.575-2.129,1.521
					c-0.049-0.068,0.741-0.67,1.87-1.797c1.123-1.126,2.599-2.779,3.885-4.834c0.415-0.664,0.783-1.328,1.087-1.965l0.063-0.132
					l0.139-0.016c1.915-0.216,3.565-0.194,4.735-0.234C88.683,390.164,89.381,390.145,89.388,390.209z"/>
			</g>
			<g>
				<path style="fill:#FF9A6C;" d="M89.583,394.257c0.014,0.055-0.57,0.276-1.599,0.426c-1.024,0.15-2.505,0.196-4.151-0.145
					l0.302-0.172c-0.171,0.502-0.372,1.023-0.62,1.539c-0.897,1.879-2.162,3.317-3.189,4.19c-1.031,0.881-1.79,1.248-1.822,1.195
					c-0.048-0.07,0.629-0.546,1.565-1.473c0.935-0.921,2.102-2.338,2.964-4.143c0.238-0.496,0.435-0.995,0.608-1.475l0.08-0.221
					l0.223,0.05C87.12,394.736,89.57,394.1,89.583,394.257z"/>
			</g>
			<g>
				<path style="fill:#FFBF9D;" d="M100.357,396.351c-2.523-1.173-5.045-2.346-7.568-3.518c-1.048-0.487-2.14-0.984-3.295-0.979
					c-1.244,0.006-2.402,0.591-3.507,1.163c-1.357,0.703-2.715,1.406-4.072,2.108c-0.221,0.114-0.462,0.251-0.54,0.487
					c-0.102,0.31,0.122,0.627,0.351,0.859c2.034,2.06,5.689,2.21,7.884,0.323c0.653,1.777,1.33,3.594,2.553,5.04
					c1.223,1.445,3.125,2.468,4.987,2.126"/>
				<g>
					<path style="fill:#FF9A6C;" d="M97.15,403.958c0.002,0.013-0.066,0.035-0.203,0.067c-0.136,0.035-0.344,0.062-0.617,0.07
						c-0.541,0.014-1.365-0.089-2.279-0.553c-0.91-0.451-1.901-1.269-2.682-2.445c-0.799-1.166-1.394-2.639-1.982-4.222l0.378,0.098
						c-1.116,0.983-2.743,1.507-4.407,1.378c-0.831-0.062-1.676-0.284-2.456-0.687c-0.382-0.215-0.76-0.453-1.092-0.756
						c-0.164-0.152-0.339-0.29-0.489-0.5c-0.142-0.194-0.296-0.483-0.216-0.824c0.068-0.281,0.283-0.46,0.452-0.566
						c0.18-0.111,0.335-0.181,0.493-0.266c0.317-0.164,0.631-0.326,0.944-0.488c0.625-0.322,1.241-0.639,1.846-0.951
						c1.211-0.601,2.357-1.303,3.648-1.59c1.308-0.316,2.584,0.09,3.591,0.544c1.024,0.466,1.946,0.921,2.803,1.329
						c1.636,0.799,2.992,1.461,4.028,1.966c0.946,0.475,1.462,0.754,1.446,0.787c-0.016,0.034-0.561-0.181-1.534-0.598
						c-1.054-0.466-2.435-1.076-4.1-1.812c-0.87-0.39-1.812-0.813-2.818-1.264c-1.003-0.427-2.142-0.766-3.309-0.47
						c-1.167,0.268-2.299,0.96-3.514,1.574c-0.604,0.314-1.219,0.634-1.842,0.958c-0.312,0.162-0.626,0.325-0.943,0.489
						c-0.322,0.164-0.656,0.324-0.672,0.486c-0.065,0.197,0.227,0.544,0.538,0.794c0.298,0.274,0.64,0.49,0.987,0.687
						c0.709,0.369,1.483,0.577,2.249,0.639c1.534,0.128,3.032-0.341,4.057-1.221l0.263-0.226l0.115,0.324
						c0.566,1.589,1.122,3.032,1.863,4.169c0.725,1.147,1.633,1.942,2.486,2.412C95.929,404.246,97.17,403.864,97.15,403.958z"/>
				</g>
			</g>
		</g>
		<g>
			<g>
				<path style="fill:#263238;" d="M198.799,297.268c0.068-5.68,0.963-11.34,0.745-17.016c-0.218-5.676-1.712-11.588-5.672-15.66
					c-3.96-4.072-10.837-5.626-15.471-2.34l-0.951,4.834c1.824,21.901,1.575,44.157,3.399,66.057
					c0.24,2.877,2.575,5.482,3.883,8.055c1.308,2.573,3.934,4.697,6.815,4.52c3.77-0.232,6.244-4.054,7.416-7.644
					C203.214,325.058,198.634,310.96,198.799,297.268z"/>
			</g>
			<g>
				<path style="fill:#FF725E;" d="M185.139,267.82c-0.825-1.404-1.674-2.828-2.887-3.914c-1.214-1.085-2.872-1.798-4.471-1.493
					c-0.753,0.143-1.519,0.571-1.772,1.294c-0.253,0.723,0.288,1.69,1.052,1.627l0.163,0.139c1.701,1.504,3.431,2.975,5.19,4.411
					c0.443,0.361,0.902,0.729,1.449,0.896c0.547,0.168,1.208,0.09,1.588-0.338C186.076,269.735,185.618,268.634,185.139,267.82z"/>
			</g>
			<g>
				<path style="fill:#263238;" d="M188.348,273.396c-5.66-6.919-13.262-10.901-22.199-11.049c-5.042-0.083-7.129,0.964-10.76,1.944
					c-3.631,0.98-6.908,2.928-9.074,6.003c-2.573,3.652-4.734,7.741-5.221,12.182c-0.5,4.562-1,9.154-0.656,13.73
					c0.344,4.576,1.587,9.184,4.281,12.899l11.643,2.023c6.43,0.219,12.95,0.43,19.214-1.037
					c6.265-1.467,12.351-4.838,15.706-10.328C195.944,292.135,194.008,280.314,188.348,273.396z"/>
			</g>
			<g>
				<path style="fill:#FFBF9D;" d="M177.988,273.319l-15.522-6.17l-4.055,0.471c-9.124,0.032-15.417,10.095-15.477,17.485
					c-0.066,8.21,0.176,18.236,1.481,24.287c2.623,12.168,13.008,13.181,13.008,13.181s-0.213,6.484-0.29,10.57l23.764-1.716
					l1.194-53.941C182.012,275.243,180.23,273.432,177.988,273.319z"/>
				<g>
					<g>
						<path style="fill:#FF9A6C;" d="M162.667,306.544c-0.084-0.641-0.441-1.208-0.896-1.598c-0.91-0.779-2.238-0.855-3.211-0.183
							c-0.973,0.672-1.531,2.049-1.347,3.329l0,0c0.546,0.751,1.382,1.258,2.307,1.338c0.144,0.012,0.288,0.017,0.433,0.014
							c0.701-0.018,1.415-0.255,1.951-0.772C162.439,308.155,162.771,307.336,162.667,306.544z"/>
					</g>
				</g>
				<g>
					<g>
						<g>
							<g>
								<g>
									<g>
										<g>
											<g>
												<g>
													<g>
														<g>
															<g>
																<g>
																	<g>
																		<g>
																			<g>
																				<g>
																					<g>
																						<g>
																							<g>
																								<path style="fill:#263238;" d="M147.048,295.493c0.016,0.833,0.735,1.506,1.605,1.505
																									c0.868-0.001,1.561-0.675,1.545-1.508c-0.016-0.833-0.735-1.507-1.603-1.506
																									C147.724,293.985,147.031,294.661,147.048,295.493z"/>
																							</g>
																						</g>
																					</g>
																				</g>
																			</g>
																		</g>
																	</g>
																</g>
															</g>
														</g>
													</g>
												</g>
											</g>
										</g>
									</g>
								</g>
							</g>
							<g>
								<g>
									<g>
										<g>
											<g>
												<g>
													<g>
														<g>
															<g>
																<g>
																	<g>
																		<g>
																			<g>
																				<g>
																					<g>
																						<g>
																							<g>
																								<g>
																									<path style="fill:#263238;" d="M145.715,289.209c0.206,0.195,1.351-0.753,3.045-0.842
																										c1.691-0.113,2.982,0.691,3.155,0.473c0.085-0.097-0.134-0.456-0.697-0.821
																										c-0.554-0.363-1.484-0.695-2.539-0.633c-1.055,0.064-1.921,0.501-2.41,0.927
																										C145.77,288.742,145.614,289.123,145.715,289.209z"/>
																								</g>
																							</g>
																						</g>
																					</g>
																				</g>
																			</g>
																		</g>
																	</g>
																</g>
															</g>
														</g>
													</g>
												</g>
											</g>
										</g>
									</g>
								</g>
							</g>
							<g>
								<g>
									<g>
										<g>
											<g>
												<g>
													<g>
														<g>
															<g>
																<g>
																	<g>
																		<g>
																			<g>
																				<g>
																					<g>
																						<g>
																							<g>
																								<path style="fill:#263238;" d="M156.602,302.495c0.003-0.097-1.06-0.221-2.779-0.345
																									c-0.435-0.021-0.849-0.085-0.938-0.376c-0.119-0.307,0.036-0.783,0.218-1.298
																									c0.349-1.069,0.715-2.19,1.099-3.365c1.519-4.787,2.593-8.714,2.4-8.773
																									c-0.194-0.06-1.582,3.772-3.101,8.56c-0.364,1.18-0.712,2.305-1.044,3.381
																									c-0.137,0.501-0.388,1.074-0.131,1.71c0.134,0.317,0.465,0.534,0.746,0.594
																									c0.282,0.069,0.525,0.06,0.74,0.062C155.535,302.643,156.601,302.592,156.602,302.495z"/>
																							</g>
																						</g>
																					</g>
																				</g>
																			</g>
																		</g>
																	</g>
																</g>
															</g>
														</g>
													</g>
												</g>
											</g>
										</g>
									</g>
								</g>
							</g>
							<g>
								<g>
									<g>
										<g>
											<g>
												<g>
													<g>
														<g>
															<g>
																<g>
																	<g>
																		<g>
																			<g>
																				<g>
																					<g>
																						<g>
																							<path style="fill:#FF9A6C;" d="M157.403,322.56c0,0,8.287,0.079,16.199-5.287c0,0-3.912,8.749-16.261,8.275
																								L157.403,322.56z"/>
																						</g>
																					</g>
																				</g>
																			</g>
																		</g>
																	</g>
																</g>
															</g>
														</g>
													</g>
												</g>
											</g>
										</g>
									</g>
								</g>
							</g>
							<g>
								<g>
									<g>
										<g>
											<g>
												<g>
													<g>
														<g>
															<g>
																<g>
																	<g>
																		<g>
																			<g>
																				<g>
																					<g>
																						<g>
																							<g>
																								<path style="fill:#263238;" d="M161.652,303.394c-0.276-0.001-0.179,1.838-1.681,3.23
																									c-1.499,1.396-3.47,1.297-3.471,1.555c-0.019,0.117,0.456,0.333,1.284,0.31
																									c0.813-0.017,1.984-0.343,2.903-1.194c0.917-0.853,1.271-1.944,1.292-2.701
																									C162.007,303.82,161.777,303.376,161.652,303.394z"/>
																							</g>
																						</g>
																					</g>
																				</g>
																			</g>
																		</g>
																	</g>
																</g>
															</g>
														</g>
													</g>
												</g>
											</g>
										</g>
									</g>
								</g>
							</g>
							<g>
								<g>
									<g>
										<g>
											<g>
												<g>
													<g>
														<g>
															<g>
																<g>
																	<g>
																		<g>
																			<g>
																				<g>
																					<g>
																						<g>
																							<g>
																								<g>
																									<g>
																										<path style="fill:#263238;" d="M146.292,283.277c0.307,0.398,1.589,0.05,3.112,0.093
																											c1.524-0.006,2.8,0.373,3.113-0.018c0.138-0.19-0.049-0.584-0.598-0.971
																											c-0.54-0.386-1.456-0.72-2.503-0.734c-1.047-0.012-1.967,0.3-2.512,0.673
																											C146.35,282.694,146.158,283.083,146.292,283.277z"/>
																									</g>
																								</g>
																							</g>
																						</g>
																					</g>
																				</g>
																			</g>
																		</g>
																	</g>
																</g>
															</g>
														</g>
													</g>
												</g>
											</g>
										</g>
									</g>
								</g>
							</g>
							<g>
								<g>
									<g>
										<g>
											<g>
												<g>
													<g>
														<g>
															<g>
																<g>
																	<g>
																		<g>
																			<g>
																				<g>
																					<g>
																						<g>
																							<g>
																								<path style="fill:#263238;" d="M165.535,295.066c0.044,0.832-0.624,1.555-1.492,1.617
																									c-0.866,0.062-1.606-0.561-1.65-1.393c-0.044-0.832,0.625-1.556,1.49-1.618
																									C164.752,293.611,165.491,294.234,165.535,295.066z"/>
																							</g>
																						</g>
																					</g>
																				</g>
																			</g>
																		</g>
																	</g>
																</g>
															</g>
														</g>
													</g>
												</g>
											</g>
										</g>
									</g>
								</g>
							</g>
							<g>
								<g>
									<g>
										<g>
											<g>
												<g>
													<g>
														<g>
															<g>
																<g>
																	<g>
																		<g>
																			<g>
																				<g>
																					<g>
																						<g>
																							<g>
																								<g>
																									<path style="fill:#263238;" d="M168.641,288.554c-0.192,0.209-1.402-0.654-3.098-0.62
																										c-1.695,0.01-2.925,0.904-3.112,0.699c-0.092-0.09,0.101-0.465,0.636-0.869
																										c0.527-0.402,1.431-0.8,2.487-0.814c1.057-0.012,1.953,0.361,2.47,0.75
																										C168.553,288.091,168.736,288.46,168.641,288.554z"/>
																								</g>
																							</g>
																						</g>
																					</g>
																				</g>
																			</g>
																		</g>
																	</g>
																</g>
															</g>
														</g>
													</g>
												</g>
											</g>
										</g>
									</g>
								</g>
							</g>
							<g>
								<g>
									<g>
										<g>
											<g>
												<g>
													<g>
														<g>
															<g>
																<g>
																	<g>
																		<g>
																			<g>
																				<g>
																					<g>
																						<g>
																							<g>
																								<g>
																									<g>
																										<path style="fill:#263238;" d="M167.623,283.126c-0.327,0.391-1.643,0.014-3.217,0.023
																											c-1.574-0.041-2.902,0.309-3.216-0.088c-0.138-0.193,0.065-0.583,0.641-0.958
																											c0.567-0.373,1.522-0.687,2.604-0.677c1.082,0.012,2.025,0.344,2.579,0.73
																											C167.577,282.542,167.767,282.935,167.623,283.126z"/>
																									</g>
																								</g>
																							</g>
																						</g>
																					</g>
																				</g>
																			</g>
																		</g>
																	</g>
																</g>
															</g>
														</g>
													</g>
												</g>
											</g>
										</g>
									</g>
								</g>
							</g>
						</g>
					</g>
				</g>
				<g>
					<g>
						<g>
							<g>
								<g>
									<g>
										<g>
											<g>
												<g>
													<g>
														<g>
															<g>
																<g>
																	<g>
																		<g>
																			<g>
																				<g>
																					<path style="fill:#FFBF9D;" d="M179.983,298.114c-0.048-0.914,0.89-3.128,1.785-3.318
																						c2.39-0.508,6.746-0.553,7.123,5.567c0.514,8.366-7.991,7.157-8.021,6.918
																						C180.847,307.095,180.148,301.271,179.983,298.114z"/>
																				</g>
																			</g>
																		</g>
																	</g>
																</g>
															</g>
														</g>
													</g>
												</g>
											</g>
										</g>
									</g>
								</g>
							</g>
						</g>
					</g>
					<g>
						<g>
							<g>
								<g>
									<g>
										<g>
											<g>
												<g>
													<g>
														<g>
															<g>
																<g>
																	<g>
																		<g>
																			<g>
																				<g>
																					<g>
																						<path style="fill:#FF9A6C;" d="M182.99,304.083c0.035-0.029,0.152,0.093,0.405,0.191
																							c0.247,0.095,0.665,0.146,1.091-0.044c0.864-0.379,1.522-1.828,1.469-3.338
																							c-0.025-0.763-0.229-1.478-0.536-2.062c-0.293-0.596-0.715-0.999-1.165-1.051
																							c-0.449-0.075-0.747,0.21-0.836,0.452c-0.098,0.241-0.034,0.405-0.078,0.422
																							c-0.022,0.023-0.188-0.129-0.142-0.478c0.024-0.169,0.11-0.372,0.297-0.545
																							c0.191-0.175,0.48-0.277,0.793-0.263c0.648,0.005,1.265,0.563,1.602,1.204
																							c0.372,0.642,0.62,1.444,0.648,2.301c0.05,1.689-0.716,3.32-1.904,3.744c-0.579,0.189-1.081,0.042-1.347-0.14
																							C183.017,304.285,182.962,304.1,182.99,304.083z"/>
																					</g>
																				</g>
																			</g>
																		</g>
																	</g>
																</g>
															</g>
														</g>
													</g>
												</g>
											</g>
										</g>
									</g>
								</g>
							</g>
						</g>
					</g>
				</g>
			</g>
			<g>
				<g>
					<path style="fill:#263238;" d="M182.109,294.82l-2.126,2.205c-9.179-8.786-27.119-30.786-26.117-29.475
						c0,0,6.288-2.586,13.114-1.424c6.826,1.163,19.772,4.579,19.573,12.629C186.355,286.806,182.109,294.82,182.109,294.82z"/>
				</g>
			</g>
			<g>
				<path style="fill:#455A64;" d="M194.266,292.973c0.014-0.004-0.03-0.17-0.128-0.484c-0.1-0.312-0.279-0.765-0.571-1.319
					c-0.582-1.102-1.695-2.592-3.496-3.934c-1.775-1.378-4.236-2.503-7.04-3.386c-2.799-0.912-5.953-1.619-9.05-2.949
					c-3.117-1.28-5.896-2.93-8.266-4.63c-2.362-1.717-4.313-3.498-5.834-5.1c-1.522-1.604-2.628-3.016-3.374-4.004
					c-0.342-0.47-0.62-0.852-0.839-1.154c-0.194-0.263-0.302-0.397-0.315-0.389c-0.012,0.008,0.071,0.158,0.243,0.437
					c0.175,0.276,0.422,0.692,0.776,1.203c0.707,1.022,1.783,2.471,3.288,4.113c1.504,1.64,3.451,3.461,5.823,5.213
					c2.38,1.734,5.183,3.412,8.334,4.706c3.137,1.346,6.314,2.045,9.095,2.93c2.792,0.858,5.214,1.932,6.979,3.253
					c1.79,1.286,2.914,2.714,3.531,3.772C194.036,292.32,194.222,292.989,194.266,292.973z"/>
			</g>
			<g>
				<path style="fill:#455A64;" d="M191.831,294.29c0,0,0.085-0.685-0.325-1.828c-0.39-1.135-1.38-2.676-3.144-3.939
					c-1.747-1.305-4.241-2.111-6.981-2.737c-2.752-0.607-5.739-1.384-8.676-2.753c-2.932-1.358-5.563-3.003-7.734-4.775
					c-2.184-1.758-3.945-3.583-5.302-5.212c-1.375-1.619-2.296-3.076-2.956-4.064c-0.288-0.476-0.523-0.864-0.709-1.172
					c-0.166-0.266-0.26-0.403-0.273-0.396c-0.013,0.007,0.055,0.157,0.197,0.437c0.169,0.32,0.381,0.722,0.642,1.216
					c0.619,1.019,1.508,2.511,2.865,4.169c1.339,1.667,3.095,3.533,5.289,5.327c2.181,1.807,4.837,3.483,7.805,4.857
					c2.966,1.384,6.019,2.165,8.764,2.748c2.737,0.603,5.178,1.365,6.895,2.599c1.738,1.199,2.736,2.664,3.163,3.752
					C191.797,293.616,191.774,294.3,191.831,294.29z"/>
			</g>
			<g>
				<g>
					<path style="fill:#455A64;" d="M181.833,308.985c-0.008-0.056,0.709-0.149,1.948-0.473c1.231-0.343,2.975-1.096,4.682-2.617
						c1.727-1.498,3.264-3.829,4.349-6.655c1.08-2.828,1.73-6.151,1.814-9.652c0.035-1.749-0.099-3.454-0.404-5.074
						c-0.326-1.615-0.809-3.134-1.387-4.534c-1.196-2.788-2.786-5.054-4.334-6.75c-3.114-3.406-5.709-4.778-5.616-4.895
						c0.01-0.016,0.169,0.067,0.464,0.241c0.289,0.181,0.736,0.422,1.264,0.801c1.075,0.729,2.571,1.893,4.176,3.59
						c1.608,1.687,3.265,3.974,4.514,6.813c0.604,1.425,1.109,2.978,1.45,4.63c0.32,1.656,0.462,3.406,0.426,5.191
						c-0.086,3.563-0.762,6.943-1.892,9.824c-1.135,2.878-2.751,5.256-4.565,6.763c-1.795,1.531-3.616,2.247-4.885,2.532
						c-0.629,0.174-1.146,0.179-1.482,0.236C182.014,308.993,181.835,309.004,181.833,308.985z"/>
				</g>
			</g>
		</g>
		<g>
			<g>
				<path style="fill:#263238;" d="M192.479,411.911l-49.484,7.186c-18.586,5.26-38.168,6.801-58.639,5.024l74.471,34.74
					l29.898,0.464c0,0,9.103,0.028,10.694-7.942c1.616-8.094,3.359-32.127,3.359-32.127S196.871,414.119,192.479,411.911z"/>
			</g>
			<g style="opacity:0.3;">
				<g>
					<g>
						<path d="M192.334,432.741c0.812,4.949,1.105,9.984,0.873,14.994c3.058-3.302,4.457-8.07,3.668-12.501
							c-0.436-2.445-1.453-5.132-0.173-7.261c0.858-1.428,3.129-3.068,2.797-4.701c0,0-1.989,0-3.793-0.072
							c-1.446-0.058-4.456-0.147-4.456-0.147c1.521,3.915,1.405,6.329,0.8,9.831"/>
					</g>
				</g>
			</g>
			<g>
				<g>
					<g>
						<polygon style="fill:#FFBF9D;" points="157.21,331.096 181.253,328.499 185.652,332.505 168.489,342.595 160.917,346.517 
							153.438,344.246 151.069,339.789 						"/>
					</g>
				</g>
				<g>
					<g>
						<g>
							<path style="fill:#455A64;" d="M124.802,360.371c0,0,7.536-14.463,9.402-17.623c3.18-5.386,9.115-8.439,9.115-8.439
								l13.89-3.213c0,0-1.441,6.96,7.203,7.44c10.993,0.612,17.823-9.93,17.823-9.93s12.544,1.29,16.007,2.746
								c3.464,1.455,13.262,5.555,14.7,18.583l3.357,21.269l-26.501,2.02l0.367,28.314l-11.261,9.211c0,0-32.335,11.135-34.4,11.865
								c-0.976,0.345-0.738-13.395-3.049-25.169l-4.365-10.597c-1.747-4.242-2.833-8.738-3.09-13.318
								c-0.169-3.015-0.087-5.296-0.087-5.296S127.114,365.897,124.802,360.371z"/>
						</g>
					</g>
					<g>
						<g>
							<g>
								<path style="fill:#FFBF9D;" d="M145.682,411.492l44.43-13.336l-0.314-24.934l22.626-1.724c0,0-1.805,12.92-2.07,19.545
									c-0.381,9.527-4.964,22.844-8.029,25.671c-3.066,2.827-57.822,5.899-57.822,5.899L145.682,411.492z"/>
							</g>
						</g>
						<g>
							<g>
								<path style="fill:#FFBF9D;" d="M120.484,419.334c0.367,0.606,1.06,0.966,1.758,0.85c0.139-0.023,0.283-0.062,0.431-0.122
									c0.975-0.398,0.723-2.426,0.723-2.426l4.729-1.153c0,0,6.539,3.534,8.961,6.024c2.422,2.49,7.907-0.103,7.907-0.103
									l1.169-10.36l-9.432-7.289c0,0,0.578,0.433-0.145-1.011c-0.723-1.444-3.45-0.666-3.45-0.666
									c-0.488-0.704-2.318-0.828-2.318-0.828l-7.663,1.49c-1.579,0.307-2.934,1.312-3.686,2.735l-2.869,5.429
									c0,0-1.438,3.86-1.093,4.705c0.52,1.275,1.881,0.877,1.881,0.877s0.57,2.42,1.22,2.456
									C119.256,419.977,120.484,419.334,120.484,419.334L120.484,419.334z"/>
							</g>
						</g>
						<g>
							<g>
								<g>
									<path style="fill:#FF9A6C;" d="M136.373,410.728c-0.002,0.082-1.038,0.066-2.684,0.266
										c-1.641,0.208-3.899,0.674-6.219,1.67c-1.16,0.493-2.221,1.062-3.146,1.643c-0.894,0.598-1.835,1.106-2.082,1.81
										c-0.124,0.345-0.031,0.678,0.156,0.915c0.182,0.236,0.418,0.383,0.622,0.448c0.419,0.136,0.673,0.001,0.686,0.047
										c0.02,0.01-0.223,0.231-0.734,0.139c-0.247-0.047-0.539-0.187-0.786-0.458c-0.251-0.256-0.421-0.734-0.276-1.196
										c0.133-0.464,0.49-0.842,0.878-1.161c0.4-0.309,0.819-0.625,1.29-0.927c0.931-0.615,2.012-1.21,3.199-1.715
										c2.375-1.02,4.702-1.442,6.378-1.563C135.339,410.533,136.377,410.673,136.373,410.728z"/>
								</g>
							</g>
						</g>
						<g>
							<g>
								<g>
									<path style="fill:#FF9A6C;" d="M137.296,415.616c0.002,0.147-3.154,0.259-7.003,0.785c-3.851,0.512-6.925,1.24-6.961,1.097
										c-0.016-0.063,0.733-0.326,1.975-0.645c1.242-0.319,2.979-0.68,4.92-0.943c1.94-0.26,3.711-0.373,4.993-0.394
										C136.502,415.496,137.295,415.551,137.296,415.616z"/>
								</g>
							</g>
						</g>
						<g>
							<g>
								<g>
									<path style="fill:#FF9A6C;" d="M120.513,419.134c-0.026-0.003-0.082-0.285-0.161-0.816c-0.073-0.529-0.166-1.3-0.18-2.264
										c-0.005-0.482,0.006-1.013,0.094-1.585c0.079-0.575,0.302-1.19,0.629-1.744c0.615-1.108,1.499-2.276,2.668-3.191
										c1.165-0.905,2.34-1.684,3.554-2.156c1.204-0.469,2.351-0.65,3.3-0.767c0.954-0.108,1.725-0.146,2.259-0.168
										c0.533-0.019,0.83-0.014,0.833,0.02c0.009,0.079-1.17,0.21-3.043,0.494c-0.931,0.159-2.04,0.373-3.18,0.844
										c-1.131,0.462-2.285,1.242-3.411,2.117c-1.127,0.887-1.954,1.958-2.585,3.035c-0.672,1.033-0.725,2.163-0.768,3.104
										C120.481,417.944,120.62,419.129,120.513,419.134z"/>
								</g>
							</g>
						</g>
						<g>
							<g>
								<g>
									<path style="fill:#FF9A6C;" d="M130.596,404.243c0.007,0.074-1.149,0.194-2.98,0.549c-1.758,0.41-4.595,0.761-6.026,3.339
										c-1.583,2.367-2.913,4.589-3.433,6.368c-0.559,1.77-0.406,2.952-0.508,2.951c-0.026,0.003-0.094-0.285-0.109-0.816
										c-0.019-0.53,0.035-1.309,0.28-2.231c0.453-1.87,1.768-4.17,3.36-6.55c0.407-0.598,0.853-1.17,1.385-1.636
										c0.53-0.473,1.165-0.774,1.753-0.995c1.193-0.439,2.306-0.626,3.237-0.774C129.424,404.177,130.592,404.18,130.596,404.243
										z"/>
								</g>
							</g>
						</g>
						<g>
							<g>
								<g>
									<path style="fill:#FF9A6C;" d="M135.267,420.99c-0.01,0.012-0.176-0.096-0.486-0.315c-0.352-0.241-0.807-0.552-1.375-0.94
										c-1.211-0.795-3.005-1.92-5.353-3.107l0.111,0.013c-1.41,0.354-2.999,0.753-4.721,1.185l0.148-0.215
										c0.041,0.39,0.048,0.774,0.001,1.177c-0.05,0.396-0.142,0.826-0.454,1.194c-0.163,0.18-0.407,0.298-0.612,0.341
										c-0.209,0.071-0.439,0.11-0.67,0.092c-0.462-0.03-0.91-0.237-1.242-0.567c-0.085-0.081-0.16-0.172-0.23-0.267l-0.05-0.073
										l-0.024-0.037l-0.012-0.018l-0.001-0.002c-0.064-0.019,0.55,0.153,0.289,0.081l-0.005,0.003l-0.01,0.005l-0.147,0.074
										c-0.196,0.096-0.396,0.184-0.601,0.267c-0.206,0.082-0.418,0.157-0.643,0.214c-0.113,0.028-0.228,0.054-0.353,0.066
										c-0.116,0.014-0.256,0.029-0.45-0.051c-0.285-0.172-0.399-0.391-0.518-0.597c-0.112-0.21-0.207-0.423-0.289-0.64
										c-0.167-0.434-0.297-0.873-0.412-1.331l0.295,0.172c-0.612,0.157-1.356,0.064-1.831-0.47
										c-0.214-0.249-0.399-0.563-0.404-0.938c-0.01-0.336,0.042-0.636,0.098-0.939c0.244-1.201,0.63-2.364,1.053-3.546
										l0.005-0.014l0.008-0.016c0.488-0.924,1.006-1.904,1.529-2.896c0.326-0.617,0.649-1.228,0.97-1.836
										c0.324-0.589,0.605-1.245,1.082-1.789c0.458-0.541,1.024-0.979,1.646-1.288c0.617-0.325,1.32-0.448,1.94-0.562
										c2.54-0.487,4.961-0.95,7.225-1.384l0.031-0.006l0.026,0.003c0.454,0.041,0.881,0.114,1.305,0.238
										c0.413,0.131,0.852,0.28,1.17,0.691l-0.275-0.063c0.793-0.399,1.74-0.476,2.494-0.053c0.757,0.418,1.148,1.157,1.38,1.863
										l-0.066-0.096c2.708,2.081,4.918,3.778,6.498,4.993c0.73,0.575,1.313,1.034,1.753,1.381
										c0.398,0.321,0.601,0.496,0.59,0.511c-0.011,0.014-0.236-0.133-0.654-0.426c-0.455-0.327-1.058-0.761-1.812-1.303
										c-1.604-1.183-3.847-2.836-6.596-4.863l-0.044-0.033l-0.022-0.064c-0.211-0.621-0.592-1.294-1.215-1.616
										c-0.608-0.345-1.438-0.268-2.101,0.071l-0.164,0.084l-0.111-0.147c-0.186-0.245-0.568-0.41-0.947-0.517
										c-0.383-0.109-0.803-0.177-1.214-0.211l0.057-0.004c-2.262,0.446-4.681,0.923-7.218,1.424
										c-0.647,0.122-1.252,0.23-1.816,0.527c-0.563,0.28-1.074,0.678-1.487,1.169c-0.422,0.476-0.686,1.091-1.02,1.702
										c-0.321,0.607-0.644,1.219-0.97,1.836c-0.525,0.992-1.043,1.972-1.531,2.895l0.013-0.029
										c-0.417,1.156-0.804,2.322-1.039,3.465c-0.054,0.283-0.101,0.574-0.093,0.829c-0.009,0.222,0.121,0.45,0.279,0.639
										c0.308,0.371,0.878,0.451,1.344,0.338l0.238-0.058l0.057,0.23c0.107,0.432,0.233,0.867,0.387,1.274
										c0.146,0.385,0.356,0.852,0.581,0.996c0.011,0.005,0.095,0.024,0.197,0.006c0.093-0.008,0.192-0.029,0.29-0.053
										c0.197-0.049,0.395-0.117,0.589-0.192c0.194-0.076,0.386-0.159,0.573-0.249l0.138-0.068l0.008-0.004l0.004-0.002
										c-0.259-0.073,0.356,0.098,0.293,0.081l0.001,0.002l0.01,0.015l0.019,0.029l0.038,0.058
										c0.055,0.075,0.113,0.148,0.18,0.212c0.26,0.263,0.61,0.426,0.964,0.452c0.177,0.016,0.351-0.013,0.524-0.071
										c0.189-0.041,0.312-0.105,0.423-0.217c0.419-0.51,0.419-1.364,0.369-2.04l-0.013-0.177l0.161-0.038
										c1.728-0.409,3.322-0.786,4.737-1.12l0.061-0.014l0.051,0.027c2.352,1.238,4.121,2.408,5.308,3.253
										c0.591,0.426,1.036,0.771,1.33,1.013C135.129,420.845,135.277,420.978,135.267,420.99z"/>
								</g>
							</g>
						</g>
					</g>
				</g>
			</g>
			<g>
				<g>
					<g>
						<g>
							<path style="fill:#263238;" d="M112.175,427.42c0,0-31.351-9.851-41.199-13.043c-16.954-5.496-28.053,0.059-31.554,6.125
								c-4.542,7.872,6.349,23.218,10.544,26.745c12.432,10.452,33.741,11.861,33.741,11.861l0,0l76.621-0.144l-22.372-30.332
								L112.175,427.42z"/>
						</g>
					</g>
					<g>
						<g>
							<g>
								<path style="fill:#E0E0E0;" d="M116.865,441.642c-12.7,1.493-25.77-0.286-37.61-5.117c-2.07-0.845-4.114-1.785-6.281-2.335
									c-2.107-0.535-4.309-0.69-6.47-0.457c-1.71,0.185-3.53,0.697-4.569,2.069c-1.528,2.016-0.742,4.879,0.107,7.263
									c0.995,2.793,2.03,5.657,3.975,7.895c2.275,2.616,5.574,4.112,8.881,5.154c6.469,2.038,13.302,2.623,20.08,2.892
									l23.285-1.274L116.865,441.642z"/>
							</g>
						</g>
						<g>
							<g>
								<g>
									<path style="fill:#263238;" d="M71.906,434.2c0.028-0.013,0.164,0.204,0.357,0.625c0.193,0.42,0.425,1.052,0.617,1.86
										c0.39,1.603,0.521,3.988-0.263,6.431c-0.786,2.443-2.283,4.304-3.535,5.38c-0.627,0.545-1.183,0.924-1.585,1.152
										c-0.402,0.23-0.639,0.327-0.654,0.3c-0.046-0.073,0.842-0.58,2.004-1.707c1.159-1.112,2.549-2.933,3.303-5.275
										c0.752-2.342,0.684-4.631,0.391-6.21C72.251,435.162,71.825,434.233,71.906,434.2z"/>
								</g>
							</g>
						</g>
					</g>
					<g>
						<g>
							<path style="fill:#263238;" d="M192.188,425.499c-1.82-5.156-2.123-12.739-13.346-16.379
								c-11.223-3.64-19.715,3.336-25.479,5.763c-5.763,2.427-37.308,19.716-37.308,19.716s-5.94,10.592-4.249,15.267
								c1.691,4.675,9.374,9.301,9.374,9.301h22.78c0,0,3.389,0,12.489,0c9.1,0,26.032-0.303,26.032-0.303
								c3.115-4.886,6.066-11.526,6.066-11.526l0.303-1.517C188.852,444.608,194.008,430.655,192.188,425.499z"/>
						</g>
					</g>
					<g>
						<g>
							<g>
								<path style="fill:#263238;" d="M172.649,452.291c0,0-0.026,0.203-0.26,0.48c-0.226,0.28-0.613,0.647-1.161,1.046
									c-1.095,0.799-2.791,1.787-4.987,2.794c-1.101,0.497-2.317,1.02-3.682,1.447c-1.362,0.43-2.858,0.746-4.445,0.96
									c-3.178,0.453-6.703,0.354-10.361,0.406c-7.337,0.118-13.985,0.393-18.803,0.34c-2.409-0.018-4.36-0.115-5.702-0.255
									c-0.671-0.069-1.19-0.142-1.539-0.217c-0.349-0.066-0.53-0.108-0.528-0.125c0.009-0.051,0.741,0.081,2.082,0.151
									c1.34,0.08,3.283,0.124,5.686,0.098c4.807-0.035,11.447-0.365,18.797-0.484c3.678-0.052,7.171,0.06,10.309-0.364
									c1.567-0.198,3.042-0.495,4.384-0.9c1.341-0.4,2.56-0.903,3.66-1.375c2.197-0.958,3.906-1.893,5.019-2.633
									c0.557-0.37,0.954-0.704,1.196-0.954C172.564,452.46,172.619,452.278,172.649,452.291z"/>
							</g>
						</g>
					</g>
				</g>
				<g>
					<g>
						<g>
							<path style="fill:#263238;" d="M121.182,459.167c0,0-0.165-0.072-0.467-0.248c-0.303-0.174-0.744-0.446-1.313-0.817
								c-1.126-0.755-2.785-1.894-4.637-3.688c-0.906-0.91-1.879-1.987-2.624-3.384c-0.783-1.408-0.818-3.237-0.517-5.017
								c0.624-3.607,2.202-7.462,4.263-11.506l0.025-0.049l0.052-0.029c5.773-3.177,12.401-6.794,19.643-10.682
								c3.623-1.94,7.398-3.951,11.315-5.974c1.964-1.005,3.944-2.036,6.025-2.971c2.07-0.88,4.051-2.03,6.12-3.084
								c2.926-1.5,5.952-2.822,9.116-3.427c1.571-0.345,3.172-0.435,4.746-0.435c1.574,0.077,3.134,0.255,4.621,0.665
								c2.969,0.786,5.774,2.027,8.079,3.858c1.134,0.936,2.119,2.011,2.936,3.18c0.798,1.183,1.405,2.453,1.896,3.731
								c0.494,1.279,0.853,2.573,1.212,3.829c0.327,1.263,0.836,2.435,1.009,3.738c0.255,2.558-0.167,4.968-0.602,7.212
								c-0.455,2.248-1.012,4.346-1.566,6.305c-0.285,0.977-0.561,1.922-0.827,2.835c-0.257,0.902-0.559,1.808-0.693,2.611
								l-0.003,0.028c-0.117,0.574-0.215,1.05-0.31,1.515l-0.002,0.007l-0.001,0.004c-1.275,3.976-2.825,6.907-4.051,8.788
								c-1.242,1.88-2.146,2.699-2.146,2.699c-0.005-0.004,0.04-0.065,0.132-0.181c0.107-0.13,0.243-0.297,0.417-0.509
								c0.363-0.452,0.875-1.144,1.475-2.087c1.18-1.892,2.686-4.835,3.912-8.786l-0.003,0.011c0.575-0.479,0.462-0.951,0.297-1.518
								l-0.003,0.028c0.142-0.934,0.431-1.772,0.683-2.698c0.259-0.914,0.527-1.86,0.805-2.837c0.54-1.958,1.081-4.053,1.521-6.288
								c0.421-2.227,0.82-4.631,0.563-7.088c-0.157-1.192-0.676-2.408-1.011-3.673c-0.365-1.257-0.725-2.537-1.214-3.79
								c-0.486-1.253-1.082-2.488-1.859-3.633c-0.796-1.131-1.753-2.169-2.855-3.076c-2.238-1.771-4.998-2.988-7.908-3.753
								c-1.455-0.399-2.978-0.569-4.515-0.644c-1.538,0.003-3.1,0.091-4.64,0.431c-3.098,0.594-6.077,1.894-8.987,3.386
								c-2.055,1.046-4.049,2.204-6.15,3.096c-2.05,0.92-4.039,1.953-5.998,2.953c-3.915,2.016-7.692,4.02-11.318,5.951
								c-7.23,3.898-13.874,7.481-19.677,10.61l0.076-0.077c-2.064,3.996-3.659,7.836-4.297,11.373
								c-0.306,1.762-0.289,3.484,0.449,4.847c0.709,1.363,1.656,2.44,2.542,3.351c1.812,1.801,3.446,2.965,4.548,3.748
								c0.546,0.368,0.972,0.654,1.28,0.862C121.036,459.061,121.182,459.167,121.182,459.167z"/>
						</g>
					</g>
				</g>
				<g>
					<g>
						<path style="fill:#E0E0E0;" d="M178.584,446.084c0,0,10.505,1.253,9.572,6.398c-0.934,5.145-4.367,6.872-4.367,6.872
							l-28.557,0.06C155.231,459.414,172.284,458.226,178.584,446.084z"/>
					</g>
					<g>
						<g>
							<path style="fill:#263238;" d="M179.602,443.585c0.058,0.016-0.024,0.583-0.319,1.459c-0.297,0.872-0.837,2.054-1.704,3.184
								c-1.762,2.291-3.999,3.184-4.018,3.079c-0.092-0.141,1.959-1.197,3.629-3.379
								C178.856,445.751,179.442,443.525,179.602,443.585z"/>
						</g>
					</g>
				</g>
				<g>
					<g>
						<g>
							<path style="fill:#263238;" d="M175.954,445.604c0.137,0.005-0.02,1.772-1.014,3.658c-0.964,1.894-2.201,3.116-2.291,3.028
								c-0.112-0.094,0.923-1.421,1.853-3.251C175.462,447.22,175.819,445.583,175.954,445.604z"/>
						</g>
					</g>
				</g>
				<g>
					<g>
						<g>
							<path style="fill:#455A64;" d="M189.36,457.918c-0.078-0.04,0.597-1.343,1.422-3.55c0.828-2.203,1.729-5.347,2.142-8.915
								c0.402-3.571,0.234-6.837-0.076-9.17c-0.305-2.336-0.669-3.758-0.584-3.779c0.033-0.009,0.149,0.339,0.33,0.979
								c0.19,0.637,0.4,1.577,0.597,2.75c0.401,2.342,0.628,5.656,0.22,9.276c-0.419,3.618-1.387,6.795-2.307,8.986
								c-0.457,1.098-0.874,1.967-1.202,2.544C189.582,457.621,189.39,457.934,189.36,457.918z"/>
						</g>
					</g>
				</g>
				<g style="opacity:0.3;">
					<g>
						<g>
							<path d="M183.415,443.312c-0.074-0.692-0.348-1.511-1.03-1.65c-0.831-0.169-1.402,0.786-1.739,1.565
								c-3.621,8.376-15.533,14.899-24.62,15.742c3.737,0.029,9.514-0.41,13.191-1.076c3.677-0.667,7.304-2.078,10.06-4.601
								C182.033,450.769,183.814,447.027,183.415,443.312z"/>
						</g>
					</g>
				</g>
				<g>
					<g>
						<g>
							<path style="fill:#263238;" d="M113.835,431.916c-0.058,0.122-2.322-0.738-5.055-1.922c-2.734-1.185-4.908-2.246-4.857-2.372
								c0.051-0.126,2.314,0.735,5.055,1.922C111.719,430.732,113.894,431.794,113.835,431.916z"/>
						</g>
					</g>
				</g>
			</g>
			<g style="opacity:0.2;">
				<g>
					<path d="M124.021,427.502c-13.598-2.601-27.251-4.913-40.947-6.934l-10.204,3.227c2.86,5.318,8.511,8.704,14.384,10.109
						c5.873,1.405,12.011,1.066,18.024,0.512c6.622-0.61,13.422-1.535,19.184-4.855c0.441-0.254,0.933-0.632,0.879-1.138
						C125.282,427.849,124.589,427.611,124.021,427.502z"/>
				</g>
			</g>
			<g>
				<g>
					<g>
						<g>
							<path style="fill:#E0E0E0;" d="M57.061,386.99l17.134,37.905c0.709,1.569,2.263,2.586,3.985,2.608l49.976,0.648l6.3-3.391
								l-9.866-0.722l-15.357-36.857c-0.49-1.175-1.634-1.944-2.907-1.954l-47.883-0.363
								C57.345,384.857,56.609,385.989,57.061,386.99z"/>
						</g>
						<g>
							<g>
								<path style="fill:#263238;" d="M57.061,386.99c0,0-0.1-0.137-0.15-0.457c-0.049-0.307,0.002-0.853,0.468-1.31
									c0.233-0.216,0.569-0.399,0.97-0.418c0.385-0.003,0.804-0.006,1.257-0.009c0.91,0,1.956,0,3.131-0.001
									c4.74,0.016,11.574,0.038,20.055,0.066c4.252,0.022,8.916,0.046,13.935,0.071c2.511,0.014,5.11,0.029,7.791,0.045
									c0.676,0.007,1.357,0.014,2.042,0.021c0.731,0.051,1.446,0.353,2.005,0.843c0.582,0.472,0.904,1.22,1.146,1.844
									c0.27,0.646,0.542,1.296,0.816,1.951c4.375,10.477,9.208,22.051,14.321,34.296l-0.237-0.171
									c3.036,0.222,6.264,0.458,9.528,0.696c0.116,0.009,0.231,0.017,0.338,0.025l0.959,0.07l-0.846,0.455
									c-2.165,1.165-4.298,2.313-6.301,3.39l-0.064,0.034l-0.072-0.001c-13.516-0.185-26.31-0.36-37.903-0.519
									c-2.897-0.042-5.719-0.083-8.459-0.122c-1.379-0.031-2.697-0.015-4.067-0.085c-1.393-0.15-2.662-0.958-3.39-2.095
									c-2.231-4.693-4.094-9.036-5.902-13.006c-3.541-7.922-6.397-14.313-8.379-18.747c-0.967-2.193-1.721-3.901-2.243-5.085
									c-0.243-0.566-0.432-1.006-0.57-1.325C57.112,387.149,57.061,386.99,57.061,386.99s0.085,0.144,0.227,0.436
									c0.149,0.314,0.354,0.747,0.618,1.303c0.544,1.174,1.328,2.868,2.335,5.043c2.019,4.417,4.929,10.783,8.537,18.675
									c1.816,3.933,3.747,8.353,5.931,12.917c0.662,1.024,1.81,1.747,3.064,1.878c1.28,0.059,2.663,0.042,4.022,0.068
									c2.74,0.032,5.562,0.064,8.459,0.097c11.593,0.142,24.388,0.299,37.904,0.464l-0.136,0.033
									c2.002-1.078,4.136-2.226,6.3-3.392l0.112,0.526c-0.106-0.008-0.222-0.016-0.338-0.025
									c-3.264-0.239-6.492-0.476-9.528-0.699l-0.171-0.012l-0.066-0.158c-5.094-12.253-9.909-23.834-14.268-34.318
									c-0.272-0.655-0.542-1.306-0.811-1.953c-0.262-0.671-0.508-1.247-1.013-1.669c-0.478-0.422-1.09-0.683-1.718-0.729
									c-0.675-0.009-1.345-0.017-2.01-0.026c-2.681-0.025-5.28-0.05-7.791-0.073c-5.019-0.05-9.682-0.097-13.934-0.139
									c-8.48-0.1-15.314-0.182-20.054-0.238c-1.175-0.018-2.221-0.034-3.131-0.048c-0.45-0.006-0.866-0.011-1.249-0.016
									c-0.369,0.008-0.682,0.169-0.905,0.364c-0.446,0.414-0.518,0.927-0.487,1.226C56.995,386.837,57.077,386.984,57.061,386.99z
									"/>
							</g>
						</g>
					</g>
				</g>
				<g>
					<g>
						<g>
							<path style="fill:#263238;" d="M123.12,428.086c-0.016,0.007-0.094-0.136-0.23-0.414c-0.155-0.331-0.343-0.735-0.571-1.224
								c-0.505-1.141-1.183-2.676-2.007-4.541c-1.671-3.844-3.94-9.172-6.383-15.083c-2.444-5.913-4.595-11.291-6.09-15.208
								c-0.745-1.96-1.339-3.549-1.722-4.658c-0.174-0.511-0.317-0.933-0.434-1.279c-0.094-0.294-0.136-0.452-0.12-0.457
								c0.016-0.006,0.089,0.14,0.213,0.423c0.141,0.337,0.313,0.748,0.52,1.245c0.469,1.156,1.1,2.71,1.866,4.598
								c1.618,3.941,3.805,9.264,6.221,15.148c2.427,5.878,4.623,11.198,6.249,15.136c0.765,1.89,1.395,3.444,1.863,4.601
								c0.194,0.503,0.354,0.919,0.486,1.26C123.088,427.924,123.136,428.079,123.12,428.086z"/>
						</g>
					</g>
				</g>
				<g>
					<g>
						<path style="fill:#FFFFFF;" d="M92.116,405.366c0,1.354-1.097,2.451-2.451,2.451c-1.353,0-2.451-1.097-2.451-2.451
							c0-1.353,1.097-2.45,2.451-2.45C91.019,402.916,92.116,404.013,92.116,405.366z"/>
					</g>
				</g>
			</g>
			<g>
				<path style="fill:#263238;" d="M140.774,344.396c0.076,0.042-0.644,1.391-1.654,3.636c-1.013,2.243-2.266,5.409-3.278,9.023
					c-1.005,3.617-1.571,6.975-1.866,9.418c-0.297,2.444-0.379,3.97-0.467,3.967c-0.037-0.001-0.054-0.384-0.053-1.077
					c-0.004-0.693,0.041-1.695,0.143-2.93c0.2-2.469,0.712-5.872,1.727-9.523c1.021-3.648,2.344-6.824,3.451-9.04
					c0.552-1.109,1.032-1.99,1.394-2.581C140.529,344.696,140.742,344.378,140.774,344.396z"/>
			</g>
			<g>
				<path style="fill:#263238;" d="M216.298,371.203c0.001,0.016-0.187,0.045-0.549,0.085c-0.411,0.04-0.938,0.092-1.591,0.156
					c-1.448,0.121-3.454,0.289-5.939,0.497c-5.119,0.386-12.198,0.919-20.311,1.53l-0.262,0.02l-0.016-0.262
					c-0.17-2.697-0.35-5.545-0.535-8.473c-0.288-5.099-0.534-9.958-0.613-14.388c-0.231-4.453,0.859-8.518,2.606-11.409
					c1.728-2.935,4.02-4.64,5.693-5.472c0.853-0.402,1.534-0.67,2.017-0.784c0.476-0.135,0.727-0.196,0.732-0.178
					c0.024,0.073-1.007,0.282-2.652,1.147c-1.618,0.877-3.816,2.587-5.463,5.479c-1.666,2.862-2.693,6.807-2.44,11.209
					c0.105,4.415,0.366,9.272,0.654,14.367c0.18,2.927,0.355,5.773,0.52,8.469l-0.278-0.242c8.118-0.537,15.201-1.006,20.324-1.344
					c2.49-0.144,4.5-0.26,5.95-0.344c0.656-0.028,1.185-0.051,1.598-0.069C216.107,371.185,216.297,371.187,216.298,371.203z"/>
			</g>
			<g>
				<path style="fill:#263238;" d="M166.475,388.523c-0.015,0.034-0.329-0.083-0.888-0.327c-0.283-0.116-0.622-0.273-0.993-0.497
					c-0.374-0.219-0.817-0.443-1.255-0.771c-0.914-0.6-1.915-1.444-2.925-2.482c-0.986-1.06-1.966-2.326-2.803-3.775
					c-0.818-1.461-1.405-2.951-1.811-4.34c-0.375-1.399-0.589-2.691-0.637-3.783c-0.058-0.544-0.024-1.04-0.02-1.473
					c-0.003-0.434,0.036-0.805,0.081-1.107c0.077-0.605,0.137-0.934,0.174-0.93c0.106,0.009-0.068,1.346,0.143,3.479
					c0.095,1.066,0.342,2.32,0.734,3.676c0.422,1.347,1.007,2.79,1.803,4.214c0.816,1.411,1.757,2.652,2.699,3.703
					c0.965,1.029,1.916,1.883,2.784,2.51C165.283,387.893,166.521,388.428,166.475,388.523z"/>
			</g>
		</g>
	</g>
</g>
</svg>
