<?xml version="1.0" encoding="UTF-8"?>
<svg version="1.1" xmlns="http://www.w3.org/2000/svg" width="94" height="94">
<path d="M0 0 C0.99 1.485 0.99 1.485 2 3 C0.85459775 4.31287621 -0.29133433 5.62529021 -1.4375 6.9375 C-2.07558594 7.66839844 -2.71367188 8.39929688 -3.37109375 9.15234375 C-4.22541459 10.12139353 -5.08651175 11.08651175 -6 12 C-6.25003964 15.45821402 -6.25003964 15.45821402 -6 19 C-4.12355493 21.31686366 -4.12355493 21.31686366 -1.0625 21.1875 C2.04093079 21.12950232 2.04093079 21.12950232 5 20 C5.309375 19.38125 5.61875 18.7625 5.9375 18.125 C7.20298687 15.59402625 8.67272837 14.55151442 11 13 C12.32 13.66 13.64 14.32 15 15 C15.34651842 20.54429478 14.82096915 25.12021828 12 30 C7.94015765 34.54100885 3.44226256 37.70215884 -2.75390625 38.23828125 C-4.62871467 38.28782417 -6.50374813 38.32947119 -8.37890625 38.36328125 C-11.9384936 39.22797982 -12.99728655 41.0359841 -15 44 C-14.5968457 44.39791748 -14.19369141 44.79583496 -13.77832031 45.20581055 C-11.93285523 47.03034057 -10.09140987 48.8588777 -8.25 50.6875 C-7.61578125 51.31333984 -6.9815625 51.93917969 -6.328125 52.58398438 C3.86934037 62.72833795 3.86934037 62.72833795 4 69 C2.625 71.6875 2.625 71.6875 1 74 C0.505 75.485 0.505 75.485 0 77 C-5.65607007 77.45248561 -8.68576363 76.48271112 -13 73 C-15.71479689 70.50235875 -18.29958022 67.89030439 -20.875 65.25 C-21.56335937 64.55261719 -22.25171875 63.85523438 -22.9609375 63.13671875 C-24.64529582 61.42896657 -26.32477617 59.71670557 -28 58 C-31.24588165 59.54167769 -33.41366633 61.17119173 -35.9375 63.75 C-36.63359375 64.46027344 -37.3296875 65.17054687 -38.046875 65.90234375 C-39.68100013 67.65739414 -41.20007116 69.43438573 -42.6875 71.3125 C-45.05185083 74.06025907 -46.64396784 75.64160603 -50 77 C-54.28616677 77 -56.42176604 76.40599406 -59.9375 73.9375 C-62.02538947 70.96383924 -62.85987184 69.03125101 -62.7644043 65.38305664 C-60.94621867 59.71480052 -55.24924987 55.68274529 -50.9375 51.75 C-49.34893503 50.28474171 -47.76702044 48.81406017 -46.1988678 47.32696533 C-44.78185607 45.985323 -43.34437274 44.66540145 -41.90600586 43.34667969 C-39.77689503 41.2332967 -39.77689503 41.2332967 -40.01391602 38.90869141 C-41.13433117 36.73998487 -42.34040101 35.27145878 -44.0625 33.5390625 C-44.69051514 32.90548828 -45.31853027 32.27191406 -45.96557617 31.61914062 C-46.63693604 30.96107422 -47.3082959 30.30300781 -48 29.625 C-48.67973877 28.94888672 -49.35947754 28.27277344 -50.05981445 27.57617188 C-54.18668876 23.54497472 -58.2928421 20.2258715 -63.2578125 17.265625 C-66.29884805 15.05644222 -67.49684307 12.39844175 -69 9 C-69 7 -69 7 -67.8125 5.3125 C-66 4 -66 4 -63.6875 4.0625 C-58.5617001 5.85056973 -55.35040964 8.18631244 -52.5625 12.8125 C-47.74719966 20.59005827 -40.5478352 26.69537011 -34 33 C-28.39468343 29.71549593 -28.39468343 29.71549593 -24 25 C-23.63064962 22.26414473 -23.63064962 22.26414473 -23.5625 19.25 C-23.25981835 12.78217114 -21.52671359 8.65464245 -17 4 C-12.12242927 0.21885798 -6.10703008 -1.40639074 0 0 Z " fill="#E3301C" transform="translate(75,6)"/>
<path d="M0 0 C0.99 1.485 0.99 1.485 2 3 C0.85459775 4.31287621 -0.29133433 5.62529021 -1.4375 6.9375 C-2.07558594 7.66839844 -2.71367188 8.39929688 -3.37109375 9.15234375 C-4.22541459 10.12139353 -5.08651175 11.08651175 -6 12 C-6.25003964 15.45821402 -6.25003964 15.45821402 -6 19 C-4.12447731 21.32645936 -4.12447731 21.32645936 -1.0625 21.125 C-0.051875 21.08375 0.95875 21.0425 2 21 C2.99 21 3.98 21 5 21 C4.34 21.66 3.68 22.32 3 23 C1.15234375 22.87890625 1.15234375 22.87890625 -1.0625 22.5625 C-4.57351827 22.43140679 -5.75736181 22.81327091 -8.59375 24.99609375 C-10.82774657 27.26190356 -12.95477176 29.5631323 -15 32 C-15.99 31.67 -16.98 31.34 -18 31 C-18 30.34 -18 29.68 -18 29 C-18.66 29 -19.32 29 -20 29 C-20 31.31 -20 33.62 -20 36 C-23.01031744 36.93423645 -23.86650268 37.04449911 -27 36 C-27.66 36.66 -28.32 37.32 -29 38 C-29.78375 37.95875 -30.5675 37.9175 -31.375 37.875 C-34.177705 37.7377218 -34.177705 37.7377218 -36.3125 40 C-36.869375 40.66 -37.42625 41.32 -38 42 C-38.66 41.67 -39.32 41.34 -40 41 C-40.14308594 40.39075684 -40.28617188 39.78151367 -40.43359375 39.15380859 C-41.12469453 36.52583831 -42.15667374 35.45628465 -44.0625 33.5390625 C-44.69051514 32.90548828 -45.31853027 32.27191406 -45.96557617 31.61914062 C-46.63693604 30.96107422 -47.3082959 30.30300781 -48 29.625 C-48.67973877 28.94888672 -49.35947754 28.27277344 -50.05981445 27.57617188 C-54.18668876 23.54497472 -58.2928421 20.2258715 -63.2578125 17.265625 C-66.29884805 15.05644222 -67.49684307 12.39844175 -69 9 C-69 7 -69 7 -67.8125 5.3125 C-66 4 -66 4 -63.6875 4.0625 C-58.5617001 5.85056973 -55.35040964 8.18631244 -52.5625 12.8125 C-47.74719966 20.59005827 -40.5478352 26.69537011 -34 33 C-28.39468343 29.71549593 -28.39468343 29.71549593 -24 25 C-23.63064962 22.26414473 -23.63064962 22.26414473 -23.5625 19.25 C-23.25981835 12.78217114 -21.52671359 8.65464245 -17 4 C-12.12242927 0.21885798 -6.10703008 -1.40639074 0 0 Z " fill="#8F9CAA" transform="translate(75,6)"/>
<path d="M0 0 C1.32 0.66 2.64 1.32 4 2 C4.34651842 7.54429478 3.82096915 12.12021828 1 17 C-3.05984235 21.54100885 -7.55773744 24.70215884 -13.75390625 25.23828125 C-15.62871467 25.28782417 -17.50374813 25.32947119 -19.37890625 25.36328125 C-22.9384936 26.22797982 -23.99728655 28.0359841 -26 31 C-25.5968457 31.39791748 -25.19369141 31.79583496 -24.77832031 32.20581055 C-22.93285523 34.03034057 -21.09140987 35.8588777 -19.25 37.6875 C-18.61578125 38.31333984 -17.9815625 38.93917969 -17.328125 39.58398438 C-13.98710761 42.90760063 -10.8517269 46.23370411 -8 50 C-8.66 51.32 -9.32 52.64 -10 54 C-16.12211545 52.62252402 -19.55424411 49.14832856 -24 45 C-25.74850407 43.43582618 -27.49853835 41.87336141 -29.25 40.3125 C-30.84233453 38.88497717 -32.42623589 37.44797004 -34 36 C-34.75796875 35.31292969 -35.5159375 34.62585937 -36.296875 33.91796875 C-38 32 -38 32 -38 29 C-39.32 28.67 -40.64 28.34 -42 28 C-37.69230769 23.07692308 -37.69230769 23.07692308 -34.1875 22.6875 C-33.465625 22.790625 -32.74375 22.89375 -32 23 C-31.67 20.69 -31.34 18.38 -31 16 C-30.34 16 -29.68 16 -29 16 C-28.67 16.66 -28.34 17.32 -28 18 C-24.77282571 16.61392514 -23.04525319 15.05430383 -20.8125 12.375 C-17.67856649 9.07221231 -17.67856649 9.07221231 -14.6875 8.75390625 C-13.12694273 8.87454143 -11.56698152 9.00320671 -10.0078125 9.140625 C-9.01394531 9.07101563 -9.01394531 9.07101563 -8 9 C-5.58967433 6.25952141 -5.58967433 6.25952141 -4 3 C-1.75 1.125 -1.75 1.125 0 0 Z " fill="#69717D" transform="translate(86,19)"/>
<path d="M0 0 C0.66 0.99 1.32 1.98 2 3 C0.90344712 4.31886772 -0.20253423 5.62990057 -1.3125 6.9375 C-1.92738281 7.66839844 -2.54226562 8.39929688 -3.17578125 9.15234375 C-5 11 -5 11 -8 12 C-8.29648438 12.91007812 -8.59296875 13.82015625 -8.8984375 14.7578125 C-10.17476612 18.51438254 -11.76025501 20.17395473 -14.625 22.875 C-15.44226562 23.65617187 -16.25953125 24.43734375 -17.1015625 25.2421875 C-17.72804688 25.82226562 -18.35453125 26.40234375 -19 27 C-19.66 26.67 -20.32 26.34 -21 26 C-21.6496875 27.423125 -21.6496875 27.423125 -22.3125 28.875 C-24 32 -24 32 -27 34 C-27.99 33.01 -28.98 32.02 -30 31 C-28.5459375 29.88625 -28.5459375 29.88625 -27.0625 28.75 C-23.93523261 25.68077934 -23.62692826 23.50857962 -23.5 19.1875 C-23.2512265 12.72741398 -21.51888578 8.64659342 -17 4 C-12.12242927 0.21885798 -6.10703008 -1.40639074 0 0 Z " fill="#AEB9C4" transform="translate(75,6)"/>
<path d="M0 0 C2.75797067 2.75797067 2.36401424 4.52780413 2.4375 8.375 C2.47746094 9.51710938 2.51742187 10.65921875 2.55859375 11.8359375 C2 15 2 15 -0.40234375 17.2265625 C-1.25957031 17.81179687 -2.11679687 18.39703125 -3 19 C-5.25641931 21.73832802 -5.25641931 21.73832802 -4.875 24.4375 C-5 27 -5 27 -6.5625 29.3125 C-9.90680872 31.62779065 -12.0114058 31.49857427 -16 31 C-18.4375 30 -18.4375 30 -20 28 C-20.69568773 24.6606989 -20.9171338 23.19827772 -20 20 C-17.07519896 16.07040358 -13.58016464 12.82858551 -10 9.5 C-9.03464044 8.57480976 -8.07107725 7.64774129 -7.109375 6.71875 C-4.75658658 4.46007311 -2.38722768 2.22215342 0 0 Z " fill="#79818D" transform="translate(33,49)"/>
<path d="M0 0 C2.98749864 1.35313942 5.18382098 2.88715312 7.57421875 5.125 C8.57001953 6.05493774 8.57001953 6.05493774 9.5859375 7.00366211 C10.27945313 7.66245361 10.97296875 8.32124512 11.6875 9 C12.75291016 10.0046228 12.75291016 10.0046228 13.83984375 11.02954102 C19.18500134 16.11560965 24.22847836 21.36695362 29 27 C28.34 28.32 27.68 29.64 27 31 C20.87788455 29.62252402 17.44575589 26.14832856 13 22 C11.25149593 20.43582618 9.50146165 18.87336141 7.75 17.3125 C6.15766547 15.88497717 4.57376411 14.44797004 3 13 C2.24203125 12.31292969 1.4840625 11.62585937 0.703125 10.91796875 C-1 9 -1 9 -1 6 C-2.32 5.67 -3.64 5.34 -5 5 C-3.35 3.35 -1.7 1.7 0 0 Z " fill="#F05F4C" transform="translate(49,42)"/>
<path d="M0 0 C4.875 2.625 4.875 2.625 6 6 C8.00016466 7.20882096 8.00016466 7.20882096 10 8 C10 12 10 12 7.98828125 14.3671875 C7.10527344 15.19476563 6.22226562 16.02234375 5.3125 16.875 C1.03313829 20.95898701 1.03313829 20.95898701 -2.8125 25.4375 C-5.11601997 28.13590911 -6.70999624 29.66833181 -10 31 C-14.15153123 30.92716612 -16.24361231 30.64002035 -19.4375 27.9375 C-20.2109375 26.9784375 -20.2109375 26.9784375 -21 26 C-20.01 26.33 -19.02 26.66 -18 27 C-13.35478718 27.40872999 -13.35478718 27.40872999 -9.0625 25.9375 C-7.70158483 23.8727203 -7.70158483 23.8727203 -8.25 20.625 C-8.1675 19.42875 -8.085 18.2325 -8 17 C-6.48828125 15.85546875 -6.48828125 15.85546875 -4.5625 14.8125 C-2.55379647 13.73497078 -2.55379647 13.73497078 -1 12 C-0.07506928 7.99547039 0.04577102 4.09977548 0 0 Z " fill="#52565E" transform="translate(35,52)"/>
<path d="M0 0 C0.33 0 0.66 0 1 0 C1.34651842 5.54429478 0.82096915 10.12021828 -2 15 C-6.03373262 19.51180464 -10.52527961 22.69147315 -16.68359375 23.23828125 C-18.04677734 23.27501953 -18.04677734 23.27501953 -19.4375 23.3125 C-24.92724518 23.69826588 -27.25005392 25.04735413 -31 29 C-32.98 26.69 -34.96 24.38 -37 22 C-36.34 21.67 -35.68 21.34 -35 21 C-34.59270772 18.67843403 -34.25561323 16.3431213 -34 14 C-32 14 -32 14 -29.5 16.4375 C-28.675 17.283125 -27.85 18.12875 -27 19 C-24.56612247 20.21693876 -22.58161154 20.31959896 -19.875 20.5625 C-18.96492188 20.64628906 -18.05484375 20.73007812 -17.1171875 20.81640625 C-16.41851562 20.87699219 -15.71984375 20.93757813 -15 21 C-14.7834375 20.45085938 -14.566875 19.90171875 -14.34375 19.3359375 C-12.24394771 15.68569979 -9.06982189 13.06096111 -5.98828125 10.2421875 C-2.66640487 7.07171032 -1.10308019 4.4517165 0 0 Z " fill="#383233" transform="translate(89,21)"/>
<path d="M0 0 C5.1257999 1.78806973 8.33709036 4.12381244 11.125 8.75 C15.94030034 16.52755827 23.1396648 22.63287011 29.6875 28.9375 C27.6875 29.9375 27.6875 29.9375 25.46875 29.3984375 C21.67326976 27.40474423 19.11930965 24.65076353 16.1875 21.5625 C9.78559898 14.48294655 9.78559898 14.48294655 1.625 9.9375 C-1.64908894 8.82291653 -3.14833207 7.6010913 -5.3125 4.9375 C-5.3125 2.9375 -5.3125 2.9375 -4.125 1.25 C-2.3125 -0.0625 -2.3125 -0.0625 0 0 Z " fill="#C2CDD9" transform="translate(11.3125,10.0625)"/>
<path d="M0 0 C3.11373372 1.49920512 6.12228205 3.08152136 9 5 C9 5.66 9 6.32 9 7 C10.4540625 7.433125 10.4540625 7.433125 11.9375 7.875 C15 9 15 9 16 11 C16.99 11 17.98 11 19 11 C20.68236471 11.62599617 22.3523962 12.28752268 24 13 C24.0928125 12.071875 24.0928125 12.071875 24.1875 11.125 C25 9 25 9 27.5625 7.75 C28.366875 7.5025 29.17125 7.255 30 7 C30.6875 8.6875 30.6875 8.6875 31 11 C29.625 13.5625 29.625 13.5625 28 16 C27.67 16.99 27.34 17.98 27 19 C21.34393349 19.45248532 18.32530757 18.46456248 14 15 C11.45201384 12.68939092 9.03275943 10.26801249 6.625 7.8125 C5.98433594 7.17119141 5.34367187 6.52988281 4.68359375 5.86914062 C0 1.14060834 0 1.14060834 0 0 Z " fill="#B71B1B" transform="translate(48,64)"/>
<path d="M0 0 C3 1 3 1 4 3 C4.886875 3.26296875 5.77375 3.5259375 6.6875 3.796875 C10.60042602 5.21807926 13.07143458 7.40617645 16 10.25 C16.5254541 10.74363037 17.0509082 11.23726074 17.59228516 11.74584961 C20.27113278 14.27614977 22.8547345 16.87555027 25.375 19.5625 C28.18410803 22.17095745 30.30079918 23.1192379 34 24 C33.34 25.32 32.68 26.64 32 28 C28 28 28 28 26.2199707 26.62646484 C25.62788818 25.99434082 25.03580566 25.3622168 24.42578125 24.7109375 C23.75740234 24.01613281 23.08902344 23.32132813 22.40039062 22.60546875 C21.36688477 21.50138672 21.36688477 21.50138672 20.3125 20.375 C15.50921775 15.2619777 10.9164278 10.97339779 4.87792969 7.34765625 C2.16973963 5.40418133 1.10231666 3.08648664 0 0 Z " fill="#89949E" transform="translate(7,16)"/>
<path d="M0 0 C0.66 0.33 1.32 0.66 2 1 C1.67 1.66 1.34 2.32 1 3 C1.59554687 3.25007813 2.19109375 3.50015625 2.8046875 3.7578125 C5.3035965 5.17178592 6.45418472 6.55685314 8.125 8.875 C8.62257813 9.55304687 9.12015625 10.23109375 9.6328125 10.9296875 C10.9352945 12.90201739 11.99044444 14.86576412 13 17 C13.37125 17.7425 13.7425 18.485 14.125 19.25 C14.41375 19.8275 14.7025 20.405 15 21 C9.97378071 19.69554133 7.23950515 17.75841292 3.625 14.0625 C2.31402344 12.74958984 2.31402344 12.74958984 0.9765625 11.41015625 C-1 9 -1 9 -1 6 C-2.32 5.67 -3.64 5.34 -5 5 C-3.35 3.35 -1.7 1.7 0 0 Z " fill="#F7684F" transform="translate(49,42)"/>
<path d="M0 0 C0 3.8608671 -0.56753732 7.4188433 -2 11 C-4.5625 13.375 -4.5625 13.375 -7 15 C-7.33 15.66 -7.66 16.32 -8 17 C-9.11375 17.433125 -10.2275 17.86625 -11.375 18.3125 C-15.30847492 20.14360039 -16.08361457 21.26809154 -18 25 C-18.66 25 -19.32 25 -20 25 C-20.42074595 21.62088409 -20.26699378 20.34954172 -18.1640625 17.59643555 C-17.32617188 16.784729 -16.48828125 15.97302246 -15.625 15.13671875 C-14.72265625 14.25048828 -13.8203125 13.36425781 -12.890625 12.45117188 C-11.93671875 11.53916016 -10.9828125 10.62714844 -10 9.6875 C-9.03532198 8.74791008 -8.07176615 7.80716653 -7.109375 6.86523438 C-4.75038867 4.56522271 -2.38054213 2.27765966 0 0 Z " fill="#BEC7D1" transform="translate(33,49)"/>
<path d="M0 0 C2 1.375 2 1.375 4 3 C4 3.66 4 4.32 4 5 C5.32 5.66 6.64 6.32 8 7 C8 11 8 11 5.98828125 13.3671875 C5.10527344 14.19476563 4.22226562 15.02234375 3.3125 15.875 C-0.96686171 19.95898701 -0.96686171 19.95898701 -4.8125 24.4375 C-7.11601997 27.13590911 -8.70999624 28.66833181 -12 30 C-15.8125 29.6875 -15.8125 29.6875 -19 29 C-19 28.67 -19 28.34 -19 28 C-17.865625 28.020625 -16.73125 28.04125 -15.5625 28.0625 C-9.42081678 27.34962605 -5.69346398 22.6067275 -2 18 C-1.67 17.01 -1.34 16.02 -1 15 C-0.34 15 0.32 15 1 15 C1.10251672 9.87416389 1.03590199 5.05002222 0 0 Z " fill="#3C3636" transform="translate(37,53)"/>
<path d="M0 0 C1.8125 1.1875 1.8125 1.1875 3 3 C3.4334014 5.88934264 3.42525784 7.35092224 1.8125 9.8125 C-0.64907776 11.42525784 -2.11065736 11.4334014 -5 11 C-6.8125 9.8125 -6.8125 9.8125 -8 8 C-8.4334014 5.11065736 -8.42525784 3.64907776 -6.8125 1.1875 C-4.35092224 -0.42525784 -2.88934264 -0.4334014 0 0 Z " fill="#AEB7C7" transform="translate(25,68)"/>
<path d="M0 0 C0.33 0 0.66 0 1 0 C1 2.31 1 4.62 1 7 C0.34 7 -0.32 7 -1 7 C-1.226875 7.86625 -1.45375 8.7325 -1.6875 9.625 C-3.48408944 14.24480143 -5.87561064 17.62539512 -10.125 20.375 C-12 21 -12 21 -15 21 C-13.18850952 16.40657772 -9.54406104 13.49476126 -5.98828125 10.2421875 C-2.66640487 7.07171032 -1.10308019 4.4517165 0 0 Z " fill="#474C57" transform="translate(89,21)"/>
<path d="M0 0 C6.91249418 5.76041182 13.58087561 11.77450081 19 19 C18.34 20.32 17.68 21.64 17 23 C13.83884224 21.63016497 13.0072908 21.0109362 11 18 C11.0721875 17.23042969 11.144375 16.46085937 11.21875 15.66796875 C10.89160829 11.67800823 8.32048575 9.8592531 5.5 7.3125 C3.62189751 5.57513984 1.8032295 3.8178661 0 2 C0 1.34 0 0.68 0 0 Z " fill="#F0A0AB" transform="translate(59,50)"/>
<path d="M0 0 C4.59664549 0.48515578 6.74144221 2.17623059 10.0625 5.3125 C10.89910156 6.09238281 11.73570313 6.87226563 12.59765625 7.67578125 C14.13019108 9.15847755 15.64534476 10.65950223 17.13671875 12.18359375 C19.23730044 14.23133062 21.44324896 15.57958275 24 17 C23.67 17.99 23.34 18.98 23 20 C19.9004661 18.62502839 17.82643728 17.05480458 15.46875 14.62890625 C14.82292969 13.97212891 14.17710938 13.31535156 13.51171875 12.63867188 C12.84785156 11.95353516 12.18398438 11.26839844 11.5 10.5625 C10.17944577 9.2073293 8.85659972 7.85438735 7.53125 6.50390625 C6.94923828 5.90392822 6.36722656 5.3039502 5.76757812 4.68579102 C3.94701104 2.94946288 2.04011444 1.46878162 0 0 Z " fill="#4E4B4A" transform="translate(15,25)"/>
<path d="M0 0 C4.50137073 1.57024561 7.88708314 3.33666628 10.0625 7.6875 C10.26875 8.43 10.475 9.1725 10.6875 9.9375 C6.61996965 9.44446602 3.78229691 7.99510185 0.3359375 5.92578125 C-1.49982107 4.82519613 -3.38338095 3.86347714 -5.3125 2.9375 C-3.58463555 0.66399415 -2.92546197 -0.07906654 0 0 Z " fill="#D7E1EA" transform="translate(11.3125,10.0625)"/>
<path d="M0 0 C5.58944656 0.32342495 8.23423935 2.60020478 11.875 6.5625 C12.37257813 7.08263672 12.87015625 7.60277344 13.3828125 8.13867188 C14.60028612 9.41467789 15.80180992 10.70586944 17 12 C15 13 15 13 12.70703125 12.37890625 C9.39556092 10.69211112 7.27297172 8.59957829 4.6875 5.9375 C3.80449219 5.03902344 2.92148437 4.14054687 2.01171875 3.21484375 C0 1 0 1 0 0 Z " fill="#B6C3D3" transform="translate(24,27)"/>
<path d="M0 0 C0.33 0.66 0.66 1.32 1 2 C0.00419922 2.09087891 0.00419922 2.09087891 -1.01171875 2.18359375 C-3.67680101 2.43648477 -6.33821532 2.7146632 -9 3 C-9.99 3.103125 -10.98 3.20625 -12 3.3125 C-14.71643004 4.24627282 -14.76200978 5.4652828 -16 8 C-17.00435972 9.28016835 -18.04690261 10.53128122 -19.125 11.75 C-19.93324219 12.67039062 -19.93324219 12.67039062 -20.7578125 13.609375 C-21.16773438 14.06828125 -21.57765625 14.5271875 -22 15 C-22.33 14.34 -22.66 13.68 -23 13 C-19.89191381 7.49021085 -17.12050318 3.11872573 -11.16796875 0.57421875 C-7.44188264 -0.41269054 -3.81716103 -0.31809675 0 0 Z " fill="#E0E7EF" transform="translate(75,6)"/>
<path d="M0 0 C3.69255592 1.65528369 6.20951404 3.29866603 7.94921875 7.04296875 C8.31466797 8.10451172 8.31466797 8.10451172 8.6875 9.1875 C9.06455078 10.26064453 9.06455078 10.26064453 9.44921875 11.35546875 C9.63097656 11.89816406 9.81273438 12.44085938 10 13 C4.67302761 11.54718935 1.63597198 7.91888622 -2 4 C-1.34 3.34 -0.68 2.68 0 2 C0 1.34 0 0.68 0 0 Z " fill="#EE5358" transform="translate(63,59)"/>
<path d="M0 0 C0.66 0.33 1.32 0.66 2 1 C1.34 1.66 0.68 2.32 0 3 C-1.84765625 2.87890625 -1.84765625 2.87890625 -4.0625 2.5625 C-7.57351827 2.43140679 -8.75736181 2.81327091 -11.59375 4.99609375 C-13.82774657 7.26190356 -15.95477176 9.5631323 -18 12 C-18.99 11.67 -19.98 11.34 -21 11 C-20.06409496 9.8944811 -19.12620142 8.79064547 -18.1875 7.6875 C-17.66542969 7.07261719 -17.14335938 6.45773438 -16.60546875 5.82421875 C-16.07566406 5.22222656 -15.54585937 4.62023437 -15 4 C-14.55527344 3.43152344 -14.11054687 2.86304688 -13.65234375 2.27734375 C-11.23517568 0.40875283 -9.3772076 0.74033633 -6.375 0.875 C-4.58423621 0.94550251 -2.79214159 0.99416241 -1 1 C-0.67 0.67 -0.34 0.34 0 0 Z " fill="#95A0AE" transform="translate(78,26)"/>
<path d="M0 0 C0.33 0 0.66 0 1 0 C1.55913736 4.41097251 1.99554055 8.33210888 -0.34765625 12.2578125 C-2.13699601 14.20052424 -3.71720456 15.66950845 -6 17 C-9.4375 16.9375 -9.4375 16.9375 -12 16 C-11.071875 15.87625 -11.071875 15.87625 -10.125 15.75 C-7.85609195 15.21402157 -7.85609195 15.21402157 -7 13.1875 C-6.67 12.465625 -6.34 11.74375 -6 11 C-5.01 10.1028125 -5.01 10.1028125 -4 9.1875 C-1.41473712 6.35986873 -0.85088438 3.68716566 0 0 Z " fill="#8B94A1" transform="translate(33,51)"/>
<path d="M0 0 C1.34313399 0.64669414 2.67391178 1.31903578 4 2 C4.845625 2.433125 5.69125 2.86625 6.5625 3.3125 C9 5 9 5 10.375 7.3125 C12.6147231 11.01665743 15.34561024 13.67312326 19 16 C22.73225344 16.79682803 22.73225344 16.79682803 26 17 C26.33 17.66 26.66 18.32 27 19 C21.34393349 19.45248532 18.32530757 18.46456248 14 15 C11.45201384 12.68939092 9.03275943 10.26801249 6.625 7.8125 C5.98433594 7.17119141 5.34367187 6.52988281 4.68359375 5.86914062 C0 1.14060834 0 1.14060834 0 0 Z " fill="#B23730" transform="translate(48,64)"/>
<path d="M0 0 C0.66 0 1.32 0 2 0 C4.24828052 4.49656104 4.16682272 8.07872966 4 13 C3.01 13 2.02 13 1 13 C-1.1875 10.5 -1.1875 10.5 -3 8 C-2.34 7.67 -1.68 7.34 -1 7 C-0.59270772 4.67843403 -0.25561323 2.3431213 0 0 Z " fill="#6E6D76" transform="translate(55,35)"/>
<path d="M0 0 C0.33 0 0.66 0 1 0 C2.06445997 4.2578399 2.80183868 8.64716145 2 13 C-0.44298288 16.03722197 -2.7663665 17.84424433 -6 20 C-6.66 19.67 -7.32 19.34 -8 19 C-7 17 -7 17 -4 15.125 C-1.51103631 13.16598312 -1.0351869 12.17081236 -0.3828125 9.00390625 C-0.14884079 5.99417923 -0.0096279 3.01834778 0 0 Z " fill="#676A73" transform="translate(35,52)"/>
<path d="M0 0 C1.2375 0.2475 2.475 0.495 3.75 0.75 C3.75 1.08 3.75 1.41 3.75 1.75 C2.739375 1.915 1.72875 2.08 0.6875 2.25 C-4.44449836 3.65344445 -7.13371678 7.67704624 -10.25 11.75 C-11.57 11.42 -12.89 11.09 -14.25 10.75 C-12.78679271 9.01366069 -11.3146079 7.28787695 -9.8203125 5.578125 C-8.61878054 4.1793266 -7.48139675 2.72519567 -6.375 1.25 C-3.81923594 -0.55406875 -3.02436355 -0.36080127 0 0 Z " fill="#7B8593" transform="translate(73.25,28.25)"/>
<path d="M0 0 C0 0.99 0 1.98 0 3 C-0.66 3.66 -1.32 4.32 -2 5 C-2.78375 4.95875 -3.5675 4.9175 -4.375 4.875 C-7.177705 4.7377218 -7.177705 4.7377218 -9.3125 7 C-9.869375 7.66 -10.42625 8.32 -11 9 C-11.66 8.67 -12.32 8.34 -13 8 C-11.87895467 6.68412059 -10.75303035 5.37239647 -9.625 4.0625 C-8.99851562 3.33160156 -8.37203125 2.60070313 -7.7265625 1.84765625 C-4.95859418 -1.11444559 -3.74093004 -1.12227901 0 0 Z " fill="#E6B06E" transform="translate(48,39)"/>
<path d="M0 0 C1.5625 1 1.5625 1 3 3 C2.96726452 5.76614782 2.49404328 8.26030547 2 11 C-1.75 12.125 -1.75 12.125 -4 11 C-3.21681311 7.08406554 -1.60820142 3.63593365 0 0 Z " fill="#85848E" transform="translate(53,31)"/>
<path d="M0 0 C4.95654279 0.47703816 7.62354946 4.50546205 10.7578125 7.96289062 C13.92963944 11.3173649 16.52044176 12.89662799 21 14 C20.67 14.99 20.34 15.98 20 17 C13.26346924 13.2030463 8.30688045 8.58949539 3 3 C2.00332039 1.9966906 1.004743 0.99523439 0 0 Z " fill="#6F727C" transform="translate(20,26)"/>
<path d="M0 0 C0 0.99 0 1.98 0 3 C-0.33 3.33 -0.66 3.66 -1 4 C-1.2500773 6.45809998 -1.2500773 6.45809998 -1 9 C0.95216435 10.95216435 2.53199953 11.84826645 5 13 C-1.32258065 13.36476427 -1.32258065 13.36476427 -4.4375 11.6875 C-6 10 -6 10 -6 7 C-5.34 6.67 -4.68 6.34 -4 6 C-2.96986723 4.35178756 -1.96885372 2.68496298 -1 1 C-0.67 0.67 -0.34 0.34 0 0 Z " fill="#7E8A9A" transform="translate(19,67)"/>
<path d="M0 0 C2.125 0.375 2.125 0.375 4 1 C4.625 2.875 4.625 2.875 5 5 C4.34 5.66 3.68 6.32 3 7 C0.875 6.625 0.875 6.625 -1 6 C-1.625 4.125 -1.625 4.125 -2 2 C-1.34 1.34 -0.68 0.68 0 0 Z " fill="#527EB9" transform="translate(21,70)"/>
<path d="M0 0 C3.56720996 2.67540747 6.41126424 5.35659412 9 9 C9 9.66 9 10.32 9 11 C6.05043472 9.63055898 3.47531189 8.12169591 1 6 C1 5.34 1 4.68 1 4 C-0.32 3.67 -1.64 3.34 -3 3 C-2.01 2.01 -1.02 1.02 0 0 Z " fill="#FB8E5D" transform="translate(47,44)"/>
<path d="M0 0 C1.32 0.66 2.64 1.32 4 2 C2.93106782 3.03590338 1.84421512 4.05333942 0.75 5.0625 C-0.15492187 5.91521484 -0.15492187 5.91521484 -1.078125 6.78515625 C-3 8 -3 8 -5.234375 7.68359375 C-5.81703125 7.45800781 -6.3996875 7.23242188 -7 7 C-7 6.34 -7 5.68 -7 5 C-5.35666496 3.96210419 -3.68756133 2.96432076 -2 2 C-1.34 1.34 -0.68 0.68 0 0 Z " fill="#F64819" transform="translate(41,43)"/>
<path d="M0 0 C0.66 0.33 1.32 0.66 2 1 C1.6875 3.875 1.6875 3.875 1 7 C0.01 7.66 -0.98 8.32 -2 9 C-2 8.01 -2 7.02 -2 6 C-2.99 6 -3.98 6 -5 6 C-4.75 4.125 -4.75 4.125 -4 2 C-2.0625 0.6875 -2.0625 0.6875 0 0 Z " fill="#BA2E2D" transform="translate(77,71)"/>
<path d="M0 0 C2.375 0.75 2.375 0.75 5 2 C5.66666667 3.33333333 6.33333333 4.66666667 7 6 C9.53770003 7.28254644 9.53770003 7.28254644 12 8 C12 8.99 12 9.98 12 11 C8.20527027 10.45550236 6.72968732 8.96207612 4.3125 6.0625 C3.71050781 5.35222656 3.10851563 4.64195313 2.48828125 3.91015625 C1 2 1 2 0 0 Z " fill="#D02A17" transform="translate(38,53)"/>
<path d="M0 0 C3.5786304 1.65167557 6.74820188 3.78286492 10 6 C9.67 6.99 9.34 7.98 9 9 C5.18063472 7.44396229 2.73955562 5.04395069 0 2 C0 1.34 0 0.68 0 0 Z " fill="#483C3A" transform="translate(29,36)"/>
<path d="M0 0 C4.86111111 4.25347222 4.86111111 4.25347222 5.5 7.6875 C5 10 5 10 2 12 C1.34 8.04 0.68 4.08 0 0 Z " fill="#493F41" transform="translate(37,53)"/>
<path d="M0 0 C0 0.66 0 1.32 0 2 C-0.99 2.33 -1.98 2.66 -3 3 C-2.34 4.32 -1.68 5.64 -1 7 C-2.65 6.67 -4.3 6.34 -6 6 C-6 5.34 -6 4.68 -6 4 C-6.66 3.67 -7.32 3.34 -8 3 C-5.53387212 -0.1151089 -3.89156016 -0.31553191 0 0 Z " fill="#F0591D" transform="translate(48,48)"/>
<path d="M0 0 C0.33 0 0.66 0 1 0 C0.6297613 6.4174708 0.6297613 6.4174708 -2.5 9.3125 C-3.7375 10.1478125 -3.7375 10.1478125 -5 11 C-5.33 11.66 -5.66 12.32 -6 13 C-6.99 12.67 -7.98 12.34 -9 12 C-8.51789062 11.55269531 -8.03578125 11.10539062 -7.5390625 10.64453125 C-2.69203185 6.04405045 -2.69203185 6.04405045 0 0 Z " fill="#99A3B1" transform="translate(31,53)"/>
<path d="M0 0 C0.66 0.33 1.32 0.66 2 1 C3.28317892 4.84953676 3.06643637 7.94738135 3 12 C2.01 12 1.02 12 0 12 C-0.33 11.34 -0.66 10.68 -1 10 C-0.34 10 0.32 10 1 10 C0.67 6.7 0.34 3.4 0 0 Z " fill="#535055" transform="translate(56,36)"/>
<path d="M0 0 C0.66 0.33 1.32 0.66 2 1 C1.67 1.66 1.34 2.32 1 3 C1.61875 3.268125 2.2375 3.53625 2.875 3.8125 C5 5 5 5 7 8 C3 8 3 8 0.6875 6.25 C-1 4 -1 4 -0.75 1.75 C-0.5025 1.1725 -0.255 0.595 0 0 Z " fill="#F77C46" transform="translate(49,42)"/>
<path d="M0 0 C0 3 0 3 -2.5 5.6875 C-3.325 6.450625 -4.15 7.21375 -5 8 C-5.66 7.67 -6.32 7.34 -7 7 C-5.42655961 3.85311922 -2.72148049 2.20034593 0 0 Z " fill="#68717C" transform="translate(34,64)"/>
<path d="M0 0 C0.66 0.66 1.32 1.32 2 2 C1.01 4.64 0.02 7.28 -1 10 C-1.99 10 -2.98 10 -4 10 C-3.71125 9.46375 -3.4225 8.9275 -3.125 8.375 C-1.83288192 5.64719516 -0.91441408 2.87387282 0 0 Z " fill="#979AA6" transform="translate(53,31)"/>
<path d="M0 0 C0.66 0.33 1.32 0.66 2 1 C1.07038578 2.15224028 0.1309875 3.29659176 -0.8125 4.4375 C-1.59560547 5.39462891 -1.59560547 5.39462891 -2.39453125 6.37109375 C-4 8 -4 8 -7 9 C-5.44499019 5.18315774 -2.96404505 2.80804268 0 0 Z " fill="#42464D" transform="translate(85,32)"/>
<path d="M0 0 C3.72284268 0.50308685 5.57327341 1.11103977 8 4 C8.66 4.66 9.32 5.32 10 6 C7.8125 6.375 7.8125 6.375 5 6 C3.00977164 4.16038352 1.61010101 2.20813852 0 0 Z " fill="#B4C1CB" transform="translate(6,14)"/>
<path d="M0 0 C0.33 0.99 0.66 1.98 1 3 C-0.66684015 4.66684015 -2.65643069 4.21072764 -4.9375 4.25 C-6.28134766 4.28867188 -6.28134766 4.28867188 -7.65234375 4.328125 C-8.42707031 4.21984375 -9.20179687 4.1115625 -10 4 C-10.66 3.01 -11.32 2.02 -12 1 C-11.01 1.33 -10.02 1.66 -9 2 C-5.45821402 2.25003964 -5.45821402 2.25003964 -2 2 C-1.34 1.34 -0.68 0.68 0 0 Z " fill="#545961" transform="translate(26,77)"/>
<path d="M0 0 C5.53846154 0.49230769 5.53846154 0.49230769 7.875 3.0625 C8.431875 4.0215625 8.431875 4.0215625 9 5 C2.25 3.375 2.25 3.375 0 0 Z " fill="#9AA4B7" transform="translate(32,35)"/>
<path d="M0 0 C0.33 0.66 0.66 1.32 1 2 C-0.25 4.625 -0.25 4.625 -2 7 C-2.99 7 -3.98 7 -5 7 C-3.70700306 4.11562221 -2.34058637 2.12780579 0 0 Z " fill="#A8ACB8" transform="translate(52,32)"/>
<path d="M0 0 C5.875 3.75 5.875 3.75 7 6 C6.01 6.33 5.02 6.66 4 7 C4 6.34 4 5.68 4 5 C3.01 4.67 2.02 4.34 1 4 C0.3125 1.9375 0.3125 1.9375 0 0 Z " fill="#E87F8F" transform="translate(71,64)"/>
<path d="M0 0 C1.32 0.66 2.64 1.32 4 2 C2.68 3.32 1.36 4.64 0 6 C-1.125 2.25 -1.125 2.25 0 0 Z " fill="#F98C44" transform="translate(45,38)"/>
<path d="M0 0 C3.65316671 1.24976756 4.78065836 1.67098753 7 5 C4.69 4.34 2.38 3.68 0 3 C0 2.01 0 1.02 0 0 Z " fill="#ABB9CB" transform="translate(30,31)"/>
<path d="M0 0 C0.66 0 1.32 0 2 0 C2.125 2.375 2.125 2.375 2 5 C1.34 5.66 0.68 6.32 0 7 C-0.99 6.67 -1.98 6.34 -3 6 C-2.34 5.34 -1.68 4.68 -1 4 C-0.3574765 1.93125966 -0.3574765 1.93125966 0 0 Z " fill="#BAC0CA" transform="translate(26,71)"/>
<path d="M0 0 C1.32 0.66 2.64 1.32 4 2 C3.01 2.99 2.02 3.98 1 5 C0.01 4.67 -0.98 4.34 -2 4 C-1.34 2.68 -0.68 1.36 0 0 Z " fill="#FC6A20" transform="translate(41,43)"/>
<path d="M0 0 C3.3 0 6.6 0 10 0 C10 0.33 10 0.66 10 1 C6.7 1 3.4 1 0 1 C0 0.67 0 0.34 0 0 Z " fill="#3C3131" transform="translate(65,45)"/>
<path d="M0 0 C0.33 0 0.66 0 1 0 C1 3.3 1 6.6 1 10 C0.67 10 0.34 10 0 10 C0 6.7 0 3.4 0 0 Z " fill="#C8D1D9" transform="translate(50,20)"/>
<path d="M0 0 C2.97 0 5.94 0 9 0 C9 0.33 9 0.66 9 1 C6.03 1 3.06 1 0 1 C0 0.67 0 0.34 0 0 Z " fill="#D5E1EE" transform="translate(66,4)"/>
<path d="M0 0 C0.33 0 0.66 0 1 0 C1 1.98 1 3.96 1 6 C0.67 6 0.34 6 0 6 C0 4.02 0 2.04 0 0 Z " fill="#A5B0BB" transform="translate(11,70)"/>
<path d="M0 0 C1.98 0 3.96 0 6 0 C6 0.33 6 0.66 6 1 C4.02 1 2.04 1 0 1 C0 0.67 0 0.34 0 0 Z " fill="#919EAF" transform="translate(71,26)"/>
<path d="M0 0 C0.33 0 0.66 0 1 0 C1 1.98 1 3.96 1 6 C0.67 6 0.34 6 0 6 C0 4.02 0 2.04 0 0 Z " fill="#3E4351" transform="translate(91,22)"/>
<path d="M0 0 C1.65 0 3.3 0 5 0 C5 0.33 5 0.66 5 1 C3.35 1 1.7 1 0 1 C0 0.67 0 0.34 0 0 Z " fill="#3B3A3C" transform="translate(20,84)"/>
<path d="M0 0 C0.66 0.66 1.32 1.32 2 2 C1.34 2 0.68 2 0 2 C0 1.34 0 0.68 0 0 Z " fill="#AC1F1B" transform="translate(59,77)"/>
<path d="M0 0 C0.66 0 1.32 0 2 0 C1.67 0.66 1.34 1.32 1 2 C0.67 1.34 0.34 0.68 0 0 Z " fill="#B83830" transform="translate(56,75)"/>
<path d="" fill="#B44640" transform="translate(0,0)"/>
<path d="M0 0 C0.33 0.66 0.66 1.32 1 2 C0.34 1.67 -0.32 1.34 -1 1 C-0.67 0.67 -0.34 0.34 0 0 Z " fill="#7C2E28" transform="translate(46,64)"/>
<path d="M0 0 C0.66 0 1.32 0 2 0 C1.67 0.66 1.34 1.32 1 2 C0.67 1.34 0.34 0.68 0 0 Z " fill="#AAA6A6" transform="translate(60,49)"/>
<path d="M0 0 C3 1 3 1 3 1 Z " fill="#3C3C43" transform="translate(75,44)"/>
<path d="" fill="#3A3940" transform="translate(0,0)"/>
<path d="" fill="#8795AA" transform="translate(0,0)"/>
<path d="" fill="#737C8C" transform="translate(0,0)"/>
<path d="M0 0 C3 1 3 1 3 1 Z " fill="#E8F0F9" transform="translate(63,5)"/>
<path d="M0 0 C2 1 2 1 2 1 Z " fill="#963834" transform="translate(69,84)"/>
<path d="M0 0 C2 1 2 1 2 1 Z " fill="#921A18" transform="translate(71,83)"/>
<path d="M0 0 C2 1 2 1 2 1 Z " fill="#992F2C" transform="translate(66,83)"/>
<path d="M0 0 C2 1 2 1 2 1 Z " fill="#373839" transform="translate(25,83)"/>
<path d="M0 0 C2 1 2 1 2 1 Z " fill="#5C636F" transform="translate(18,83)"/>
<path d="M0 0 C2 1 2 1 2 1 Z " fill="#585C63" transform="translate(16,82)"/>
<path d="" fill="#6D737C" transform="translate(0,0)"/>
<path d="" fill="#B01B1C" transform="translate(0,0)"/>
<path d="" fill="#C9404B" transform="translate(0,0)"/>
<path d="" fill="#675E50" transform="translate(0,0)"/>
<path d="M0 0 C2 1 2 1 2 1 Z " fill="#333032" transform="translate(78,43)"/>
<path d="M0 0 C2 1 2 1 2 1 Z " fill="#353435" transform="translate(80,42)"/>
<path d="" fill="#39373B" transform="translate(0,0)"/>
<path d="M0 0 C2 1 2 1 2 1 Z " fill="#464443" transform="translate(17,28)"/>
<path d="M0 0 C2 1 2 1 2 1 Z " fill="#7D858D" transform="translate(12,25)"/>
<path d="" fill="#C9D5E4" transform="translate(0,0)"/>
<path d="" fill="#87929B" transform="translate(0,0)"/>
<path d="" fill="#CCD8E6" transform="translate(0,0)"/>
<path d="M0 0 C2 1 2 1 2 1 Z " fill="#C1C9D2" transform="translate(84,18)"/>
<path d="" fill="#EBF2F8" transform="translate(0,0)"/>
<path d="M0 0 C2 1 2 1 2 1 Z " fill="#9FB0C6" transform="translate(86,17)"/>
<path d="" fill="#F6FBFD" transform="translate(0,0)"/>
<path d="" fill="#D0DCE8" transform="translate(0,0)"/>
<path d="" fill="#ECF1F5" transform="translate(0,0)"/>
<path d="M0 0 C2 1 2 1 2 1 Z " fill="#D7E2EC" transform="translate(17,12)"/>
<path d="M0 0 C2 1 2 1 2 1 Z " fill="#DCE5EF" transform="translate(15,11)"/>
<path d="" fill="#7D838E" transform="translate(0,0)"/>
<path d="M0 0 C2 1 2 1 2 1 Z " fill="#E0E9F3" transform="translate(12,9)"/>
<path d="M0 0 C2 1 2 1 2 1 Z " fill="#F4F9FC" transform="translate(58,8)"/>
<path d="M0 0 C2 1 2 1 2 1 Z " fill="#E4EDF6" transform="translate(10,8)"/>
<path d="M0 0 C2 1 2 1 2 1 Z " fill="#F0F5F9" transform="translate(61,6)"/>
<path d="" fill="#9A2B27" transform="translate(0,0)"/>
<path d="" fill="#313032" transform="translate(0,0)"/>
<path d="" fill="#9F322E" transform="translate(0,0)"/>
<path d="" fill="#A4322D" transform="translate(0,0)"/>
<path d="" fill="#312E2D" transform="translate(0,0)"/>
<path d="" fill="#525457" transform="translate(0,0)"/>
<path d="" fill="#9F1F1D" transform="translate(0,0)"/>
<path d="" fill="#A42D29" transform="translate(0,0)"/>
<path d="" fill="#2F2C2B" transform="translate(0,0)"/>
<path d="" fill="#575A5F" transform="translate(0,0)"/>
<path d="" fill="#A32B27" transform="translate(0,0)"/>
<path d="" fill="#A51B18" transform="translate(0,0)"/>
<path d="" fill="#302E2E" transform="translate(0,0)"/>
<path d="" fill="#5A5C60" transform="translate(0,0)"/>
<path d="" fill="#A5332E" transform="translate(0,0)"/>
<path d="" fill="#312E2E" transform="translate(0,0)"/>
<path d="" fill="#312C2C" transform="translate(0,0)"/>
<path d="" fill="#322E2E" transform="translate(0,0)"/>
<path d="" fill="#312D2C" transform="translate(0,0)"/>
<path d="" fill="#B56053" transform="translate(0,0)"/>
<path d="" fill="#302C2B" transform="translate(0,0)"/>
<path d="" fill="#B75145" transform="translate(0,0)"/>
<path d="" fill="#312E2D" transform="translate(0,0)"/>
<path d="" fill="#B95548" transform="translate(0,0)"/>
<path d="" fill="#302C2B" transform="translate(0,0)"/>
<path d="" fill="#BA6051" transform="translate(0,0)"/>
<path d="" fill="#302D2B" transform="translate(0,0)"/>
<path d="" fill="#BB5143" transform="translate(0,0)"/>
<path d="" fill="#312D2C" transform="translate(0,0)"/>
<path d="" fill="#BB594B" transform="translate(0,0)"/>
<path d="" fill="#302C2A" transform="translate(0,0)"/>
<path d="" fill="#E28F97" transform="translate(0,0)"/>
<path d="" fill="#BC5C4D" transform="translate(0,0)"/>
<path d="" fill="#312C2B" transform="translate(0,0)"/>
<path d="" fill="#E5EAF0" transform="translate(0,0)"/>
<path d="" fill="#E48B94" transform="translate(0,0)"/>
<path d="" fill="#BF5243" transform="translate(0,0)"/>
<path d="" fill="#312C2B" transform="translate(0,0)"/>
<path d="" fill="#D5E0EB" transform="translate(0,0)"/>
<path d="" fill="#DD3A51" transform="translate(0,0)"/>
<path d="" fill="#C05D4E" transform="translate(0,0)"/>
<path d="" fill="#312B2A" transform="translate(0,0)"/>
<path d="" fill="#FFFFFF" transform="translate(0,0)"/>
<path d="" fill="#F7E0E1" transform="translate(0,0)"/>
<path d="" fill="#FFFFFF" transform="translate(0,0)"/>
<path d="" fill="#F9E0E1" transform="translate(0,0)"/>
<path d="" fill="#FFFFFF" transform="translate(0,0)"/>
<path d="" fill="#F8D2D7" transform="translate(0,0)"/>
<path d="" fill="#FFFFFF" transform="translate(0,0)"/>
<path d="" fill="#F9D3D7" transform="translate(0,0)"/>
<path d="" fill="#FFFFFF" transform="translate(0,0)"/>
<path d="" fill="#FAD5D8" transform="translate(0,0)"/>
<path d="" fill="#FFFFFF" transform="translate(0,0)"/>
<path d="" fill="#FACED3" transform="translate(0,0)"/>
<path d="" fill="#FFFFFF" transform="translate(0,0)"/>
<path d="" fill="#FBD4D7" transform="translate(0,0)"/>
<path d="" fill="#FFFFFF" transform="translate(0,0)"/>
<path d="" fill="#FCD3D6" transform="translate(0,0)"/>
<path d="" fill="#FFFFFF" transform="translate(0,0)"/>
<path d="" fill="#FCD0D4" transform="translate(0,0)"/>
<path d="" fill="#FFFFFF" transform="translate(0,0)"/>
<path d="" fill="#FDD8DB" transform="translate(0,0)"/>
<path d="" fill="#FFFFFF" transform="translate(0,0)"/>
<path d="" fill="#FCD4D8" transform="translate(0,0)"/>
<path d="" fill="#FFFFFF" transform="translate(0,0)"/>
<path d="" fill="#FCD7DB" transform="translate(0,0)"/>
<path d="" fill="#FFFFFF" transform="translate(0,0)"/>
<path d="" fill="#FCE1E5" transform="translate(0,0)"/>
<path d="" fill="#FFFFFF" transform="translate(0,0)"/>
<path d="" fill="#FBD6D7" transform="translate(0,0)"/>
<path d="" fill="#FFFFFF" transform="translate(0,0)"/>
<path d="" fill="#FFFFFF" transform="translate(0,0)"/>
<path d="" fill="#FFFFFF" transform="translate(0,0)"/>
<path d="" fill="#312927" transform="translate(0,0)"/>
<path d="" fill="#FFF9EB" transform="translate(0,0)"/>
<path d="" fill="#312926" transform="translate(0,0)"/>
<path d="" fill="#FBF9DE" transform="translate(0,0)"/>
<path d="" fill="#312926" transform="translate(0,0)"/>
<path d="" fill="#FBF8D9" transform="translate(0,0)"/>
<path d="" fill="#000000" transform="translate(0,0)"/>
<path d="" fill="#171012" transform="translate(0,0)"/>
<path d="" fill="#312C29" transform="translate(0,0)"/>
<path d="" fill="#161215" transform="translate(0,0)"/>
<path d="" fill="#2F2B2A" transform="translate(0,0)"/>
<path d="" fill="#1E1B1C" transform="translate(0,0)"/>
<path d="" fill="#302D30" transform="translate(0,0)"/>
<path d="" fill="#272525" transform="translate(0,0)"/>
<path d="" fill="#2E2B2E" transform="translate(0,0)"/>
<path d="" fill="#BAAEB2" transform="translate(0,0)"/>
<path d="" fill="#282625" transform="translate(0,0)"/>
<path d="" fill="#322F31" transform="translate(0,0)"/>
<path d="" fill="#FCF6E3" transform="translate(0,0)"/>
<path d="" fill="#979DB0" transform="translate(0,0)"/>
<path d="" fill="#2E2C2B" transform="translate(0,0)"/>
<path d="" fill="#363335" transform="translate(0,0)"/>
<path d="" fill="#FFFFFF" transform="translate(0,0)"/>
<path d="" fill="#94A0B8" transform="translate(0,0)"/>
<path d="" fill="#34302F" transform="translate(0,0)"/>
<path d="" fill="#FFFFFF" transform="translate(0,0)"/>
<path d="" fill="#9BA8BF" transform="translate(0,0)"/>
<path d="" fill="#353130" transform="translate(0,0)"/>
<path d="" fill="#343135" transform="translate(0,0)"/>
<path d="" fill="#FFFFFF" transform="translate(0,0)"/>
<path d="" fill="#9DACC4" transform="translate(0,0)"/>
<path d="" fill="#3A3634" transform="translate(0,0)"/>
<path d="" fill="#FFFFFF" transform="translate(0,0)"/>
<path d="" fill="#AFBED2" transform="translate(0,0)"/>
<path d="" fill="#3B3835" transform="translate(0,0)"/>
<path d="" fill="#FFFFFF" transform="translate(0,0)"/>
<path d="" fill="#B4C2D5" transform="translate(0,0)"/>
<path d="" fill="#3D3937" transform="translate(0,0)"/>
<path d="" fill="#FFFFFF" transform="translate(0,0)"/>
<path d="" fill="#B8C6D8" transform="translate(0,0)"/>
<path d="" fill="#3F3C39" transform="translate(0,0)"/>
<path d="" fill="#FFFFFF" transform="translate(0,0)"/>
<path d="" fill="#C2CFDF" transform="translate(0,0)"/>
<path d="" fill="#3F3C39" transform="translate(0,0)"/>
<path d="" fill="#C1CEDF" transform="translate(0,0)"/>
<path d="" fill="#403D3A" transform="translate(0,0)"/>
<path d="" fill="#C4D0E1" transform="translate(0,0)"/>
<path d="" fill="#CCD6E5" transform="translate(0,0)"/>
<path d="" fill="#4D4A48" transform="translate(0,0)"/>
<path d="" fill="#C9D5E4" transform="translate(0,0)"/>
<path d="" fill="#64676A" transform="translate(0,0)"/>
<path d="" fill="#E4EAF2" transform="translate(0,0)"/>
<path d="" fill="#ABB8C8" transform="translate(0,0)"/>
<path d="" fill="#CCD7E6" transform="translate(0,0)"/>
<path d="" fill="#FAFEFF" transform="translate(0,0)"/>
<path d="" fill="#CFDAE8" transform="translate(0,0)"/>
<path d="" fill="#767D84" transform="translate(0,0)"/>
<path d="" fill="#F6FAFF" transform="translate(0,0)"/>
<path d="" fill="#CBD7E6" transform="translate(0,0)"/>
<path d="" fill="#828B94" transform="translate(0,0)"/>
<path d="" fill="#FFFFFF" transform="translate(0,0)"/>
<path d="" fill="#C7D4E3" transform="translate(0,0)"/>
<path d="" fill="#7C848C" transform="translate(0,0)"/>
<path d="" fill="#F6FAFF" transform="translate(0,0)"/>
<path d="" fill="#7F90AA" transform="translate(0,0)"/>
<path d="" fill="#F7FCFF" transform="translate(0,0)"/>
<path d="" fill="#FFFFFF" transform="translate(0,0)"/>
<path d="" fill="#8D9AA3" transform="translate(0,0)"/>
<path d="" fill="#747B86" transform="translate(0,0)"/>
<path d="" fill="#CDDAE8" transform="translate(0,0)"/>
<path d="" fill="#9BA8B3" transform="translate(0,0)"/>
<path d="" fill="#6B6E75" transform="translate(0,0)"/>
<path d="" fill="#6F727A" transform="translate(0,0)"/>
<path d="" fill="#BAC6CF" transform="translate(0,0)"/>
<path d="" fill="#6F727B" transform="translate(0,0)"/>
<path d="" fill="#F5F9FB" transform="translate(0,0)"/>
<path d="" fill="#D5E1EB" transform="translate(0,0)"/>
<path d="" fill="#B7C2CB" transform="translate(0,0)"/>
<path d="" fill="#6B6D76" transform="translate(0,0)"/>
<path d="" fill="#D5E0EA" transform="translate(0,0)"/>
<path d="" fill="#707581" transform="translate(0,0)"/>
<path d="" fill="#6A6D78" transform="translate(0,0)"/>
<path d="" fill="#FFFFFF" transform="translate(0,0)"/>
<path d="" fill="#E3EBF2" transform="translate(0,0)"/>
<path d="" fill="#FFFFFF" transform="translate(0,0)"/>
<path d="" fill="#E0E9F3" transform="translate(0,0)"/>
<path d="" fill="#E7F0F7" transform="translate(0,0)"/>
<path d="" fill="#FFFFFF" transform="translate(0,0)"/>
<path d="" fill="#E6EFF5" transform="translate(0,0)"/>
<path d="" fill="#707E97" transform="translate(0,0)"/>
<path d="" fill="#BDCBDD" transform="translate(0,0)"/>
<path d="" fill="#F7FCFE" transform="translate(0,0)"/>
<path d="" fill="#95AAC5" transform="translate(0,0)"/>
</svg>
