<svg fill="#142d4c" xmlns="http://www.w3.org/2000/svg"  viewBox="0 0 24 24" width="24px" height="24px"><path d="M 4.25 3 C 3.019 3 2 4.019 2 5.25 L 2 17.394531 L 4.1210938 10.15625 C 4.4930937 8.88625 5.678 8 7 8 L 21.966797 8 L 22 7.25 C 22 6.019 20.981 5 19.75 5 L 10.621094 5 C 10.488094 5 10.361578 4.9465156 10.267578 4.8535156 L 9.1464844 3.7324219 C 8.6784844 3.2644219 8.0419062 3 7.3789062 3 L 4.25 3 z M 7 10 C 6.556 10 6.1640625 10.29275 6.0390625 10.71875 L 3.6953125 18.71875 C 3.6073125 19.02075 3.6674688 19.347609 3.8554688 19.599609 C 4.0454687 19.851609 4.34125 20 4.65625 20 L 19.863281 20 C 20.798281 20 21.597922 19.365625 21.794922 18.515625 L 23.957031 11.287109 C 24.048031 10.984109 23.991734 10.655344 23.802734 10.402344 C 23.613734 10.148344 23.316 10 23 10 L 7 10 z"/></svg>