<?xml version="1.0" encoding="UTF-8"?>
<svg version="1.1" xmlns="http://www.w3.org/2000/svg" width="48" height="48">
<path d="M0 0 C4.80898095 2.52829893 9.70050588 5.30978438 12.8203125 9.828125 C13.51010971 12.66846644 13.51851598 14.98952726 12.8203125 17.828125 C10.83109364 20.8119533 9.43528682 22.43089341 5.8828125 23.3046875 C1.95967758 23.58703433 0.14918879 23.04737586 -3.1796875 20.828125 C-5.93745813 16.69146906 -5.80356948 14.74119562 -5.1796875 9.828125 C-3.8046875 7.328125 -3.8046875 7.328125 -2.1796875 5.828125 C-1.5196875 5.828125 -0.8596875 5.828125 -0.1796875 5.828125 C-0.1796875 5.168125 -0.1796875 4.508125 -0.1796875 3.828125 C-6.54406736 1.95535294 -13.64053895 1.6492346 -19.6796875 4.453125 C-22.4166402 7.05323006 -24.35227368 9.52472309 -26.1796875 12.828125 C-26.1796875 13.818125 -26.1796875 14.808125 -26.1796875 15.828125 C-19.9096875 16.158125 -13.6396875 16.488125 -7.1796875 16.828125 C-7.1796875 17.488125 -7.1796875 18.148125 -7.1796875 18.828125 C-10.82550437 18.85700012 -14.47129213 18.87488085 -18.1171875 18.890625 C-19.67856445 18.90319336 -19.67856445 18.90319336 -21.27148438 18.91601562 C-22.26083984 18.91923828 -23.25019531 18.92246094 -24.26953125 18.92578125 C-25.64419556 18.93363647 -25.64419556 18.93363647 -27.04663086 18.94165039 C-29.1796875 18.828125 -29.1796875 18.828125 -30.1796875 17.828125 C-30.47857522 11.77239997 -29.05183373 7.80944182 -25.04296875 3.3359375 C-17.84450909 -2.48923111 -8.57699998 -3.1610565 0 0 Z M-1.0546875 8.953125 C-2.70823281 11.70903384 -2.57334318 13.67887952 -2.1796875 16.828125 C-1.1796875 18.828125 -1.1796875 18.828125 0.8203125 19.828125 C3.96955798 20.22178068 5.93940366 20.35667031 8.6953125 18.703125 C10.34885781 15.94721616 10.21396818 13.97737048 9.8203125 10.828125 C8.8203125 8.828125 8.8203125 8.828125 6.8203125 7.828125 C3.67106702 7.43446932 1.70122134 7.29957969 -1.0546875 8.953125 Z " fill="#FAFAFA" transform="translate(34.1796875,25.171875)"/>
<path d="M0 0 C3.65050264 0.88318612 4.94055216 2.348519 6.9375 5.46875 C7.9526866 10.54468299 7.74739899 14.20328283 4.9375 18.59375 C1.62360247 20.66493595 -0.28025808 21.22876833 -4.125 20.9375 C-7.77550264 20.05431388 -9.06555216 18.588981 -11.0625 15.46875 C-12.0776866 10.39281701 -11.87239899 6.73421717 -9.0625 2.34375 C-5.74860247 0.27256405 -3.84474192 -0.29126833 0 0 Z M-6.9375 4.46875 C-8.74773932 7.68695324 -8.60217465 10.87091898 -8.0625 14.46875 C-7.10132095 16.59745693 -7.10132095 16.59745693 -5.0625 17.46875 C-1.97434125 17.85476984 0.03934376 17.94776666 2.8125 16.46875 C4.62273932 13.25054676 4.47717465 10.06658102 3.9375 6.46875 C2.97632095 4.34004307 2.97632095 4.34004307 0.9375 3.46875 C-2.15065875 3.08273016 -4.16434376 2.98973334 -6.9375 4.46875 Z " fill="#FAFAFA" transform="translate(26.0625,1.53125)"/>
<path d="M0 0 C0.66 0 1.32 0 2 0 C2 0.99 2 1.98 2 3 C2.99 3 3.98 3 5 3 C5 3.66 5 4.32 5 5 C4.01 5 3.02 5 2 5 C2 5.99 2 6.98 2 8 C1.34 8 0.68 8 0 8 C0 7.01 0 6.02 0 5 C-0.99 5 -1.98 5 -3 5 C-3 4.34 -3 3.68 -3 3 C-2.01 3 -1.02 3 0 3 C0 2.01 0 1.02 0 0 Z " fill="#F9F9F9" transform="translate(37,35)"/>
</svg>
