<?xml version="1.0" encoding="UTF-8"?>
<svg version="1.1" xmlns="http://www.w3.org/2000/svg" width="48" height="48">
<path d="M0 0 C0.495 0.33 0.99 0.66 1.5 1 C0.860625 1.86625 0.22125 2.7325 -0.4375 3.625 C-2.50095372 7.00156063 -2.98797271 9.15171071 -3.5 13 C-6.31256281 13.02684312 -9.12487241 13.04676188 -11.9375 13.0625 C-12.73994141 13.07087891 -13.54238281 13.07925781 -14.36914062 13.08789062 C-16.41295221 13.0965143 -18.45683902 13.0522815 -20.5 13 C-20.83 12.67 -21.16 12.34 -21.5 12 C-21.34418741 7.87096641 -21.18098345 5.69989966 -18.25 2.6875 C-12.41649029 -0.89215369 -6.69110732 -2.67644293 0 0 Z " fill="#FFFFFF" transform="translate(30.5,26)"/>
<path d="M0 0 C4.10703441 0.85563217 5.55401113 2.24378009 8 5.625 C8.63127485 9.62307408 8.67917484 11.63235985 6.375 15 C3.47615008 16.98342363 1.5012527 17.47911447 -2 17.625 C-5.36056696 16.50481101 -5.96356066 15.67965901 -8 12.625 C-8.57061018 8.22315002 -8.50756062 6.32662792 -5.875 2.6875 C-3 0.625 -3 0.625 0 0 Z " fill="#FFFFFF" transform="translate(24,6.375)"/>
<path d="M0 0 C4.0743356 0.84881992 5.54405875 2.30225596 8 5.625 C8.625 8.625 8.625 8.625 8 11.625 C5.54405875 14.94774404 4.0743356 16.40118008 0 17.25 C-4.0743356 16.40118008 -5.54405875 14.94774404 -8 11.625 C-8.625 8.625 -8.625 8.625 -8 5.625 C-5.54405875 2.30225596 -4.0743356 0.84881992 0 0 Z " fill="#FFFFFF" transform="translate(36,27.375)"/>
</svg>
