<?xml version="1.0" encoding="UTF-8"?>
<svg version="1.1" xmlns="http://www.w3.org/2000/svg" width="32" height="32">
<path d="M0 0 C1.2265625 1.578125 1.2265625 1.578125 1.5390625 4.140625 C1.2265625 6.578125 1.2265625 6.578125 -0.7734375 8.578125 C-2.0934375 8.578125 -3.4134375 8.578125 -4.7734375 8.578125 C-4.4434375 7.588125 -4.1134375 6.598125 -3.7734375 5.578125 C-3.1134375 5.578125 -2.4534375 5.578125 -1.7734375 5.578125 C-1.7734375 4.588125 -1.7734375 3.598125 -1.7734375 2.578125 C-8.50490186 0.78490703 -13.125781 0.3622395 -19.7734375 2.578125 C-19.7734375 3.568125 -19.7734375 4.558125 -19.7734375 5.578125 C-18.7834375 5.908125 -17.7934375 6.238125 -16.7734375 6.578125 C-16.7734375 7.568125 -16.7734375 8.558125 -16.7734375 9.578125 C-21.6484375 7.703125 -21.6484375 7.703125 -22.7734375 6.578125 C-23.05241047 3.92788174 -23.15082495 2.21496633 -21.7734375 -0.109375 C-15.55343692 -4.19125038 -6.03907768 -4.84190369 0 0 Z " fill="#000000" transform="translate(26.7734375,19.421875)"/>
<path d="M0 0 C0.70125 0.00515625 1.4025 0.0103125 2.125 0.015625 C2.82625 0.01046875 3.5275 0.0053125 4.25 0 C6.125 0.265625 6.125 0.265625 8.125 2.265625 C8.390625 4.140625 8.390625 4.140625 8.375 6.265625 C8.38015625 6.966875 8.3853125 7.668125 8.390625 8.390625 C8.125 10.265625 8.125 10.265625 6.125 12.265625 C4.25 12.53125 4.25 12.53125 2.125 12.515625 C1.42375 12.52078125 0.7225 12.5259375 0 12.53125 C-1.875 12.265625 -1.875 12.265625 -3.875 10.265625 C-4.140625 8.390625 -4.140625 8.390625 -4.125 6.265625 C-4.13015625 5.564375 -4.1353125 4.863125 -4.140625 4.140625 C-3.75603481 1.4258707 -2.7147543 0.38459019 0 0 Z M0.125 3.265625 C-0.205 4.915625 -0.535 6.565625 -0.875 8.265625 C1.6 8.760625 1.6 8.760625 4.125 9.265625 C4.455 7.615625 4.785 5.965625 5.125 4.265625 C3.475 3.935625 1.825 3.605625 0.125 3.265625 Z " fill="#000000" transform="translate(13.875,2.734375)"/>
<path d="M0 0 C0.99 0.33 1.98 0.66 3 1 C3 1.66 3 2.32 3 3 C3.66 3 4.32 3 5 3 C4.1875 4.9375 4.1875 4.9375 3 7 C2.01 7.33 1.02 7.66 0 8 C0 7.34 0 6.68 0 6 C-0.99 5.67 -1.98 5.34 -3 5 C-3 4.34 -3 3.68 -3 3 C-2.01 3 -1.02 3 0 3 C0 2.01 0 1.02 0 0 Z " fill="#000000" transform="translate(15,24)"/>
</svg>
