<?xml version="1.0" encoding="UTF-8"?>
<svg version="1.1" xmlns="http://www.w3.org/2000/svg" width="50" height="50">
<path d="M0 0 C2.56326946 2.18631807 3.14196893 3.60306065 4.125 6.8125 C4.20703125 9.96875 4.20703125 9.96875 3.9375 13.3125 C3.86144531 14.4159375 3.78539063 15.519375 3.70703125 16.65625 C3.08982618 20.00324127 1.93080353 21.96994134 0.125 24.8125 C0.125 25.8025 0.125 26.7925 0.125 27.8125 C0.74375 27.503125 1.3625 27.19375 2 26.875 C6.79442569 24.47778715 10.75536367 24.05598156 16.125 24.8125 C19.25078143 26.4845747 21.51781175 28.5981235 23.125 31.8125 C23.64012617 35.90407355 24.06867269 40.04839546 22.078125 43.76953125 C19.68001226 46.66842636 17.72851712 48.61061835 13.953125 49.0859375 C9.41678181 49.26464193 6.13381804 49.39323716 2.5 46.4375 C0.125 43.8125 0.125 43.8125 0.125 41.8125 C-8.785 41.8125 -17.695 41.8125 -26.875 41.8125 C-25.875 34.8125 -25.875 34.8125 -23.1875 32.5625 C-20.10253995 30.93270978 -17.02524516 29.31261674 -13.875 27.8125 C-14.42223683 24.43787285 -14.9299 22.73015 -16.875 19.8125 C-17.09671657 17.12022741 -17.19954269 14.5653359 -17.1875 11.875 C-17.20361328 11.15892578 -17.21972656 10.44285156 -17.23632812 9.70507812 C-17.23928933 6.50994065 -17.08649587 4.20013905 -15.54296875 1.37109375 C-11.36024524 -2.53735281 -4.96550223 -2.05096831 0 0 Z M2.125 32.8125 C1.42652875 35.6521864 1.42652875 37.9728136 2.125 40.8125 C4.11421886 43.7963283 5.51002568 45.41526841 9.0625 46.2890625 C12.98563492 46.57140933 14.79612371 46.03175086 18.125 43.8125 C20.34425086 40.48362371 20.88390933 38.67313492 20.6015625 34.75 C19.72776841 31.19752568 18.1088283 29.80171886 15.125 27.8125 C9.30836797 26.38179615 5.51685094 27.72472359 2.125 32.8125 Z " fill="#122642" transform="translate(26.875,1.1875)"/>
<path d="M0 0 C0.66 0 1.32 0 2 0 C2 1.65 2 3.3 2 5 C3.65 5 5.3 5 7 5 C7 5.66 7 6.32 7 7 C5.35 7 3.7 7 2 7 C2 8.65 2 10.3 2 12 C1.34 12 0.68 12 0 12 C0 10.35 0 8.7 0 7 C-1.65 7 -3.3 7 -5 7 C-5 6.34 -5 5.68 -5 5 C-3.35 5 -1.7 5 0 5 C0 3.35 0 1.7 0 0 Z " fill="#132743" transform="translate(37,32)"/>
</svg>
