<?xml version="1.0" encoding="UTF-8"?>
<svg version="1.1" xmlns="http://www.w3.org/2000/svg" width="48" height="48">
<path d="M0 0 C2.01586684 0.96761608 4.01753602 1.96567096 6 3 C7.66710571 3.016506 9.33545601 2.96884669 11 2.875 C14.62488095 2.76001133 16.71243302 2.95821295 19.625 5.1875 C22 8 22 8 22 13 C8.14 13 -5.72 13 -20 13 C-20 7 -20 7 -17.6875 4.25 C-11.82597803 -0.65732072 -7.4589627 -0.68714076 0 0 Z " fill="#536D79" transform="translate(23,26)"/>
<path d="M0 0 C2 1 2 1 3 3 C3.51981506 6.56444611 3.63102777 9.73794446 2 13 C-1.26205554 14.63102777 -4.43555389 14.51981506 -8 14 C-10 13 -10 13 -11 11 C-11.51981506 7.43555389 -11.63102777 4.26205554 -10 1 C-6.73794446 -0.63102777 -3.56444611 -0.51981506 0 0 Z " fill="#FFB64C" transform="translate(21,9)"/>
<path d="M0 0 C3.66325609 0.03679023 5.99931374 0.31482274 8.9375 2.5625 C11.3125 5.375 11.3125 5.375 11.3125 10.375 C6.6925 10.375 2.0725 10.375 -2.6875 10.375 C-3.6875 7.375 -4.6875 4.375 -5.6875 1.375 C-4.05531064 -0.25718936 -2.24806873 0.08736889 0 0 Z " fill="#CED7DB" transform="translate(33.6875,28.625)"/>
<path d="M0 0 C0.70125 0.00515625 1.4025 0.0103125 2.125 0.015625 C2.82625 0.01046875 3.5275 0.0053125 4.25 0 C6.125 0.265625 6.125 0.265625 8.125 2.265625 C8.390625 4.140625 8.390625 4.140625 8.375 6.265625 C8.38015625 6.966875 8.3853125 7.668125 8.390625 8.390625 C8.125 10.265625 8.125 10.265625 6.125 12.265625 C4.25 12.53125 4.25 12.53125 2.125 12.515625 C1.42375 12.52078125 0.7225 12.5259375 0 12.53125 C-1.875 12.265625 -1.875 12.265625 -3.875 10.265625 C-4.140625 8.390625 -4.140625 8.390625 -4.125 6.265625 C-4.13015625 5.564375 -4.1353125 4.863125 -4.140625 4.140625 C-3.75603481 1.4258707 -2.7147543 0.38459019 0 0 Z " fill="#CFD7DB" transform="translate(31.875,13.734375)"/>
</svg>
