<?xml version="1.0" encoding="UTF-8"?>
<svg version="1.1" xmlns="http://www.w3.org/2000/svg" width="32" height="32">
<path d="M0 0 C2.5 0.125 2.5 0.125 3.5 1.125 C3.54063832 2.79117115 3.542721 4.45888095 3.5 6.125 C2.18 6.455 0.86 6.785 -0.5 7.125 C-0.17 8.115 0.16 9.105 0.5 10.125 C0.83 9.795 1.16 9.465 1.5 9.125 C4.5 9 4.5 9 7.5 9.125 C7.83 9.455 8.16 9.785 8.5 10.125 C8.83 9.135 9.16 8.145 9.5 7.125 C8.18 6.795 6.86 6.465 5.5 6.125 C5.457279 4.45888095 5.45936168 2.79117115 5.5 1.125 C6.5 0.125 6.5 0.125 9 0 C11.5 0.125 11.5 0.125 12.5 1.125 C12.54063832 2.79117115 12.542721 4.45888095 12.5 6.125 C14.975 6.62 14.975 6.62 17.5 7.125 C17.83 10.425 18.16 13.725 18.5 17.125 C17.51 17.125 16.52 17.125 15.5 17.125 C15.5 16.465 15.5 15.805 15.5 15.125 C14.18 15.125 12.86 15.125 11.5 15.125 C11.5 15.785 11.5 16.445 11.5 17.125 C10.84 17.125 10.18 17.125 9.5 17.125 C9.5 18.115 9.5 19.105 9.5 20.125 C8.51 20.125 7.52 20.125 6.5 20.125 C6.5 19.465 6.5 18.805 6.5 18.125 C5.18 18.125 3.86 18.125 2.5 18.125 C2.5 18.785 2.5 19.445 2.5 20.125 C1.51 20.125 0.52 20.125 -0.5 20.125 C-0.5 19.135 -0.5 18.145 -0.5 17.125 C-1.16 17.125 -1.82 17.125 -2.5 17.125 C-2.5 16.465 -2.5 15.805 -2.5 15.125 C-3.82 15.125 -5.14 15.125 -6.5 15.125 C-6.5 15.785 -6.5 16.445 -6.5 17.125 C-7.49 17.125 -8.48 17.125 -9.5 17.125 C-9.17 13.825 -8.84 10.525 -8.5 7.125 C-6.85 6.795 -5.2 6.465 -3.5 6.125 C-3.520625 5.320625 -3.54125 4.51625 -3.5625 3.6875 C-3.47911354 0.26865518 -3.40649644 0.17032482 0 0 Z M-5.5 9.125 C-5.5 9.785 -5.5 10.445 -5.5 11.125 C-4.84 11.125 -4.18 11.125 -3.5 11.125 C-3.5 10.465 -3.5 9.805 -3.5 9.125 C-4.16 9.125 -4.82 9.125 -5.5 9.125 Z M12.5 9.125 C12.5 9.785 12.5 10.445 12.5 11.125 C13.16 11.125 13.82 11.125 14.5 11.125 C14.5 10.465 14.5 9.805 14.5 9.125 C13.84 9.125 13.18 9.125 12.5 9.125 Z M3.5 12.125 C3.5 12.785 3.5 13.445 3.5 14.125 C4.16 14.125 4.82 14.125 5.5 14.125 C5.5 13.465 5.5 12.805 5.5 12.125 C4.84 12.125 4.18 12.125 3.5 12.125 Z " fill="#071E36" transform="translate(11.5,5.875)"/>
</svg>
