<?xml version="1.0" encoding="UTF-8"?>
<svg version="1.1" xmlns="http://www.w3.org/2000/svg" width="48" height="48">
<path d="M0 0 C1.67334039 0.98879205 3.34151823 1.98648336 5 3 C7.7004039 2.35336433 7.7004039 2.35336433 10 1 C13.45739557 -0.72869779 17.21975568 -0.48966895 21 0 C23.87029869 1.79393668 25.49131638 2.98263276 27 6 C27.63960716 11.14831336 27.45480222 15.63705 24.53515625 20.10546875 C20.00200334 25.69981776 14.67400506 32.02471835 8 35 C2.53401881 35.0291519 -0.39581487 32.40288467 -4.125 28.75 C-4.63675781 28.27175781 -5.14851562 27.79351562 -5.67578125 27.30078125 C-10.88691501 22.35757211 -15.0691629 18.13002838 -15.3125 10.625 C-15.28397445 7.12206214 -15.05857097 6.09371356 -13.125 3 C-9.16091161 -0.73090672 -5.24127248 -0.5651459 0 0 Z " fill="#EC3A47" transform="translate(18,7)"/>
<path d="M0 0 C0.99 0 1.98 0 3 0 C3.66 2.97 4.32 5.94 5 9 C5.66 7.68 6.32 6.36 7 5 C7.99 5 8.98 5 10 5 C10.66 6.32 11.32 7.64 12 9 C15.465 8.505 15.465 8.505 19 8 C19 9.32 19 10.64 19 12 C18.071875 11.95875 17.14375 11.9175 16.1875 11.875 C12.84190281 11.72863661 12.84190281 11.72863661 10 14 C9.34 12.68 8.68 11.36 8 10 C7.01 12.64 6.02 15.28 5 18 C4.34 18 3.68 18 3 18 C2.86722656 17.36191406 2.73445313 16.72382813 2.59765625 16.06640625 C2.33275391 14.82697266 2.33275391 14.82697266 2.0625 13.5625 C1.88847656 12.73878906 1.71445312 11.91507813 1.53515625 11.06640625 C1.19247006 9.02338796 1.19247006 9.02338796 0 8 C-0.66 9.32 -1.32 10.64 -2 12 C-2.99 11.67 -3.98 11.34 -5 11 C-5 10.34 -5 9.68 -5 9 C-5.99 9.66 -6.98 10.32 -8 11 C-10.6875 10.625 -10.6875 10.625 -13 10 C-12.401875 9.731875 -11.80375 9.46375 -11.1875 9.1875 C-9.02775192 8.01506533 -7.64209744 6.80630718 -6 5 C-4.68 5.99 -3.36 6.98 -2 8 C-1.7834375 6.576875 -1.7834375 6.576875 -1.5625 5.125 C-1 2 -1 2 0 0 Z " fill="#FCD0D4" transform="translate(17,15)"/>
<path d="M0 0 C0.99 0.33 1.98 0.66 3 1 C5.3406065 0.72230092 7.67624308 0.39460023 10 0 C10 1.32 10 2.64 10 4 C9.071875 3.95875 8.14375 3.9175 7.1875 3.875 C3.84190281 3.72863661 3.84190281 3.72863661 1 6 C0.67 4.02 0.34 2.04 0 0 Z " fill="#FDE0E4" transform="translate(26,23)"/>
<path d="M0 0 C0.99 0.99 1.98 1.98 3 3 C2.01 3 1.02 3 0 3 C-0.33 3.99 -0.66 4.98 -1 6 C-2.65 5.67 -4.3 5.34 -6 5 C-5.38125 4.731875 -4.7625 4.46375 -4.125 4.1875 C-1.7004767 3.04443152 -1.7004767 3.04443152 0 0 Z " fill="#FDDBDF" transform="translate(10,20)"/>
</svg>
