<?xml version="1.0" encoding="UTF-8"?>
<svg version="1.1" xmlns="http://www.w3.org/2000/svg" width="100" height="100">
<path d="M0 0 C3.96970869 2.38182521 6.80111486 5.23529091 9.4453125 9.0546875 C10.0228125 9.7559375 10.6003125 10.4571875 11.1953125 11.1796875 C12.4453125 13.0546875 12.4453125 13.0546875 12.4453125 16.0546875 C14.0953125 16.0546875 15.7453125 16.0546875 17.4453125 16.0546875 C17.9403125 17.5396875 17.9403125 17.5396875 18.4453125 19.0546875 C20.42576809 19.71648597 20.42576809 19.71648597 22.4453125 20.0546875 C23.4453125 21.0546875 23.4453125 21.0546875 23.5703125 24.0546875 C23.4453125 27.0546875 23.4453125 27.0546875 22.4453125 28.0546875 C22.15605281 30.33954686 21.93858074 32.63369614 21.7578125 34.9296875 C21.65082031 36.18523438 21.54382813 37.44078125 21.43359375 38.734375 C21.14046849 42.1951616 21.14046849 42.1951616 23.4453125 45.0546875 C23.52436314 47.38668138 23.53330019 49.72301372 23.4453125 52.0546875 C24.1053125 52.3846875 24.7653125 52.7146875 25.4453125 53.0546875 C24.7853125 53.0546875 24.1253125 53.0546875 23.4453125 53.0546875 C23.0740625 54.199375 23.0740625 54.199375 22.6953125 55.3671875 C21.25394498 58.46612766 20.45822919 59.46894187 17.4453125 61.0546875 C15.44624259 61.24814588 13.44688509 61.43989749 11.4453125 61.60546875 C9.07408003 61.96803765 9.07408003 61.96803765 6.5703125 64.6171875 C2.70932159 67.62876041 0.55371212 67.55132737 -4.1875 67.42578125 C-6.66164152 67.03792078 -8.39348195 66.29464184 -10.5546875 65.0546875 C-11.4828125 65.8590625 -12.4109375 66.6634375 -13.3671875 67.4921875 C-18.90082406 72.28800585 -25.57830171 71.53581755 -32.5546875 71.0546875 C-36.1854857 69.78072322 -37.91115225 68.78402745 -40.4296875 65.9296875 C-43.58033894 63.14970094 -46.41100524 63.45568901 -50.5546875 63.0546875 C-51.2146875 62.3946875 -51.8746875 61.7346875 -52.5546875 61.0546875 C-52.31705019 56.65839732 -50.41325191 54.28209894 -47.5546875 51.0546875 C-48.4415625 50.8278125 -49.3284375 50.6009375 -50.2421875 50.3671875 C-54.24425176 48.78146392 -56.05546905 47.5829959 -58.5546875 44.0546875 C-59.37021432 39.37694876 -59.14758446 35.40988056 -57.2421875 31.0546875 C-55.5546875 29.0546875 -55.5546875 29.0546875 -52.5546875 27.0546875 C-51.5646875 27.0546875 -50.5746875 27.0546875 -49.5546875 27.0546875 C-49.461875 25.724375 -49.461875 25.724375 -49.3671875 24.3671875 C-48.10028567 19.2021262 -44.85527553 16.92174618 -40.5546875 14.0546875 C-38.07421875 13.640625 -38.07421875 13.640625 -35.3671875 13.4296875 C-34.46613281 13.35492188 -33.56507812 13.28015625 -32.63671875 13.203125 C-31.94964844 13.15414063 -31.26257813 13.10515625 -30.5546875 13.0546875 C-30.2773374 9.86978743 -30.2773374 9.86978743 -32.5546875 7.0546875 C-30.976875 6.6834375 -30.976875 6.6834375 -29.3671875 6.3046875 C-25.71572251 5.27403206 -23.43347134 3.54444649 -20.5546875 1.0546875 C-14.8767406 -2.56323331 -6.15276419 -2.27671091 0 0 Z " fill="#C1E3DC" transform="translate(67.5546875,14.9453125)"/>
<path d="M0 0 C2.625 0 2.625 0 5 1 C5.66666667 2.33333333 6.33333333 3.66666667 7 5 C9.55519921 5.81171228 9.55519921 5.81171228 12 6 C12 6.66 12 7.32 12 8 C13.32 8.33 14.64 8.66 16 9 C16.625 11.375 16.625 11.375 17 14 C16.34 14.66 15.68 15.32 15 16 C15.33 16.33 15.66 16.66 16 17 C16.0318525 20.30355894 15.93137077 23.59614271 15.83984375 26.8984375 C15.74386727 30.16944328 15.74386727 30.16944328 18 33 C18.07905064 35.33199388 18.08798769 37.66832622 18 40 C18.66 40.33 19.32 40.66 20 41 C19.34 41 18.68 41 18 41 C17.62875 42.1446875 17.62875 42.1446875 17.25 43.3125 C15.80863248 46.41144016 15.01291669 47.41425437 12 49 C10.00093009 49.19345838 8.00157259 49.38520999 6 49.55078125 C3.62876753 49.91335015 3.62876753 49.91335015 1.125 52.5625 C-2.73599091 55.57407291 -4.89160038 55.49663987 -9.6328125 55.37109375 C-12.10695402 54.98323328 -13.83879445 54.23995434 -16 53 C-17.3921875 54.2065625 -17.3921875 54.2065625 -18.8125 55.4375 C-24.34980403 60.23649682 -31.02015374 59.47335579 -38 59 C-41.91519874 57.671629 -43.60123755 56.41921181 -46.4375 53.4375 C-49.62626884 50.40428086 -51.76059435 49.91438161 -56 49 C-55.67 47.35 -55.34 45.7 -55 44 C-54.34 44 -53.68 44 -53 44 C-52.67 42.68 -52.34 41.36 -52 40 C-51.21625 40.04125 -50.4325 40.0825 -49.625 40.125 C-46.83883881 40.28728734 -46.83883881 40.28728734 -45 38 C-42.9375 38.1875 -42.9375 38.1875 -41 39 C-40.67 39.99 -40.34 40.98 -40 42 C-38.09821215 42.60061233 -38.09821215 42.60061233 -36 43 C-35.01 43.66 -34.02 44.32 -33 45 C-33.33 46.65 -33.66 48.3 -34 50 C-33.01 49.505 -33.01 49.505 -32 49 C-32 47.35 -32 45.7 -32 44 C-29.66705225 43.95758277 -27.33297433 43.95907063 -25 44 C-24.505 44.495 -24.505 44.495 -24 45 C-21.5 45.16666667 -21.5 45.16666667 -19 45 C-18.67 44.67 -18.34 44.34 -18 44 C-16.59802598 43.85578846 -15.18957169 43.77313876 -13.78125 43.71875 C-12.93175781 43.68136719 -12.08226562 43.64398438 -11.20703125 43.60546875 C-8.5 43.5 -8.5 43.5 -5.79296875 43.39453125 C-4.94347656 43.35714844 -4.09398437 43.31976563 -3.21875 43.28125 C-2.43435547 43.25095703 -1.64996094 43.22066406 -0.84179688 43.18945312 C1.01626196 43.19408532 1.01626196 43.19408532 2 42 C2.38720155 37.76215171 2.47087643 33.50199723 2.625 29.25 C2.6765625 28.05632813 2.728125 26.86265625 2.78125 25.6328125 C2.82507813 24.48039062 2.86890625 23.32796875 2.9140625 22.140625 C2.9548291 21.08391602 2.9955957 20.02720703 3.03759766 18.93847656 C3.00190191 16.14864523 2.64647855 13.7070899 2 11 C1.01 10.67 0.02 10.34 -1 10 C-1.6875 7.9375 -1.6875 7.9375 -2 6 C-4.64 6 -7.28 6 -10 6 C-9.67 5.01 -9.34 4.02 -9 3 C-8.2575 3.2475 -7.515 3.495 -6.75 3.75 C-5.38875 3.87375 -5.38875 3.87375 -4 4 C-3.34 3.34 -2.68 2.68 -2 2 C-1.34 1.34 -0.68 0.68 0 0 Z " fill="#C7ECE5" transform="translate(73,27)"/>
<path d="M0 0 C9.93670886 0 9.93670886 0 13.625 1.6875 C17.198741 3.02070908 17.6520234 3.13286379 21.4375 1.6875 C22.613125 1.130625 23.78875 0.57375 25 0 C28.3 0 31.6 0 35 0 C35 8.91 35 17.82 35 27 C23.10212941 27.6953301 11.85953642 28.17292118 0 27 C0 18.09 0 9.18 0 0 Z " fill="#FCFBF1" transform="translate(34,35)"/>
<path d="M0 0 C0.66 0.33 1.32 0.66 2 1 C1.67 1.66 1.34 2.32 1 3 C3.64 3 6.28 3 9 3 C9.495 4.98 9.495 4.98 10 7 C11.32 7.33 12.64 7.66 14 8 C14 9.65 14 11.3 14 13 C15.32 13.33 16.64 13.66 18 14 C16.68 14 15.36 14 14 14 C14.01571045 15.12027588 14.01571045 15.12027588 14.03173828 16.26318359 C14.0732077 19.63375508 14.09929729 23.004273 14.125 26.375 C14.14175781 27.550625 14.15851563 28.72625 14.17578125 29.9375 C14.18544922 31.61972656 14.18544922 31.61972656 14.1953125 33.3359375 C14.21102295 34.89127197 14.21102295 34.89127197 14.22705078 36.47802734 C14 39 14 39 12 41 C10.04467773 41.30297852 10.04467773 41.30297852 7.68359375 41.37890625 C6.83732422 41.41306641 5.99105469 41.44722656 5.11914062 41.48242188 C4.23419922 41.50884766 3.34925781 41.53527344 2.4375 41.5625 C0.68605308 41.62219399 -1.06526689 41.68578412 -2.81640625 41.75390625 C-3.59443604 41.77783447 -4.37246582 41.8017627 -5.17407227 41.82641602 C-7.01848649 41.80614889 -7.01848649 41.80614889 -8 43 C-10.5 43.125 -10.5 43.125 -13 43 C-13.33 42.67 -13.66 42.34 -14 42 C-15.99958364 41.95919217 -18.00045254 41.95745644 -20 42 C-20.144375 42.804375 -20.28875 43.60875 -20.4375 44.4375 C-21 47 -21 47 -22 48 C-23.68608966 48.07205511 -25.37500659 48.08386068 -27.0625 48.0625 C-27.98160156 48.05347656 -28.90070312 48.04445312 -29.84765625 48.03515625 C-30.55792969 48.02355469 -31.26820312 48.01195312 -32 48 C-32 47.67 -32 47.34 -32 47 C-27.545 46.505 -27.545 46.505 -23 46 C-23 44.68 -23 43.36 -23 42 C-23.94875 41.566875 -24.8975 41.13375 -25.875 40.6875 C-29 39 -29 39 -31 36 C-33.38564077 36.57584432 -35.66682784 37.22227595 -38 38 C-38.99 38 -39.98 38 -41 38 C-41.33 38.99 -41.66 39.98 -42 41 C-42.99 41.495 -42.99 41.495 -44 42 C-44 43.32 -44 44.64 -44 46 C-42.02 46.33 -40.04 46.66 -38 47 C-38 47.33 -38 47.66 -38 48 C-41.375 48.125 -41.375 48.125 -45 48 C-45.66 47.34 -46.32 46.68 -47 46 C-46.76373618 41.62911942 -45.10222917 39.01838514 -42 36 C-39.03 35.505 -39.03 35.505 -36 35 C-35.67 26.09 -35.34 17.18 -35 8 C-33.68 7.67 -32.36 7.34 -31 7 C-30.67 5.68 -30.34 4.36 -30 3 C-24.68845645 2.73877655 -20.5770712 2.99947791 -15.5 4.625 C-9.95960592 6.3050913 -6.4818089 5.70744867 -1 4 C-0.67 2.68 -0.34 1.36 0 0 Z M-28 5 C-28 13.91 -28 22.82 -28 32 C-16.10545456 32.73828213 -4.85684282 33.06711585 7 32 C7 23.09 7 14.18 7 5 C-1.94643666 4.86341646 -1.94643666 4.86341646 -9.07421875 7.53125 C-11.52094771 8.12680269 -12.64107688 7.66585778 -14.9375 6.6875 C-19.65207156 4.42459051 -19.65207156 4.42459051 -28 5 Z " fill="#8B7A78" transform="translate(62,30)"/>
<path d="M0 0 C0.66 0.33 1.32 0.66 2 1 C1.67 1.66 1.34 2.32 1 3 C3.64 3 6.28 3 9 3 C9.495 4.98 9.495 4.98 10 7 C11.32 7.33 12.64 7.66 14 8 C14 9.65 14 11.3 14 13 C15.32 13.33 16.64 13.66 18 14 C16.68 14 15.36 14 14 14 C14.01571045 15.12027588 14.01571045 15.12027588 14.03173828 16.26318359 C14.0732077 19.63375508 14.09929729 23.004273 14.125 26.375 C14.14175781 27.550625 14.15851563 28.72625 14.17578125 29.9375 C14.18544922 31.61972656 14.18544922 31.61972656 14.1953125 33.3359375 C14.21102295 34.89127197 14.21102295 34.89127197 14.22705078 36.47802734 C14 39 14 39 12 41 C10.04467773 41.30297852 10.04467773 41.30297852 7.68359375 41.37890625 C6.83732422 41.41306641 5.99105469 41.44722656 5.11914062 41.48242188 C4.23419922 41.50884766 3.34925781 41.53527344 2.4375 41.5625 C0.68605308 41.62219399 -1.06526689 41.68578412 -2.81640625 41.75390625 C-3.59443604 41.77783447 -4.37246582 41.8017627 -5.17407227 41.82641602 C-7.01848649 41.80614889 -7.01848649 41.80614889 -8 43 C-10.5 43.125 -10.5 43.125 -13 43 C-13.495 42.505 -13.495 42.505 -14 42 C-15.99958364 41.95919217 -18.00045254 41.95745644 -20 42 C-20.144375 42.804375 -20.28875 43.60875 -20.4375 44.4375 C-21 47 -21 47 -22 48 C-23.68608966 48.07205511 -25.37500659 48.08386068 -27.0625 48.0625 C-27.98160156 48.05347656 -28.90070312 48.04445312 -29.84765625 48.03515625 C-30.55792969 48.02355469 -31.26820312 48.01195312 -32 48 C-32 47.67 -32 47.34 -32 47 C-27.545 46.505 -27.545 46.505 -23 46 C-23 44.68 -23 43.36 -23 42 C-24.423125 41.38125 -24.423125 41.38125 -25.875 40.75 C-29 39 -29 39 -31 35 C-10.705 35.495 -10.705 35.495 10 36 C9.855625 31.42125 9.71125 26.8425 9.5625 22.125 C9.51939697 20.68141113 9.47629395 19.23782227 9.43188477 17.75048828 C9.3747229 16.05255127 9.3747229 16.05255127 9.31640625 14.3203125 C9.26141968 12.57645264 9.26141968 12.57645264 9.20532227 10.79736328 C9.18178341 8.0464499 9.18178341 8.0464499 8 6 C5.41394668 5.5316735 5.41394668 5.5316735 2.4375 5.375 C1.42558594 5.30023438 0.41367187 5.22546875 -0.62890625 5.1484375 C-1.80259766 5.07496094 -1.80259766 5.07496094 -3 5 C-2.34 4.67 -1.68 4.34 -1 4 C-0.34786708 1.97536745 -0.34786708 1.97536745 0 0 Z " fill="#A34E57" transform="translate(62,30)"/>
<path d="M0 0 C2.625 0 2.625 0 5 1 C5.66666667 2.33333333 6.33333333 3.66666667 7 5 C9.55519921 5.81171228 9.55519921 5.81171228 12 6 C12 6.66 12 7.32 12 8 C13.32 8.33 14.64 8.66 16 9 C16.625 11.375 16.625 11.375 17 14 C14.12863377 16.87136623 10.88990718 16.8308736 7 17 C4.5 16.5625 4.5 16.5625 3 16 C2.67 14.35 2.34 12.7 2 11 C1.01 10.67 0.02 10.34 -1 10 C-1.6875 7.9375 -1.6875 7.9375 -2 6 C-4.64 6 -7.28 6 -10 6 C-9.67 5.01 -9.34 4.02 -9 3 C-8.2575 3.2475 -7.515 3.495 -6.75 3.75 C-5.38875 3.87375 -5.38875 3.87375 -4 4 C-3.34 3.34 -2.68 2.68 -2 2 C-1.34 1.34 -0.68 0.68 0 0 Z " fill="#F0EDE1" transform="translate(73,27)"/>
<path d="M0 0 C5.31151112 -0.26122186 9.52375493 0.01025392 14.625 1.5625 C19.2644405 2.95889981 22.31296372 3.14571998 27 2 C24 4 24 4 21.875 4.4375 C21.25625 4.623125 20.6375 4.80875 20 5 C19.67 5.99 19.34 6.98 19 8 C18.505 6.515 18.505 6.515 18 5 C12.35948428 2.71979152 7.01998014 2.78197255 1 3 C-0.36641429 5.73282858 -0.12721628 7.94047071 -0.140625 10.99609375 C-0.15996094 12.19427734 -0.17929687 13.39246094 -0.19921875 14.62695312 C-0.23301873 17.16325175 -0.251298 19.69980563 -0.25390625 22.23632812 C-0.27839844 23.43580078 -0.30289062 24.63527344 -0.328125 25.87109375 C-0.3374707 26.97380615 -0.34681641 28.07651855 -0.35644531 29.21264648 C-1 32 -1 32 -3.36621094 33.87133789 C-6.15442443 35.06617576 -8.00166164 35.25700043 -11 35 C-11.33 35.99 -11.66 36.98 -12 38 C-12.99 38.495 -12.99 38.495 -14 39 C-14 40.32 -14 41.64 -14 43 C-12.02 43.33 -10.04 43.66 -8 44 C-8 44.33 -8 44.66 -8 45 C-11.375 45.125 -11.375 45.125 -15 45 C-15.66 44.34 -16.32 43.68 -17 43 C-16.76373618 38.62911942 -15.10222917 36.01838514 -12 33 C-9.03 32.505 -9.03 32.505 -6 32 C-5.67 23.09 -5.34 14.18 -5 5 C-3.68 4.67 -2.36 4.34 -1 4 C-0.67 2.68 -0.34 1.36 0 0 Z " fill="#704244" transform="translate(32,33)"/>
<path d="M0 0 C2.0625 0.1875 2.0625 0.1875 4 1 C4.33 1.99 4.66 2.98 5 4 C6.90178785 4.60061233 6.90178785 4.60061233 9 5 C9.99 5.66 10.98 6.32 12 7 C11.67 8.65 11.34 10.3 11 12 C8.64640498 12.22415191 6.29351589 12.42959058 3.9375 12.625 C2.62652344 12.74101563 1.31554687 12.85703125 -0.03515625 12.9765625 C-4.25962268 13.00153472 -7.04586159 12.3471837 -11 11 C-10.67 9.35 -10.34 7.7 -10 6 C-9.34 6 -8.68 6 -8 6 C-7.67 4.68 -7.34 3.36 -7 2 C-6.21625 2.04125 -5.4325 2.0825 -4.625 2.125 C-1.83883881 2.28728734 -1.83883881 2.28728734 0 0 Z " fill="#F7F5E8" transform="translate(28,65)"/>
<path d="M0 0 C2 1.625 2 1.625 3 4 C2.87988224 7.42335626 2.60726153 9.95416069 0.875 12.9375 C-2.22289358 14.69297303 -4.52844534 14.48723574 -8 14 C-10.5 11.9375 -10.5 11.9375 -12 9 C-12 5.19715329 -11.7968187 2.98069994 -9.375 0 C-5.88418213 -1.46981805 -3.60851044 -0.98413921 0 0 Z " fill="#737661" transform="translate(56,43)"/>
<path d="M0 0 C0.66 0.33 1.32 0.66 2 1 C1.67 1.66 1.34 2.32 1 3 C3.64 3 6.28 3 9 3 C9.495 4.98 9.495 4.98 10 7 C11.32 7.33 12.64 7.66 14 8 C14 9.65 14 11.3 14 13 C15.32 13.33 16.64 13.66 18 14 C16.68 14 15.36 14 14 14 C14 22.25 14 30.5 14 39 C13.67 39 13.34 39 13 39 C12.67 29.1 12.34 19.2 12 9 C11.67 18.24 11.34 27.48 11 37 C5.06 37 -0.88 37 -7 37 C-7.33 37.99 -7.66 38.98 -8 40 C-9.65 40 -11.3 40 -13 40 C-13.33 39.01 -13.66 38.02 -14 37 C-15.93784265 37.14120714 -17.87526955 37.28812873 -19.8125 37.4375 C-20.89144531 37.51871094 -21.97039063 37.59992188 -23.08203125 37.68359375 C-26.05989905 37.90212461 -26.05989905 37.90212461 -29 39 C-29.66 37.68 -30.32 36.36 -31 35 C-10.705 35.495 -10.705 35.495 10 36 C9.855625 31.42125 9.71125 26.8425 9.5625 22.125 C9.51939697 20.68141113 9.47629395 19.23782227 9.43188477 17.75048828 C9.3747229 16.05255127 9.3747229 16.05255127 9.31640625 14.3203125 C9.26141968 12.57645264 9.26141968 12.57645264 9.20532227 10.79736328 C9.18178341 8.0464499 9.18178341 8.0464499 8 6 C5.41394668 5.5316735 5.41394668 5.5316735 2.4375 5.375 C1.42558594 5.30023438 0.41367187 5.22546875 -0.62890625 5.1484375 C-1.80259766 5.07496094 -1.80259766 5.07496094 -3 5 C-2.34 4.67 -1.68 4.34 -1 4 C-0.34786708 1.97536745 -0.34786708 1.97536745 0 0 Z " fill="#4B2D2B" transform="translate(62,30)"/>
<path d="M0 0 C0.33 0 0.66 0 1 0 C1 7.92 1 15.84 1 24 C13.87 24 26.74 24 40 24 C40 16.08 40 8.16 40 0 C40.33 0 40.66 0 41 0 C41 8.91 41 17.82 41 27 C35.48237024 27.02292644 29.96490503 27.04284851 24.44726562 27.05493164 C22.56933025 27.05996763 20.6913988 27.06679671 18.81347656 27.07543945 C16.11782868 27.08753713 13.42223253 27.09323557 10.7265625 27.09765625 C9.88380768 27.10281754 9.04105286 27.10797882 8.17276001 27.11329651 C2.22774341 27.11387171 2.22774341 27.11387171 0 26 C0 17.42 0 8.84 0 0 Z " fill="#C9C4C9" transform="translate(31,39)"/>
<path d="M0 0 C0.66 0.33 1.32 0.66 2 1 C1.67 1.66 1.34 2.32 1 3 C3.64 3 6.28 3 9 3 C9.33 4.32 9.66 5.64 10 7 C11.32 7.33 12.64 7.66 14 8 C14 9.65 14 11.3 14 13 C15.32 13.33 16.64 13.66 18 14 C16.68 14 15.36 14 14 14 C14 22.25 14 30.5 14 39 C13.67 39 13.34 39 13 39 C12.67 29.1 12.34 19.2 12 9 C11.01 8.67 10.02 8.34 9 8 C8.67 7.34 8.34 6.68 8 6 C5.41394668 5.5316735 5.41394668 5.5316735 2.4375 5.375 C1.42558594 5.30023438 0.41367187 5.22546875 -0.62890625 5.1484375 C-1.80259766 5.07496094 -1.80259766 5.07496094 -3 5 C-2.34 4.67 -1.68 4.34 -1 4 C-0.34786708 1.97536745 -0.34786708 1.97536745 0 0 Z " fill="#4C2F2D" transform="translate(62,30)"/>
<path d="M0 0 C0.99 0 1.98 0 3 0 C3 1.65 3 3.3 3 5 C3.99 5 4.98 5 6 5 C6.33 6.65 6.66 8.3 7 10 C3 10 3 10 1 9 C0.67 8.34 0.34 7.68 0 7 C-0.33 8.32 -0.66 9.64 -1 11 C-1.99 11 -2.98 11 -4 11 C-3.48480955 7.18759068 -2.73970585 5.6205882 0 3 C0 2.01 0 1.02 0 0 Z " fill="#C3D6E4" transform="translate(50,43)"/>
<path d="M0 0 C3 3 3 3 3.2487793 5.63549805 C3.16237183 7.18297729 3.16237183 7.18297729 3.07421875 8.76171875 C3.01943359 9.87998047 2.96464844 10.99824219 2.90820312 12.15039062 C2.83537109 13.31763672 2.76253906 14.48488281 2.6875 15.6875 C2.62626953 16.86634766 2.56503906 18.04519531 2.50195312 19.25976562 C2.34856044 22.17422669 2.18069004 25.08712459 2 28 C1.34 27.67 0.68 27.34 0 27 C0 18.09 0 9.18 0 0 Z " fill="#A2948E" transform="translate(69,35)"/>
<path d="M0 0 C1.4375 2.0625 1.4375 2.0625 2 4 C1.236875 3.484375 0.47375 2.96875 -0.3125 2.4375 C-1.199375 1.963125 -2.08625 1.48875 -3 1 C-3.99 1.33 -4.98 1.66 -6 2 C-6 2.99 -6 3.98 -6 5 C-6.99 5.33 -7.98 5.66 -9 6 C-9.33 7.65 -9.66 9.3 -10 11 C-10.66 10.34 -11.32 9.68 -12 9 C-11.8668165 5.33745362 -11.72325007 2.89015393 -9.375 0 C-5.89241384 -1.46635207 -3.59184098 -0.99773361 0 0 Z " fill="#645945" transform="translate(56,43)"/>
<path d="M0 0 C0.99 0.33 1.98 0.66 3 1 C2.34 1 1.68 1 1 1 C1 1.66 1 2.32 1 3 C1.66 3 2.32 3 3 3 C3 4.32 3 5.64 3 7 C1.35 7.33 -0.3 7.66 -2 8 C-2.66 7.01 -3.32 6.02 -4 5 C-3.01 4.34 -2.02 3.68 -1 3 C-0.67 2.01 -0.34 1.02 0 0 Z " fill="#7788A2" transform="translate(50,49)"/>
<path d="M0 0 C5.61 0 11.22 0 17 0 C17 0.33 17 0.66 17 1 C14.03 1 11.06 1 8 1 C8 1.66 8 2.32 8 3 C6.68 3 5.36 3 4 3 C4 2.34 4 1.68 4 1 C2.68 0.67 1.36 0.34 0 0 Z " fill="#EDF9F7" transform="translate(76,67)"/>
<path d="M0 0 C0.66 0.33 1.32 0.66 2 1 C1.67 1.66 1.34 2.32 1 3 C3.64 3 6.28 3 9 3 C7 5 7 5 4.6171875 5.1953125 C3.71226563 5.17210937 2.80734375 5.14890625 1.875 5.125 C0.50988281 5.09792969 0.50988281 5.09792969 -0.8828125 5.0703125 C-1.58148438 5.04710937 -2.28015625 5.02390625 -3 5 C-2.34 4.67 -1.68 4.34 -1 4 C-0.34786708 1.97536745 -0.34786708 1.97536745 0 0 Z " fill="#77645F" transform="translate(62,30)"/>
<path d="M0 0 C3.63 0 7.26 0 11 0 C10.01 0.33 9.02 0.66 8 1 C8 1.66 8 2.32 8 3 C6.25 3.75 6.25 3.75 4 4 C1.75 2.0625 1.75 2.0625 0 0 Z " fill="#EEF9F7" transform="translate(35,22)"/>
<path d="M0 0 C1.32 0.66 2.64 1.32 4 2 C4 2.66 4 3.32 4 4 C2.02 4 0.04 4 -2 4 C-1.34 2.68 -0.68 1.36 0 0 Z " fill="#DDF4F0" transform="translate(45,17)"/>
<path d="M0 0 C0 0.66 0 1.32 0 2 C-3.3 2 -6.6 2 -10 2 C-10 1.67 -10 1.34 -10 1 C-3.71428571 -1.42857143 -3.71428571 -1.42857143 0 0 Z " fill="#F0FAF8" transform="translate(54,23)"/>
<path d="M0 0 C1.32 0.66 2.64 1.32 4 2 C3.0409375 2.433125 3.0409375 2.433125 2.0625 2.875 C-0.15206079 3.82823451 -0.15206079 3.82823451 -1 6 C-1.33 5.01 -1.66 4.02 -2 3 C-1.34 2.01 -0.68 1.02 0 0 Z " fill="#839859" transform="translate(47,45)"/>
</svg>
