<?xml version="1.0" encoding="UTF-8"?>
<svg version="1.1" xmlns="http://www.w3.org/2000/svg" width="58" height="58">
<path d="M0 0 C0.886875 -0.00257812 1.77375 -0.00515625 2.6875 -0.0078125 C3.615625 -0.00007812 4.54375 0.00765625 5.5 0.015625 C6.8921875 0.00402344 6.8921875 0.00402344 8.3125 -0.0078125 C9.6428125 -0.00394531 9.6428125 -0.00394531 11 0 C11.8146875 0.00225586 12.629375 0.00451172 13.46875 0.00683594 C15.5 0.265625 15.5 0.265625 17.5 2.265625 C17.625 5.390625 17.625 5.390625 17.5 8.265625 C18.55960938 8.24242187 19.61921875 8.21921875 20.7109375 8.1953125 C22.0989513 8.17655556 23.4869727 8.15835528 24.875 8.140625 C25.92300781 8.11548828 25.92300781 8.11548828 26.9921875 8.08984375 C28.82897486 8.07218233 30.66601963 8.16259239 32.5 8.265625 C34.5 10.265625 34.5 10.265625 34.72705078 12.23681641 C34.71657715 13.02233887 34.70610352 13.80786133 34.6953125 14.6171875 C34.68886719 15.46796875 34.68242188 16.31875 34.67578125 17.1953125 C34.65902344 18.08476562 34.64226563 18.97421875 34.625 19.890625 C34.61597656 20.7878125 34.60695312 21.685 34.59765625 22.609375 C34.5740497 24.82839086 34.5411231 27.04687577 34.5 29.265625 C33.51 29.265625 32.52 29.265625 31.5 29.265625 C31.5 27.945625 31.5 26.625625 31.5 25.265625 C28.55390073 25.77616208 25.622438 26.32199475 22.6875 26.890625 C21.85412109 27.03113281 21.02074219 27.17164062 20.16210938 27.31640625 C17.79503934 27.79172152 15.70387238 28.27584018 13.5 29.265625 C11.53861539 32.20189798 11.53861539 32.20189798 10.5 35.265625 C7.625 36.828125 7.625 36.828125 4.5 37.265625 C1.75 36.203125 1.75 36.203125 -0.5 34.265625 C-0.68820313 33.44835938 -0.87640625 32.63109375 -1.0703125 31.7890625 C-2.2192943 29.16366164 -2.2192943 29.16366164 -4.34375 28.4855957 C-6.76452758 27.86878282 -9.16447219 27.38917063 -11.625 26.953125 C-14.55375 26.39625 -17.4825 25.839375 -20.5 25.265625 C-20.17 32.525625 -19.84 39.785625 -19.5 47.265625 C-3 47.265625 13.5 47.265625 30.5 47.265625 C30.995 42.315625 30.995 42.315625 31.5 37.265625 C32.49 37.265625 33.48 37.265625 34.5 37.265625 C34.55386629 39.39035076 34.59273071 41.51546152 34.625 43.640625 C34.64820313 44.82398438 34.67140625 46.00734375 34.6953125 47.2265625 C34.5 50.265625 34.5 50.265625 32.5 52.265625 C30.22290039 52.51959229 30.22290039 52.51959229 27.34765625 52.52441406 C26.27314209 52.53071838 25.19862793 52.53702271 24.09155273 52.54351807 C22.92696533 52.5394696 21.76237793 52.53542114 20.5625 52.53125 C19.37148682 52.53316345 18.18047363 52.5350769 16.95336914 52.53704834 C14.43147572 52.5384113 11.90957531 52.53470716 9.38769531 52.52636719 C5.51611651 52.51566953 1.64500178 52.52625906 -2.2265625 52.5390625 C-4.67187603 52.53774093 -7.11718927 52.53517858 -9.5625 52.53125 C-11.3093811 52.53732269 -11.3093811 52.53732269 -13.09155273 52.54351807 C-14.16606689 52.53721375 -15.24058105 52.53090942 -16.34765625 52.52441406 C-17.7709021 52.52202728 -17.7709021 52.52202728 -19.22290039 52.51959229 C-21.5 52.265625 -21.5 52.265625 -23.5 50.265625 C-23.67553419 47.18037561 -23.73122797 44.18598298 -23.6953125 41.1015625 C-23.6924826 40.19435455 -23.68965271 39.28714661 -23.68673706 38.35244751 C-23.67552153 35.44837377 -23.65041463 32.54460588 -23.625 29.640625 C-23.61497197 27.67448361 -23.60584581 25.7083374 -23.59765625 23.7421875 C-23.57557772 18.91654841 -23.54103865 14.0911386 -23.5 9.265625 C-20.43466836 7.73295918 -17.23245728 8.16286029 -13.875 8.203125 C-12.81539062 8.20989258 -12.81539062 8.20989258 -11.734375 8.21679688 C-9.98954725 8.22858625 -8.244763 8.24652176 -6.5 8.265625 C-6.54125 7.316875 -6.5825 6.368125 -6.625 5.390625 C-6.42520037 0.39563424 -4.49464648 0.01244562 0 0 Z M-2.5 4.265625 C-2.5 5.585625 -2.5 6.905625 -2.5 8.265625 C2.78 8.265625 8.06 8.265625 13.5 8.265625 C13.5 6.945625 13.5 5.625625 13.5 4.265625 C8.22 4.265625 2.94 4.265625 -2.5 4.265625 Z M2.5 25.265625 C2.83 27.575625 3.16 29.885625 3.5 32.265625 C4.82 32.265625 6.14 32.265625 7.5 32.265625 C7.83 29.955625 8.16 27.645625 8.5 25.265625 C6.52 25.265625 4.54 25.265625 2.5 25.265625 Z " fill="#071E36" transform="translate(23.5,2.734375)"/>
<path d="M0 0 C0.99 0 1.98 0 3 0 C3 1.32 3 2.64 3 4 C1.68 4 0.36 4 -1 4 C-0.67 2.68 -0.34 1.36 0 0 Z " fill="#061F36" transform="translate(55,34)"/>
</svg>
