<?xml version="1.0" encoding="UTF-8"?>
<svg version="1.1" xmlns="http://www.w3.org/2000/svg" width="24" height="24">
<path d="M0 0 C1.40100832 -0.00543495 2.80201092 -0.01256524 4.20300293 -0.02124023 C7.97171834 -0.03931387 11.73999065 -0.03247308 15.50871277 -0.01972389 C19.47489512 -0.00951256 23.44104253 -0.01901193 27.40722656 -0.02526855 C34.06452156 -0.03252151 40.72163838 -0.02301942 47.37890625 -0.00390625 C55.04756579 0.01785805 62.71579976 0.010805 70.38444901 -0.01121187 C76.99887325 -0.02943333 83.61317027 -0.03189142 90.22761154 -0.0214572 C94.16487338 -0.01525913 98.10193597 -0.01428386 102.03918457 -0.02760315 C105.74292161 -0.03926001 109.44611635 -0.03095945 113.14979553 -0.00802612 C115.13692504 -0.00031742 117.12410107 -0.0120104 119.11120605 -0.02453613 C132.21735058 0.09755591 142.8593529 3.60626761 152.609375 12.51757812 C161.9514898 22.73895079 165.27339181 33.96403067 165 47.62695312 C164.99434021 48.719776 164.98868042 49.81259888 164.98284912 50.9385376 C164.96070393 54.38202305 164.91054933 57.82441452 164.859375 61.26757812 C164.83928175 63.62172962 164.82103598 65.97589765 164.8046875 68.33007812 C164.76091131 74.05960939 164.69422292 79.78851557 164.609375 85.51757812 C166.37891541 85.50425446 166.37891541 85.50425446 168.1842041 85.49066162 C179.36343576 85.40917486 190.54260627 85.34942161 201.72206879 85.31032944 C207.46799711 85.28955536 213.21368351 85.26142589 218.95947266 85.21582031 C224.51623372 85.1719968 230.07276375 85.14836471 235.62968445 85.13806915 C237.73772309 85.13074276 239.84575072 85.1164384 241.95368958 85.0946579 C262.88112079 84.88724595 280.58879998 87.27496571 296.39453125 102.30664062 C297.12542969 103.03625 297.85632813 103.76585938 298.609375 104.51757812 C299.18558594 105.0821875 299.76179688 105.64679688 300.35546875 106.22851562 C310.16563024 116.67570059 314.07793489 130.82861958 314.00378418 144.79350281 C314.00987528 145.8858556 314.01596639 146.9782084 314.02224207 148.10366279 C314.03880847 151.74133524 314.03410519 155.37865521 314.02929688 159.01635742 C314.03664096 161.63385886 314.04522818 164.25135706 314.05496216 166.86885071 C314.07595364 173.22796308 314.08056058 179.58698415 314.07877427 185.94612708 C314.07746323 191.11977945 314.08128819 196.29340351 314.08869934 201.46705055 C314.0907987 202.96111371 314.0928963 204.45517687 314.09499216 205.94924003 C314.09655745 207.06494766 314.09655745 207.06494766 314.09815437 208.20319483 C314.11703211 222.25202259 314.1160144 236.30079807 314.10918504 250.34963325 C314.10361395 263.17500129 314.12442082 276.0001693 314.15754551 288.82549062 C314.19135957 302.0210516 314.20644109 315.21651699 314.20182848 328.41212207 C314.19959124 335.80974622 314.20471687 343.20718564 314.22972107 350.60477257 C314.25305176 357.56608945 314.25005802 364.52698519 314.22979355 371.48830986 C314.22639433 374.03469925 314.23142525 376.5811169 314.24577713 379.12746811 C314.35680795 400.29757498 312.01342752 416.56082967 297.046875 432.70507812 C282.07870336 446.90565122 264.16865439 450.14595047 244.30371094 450.0255127 C242.61838114 450.03013359 240.93305538 450.03649442 239.24773788 450.04442167 C234.66282308 450.06097503 230.07824532 450.05293307 225.49333 450.0404768 C220.53072815 450.03137073 215.56818146 450.04542341 210.60559082 450.05639648 C200.90212369 450.07412733 191.19878075 450.07036602 181.49530888 450.05874592 C173.6048945 450.04969041 165.71451477 450.04849674 157.82409668 450.05284119 C156.13575671 450.05376058 156.13575671 450.05376058 154.41330886 450.05469856 C152.12632909 450.05597754 149.83934934 450.05727439 147.55236959 450.05858892 C126.13738401 450.0699788 104.72246706 450.05690603 83.30749273 450.03538746 C64.95626289 450.01751794 46.60513427 450.0206225 28.25390625 450.0390625 C6.91242432 450.06049736 -14.42899755 450.06888031 -35.77048874 450.05661345 C-38.04877471 450.05533933 -40.32706069 450.05408184 -42.60534668 450.05284119 C-44.28652537 450.05191553 -44.28652537 450.05191553 -46.00166726 450.05097118 C-53.8771435 450.04752613 -61.75258145 450.05332837 -69.62805176 450.0627594 C-79.23344599 450.07400986 -88.83870956 450.07087544 -98.44408894 450.04963642 C-103.33929949 450.03916695 -108.23429268 450.03493376 -113.12950134 450.04823303 C-117.62021108 450.06024831 -122.11050421 450.05344568 -126.60117674 450.03232282 C-128.21604236 450.02789513 -129.83094399 450.03003546 -131.445786 450.03982598 C-150.47896123 450.14626928 -166.99392533 446.21584147 -181.17578125 432.72851562 C-182.27212891 431.63410156 -182.27212891 431.63410156 -183.390625 430.51757812 C-183.96683594 429.95296875 -184.54304687 429.38835937 -185.13671875 428.80664062 C-194.94688024 418.35945566 -198.85918489 404.20653667 -198.78503418 390.24165344 C-198.79417084 388.60312425 -198.79417084 388.60312425 -198.80349207 386.93149346 C-198.82005847 383.29382101 -198.81535519 379.65650104 -198.81054688 376.01879883 C-198.81789096 373.40129739 -198.82647818 370.78379919 -198.83621216 368.16630554 C-198.85720364 361.80719317 -198.86181058 355.4481721 -198.86002427 349.08902917 C-198.85871323 343.9153768 -198.86253819 338.74175274 -198.86994934 333.5681057 C-198.8720487 332.07404254 -198.8741463 330.57997938 -198.87624216 329.08591622 C-198.87728569 328.34211114 -198.87832922 327.59830605 -198.87940437 326.83196142 C-198.89828211 312.78313366 -198.8972644 298.73435818 -198.89043504 284.685523 C-198.88486395 271.86015496 -198.90567082 259.03498695 -198.93879551 246.20966563 C-198.97260957 233.01410465 -198.98769109 219.81863926 -198.98307848 206.62303418 C-198.98084124 199.22541003 -198.98596687 191.82797061 -199.01097107 184.43038368 C-199.03430176 177.4690668 -199.03130802 170.50817106 -199.01104355 163.54684639 C-199.00764433 161.000457 -199.01267525 158.45403935 -199.02702713 155.90768814 C-199.13805795 134.73758127 -196.79467752 118.47432658 -181.828125 102.33007812 C-165.08184127 86.44257817 -145.55877037 84.90015867 -123.609375 85.12695312 C-121.45748424 85.13443192 -119.30558658 85.14011708 -117.15368652 85.144104 C-111.54441868 85.15923144 -105.93557831 85.19839927 -100.32647705 85.24291992 C-94.5809914 85.28415376 -88.83543534 85.30217453 -83.08984375 85.32226562 C-71.85658507 85.36490833 -60.62364085 85.43299967 -49.390625 85.51757812 C-49.39950745 84.91782166 -49.40838989 84.31806519 -49.4175415 83.70013428 C-49.50667897 77.40500511 -49.56663208 71.11005791 -49.61035156 64.81445312 C-49.63035111 62.47127997 -49.65755977 60.12815599 -49.69238281 57.78515625 C-49.74141625 54.39896442 -49.76371121 51.01343771 -49.78125 47.62695312 C-49.80189514 46.59519958 -49.82254028 45.56344604 -49.84381104 44.50042725 C-49.84756067 32.08787436 -45.76199399 21.67684067 -37.390625 12.51757812 C-26.36439216 2.43983843 -14.61200286 -0.0921069 0 0 Z M-6.390625 43.51757812 C-6.390625 57.37757812 -6.390625 71.23757812 -6.390625 85.51757812 C35.849375 85.51757812 78.089375 85.51757812 121.609375 85.51757812 C121.609375 71.65757813 121.609375 57.79757813 121.609375 43.51757812 C79.369375 43.51757812 37.129375 43.51757812 -6.390625 43.51757812 Z M-34.140625 219.70507812 C-38.49557167 225.14876146 -38.68791112 231.81596301 -38.69360352 238.57006836 C-38.70626251 239.71057899 -38.70626251 239.71057899 -38.71917725 240.87413025 C-38.74472831 243.35815125 -38.75703726 245.84205412 -38.76953125 248.32617188 C-38.78572153 250.061131 -38.80290311 251.79608114 -38.82102966 253.53102112 C-38.86651816 258.07611956 -38.90143794 262.62123019 -38.93322754 267.16644287 C-38.9853094 274.46573149 -39.0500965 281.76488923 -39.12144279 289.06401253 C-39.14431938 291.61504546 -39.16055405 294.16606138 -39.17616272 296.71714783 C-39.18956058 298.26838374 -39.2031746 299.81961781 -39.21704102 301.37084961 C-39.22096107 302.44064056 -39.22096107 302.44064056 -39.22496033 303.53204346 C-39.27697673 308.40392985 -39.27697673 308.40392985 -40.390625 309.51757812 C-43.10699389 309.62846201 -45.80218839 309.67923137 -48.51953125 309.69335938 C-50.21160069 309.71657868 -51.90365799 309.74069684 -53.59570312 309.765625 C-56.26611187 309.80059144 -58.9360808 309.82999188 -61.60668945 309.84350586 C-64.18235131 309.85909558 -66.75671685 309.89939688 -69.33203125 309.94335938 C-70.11880753 309.94145096 -70.9055838 309.93954254 -71.71620178 309.93757629 C-77.33940833 310.06008257 -81.68839167 311.37088038 -86.390625 314.51757812 C-90.45222702 318.99575471 -91.64701338 323.57791403 -91.390625 329.51757812 C-89.66285352 334.80252619 -86.71915811 337.2942024 -82.390625 340.51757812 C-80.14186738 341.64195694 -78.88639344 341.6607546 -76.39086914 341.69458008 C-75.15301414 341.71383293 -75.15301414 341.71383293 -73.89015198 341.73347473 C-72.99440964 341.74086166 -72.0986673 341.7482486 -71.17578125 341.75585938 C-69.78751381 341.767967 -69.78751381 341.767967 -68.37120056 341.78031921 C-66.40495683 341.79417175 -64.43868894 341.80488865 -62.47241211 341.81274414 C-59.4960999 341.8298314 -56.52093539 341.87369093 -53.54492188 341.91796875 C-39.9341968 342.03004518 -28.85051898 341.10389854 -18.390625 331.51757812 C-7.75157099 321.02663159 -6.2280468 308.81545406 -6.09621906 294.3361311 C-6.08684632 292.04890845 -6.08752739 289.76184817 -6.08984375 287.47460938 C-6.08594606 285.85422152 -6.08160922 284.23383467 -6.07685852 282.6134491 C-6.06944902 279.23909164 -6.06965061 275.86483895 -6.07495117 272.49047852 C-6.08076366 268.18689288 -6.06374648 263.88373513 -6.0406065 259.58022022 C-6.02581775 256.24201493 -6.025004 252.9039118 -6.02811623 249.56567955 C-6.02760642 247.97939895 -6.02243331 246.39311212 -6.01230431 244.80686378 C-5.64374109 230.26574555 -5.64374109 230.26574555 -12.515625 218.01757812 C-20.07203206 212.28237699 -27.14327048 214.13900067 -34.140625 219.70507812 Z M37.609375 217.51757812 C36.35640625 218.10345703 36.35640625 218.10345703 35.078125 218.70117188 C25.57067926 223.75558203 20.0310496 231.21248974 16.47250366 241.22761536 C14.86331578 247.36131066 15.03650131 253.56065107 15.078125 259.86132812 C15.07542203 261.32141375 15.07153297 262.7814976 15.06652832 264.24157715 C15.06067091 267.28411192 15.06907299 270.32617316 15.08789062 273.36865234 C15.11067873 277.23845885 15.09753515 281.10715515 15.07360077 284.97692108 C15.05903981 287.98671602 15.06379536 290.99625441 15.07411194 294.00605774 C15.07675093 295.43158607 15.0736109 296.85713888 15.06419373 298.28263855 C14.99599492 311.50211919 17.31795234 321.76920025 26.609375 331.51757812 C35.36965493 339.83242009 45.82090035 342.1994055 57.609375 342.01757812 C59.11371094 342.04078125 59.11371094 342.04078125 60.6484375 342.06445312 C72.05255048 342.00551714 81.33716966 338.40202384 89.609375 330.51757812 C98.95514305 320.67114393 100.22703504 309.25392386 100.140625 296.17382812 C100.14332797 294.7137425 100.14721703 293.25365865 100.15222168 291.7935791 C100.15807909 288.75104433 100.14967701 285.70898309 100.13085938 282.66650391 C100.10807127 278.7966974 100.12121485 274.9280011 100.14514923 271.05823517 C100.15971019 268.04844023 100.15495464 265.03890184 100.14463806 262.02909851 C100.14199907 260.60357018 100.1451391 259.17801737 100.15455627 257.7525177 C100.21940027 245.18332622 98.17216793 235.42416987 89.875 225.74414062 C86.1893943 222.12207985 82.27381759 219.69863693 77.609375 217.51757812 C76.8978125 217.17855469 76.18625 216.83953125 75.453125 216.49023438 C64.62935461 212.35509675 48.08425342 212.52682989 37.609375 217.51757812 Z M123.609375 222.51757812 C121.74622911 228.45258218 121.32099899 233.82956561 121.35058594 240.01953125 C121.3470813 240.93443832 121.34357666 241.8493454 121.33996582 242.79197693 C121.33121574 245.79433951 121.33697384 248.79646344 121.34375 251.79882812 C121.34240142 253.89815313 121.34045928 255.99747782 121.33795166 258.09680176 C121.3350095 262.48790472 121.33926883 266.87892609 121.34863281 271.27001953 C121.36002674 276.88529201 121.35346241 282.50037326 121.34148788 288.11563873 C121.33424478 292.44803292 121.33656848 296.78038213 121.34174347 301.11277771 C121.34307318 303.1827344 121.34145612 305.25269525 121.33678436 307.32264709 C121.3316788 310.22041573 121.33948585 313.11787898 121.35058594 316.015625 C121.34653748 316.86261459 121.34248901 317.70960419 121.33831787 318.58226013 C121.38315616 324.93300278 121.92962931 330.81798684 125.359375 336.33007812 C130.57259085 341.39848243 135.61181529 341.97633502 142.5234375 341.95117188 C143.79977554 341.95903465 143.79977554 341.95903465 145.10189819 341.96705627 C146.89881301 341.97345966 148.69576984 341.97216133 150.49267578 341.96362305 C153.20553871 341.955168 155.91625389 341.9838072 158.62890625 342.015625 C173.84578262 342.07852779 185.20739915 339.81438646 196.35546875 328.79101562 C203.66549881 320.80649402 207.18113606 310.86452296 206.93359375 300.04882812 C206.13299895 293.79840127 204.33113415 287.19323143 200.91015625 281.87695312 C199.609375 279.51757812 199.609375 279.51757812 199.765625 277.57617188 C200.0440625 276.89683594 200.3225 276.2175 200.609375 275.51757812 C201.18171875 274.11185547 201.18171875 274.11185547 201.765625 272.67773438 C202.66050767 270.61482172 203.55633917 268.5523204 204.453125 266.49023438 C208.48305314 256.12950697 206.64976462 246.63109997 202.609375 236.51757812 C196.91367586 225.36209638 188.32041918 219.42664391 176.609375 215.51757812 C172.1728228 214.39209594 167.78823551 214.3397398 163.23828125 214.31445312 C162.43833237 214.30875305 161.63838348 214.30305298 160.81419373 214.29718018 C159.12736318 214.28776315 157.44051451 214.28120935 155.75366211 214.27734375 C153.18375463 214.26762306 150.6146425 214.23656317 148.04492188 214.20507812 C146.40104638 214.19854849 144.75716521 214.19329786 143.11328125 214.18945312 C142.3506044 214.17710632 141.58792755 214.16475952 140.80213928 214.15203857 C133.45765233 214.18247527 128.27235832 216.68884898 123.609375 222.51757812 Z " fill="#000000" transform="translate(198.390625,20.482421875)"/>
<path d="M0 0 C1.31871094 -0.00773437 2.63742187 -0.01546875 3.99609375 -0.0234375 C7.77242956 0.39845325 8.94877661 0.72738084 11.5625 3.375 C12.06370544 5.95544434 12.06370544 5.95544434 12.06420898 9.08398438 C12.07358994 10.25529907 12.08297089 11.42661377 12.09263611 12.63342285 C12.08140213 13.89908081 12.07016815 15.16473877 12.05859375 16.46875 C12.06004898 17.76695679 12.06150421 19.06516357 12.06300354 20.40270996 C12.06438782 23.15002713 12.05182598 25.89682241 12.02905273 28.64404297 C12.00066695 32.16499899 12.0034045 35.6850879 12.01614285 39.20610809 C12.02477149 42.56457965 12.0096544 45.92279308 11.99609375 49.28125 C11.99902939 50.54690796 12.00196503 51.81256592 12.00498962 53.11657715 C11.98596336 54.87354919 11.98596336 54.87354919 11.96655273 56.66601562 C11.96114975 57.69843384 11.95574677 58.73085205 11.95018005 59.79455566 C11.5625 62.375 11.5625 62.375 10.26771545 64.20690918 C7.3389806 66.21312387 3.98365066 65.80478711 0.5625 65.75 C-0.16195312 65.76160156 -0.88640625 65.77320313 -1.6328125 65.78515625 C-6.88082272 65.75610822 -6.88082272 65.75610822 -9.14370728 64.20690918 C-10.95820275 61.63772569 -10.81844588 59.79674014 -10.82568359 56.66601562 C-10.83514008 55.49470093 -10.84459656 54.32338623 -10.8543396 53.11657715 C-10.84826691 51.85091919 -10.84219421 50.58526123 -10.8359375 49.28125 C-10.83880768 47.98304321 -10.84167786 46.68483643 -10.84463501 45.34729004 C-10.84905675 42.60007009 -10.84263259 39.85314293 -10.82861328 37.10595703 C-10.81152092 33.58503159 -10.82136298 30.06479217 -10.83933067 26.54389191 C-10.85277957 23.18545629 -10.84336264 19.82720511 -10.8359375 16.46875 C-10.84201019 15.20309204 -10.84808289 13.93743408 -10.8543396 12.63342285 C-10.84488312 11.46210815 -10.83542664 10.29079346 -10.82568359 9.08398438 C-10.82329681 8.05156616 -10.82091003 7.01914795 -10.81845093 5.95544434 C-10.4375 3.375 -10.4375 3.375 -9.12783813 1.54309082 C-6.33620125 -0.3860412 -3.26735954 -0.0563878 0 0 Z " fill="#000000" transform="translate(255.4375,265.625)"/>
<path d="M0 0 C3.8053125 -0.12375 3.8053125 -0.12375 7.6875 -0.25 C8.87218872 -0.30462402 8.87218872 -0.30462402 10.08081055 -0.36035156 C13.84197428 -0.41932037 15.65503283 -0.21007908 18.95703125 1.80078125 C21.77271836 4.83181728 22 6.90612953 22 11 C20.65437601 13.94755732 19.91445456 15.54277272 17 17 C14.11426648 17.07199934 11.25934885 17.0927068 8.375 17.0625 C5.61125 17.041875 2.8475 17.02125 0 17 C0 11.39 0 5.78 0 0 Z " fill="#000000" transform="translate(352,314)"/>
<path d="M0 0 C3.8053125 -0.12375 3.8053125 -0.12375 7.6875 -0.25 C8.87218872 -0.30462402 8.87218872 -0.30462402 10.08081055 -0.36035156 C13.84197428 -0.41932037 15.65503283 -0.21007908 18.95703125 1.80078125 C21.77271836 4.83181728 22 6.90612953 22 11 C20.65437601 13.94755732 19.91445456 15.54277272 17 17 C14.11426648 17.07199934 11.25934885 17.0927068 8.375 17.0625 C5.61125 17.041875 2.8475 17.02125 0 17 C0 11.39 0 5.78 0 0 Z " fill="#000000" transform="translate(352,266)"/>
</svg>
