<?xml version="1.0" encoding="UTF-8"?>
<svg version="1.1" xmlns="http://www.w3.org/2000/svg" width="24" height="24">
<path d="M0 0 C0.93232452 0.00060425 1.86464905 0.0012085 2.82522583 0.00183105 C72.73351622 0.12397673 146.54554329 13.57746359 199 63.1875 C200.28970703 64.38052734 200.28970703 64.38052734 201.60546875 65.59765625 C231.87982088 94.56143036 251.2353777 137.93918516 252.203125 179.85546875 C252.7548194 232.36769735 236.20999694 280.87553017 202 321.1875 C201.13627637 322.23531258 200.27303031 323.28351894 199.41015625 324.33203125 C189.22490133 336.58507455 178.17059125 348.27616058 165.6171875 358.12890625 C162.80042107 360.34448224 160.09504877 362.66695004 157.375 365 C90.06074149 421.05189866 -6.3524306 454.31886071 -93.90673828 447.72265625 C-124.29485591 444.91019803 -155.69332734 435.72736616 -176.59375 412.27734375 C-187.50693869 398.47216006 -192.77903704 382.51091364 -193.39453125 365.0546875 C-193.4602254 363.44193668 -193.52691639 361.82922622 -193.59448242 360.21655273 C-193.62931732 359.37599335 -193.66415222 358.53543396 -193.70004272 357.66940308 C-195.84560296 307.93258019 -209.11090168 262.35695935 -226.44067383 215.9831543 C-230.05994011 206.28804804 -233.61655466 196.58355038 -236.90234375 186.76953125 C-237.18163727 185.93844849 -237.46093079 185.10736572 -237.74868774 184.25109863 C-248.00291803 153.20346953 -246.04519088 121.25068818 -231.56738281 91.87304688 C-221.00236742 71.36787304 -202.12969264 47.73385518 -180 39.1875 C-179.27095914 37.54715807 -178.61344757 35.87448082 -178 34.1875 C-174.41982555 29.21503549 -171.1326648 25.91403653 -164.93359375 24.82421875 C-161.96061622 24.47780224 -158.98018013 24.25358492 -155.99389648 24.05224609 C-150.4034294 23.5766922 -145.84904564 22.1905813 -140.6875 20.0625 C-96.69412382 3.05249449 -46.78027606 -0.05678686 0 0 Z " fill="#EEEEEE" transform="translate(252,31.8125)"/>
<path d="M0 0 C0.73583817 -0.00846954 1.47167633 -0.01693909 2.22981262 -0.02566528 C4.64915526 -0.04895744 7.06785865 -0.05005906 9.48730469 -0.04882812 C11.18113454 -0.05593637 12.87496201 -0.06363634 14.56878662 -0.07189941 C18.11607555 -0.08532779 21.66314202 -0.0869213 25.21044922 -0.08105469 C29.73408788 -0.0751718 34.25664839 -0.10569852 38.78007889 -0.14617157 C42.27878469 -0.17215462 45.7772349 -0.17491622 49.27602386 -0.17127991 C50.94243826 -0.17296246 52.60886557 -0.18252087 54.27518463 -0.20042419 C64.4179163 -0.29738264 73.44512116 -0.10768588 81.30328369 7.17541504 C87.32096034 13.48984665 88.75387505 19.70347104 88.67285156 28.2109375 C88.64771484 29.24927734 88.62257813 30.28761719 88.59667969 31.35742188 C88.58314453 32.42283203 88.56960938 33.48824219 88.55566406 34.5859375 C88.52052693 37.19779776 88.47133153 39.80858821 88.40917969 42.41992188 C89.37002975 42.41103943 90.33087982 42.40215698 91.32084656 42.39300537 C100.42602302 42.3115203 109.5311244 42.25176637 118.63658428 42.21267319 C123.31655394 42.19189851 127.9962266 42.16376853 132.67602539 42.11816406 C137.20184514 42.0743418 141.72738126 42.05070891 146.25339699 42.0404129 C147.97038035 42.03308621 149.68735019 42.0187811 151.40421104 41.99700165 C165.96848781 41.81978254 179.0686601 43.25530854 190.40917969 53.41992188 C198.64099246 62.35198337 202.65009716 71.75384173 202.6698761 83.92037964 C202.67370165 84.63069749 202.67752719 85.34101534 202.68146867 86.07285798 C202.69170525 88.42934607 202.6878245 90.78558624 202.68383789 93.14208984 C202.68818956 94.84131086 202.69337422 96.54052992 202.69932556 98.23974609 C202.71267811 102.83899292 202.71329839 107.43815738 202.71076226 112.0374198 C202.70968997 115.88417343 202.71458253 119.73091059 202.71936768 123.57766068 C202.73045 132.65676689 202.7309075 141.73583171 202.72485352 150.81494141 C202.71881458 160.16486092 202.73112565 169.51462993 202.75242358 178.86452377 C202.77006677 186.90724737 202.77603665 194.94992318 202.77278584 202.99266541 C202.77097712 207.78950288 202.77356799 212.58623297 202.78750038 217.38305283 C202.80011833 221.89589461 202.79809725 226.40850256 202.78508949 230.92134094 C202.78273276 232.57163193 202.78542582 234.22193959 202.79371262 235.87221146 C202.86096008 250.31241537 200.90620131 262.70513448 190.72167969 273.66992188 C186.46705916 277.71503457 181.7855248 280.15712083 176.40917969 282.41992188 C175.63698076 282.76534422 174.86478183 283.11076657 174.06918293 283.46665627 C171.330196 284.44822727 169.34884283 284.67327945 166.45459652 284.67998409 C165.4766909 284.68704968 164.49878528 284.69411528 163.49124616 284.70139498 C161.89117235 284.69777235 161.89117235 284.69777235 160.2587738 284.69407654 C159.11957381 284.69931322 157.98037381 284.7045499 156.80665261 284.70994526 C152.98068558 284.72497405 149.15485196 284.72565106 145.32885742 284.72631836 C142.58899802 284.73285684 139.8491502 284.74231635 137.10929871 284.75154114 C129.65861403 284.77438168 122.20795786 284.78231113 114.75724292 284.78736758 C110.10185558 284.79062652 105.44647649 284.7971503 100.79109383 284.80436897 C87.8933549 284.82393578 74.99562364 284.84033881 62.09786892 284.84324551 C60.86001372 284.84352686 60.86001372 284.84352686 59.59715134 284.8438139 C57.92428625 284.84418014 56.25142115 284.84454384 54.57855605 284.84490501 C53.33298746 284.84517923 53.33298746 284.84517923 52.06225586 284.84545898 C51.23085896 284.84563953 50.39946205 284.84582008 49.5428713 284.8460061 C36.08144943 284.84954517 22.62018779 284.87655044 9.15882146 284.91395687 C-4.67275513 284.95208326 -18.50425232 284.97140331 -32.3358826 284.97170502 C-40.09734436 284.97228871 -47.8586151 284.98072327 -55.62002754 285.00970268 C-62.23139788 285.03427494 -68.84250759 285.04146048 -75.45391131 285.02645516 C-78.82375799 285.01930895 -82.19267397 285.02278976 -85.56253052 285.04286575 C-89.22597454 285.06335482 -92.88810061 285.05275534 -96.55152893 285.03465271 C-98.12818017 285.05445266 -98.12818017 285.05445266 -99.73668295 285.07465261 C-111.20291935 284.94586646 -120.28776701 280.65478348 -128.46582031 272.75195312 C-136.19286402 264.27209082 -139.70443968 254.69158888 -139.73126221 243.28022766 C-139.73423333 242.57247308 -139.73720445 241.86471851 -139.74026561 241.13551682 C-139.74892002 238.76977583 -139.75045809 236.40408563 -139.75195312 234.03833008 C-139.75658365 232.33955274 -139.76160863 230.64077644 -139.76699829 228.94200134 C-139.78010271 224.3302032 -139.78656356 219.71841961 -139.79100895 215.10660577 C-139.79394316 212.2228191 -139.79804865 209.33903637 -139.80251312 206.45525169 C-139.81618361 197.42532314 -139.82585216 188.39540364 -139.82971501 179.36546546 C-139.83419319 168.95537509 -139.85173181 158.54541619 -139.88071561 148.13536578 C-139.90236193 140.07997092 -139.91242089 132.02461297 -139.91375613 123.96918935 C-139.91480215 119.16223701 -139.92066653 114.35540833 -139.93857574 109.54848671 C-139.95510723 105.02338665 -139.95718737 100.49850253 -139.94843674 95.97338295 C-139.94766904 94.31825175 -139.95197354 92.66310869 -139.96189499 91.00800705 C-140.04410353 76.43185557 -138.01663506 64.8171835 -127.93066406 53.56835938 C-119.56394351 45.8543617 -108.70546398 42.08093767 -97.45239258 42.19287109 C-96.67108475 42.19257904 -95.88977692 42.19228699 -95.08479309 42.19198608 C-92.5254877 42.19336939 -89.96648053 42.20888303 -87.40722656 42.22460938 C-85.62361307 42.22834307 -83.83999751 42.23118836 -82.05638123 42.23318481 C-77.37926495 42.24079324 -72.70227439 42.26041759 -68.02520752 42.28259277 C-63.24566345 42.30311151 -58.46609893 42.31219939 -53.68652344 42.32226562 C-44.32123406 42.34366626 -34.95603767 42.37776829 -25.59082031 42.41992188 C-25.61700439 41.77555176 -25.64318848 41.13118164 -25.67016602 40.46728516 C-25.77532952 37.49342108 -25.83951763 34.51994965 -25.90332031 31.54492188 C-25.94521484 30.53171875 -25.98710937 29.51851562 -26.03027344 28.47460938 C-26.16067493 20.3375561 -24.47794091 13.58921076 -18.80493164 7.50439453 C-13.20646103 2.34536041 -7.63889372 -0.03279003 0 0 Z " fill="#F2F2F0" transform="translate(224.5908203125,113.580078125)"/>
<path d="M0 0 C0.73583817 -0.00846954 1.47167633 -0.01693909 2.22981262 -0.02566528 C4.64915526 -0.04895744 7.06785865 -0.05005906 9.48730469 -0.04882812 C11.18113454 -0.05593637 12.87496201 -0.06363634 14.56878662 -0.07189941 C18.11607555 -0.08532779 21.66314202 -0.0869213 25.21044922 -0.08105469 C29.73408788 -0.0751718 34.25664839 -0.10569852 38.78007889 -0.14617157 C42.27878469 -0.17215462 45.7772349 -0.17491622 49.27602386 -0.17127991 C50.94243826 -0.17296246 52.60886557 -0.18252087 54.27518463 -0.20042419 C64.4179163 -0.29738264 73.44512116 -0.10768588 81.30328369 7.17541504 C87.32096034 13.48984665 88.75387505 19.70347104 88.67285156 28.2109375 C88.64771484 29.24927734 88.62257813 30.28761719 88.59667969 31.35742188 C88.58314453 32.42283203 88.56960938 33.48824219 88.55566406 34.5859375 C88.52052693 37.19779776 88.47133153 39.80858821 88.40917969 42.41992188 C89.37002975 42.41103943 90.33087982 42.40215698 91.32084656 42.39300537 C100.42602302 42.3115203 109.5311244 42.25176637 118.63658428 42.21267319 C123.31655394 42.19189851 127.9962266 42.16376853 132.67602539 42.11816406 C137.20184514 42.0743418 141.72738126 42.05070891 146.25339699 42.0404129 C147.97038035 42.03308621 149.68735019 42.0187811 151.40421104 41.99700165 C165.96848781 41.81978254 179.0686601 43.25530854 190.40917969 53.41992188 C198.64099246 62.35198337 202.65009716 71.75384173 202.6698761 83.92037964 C202.67370165 84.63069749 202.67752719 85.34101534 202.68146867 86.07285798 C202.69170525 88.42934607 202.6878245 90.78558624 202.68383789 93.14208984 C202.68818956 94.84131086 202.69337422 96.54052992 202.69932556 98.23974609 C202.71267811 102.83899292 202.71329839 107.43815738 202.71076226 112.0374198 C202.70968997 115.88417343 202.71458253 119.73091059 202.71936768 123.57766068 C202.73045 132.65676689 202.7309075 141.73583171 202.72485352 150.81494141 C202.71881458 160.16486092 202.73112565 169.51462993 202.75242358 178.86452377 C202.77006677 186.90724737 202.77603665 194.94992318 202.77278584 202.99266541 C202.77097712 207.78950288 202.77356799 212.58623297 202.78750038 217.38305283 C202.80011833 221.89589461 202.79809725 226.40850256 202.78508949 230.92134094 C202.78273276 232.57163193 202.78542582 234.22193959 202.79371262 235.87221146 C202.86096008 250.31241537 200.90620131 262.70513448 190.72167969 273.66992188 C186.46705916 277.71503457 181.7855248 280.15712083 176.40917969 282.41992188 C175.63698076 282.76534422 174.86478183 283.11076657 174.06918293 283.46665627 C171.330196 284.44822727 169.34884283 284.67327945 166.45459652 284.67998409 C165.4766909 284.68704968 164.49878528 284.69411528 163.49124616 284.70139498 C161.89117235 284.69777235 161.89117235 284.69777235 160.2587738 284.69407654 C159.11957381 284.69931322 157.98037381 284.7045499 156.80665261 284.70994526 C152.98068558 284.72497405 149.15485196 284.72565106 145.32885742 284.72631836 C142.58899802 284.73285684 139.8491502 284.74231635 137.10929871 284.75154114 C129.65861403 284.77438168 122.20795786 284.78231113 114.75724292 284.78736758 C110.10185558 284.79062652 105.44647649 284.7971503 100.79109383 284.80436897 C87.8933549 284.82393578 74.99562364 284.84033881 62.09786892 284.84324551 C60.86001372 284.84352686 60.86001372 284.84352686 59.59715134 284.8438139 C57.92428625 284.84418014 56.25142115 284.84454384 54.57855605 284.84490501 C53.33298746 284.84517923 53.33298746 284.84517923 52.06225586 284.84545898 C51.23085896 284.84563953 50.39946205 284.84582008 49.5428713 284.8460061 C36.08144943 284.84954517 22.62018779 284.87655044 9.15882146 284.91395687 C-4.67275513 284.95208326 -18.50425232 284.97140331 -32.3358826 284.97170502 C-40.09734436 284.97228871 -47.8586151 284.98072327 -55.62002754 285.00970268 C-62.23139788 285.03427494 -68.84250759 285.04146048 -75.45391131 285.02645516 C-78.82375799 285.01930895 -82.19267397 285.02278976 -85.56253052 285.04286575 C-89.22597454 285.06335482 -92.88810061 285.05275534 -96.55152893 285.03465271 C-98.12818017 285.05445266 -98.12818017 285.05445266 -99.73668295 285.07465261 C-111.20291935 284.94586646 -120.28776701 280.65478348 -128.46582031 272.75195312 C-136.19286402 264.27209082 -139.70443968 254.69158888 -139.73126221 243.28022766 C-139.73423333 242.57247308 -139.73720445 241.86471851 -139.74026561 241.13551682 C-139.74892002 238.76977583 -139.75045809 236.40408563 -139.75195312 234.03833008 C-139.75658365 232.33955274 -139.76160863 230.64077644 -139.76699829 228.94200134 C-139.78010271 224.3302032 -139.78656356 219.71841961 -139.79100895 215.10660577 C-139.79394316 212.2228191 -139.79804865 209.33903637 -139.80251312 206.45525169 C-139.81618361 197.42532314 -139.82585216 188.39540364 -139.82971501 179.36546546 C-139.83419319 168.95537509 -139.85173181 158.54541619 -139.88071561 148.13536578 C-139.90236193 140.07997092 -139.91242089 132.02461297 -139.91375613 123.96918935 C-139.91480215 119.16223701 -139.92066653 114.35540833 -139.93857574 109.54848671 C-139.95510723 105.02338665 -139.95718737 100.49850253 -139.94843674 95.97338295 C-139.94766904 94.31825175 -139.95197354 92.66310869 -139.96189499 91.00800705 C-140.04410353 76.43185557 -138.01663506 64.8171835 -127.93066406 53.56835938 C-119.56394351 45.8543617 -108.70546398 42.08093767 -97.45239258 42.19287109 C-96.67108475 42.19257904 -95.88977692 42.19228699 -95.08479309 42.19198608 C-92.5254877 42.19336939 -89.96648053 42.20888303 -87.40722656 42.22460938 C-85.62361307 42.22834307 -83.83999751 42.23118836 -82.05638123 42.23318481 C-77.37926495 42.24079324 -72.70227439 42.26041759 -68.02520752 42.28259277 C-63.24566345 42.30311151 -58.46609893 42.31219939 -53.68652344 42.32226562 C-44.32123406 42.34366626 -34.95603767 42.37776829 -25.59082031 42.41992188 C-25.61700439 41.77555176 -25.64318848 41.13118164 -25.67016602 40.46728516 C-25.77532952 37.49342108 -25.83951763 34.51994965 -25.90332031 31.54492188 C-25.94521484 30.53171875 -25.98710937 29.51851562 -26.03027344 28.47460938 C-26.16067493 20.3375561 -24.47794091 13.58921076 -18.80493164 7.50439453 C-13.20646103 2.34536041 -7.63889372 -0.03279003 0 0 Z M-116.62951088 73.3394928 C-117.75326393 76.94045775 -117.96840898 79.93211838 -117.97177124 83.70678711 C-117.97645121 84.41821837 -117.98113118 85.12964964 -117.98595297 85.86263943 C-117.99787194 88.23479058 -117.98845824 90.60636069 -117.97900391 92.97851562 C-117.983071 94.68393286 -117.98841365 96.38934746 -117.99493408 98.09475708 C-118.00859715 102.71868998 -118.00331319 107.34242182 -117.99379683 111.96635818 C-117.98619502 116.80822537 -117.99324729 121.65007549 -117.99795532 126.49194336 C-118.00341135 134.62259 -117.99622526 142.75315485 -117.98193359 150.88378906 C-117.96560738 160.28033344 -117.970896 169.67668252 -117.98741281 179.07322216 C-118.00103201 187.14472467 -118.00294521 195.21616843 -117.9950968 203.28767872 C-117.99042268 208.10676588 -117.98978828 212.92576128 -117.99970627 217.74484253 C-118.00837996 222.2757162 -118.00234666 226.80633837 -117.9850235 231.33718491 C-117.98106081 232.99882464 -117.98218899 234.66048559 -117.98881149 236.32211685 C-117.99702589 238.59271468 -117.98670746 240.86250977 -117.97177124 243.13305664 C-117.97064016 244.4028688 -117.96950909 245.67268097 -117.96834373 246.98097229 C-117.37343916 252.40009786 -115.30571594 256.30319758 -111.09082031 259.73242188 C-110.50300781 260.22355469 -109.91519531 260.7146875 -109.30957031 261.22070312 C-106.26484501 263.345091 -103.58914849 263.54673383 -99.99609852 263.55693626 C-99.04757537 263.56201081 -98.09905222 263.56708535 -97.12178594 263.57231367 C-96.07764348 263.57281142 -95.03350103 263.57330918 -93.9577179 263.57382202 C-92.29625041 263.5803954 -92.29625041 263.5803954 -90.60121793 263.58710158 C-86.87029269 263.60051182 -83.13939109 263.60667344 -79.40844727 263.61279297 C-76.7412142 263.62069215 -74.07398418 263.62895581 -71.40675354 263.63757324 C-63.38862379 263.66209415 -55.37048785 263.67672386 -47.35233214 263.68963331 C-45.08760088 263.69334544 -42.82287022 263.69731866 -40.55813956 263.70138597 C-26.49401093 263.7266225 -12.42988133 263.74867528 1.63426495 263.76111412 C4.89183747 263.76404381 8.14940997 263.76700547 11.40698242 263.77001953 C12.21663465 263.77076558 13.02628688 263.77151163 13.86047403 263.77228029 C26.97552729 263.78493316 40.09044495 263.81815549 53.20543482 263.85982136 C66.6707971 263.90224963 80.13608998 263.92581017 93.60151893 263.93103468 C101.16168653 263.93444778 108.72164222 263.9461908 116.281744 263.97913742 C122.72052621 264.00715143 129.15905306 264.01813145 135.59789147 264.00694196 C138.88209403 264.00175858 142.16565044 264.00735214 145.44979858 264.0294075 C149.01403221 264.05204117 152.57691903 264.04382906 156.14115906 264.02792358 C157.1741479 264.04180567 158.20713675 264.05568776 159.27142829 264.06999052 C165.90208607 263.99708941 170.27692881 262.70370596 175.40917969 258.41992188 C179.95012432 253.52967381 180.53430428 250.0655001 180.56307983 243.50727844 C180.56746209 242.79982158 180.57184434 242.09236472 180.57635939 241.36346978 C180.58974095 238.98685802 180.59592481 236.61028333 180.60205078 234.23364258 C180.6099523 232.5319146 180.61822128 230.83018829 180.62683105 229.12846375 C180.65304696 223.53422647 180.66835898 217.93998174 180.68261719 212.34570312 C180.68797718 210.41951175 180.69335469 208.49332042 180.69874954 206.56712914 C180.72037826 198.55398488 180.7391145 190.54084264 180.75037193 182.52767658 C180.76660793 171.04641737 180.79977734 159.56549676 180.85677278 148.08436519 C180.89548663 140.01036109 180.91500638 131.9364475 180.9202925 123.86235303 C180.92394417 119.04080048 180.93594578 114.21960912 180.96839523 109.39815712 C180.99850102 104.85985598 181.00477881 100.32213408 180.99301147 95.78375435 C180.99279094 94.12131846 181.00107904 92.45885549 181.01866531 90.7965126 C181.48739524 79.74281011 181.48739524 79.74281011 177.03567451 70.02126378 C171.07779909 64.15552389 164.10341678 63.84027341 156.14356995 63.89852905 C155.02827485 63.89087796 153.91297974 63.88322686 152.76388782 63.87534392 C149.03681593 63.85475074 145.3103641 63.86265509 141.58325195 63.87060547 C138.90703295 63.86190879 136.23085899 63.85167026 133.55465698 63.83963013 C127.04619779 63.81417322 120.53790376 63.81054398 114.02940316 63.81523065 C108.7378903 63.81880118 103.44642746 63.8152888 98.15492058 63.80678177 C97.40092938 63.80559139 96.64693819 63.80440101 95.87009878 63.80317456 C94.33822163 63.80075099 92.80634448 63.79832272 91.27446734 63.79588981 C76.91917339 63.77415339 62.56397347 63.77845708 48.20867424 63.7906595 C35.08486244 63.80099866 21.96134749 63.77848254 8.8375944 63.74046306 C-4.64942843 63.70169173 -18.13631087 63.68519664 -31.62338978 63.69270957 C-39.19078759 63.69653123 -46.75793269 63.69158194 -54.32528496 63.66328049 C-60.76691299 63.63943219 -67.20813274 63.63666555 -73.6497665 63.66086082 C-76.93420128 63.6726244 -80.21773707 63.67161326 -83.50214958 63.65085602 C-87.06819925 63.62994521 -90.63224899 63.64609871 -94.19822693 63.67147827 C-95.74406146 63.64935542 -95.74406146 63.64935542 -97.32112497 63.62678564 C-105.68830262 63.75189223 -111.7492393 66.35054644 -116.62951088 73.3394928 Z " fill="#040404" transform="translate(224.5908203125,113.580078125)"/>
<path d="M0 0 C2.06580695 -0.01703907 4.12993865 -0.06087457 6.1953125 -0.10522461 C15.37774052 -0.21280618 21.64263224 1.13948313 29.3515625 6.04516602 C35.3703028 12.06390631 37.72147759 18.00724644 37.9140625 26.42016602 C37.9140625 32.16323655 36.67895086 36.06194571 34.296875 41.20922852 C33.29771938 43.4482872 33.29771938 43.4482872 34.7890625 46.17016602 C35.3871875 46.87141602 35.9853125 47.57266602 36.6015625 48.29516602 C38.9130699 55.09282264 38.65908135 63.7093345 35.9140625 70.29516602 C32.09553882 77.5862844 25.36670988 82.70678356 17.6015625 85.29516602 C13.34827862 85.56723843 9.093271 85.60835246 4.83251953 85.64526367 C3.43195989 85.66182489 2.03148484 85.68911826 0.63134766 85.72729492 C-1.39725145 85.78225108 -3.42388047 85.80395906 -5.453125 85.81860352 C-7.27046143 85.84833252 -7.27046143 85.84833252 -9.12451172 85.87866211 C-13.30775242 85.13310318 -14.74297605 83.52935846 -17.3984375 80.29516602 C-18.85635205 77.37933692 -18.55805684 74.79476539 -18.59130859 71.53808594 C-18.59948608 70.84356827 -18.60766357 70.1490506 -18.61608887 69.43348694 C-18.64093819 67.13087833 -18.65745777 64.82833136 -18.671875 62.52563477 C-18.67719868 61.73936518 -18.68252235 60.95309559 -18.68800735 60.14299965 C-18.71473725 55.9810852 -18.7341124 51.81920073 -18.74853516 47.65722656 C-18.76518082 43.35949912 -18.80995736 39.06253886 -18.8609066 34.76510143 C-18.89457182 31.45965195 -18.90611171 28.15438471 -18.91176224 24.84877968 C-18.91847706 23.26472423 -18.93370535 21.68068087 -18.95765305 20.09679222 C-18.98929436 17.87736995 -18.98934441 15.66001853 -18.98193359 13.44042969 C-18.99002045 12.17849289 -18.9981073 10.91655609 -19.00643921 9.61637878 C-18.23960937 5.42756645 -16.60975962 3.98511822 -13.3984375 1.29516602 C-10.76228163 -1.34098985 -3.57386302 0.02049617 0 0 Z " fill="#010101" transform="translate(317.3984375,241.704833984375)"/>
<path d="M0 0 C-0.27714844 0.51949219 -0.55429688 1.03898438 -0.83984375 1.57421875 C-1.20207031 2.27160156 -1.56429687 2.96898437 -1.9375 3.6875 C-2.29714844 4.37199219 -2.65679687 5.05648437 -3.02734375 5.76171875 C-5.06240877 10.44482018 -5.12841702 15.0075337 -5.14044189 20.06376648 C-5.14341302 20.76335395 -5.14638414 21.46294142 -5.1494453 22.18372852 C-5.1580987 24.52183059 -5.1596377 26.85988125 -5.16113281 29.19799805 C-5.16576341 30.87707121 -5.1707884 32.55614333 -5.17617798 34.23521423 C-5.18928173 38.79329507 -5.19574312 43.35136119 -5.20018864 47.90945792 C-5.20312297 50.75974267 -5.20722848 53.61002343 -5.21169281 56.46030617 C-5.22536314 65.38558327 -5.23503176 74.31085121 -5.2388947 83.23613805 C-5.24337279 93.525108 -5.26091106 103.81394494 -5.2898953 114.10287446 C-5.31154266 122.06485186 -5.32160063 130.02679193 -5.32293582 137.98879844 C-5.32398177 142.73986003 -5.3298446 147.4907965 -5.34775543 152.24182701 C-5.36428874 156.71439818 -5.36636619 161.18675088 -5.35761642 165.65934181 C-5.35684883 167.2951224 -5.36115196 168.93091498 -5.37107468 170.56666565 C-5.42001083 179.14095352 -5.18075364 186.89870326 -2 195 C-1.67 195.99 -1.34 196.98 -1 198 C84.47 198 169.94 198 258 198 C258 198.33 258 198.66 258 199 C223.46798241 199.0915541 188.93599253 199.16203798 154.40387979 199.20426132 C150.32711432 199.20926415 146.25034909 199.21444144 142.17358398 199.21972656 C141.36197294 199.2207758 140.55036189 199.22182505 139.71415658 199.22290608 C126.57240008 199.24031164 113.43071357 199.27185016 100.2889986 199.30861118 C86.80453119 199.34601641 73.32010043 199.36823496 59.83558327 199.37635398 C51.51478773 199.38184263 43.19419 199.39917841 34.87345535 199.43166587 C29.16772373 199.4528086 23.46209438 199.4592006 17.75632643 199.45400551 C14.46424642 199.4514433 11.17258501 199.45755883 7.88055038 199.4768219 C4.30940806 199.49669568 0.73911509 199.49194766 -2.83204651 199.48101807 C-3.86999456 199.49266943 -4.9079426 199.5043208 -5.97734362 199.51632524 C-13.01980382 199.45798709 -17.43075566 198.27314111 -22.7421875 193.40234375 C-26.5819127 188.43718186 -27.12672899 185.27992044 -27.15390015 179.08735657 C-27.1582824 178.37989971 -27.16266465 177.67244285 -27.1671797 176.9435479 C-27.18056127 174.56693614 -27.18674513 172.19036146 -27.19287109 169.8137207 C-27.20077261 168.11199272 -27.2090416 166.41026641 -27.21765137 164.70854187 C-27.24386727 159.1143046 -27.25917929 153.52005986 -27.2734375 147.92578125 C-27.27879749 145.99958987 -27.284175 144.07339854 -27.28956985 142.14720726 C-27.31119858 134.13406301 -27.32993481 126.12092076 -27.34119225 118.10775471 C-27.35742824 106.6264955 -27.39059765 95.14557488 -27.44759309 83.66444331 C-27.48630694 75.59043922 -27.50582669 67.51652562 -27.51111281 59.44243115 C-27.51476448 54.62087861 -27.52676609 49.79968724 -27.55921555 44.97823524 C-27.58932133 40.43993411 -27.59559912 35.9022122 -27.58383179 31.36383247 C-27.58361126 29.70139658 -27.59189935 28.03893362 -27.60948563 26.37659073 C-27.77346036 9.97961848 -27.77346036 9.97961848 -22 4 C-15.6493494 -1.52230487 -7.94849772 -0.36827016 0 0 Z " fill="#D4DADF" transform="translate(134,178)"/>
<path d="M0 0 C0.87333984 -0.02900391 1.74667969 -0.05800781 2.64648438 -0.08789062 C10.21227419 -0.1613449 15.33961883 1.74501172 21.0625 6.6875 C25.89569015 12.32622185 28.41066637 16.5587948 28.47363281 23.95410156 C28.48324036 24.86895325 28.4928479 25.78380493 28.50274658 26.72637939 C28.50699646 27.70870544 28.51124634 28.69103149 28.515625 29.703125 C28.52132507 30.72170593 28.52702515 31.74028687 28.53289795 32.78973389 C28.54233884 34.94493575 28.54887831 37.100152 28.55273438 39.25537109 C28.56242291 42.53639232 28.5934484 45.81678242 28.625 49.09765625 C28.63153225 51.1953088 28.63678185 53.2929658 28.640625 55.390625 C28.6529718 56.36485413 28.6653186 57.33908325 28.67803955 58.34283447 C28.6559983 65.15446908 27.78735198 70.7476873 23.8046875 76.484375 C16.38502406 83.72481952 9.98583311 85.65607002 -0.25 85.8125 C-1.0534082 85.83111084 -1.85681641 85.84972168 -2.68457031 85.86889648 C-10.09192945 85.79069251 -16.21267845 83.36268608 -21.5 78.0625 C-22.04269531 77.54171875 -22.58539063 77.0209375 -23.14453125 76.484375 C-27.853433 69.85614873 -28.16517535 63.01457958 -28.19140625 55.1640625 C-28.20638405 53.58520767 -28.20638405 53.58520767 -28.22166443 51.97445679 C-28.23678854 49.75742499 -28.243892 47.54032552 -28.2434082 45.32324219 C-28.24996803 41.95392081 -28.30450913 38.58755093 -28.36132812 35.21875 C-28.37013225 33.05469748 -28.37608509 30.89063109 -28.37890625 28.7265625 C-28.4004628 27.7314566 -28.42201935 26.73635071 -28.44422913 25.71109009 C-28.37201352 18.24345299 -26.20338771 13.24449192 -21.6875 7.3125 C-19.23828125 5.05859375 -19.23828125 5.05859375 -17 3.75 C-16.25363281 3.29496094 -15.50726563 2.83992187 -14.73828125 2.37109375 C-9.87343172 -0.14009525 -5.34575099 0.05789622 0 0 Z " fill="#010101" transform="translate(255.6875,241.6875)"/>
<path d="M0 0 C6.93 0 13.86 0 21 0 C21.09066794 8.44990367 21.163926 16.89942388 21.20724869 25.34968472 C21.22805011 29.27424246 21.25622951 33.19844777 21.30175781 37.12280273 C21.34548418 40.9159341 21.36919299 44.70872824 21.37950897 48.50209236 C21.38685268 49.9432817 21.40119244 51.38445432 21.42292023 52.82549858 C21.55683985 62.08253633 21.19435805 69.89758505 15.10546875 77.3046875 C14.47253906 77.82289063 13.83960938 78.34109375 13.1875 78.875 C12.56230469 79.40867187 11.93710938 79.94234375 11.29296875 80.4921875 C5.2243575 84.48279047 0.33512113 85.43540055 -6.77734375 85.29296875 C-7.99436729 85.28660149 -7.99436729 85.28660149 -9.23597717 85.28010559 C-11.80350256 85.26343867 -14.37021564 85.22581048 -16.9375 85.1875 C-18.68813963 85.1724376 -20.43879168 85.15875193 -22.18945312 85.14648438 C-26.46019298 85.11613805 -30.72919741 85.05739755 -35 85 C-35 78.07 -35 71.14 -35 64 C-32.62941406 63.93941406 -30.25882813 63.87882812 -27.81640625 63.81640625 C-25.52950709 63.75466102 -23.24265963 63.69125508 -20.95581055 63.62768555 C-19.362107 63.58427854 -17.7683552 63.54260781 -16.17456055 63.50268555 C-13.88836092 63.44512193 -11.60240551 63.38138851 -9.31640625 63.31640625 C-8.2413961 63.29133751 -8.2413961 63.29133751 -7.14466858 63.26576233 C-3.78472618 63.44981346 -3.78472618 63.44981346 -1 62 C-0.87642922 60.06776005 -0.82205542 58.13106201 -0.79467773 56.19506836 C-0.77473251 54.95385727 -0.75478729 53.71264618 -0.73423767 52.43382263 C-0.71725207 51.0691643 -0.70037331 49.70450463 -0.68359375 48.33984375 C-0.66303064 46.95121125 -0.64203434 45.5625851 -0.62062073 44.17396545 C-0.56533353 40.51285941 -0.51595374 36.85169627 -0.46777344 33.19049072 C-0.41760679 29.45702003 -0.36189554 25.72363262 -0.30664062 21.99023438 C-0.19897779 14.66022469 -0.0980632 7.33014555 0 0 Z " fill="#000000" transform="translate(192,242)"/>
<path d="M0 0 C0.66178253 -0.00175232 1.32356506 -0.00350464 2.00540161 -0.00531006 C4.20284615 -0.00972764 6.40021083 -0.00679094 8.59765625 -0.00341797 C10.11840836 -0.00409104 11.63916037 -0.00506108 13.15991211 -0.00631714 C16.35108461 -0.00779398 19.54222917 -0.00563999 22.73339844 -0.00097656 C26.83280155 0.00472073 30.93213921 0.00144165 35.03153992 -0.00454903 C38.17297869 -0.008155 41.31440183 -0.00701589 44.45584106 -0.00442123 C45.96778369 -0.00375207 47.47972771 -0.00458003 48.9916687 -0.00690079 C51.10125512 -0.00942792 53.21073412 -0.00558591 55.3203125 0 C56.52308838 0.00079559 57.72586426 0.00159119 58.96508789 0.00241089 C61.66015625 0.12939453 61.66015625 0.12939453 62.66015625 1.12939453 C62.66015625 7.72939453 62.66015625 14.32939453 62.66015625 21.12939453 C39.56015625 21.12939453 16.46015625 21.12939453 -7.33984375 21.12939453 C-7.33984375 0.00485504 -7.33984375 0.00485504 0 0 Z " fill="#EDEDED" transform="translate(228.33984375,134.87060546875)"/>
<path d="M0 0 C4.26182574 3.84885813 7.55771439 9.01439969 8.25390625 14.80078125 C8.45178915 20.68519391 7.49338904 25.00416696 4.015625 29.8203125 C-1.33913719 35.42355554 -5.87704435 38.11444357 -13.734375 38.3203125 C-19.65390843 38.24031881 -23.05643605 37.45664155 -27.4375 33.46875 C-33.22088679 27.3056459 -35.4355058 22.78513502 -35.234375 14.3125 C-34.59428953 7.93164793 -31.37119423 3.30915078 -26.984375 -1.1796875 C-17.71856897 -6.77777864 -8.7168569 -6.30905377 0 0 Z " fill="#A5B0C1" transform="translate(105.984375,61.1796875)"/>
<path d="M0 0 C1.3303125 0.00773437 1.3303125 0.00773437 2.6875 0.015625 C3.574375 0.01046875 4.46125 0.0053125 5.375 0 C7.6875 0.265625 7.6875 0.265625 9.6875 2.265625 C9.88748324 5.18311635 9.96724887 8.00364429 9.953125 10.921875 C9.95503845 11.77994751 9.9569519 12.63802002 9.95892334 13.52209473 C9.96028544 15.33781222 9.95658728 17.15353945 9.94824219 18.96923828 C9.93754291 21.7544535 9.94813653 24.53902368 9.9609375 27.32421875 C9.95961591 29.08593893 9.95705353 30.84765871 9.953125 32.609375 C9.95717346 33.44585571 9.96122192 34.28233643 9.96539307 35.14416504 C9.91741834 41.03570666 9.91741834 41.03570666 7.6875 43.265625 C5.375 43.53125 5.375 43.53125 2.6875 43.515625 C1.3571875 43.52335937 1.3571875 43.52335937 0 43.53125 C-2.3125 43.265625 -2.3125 43.265625 -4.3125 41.265625 C-4.51248324 38.34813365 -4.59224887 35.52760571 -4.578125 32.609375 C-4.58003845 31.75130249 -4.5819519 30.89322998 -4.58392334 30.00915527 C-4.58528544 28.19343778 -4.58158728 26.37771055 -4.57324219 24.56201172 C-4.56254291 21.7767965 -4.57313653 18.99222632 -4.5859375 16.20703125 C-4.58461591 14.44531107 -4.58205353 12.68359129 -4.578125 10.921875 C-4.58217346 10.08539429 -4.58622192 9.24891357 -4.59039307 8.38708496 C-4.52633084 0.51991638 -4.52633084 0.51991638 0 0 Z " fill="#F0F0EE" transform="translate(253.3125,262.734375)"/>
<path d="M0 0 C2.46324069 3.69486103 2.38991688 5.63293092 2 10 C0.9375 11.9375 0.9375 11.9375 -1 13 C-4.4375 13.5 -4.4375 13.5 -8 13 C-10.5 10.875 -10.5 10.875 -12 8 C-12 4.49267067 -11.6345092 2.7565302 -9.375 0.0625 C-5.92482276 -1.48100034 -3.60000284 -0.93333407 0 0 Z " fill="#EBECED" transform="translate(97,72)"/>
<path d="M0 0 C10.49915863 -0.37055854 10.49915863 -0.37055854 12.83203125 1.35546875 C14.49776873 3.7008717 14.42147552 5.19016323 14 8 C12.83203125 9.64453125 12.83203125 9.64453125 11 11 C7.29631297 11.40199208 3.73655831 11.13187853 0 11 C0 7.37 0 3.74 0 0 Z " fill="#EAEAE9" transform="translate(320,295)"/>
<path d="M0 0 C10.49915863 -0.37055854 10.49915863 -0.37055854 12.83203125 1.35546875 C14.49776873 3.7008717 14.42147552 5.19016323 14 8 C12.83203125 9.64453125 12.83203125 9.64453125 11 11 C7.29631297 11.40199208 3.73655831 11.13187853 0 11 C0 7.37 0 3.74 0 0 Z " fill="#EAEAE9" transform="translate(320,263)"/>
</svg>
