<?xml version="1.0" encoding="UTF-8"?>
<svg version="1.1" xmlns="http://www.w3.org/2000/svg" width="24" height="24">
<path d="M0 0 C0.81936035 0.38913574 1.6387207 0.77827148 2.48291016 1.17919922 C18.44311007 8.86793969 32.18780066 18.76806331 45 31 C45.6703125 31.60714844 46.340625 32.21429688 47.03125 32.83984375 C67.91542212 52.43947354 80.01325188 82.42930166 81.31640625 110.734375 C82.15946626 140.30322061 71.12208699 166.69556226 61 194 C44.60301068 238.25998138 32.02057299 281.83173388 30.71533203 329.35742188 C30.0435352 352.26387805 24.66828255 372.37907052 8 389 C-22.06530354 416.57315305 -66.10424355 420.55091646 -105 419 C-198.08766993 413.77978465 -291.91524123 371.04776798 -356 303 C-358.33718396 300.28932865 -360.59664359 297.53565957 -362.82421875 294.734375 C-364.25863415 292.93169855 -365.71930634 291.14956347 -367.20703125 289.390625 C-401.72429966 248.52604804 -417.74223353 196.03725227 -415 143 C-413.73783706 128.18241228 -410.12985075 113.92432128 -405 100 C-404.73848145 99.28295898 -404.47696289 98.56591797 -404.20751953 97.82714844 C-395.96729461 75.63455249 -383.39765468 56.05796292 -367 39 C-366.55720703 38.53142578 -366.11441406 38.06285156 -365.65820312 37.58007812 C-302.13435531 -29.42930318 -195.16740078 -34.87131773 0 0 Z " fill="#EFEFEE" transform="translate(423,61)"/>
<path d="M0 0 C1.08667969 0.2165625 2.17335937 0.433125 3.29296875 0.65625 C31.57333592 7.06799316 64.10784654 24.9816594 80 50 C80 50.99 80 51.98 80 53 C78.62304688 54.3503418 78.62304688 54.3503418 76.71875 55.69921875 C76.04199219 56.18583984 75.36523438 56.67246094 74.66796875 57.17382812 C73.59482422 57.9230957 73.59482422 57.9230957 72.5 58.6875 C71.78457031 59.19861328 71.06914062 59.70972656 70.33203125 60.23632812 C68.56075977 61.49983511 66.78346291 62.75378948 65 64 C61.3464177 62.3052459 59.33134918 60.37898937 56.6875 57.3125 C55.88957031 56.41144531 55.09164062 55.51039063 54.26953125 54.58203125 C52.97064891 53.10430108 51.67453648 51.62410145 50.38671875 50.13671875 C37.18493304 35.84331251 16.57834119 26.66153222 -2 22 C-2.71269043 21.81381104 -3.42538086 21.62762207 -4.15966797 21.43579102 C-11.19454451 19.79626383 -18.13677467 19.66090579 -25.33984375 19.68432617 C-27.36513269 19.68748461 -29.38895303 19.66394893 -31.4140625 19.63867188 C-44.89535932 19.6320634 -54.35699059 21.68879234 -65 30 C-66.83166791 31.29402726 -68.66504331 32.58564053 -70.5 33.875 C-87.63435224 46.48511316 -99.95548497 62.78040555 -109 82 C-108.01 82 -107.02 82 -106 82 C-105.88365454 90.56292068 -105.79505823 99.12550583 -105.74093914 107.68902397 C-105.71495182 111.66634101 -105.67975634 115.64311348 -105.62280273 119.62011719 C-105.5680898 123.46514284 -105.53849795 127.30964793 -105.52561378 131.15503311 C-105.51644364 132.61496286 -105.49853773 134.07486723 -105.47134972 135.5345726 C-105.29875144 145.19389804 -105.91347651 153.49077458 -112.75590515 160.90182495 C-119.07768656 166.89789243 -125.55026749 168.45744886 -133.99609375 168.29296875 C-134.82963882 168.28872391 -135.6631839 168.28447906 -136.52198792 168.28010559 C-139.16083311 168.26343314 -141.79888916 168.22580358 -144.4375 168.1875 C-146.23631703 168.17243833 -148.03514613 168.15875253 -149.83398438 168.14648438 C-154.22319823 168.1161302 -158.61072522 168.05739003 -163 168 C-163 160.74 -163 153.48 -163 146 C-159.04 146 -155.08 146 -151 146 C-151.15855469 145.20851562 -151.31710938 144.41703125 -151.48046875 143.6015625 C-155.5847172 115.14955443 -146.88628971 85.02675869 -130 62 C-131.6672132 58.22929351 -133.33478106 56.9290626 -137 55 C-135.53695953 50.51112584 -133.04508288 47.27272244 -130 43.75 C-129.50798096 43.17789795 -129.01596191 42.6057959 -128.5090332 42.01635742 C-96.6224137 5.55329903 -46.86514607 -9.42012986 0 0 Z " fill="#D1D7DC" transform="translate(248,88)"/>
<path d="M0 0 C1.38553369 2.0585072 2.6687503 4.12105292 3.9375 6.25 C8.53484473 13.66443305 13.84388546 19.84388546 20 26 C20.81339844 26.81339844 21.62679687 27.62679688 22.46484375 28.46484375 C45.07093513 49.89849603 74.83474001 57.97563671 105.22265625 57.28125 C134.1952239 56.14078481 161.50728952 42.4791059 181.578125 21.78515625 C187.41472409 15.07306729 192.51991295 7.67809131 197 0 C201.44526118 1.3482624 205.33237655 3.08917094 209.375 5.375 C210.43460938 5.96023438 211.49421875 6.54546875 212.5859375 7.1484375 C213.38257813 7.75945312 214.17921875 8.37046875 215 9 C215 13.50259718 214.2256485 14.70125154 211.8125 18.375 C211.17957031 19.34308594 210.54664063 20.31117188 209.89453125 21.30859375 C208.35540192 23.49510944 206.79254107 25.46318012 205 27.4375 C202.77271612 29.70692208 202.77271612 29.70692208 203.11834621 31.88095474 C204.29273659 34.7035892 205.9398522 36.30836286 208.10646057 38.46722412 C208.99132141 39.35620895 209.87618225 40.24519379 210.78785706 41.16111755 C211.77583236 42.1384758 212.76395058 43.1156896 213.75219727 44.09277344 C214.78745867 45.12718862 215.82205992 46.16226487 216.85604858 47.19795227 C219.66533689 50.00810213 222.48378605 52.80889946 225.30394864 55.60813046 C228.24948362 58.53492542 231.1865383 61.47020498 234.12449646 64.40460205 C239.68940544 69.96018272 245.26191833 75.50807111 250.83719152 81.05324864 C257.18399141 87.36652906 263.52228585 93.68831912 269.85987389 100.01084471 C282.89712928 113.01673324 295.94504802 126.01187613 309 139 C307.65272739 141.79570164 306.40293767 143.83967803 304.1796875 146.015625 C303.64472656 146.54414063 303.10976563 147.07265625 302.55859375 147.6171875 C302.00300781 148.15601563 301.44742187 148.69484375 300.875 149.25 C300.31167969 149.80429687 299.74835938 150.35859375 299.16796875 150.9296875 C297.78313972 152.29104485 296.39216796 153.64614859 295 155 C291.5000509 153.50294469 289.26447848 151.50067389 286.59765625 148.80451965 C285.72286621 147.92525314 284.84807617 147.04598663 283.94677734 146.14007568 C282.98527774 145.16352482 282.02385452 144.18689876 281.0625 143.21020508 C280.04425144 142.18320494 279.02552174 141.15668165 278.00634766 140.13059998 C275.8145001 137.92227473 273.62565631 135.71102941 271.43896484 133.49759865 C267.98299201 130.00027015 264.5178 126.51217682 261.05078125 123.02580261 C251.19407432 113.11150409 241.34748845 103.18722852 231.515625 93.24829102 C226.08399524 87.75766763 220.64351822 82.27597276 215.19309998 76.80399817 C211.74183151 73.33805766 208.30195338 69.86130694 204.86993408 66.37630999 C202.73622217 64.21493595 200.59218495 62.06404517 198.44500732 59.91605568 C197.44892759 58.91539233 196.45716941 57.91040647 195.47003174 56.90092087 C194.1256929 55.52738292 192.76445794 54.17044178 191.40234375 52.81452942 C190.64429443 52.0492735 189.88624512 51.28401758 189.10522461 50.49557209 C187.13931903 48.76287368 187.13931903 48.76287368 184.87158203 49.15441418 C182.20556436 50.35892817 180.20019369 52.08502128 177.9375 53.9375 C149.90823157 75.73706029 114.89881032 81.98998557 80.23388672 78.74072266 C75.73350845 78.14085822 71.39367826 77.15200101 67 76 C66.00484375 75.79503906 65.0096875 75.59007812 63.984375 75.37890625 C31.13444321 68.30826585 1.95557431 44.79522904 -16 17 C-16.62390625 16.12601562 -17.2478125 15.25203125 -17.890625 14.3515625 C-19 12 -19 12 -18.65625 9.953125 C-16.12164123 6.96419956 -12.96391836 5.49814571 -9.5 3.75 C-8.81035156 3.38648438 -8.12070313 3.02296875 -7.41015625 2.6484375 C-2.30245536 0 -2.30245536 0 0 0 Z " fill="#040404" transform="translate(122,276)"/>
<path d="M0 0 C1.08667969 0.2165625 2.17335937 0.433125 3.29296875 0.65625 C31.57333592 7.06799316 64.10784654 24.9816594 80 50 C80 50.99 80 51.98 80 53 C78.62304688 54.3503418 78.62304688 54.3503418 76.71875 55.69921875 C76.04199219 56.18583984 75.36523438 56.67246094 74.66796875 57.17382812 C73.59482422 57.9230957 73.59482422 57.9230957 72.5 58.6875 C71.78457031 59.19861328 71.06914062 59.70972656 70.33203125 60.23632812 C68.56075977 61.49983511 66.78346291 62.75378948 65 64 C61.3464177 62.3052459 59.33134918 60.37898937 56.6875 57.3125 C55.88957031 56.41144531 55.09164062 55.51039063 54.26953125 54.58203125 C52.97064891 53.10430108 51.67453648 51.62410145 50.38671875 50.13671875 C37.18968215 35.84845432 16.57614154 26.65137015 -2 22 C-2.71921631 21.81526123 -3.43843262 21.63052246 -4.17944336 21.44018555 C-32.67280573 14.88374934 -63.38583484 21.40055415 -88 36.5 C-89.68403252 37.64145669 -91.351712 38.80750868 -93 40 C-94.20269531 40.87011719 -94.20269531 40.87011719 -95.4296875 41.7578125 C-102.33191935 47.02820679 -108.35535843 53.15449866 -114.39770508 59.3659668 C-116.5820265 61.59355529 -118.79393897 63.79393897 -121 66 C-126.28 62.37 -131.56 58.74 -137 55 C-135.1655104 50.41377601 -133.15364849 47.39831723 -130 43.75 C-129.50798096 43.17789795 -129.01596191 42.6057959 -128.5090332 42.01635742 C-96.6224137 5.55329903 -46.86514607 -9.42012986 0 0 Z " fill="#030303" transform="translate(248,88)"/>
<path d="M0 0 C1.43532203 -0.01147094 2.87060306 -0.03184496 4.30566406 -0.06152344 C12.44877925 -0.22991734 19.05197873 -0.30594361 26.04394531 4.29516602 C26.93082031 4.87266602 27.81769531 5.45016602 28.73144531 6.04516602 C34.78993878 11.93991642 37.19560253 18.03941057 37.35644531 26.42016602 C37.41802831 31.18771612 37.11288845 34.97505659 34.79394531 39.23266602 C33.63046017 41.26713725 33.63046017 41.26713725 33.04394531 43.29516602 C33.76583654 45.36609149 34.84523347 47.00353015 35.99316406 48.86938477 C38.61975639 54.93300498 38.13361407 62.79517004 36.19628906 69.01782227 C32.49152082 76.33944899 26.31602654 81.96994251 18.56616211 84.71069336 C13.0834119 85.98120967 7.45370225 85.72228739 1.85644531 85.67016602 C-0.02977539 85.68756836 -0.02977539 85.68756836 -1.95410156 85.70532227 C-3.77071289 85.69952148 -3.77071289 85.69952148 -5.62402344 85.69360352 C-7.26794067 85.68852783 -7.26794067 85.68852783 -8.94506836 85.68334961 C-12.35809872 85.24333353 -14.21126545 84.34225995 -16.95605469 82.29516602 C-19.4173286 78.60325515 -19.22022901 76.74047265 -19.24658203 72.33276367 C-19.25665787 71.27613777 -19.25665787 71.27613777 -19.26693726 70.19816589 C-19.28594178 67.86844842 -19.28984272 65.53901869 -19.29199219 63.20922852 C-19.29841873 61.58881512 -19.30514698 59.96840289 -19.31216431 58.34799194 C-19.32414341 54.95014761 -19.32784452 51.55240498 -19.32666016 48.15454102 C-19.326457 43.80423812 -19.35375237 39.45458874 -19.38820457 35.10444069 C-19.41046251 31.75693782 -19.41449804 28.40959245 -19.4134407 25.06202316 C-19.4157986 23.45846684 -19.42463279 21.85490629 -19.44010544 20.25142288 C-19.45974289 18.0059383 -19.45393753 15.76186564 -19.44189453 13.51635742 C-19.44474457 12.23967194 -19.4475946 10.96298645 -19.45053101 9.64761353 C-18.87141076 5.72129764 -17.72298992 4.08395067 -14.95605469 1.29516602 C-10.61334811 -0.87618728 -4.82259509 0.02681652 0 0 Z " fill="#010101" transform="translate(246.9560546875,170.704833984375)"/>
<path d="M0 0 C0.7734375 -0.020625 1.546875 -0.04125 2.34375 -0.0625 C9.02578252 -0.10734586 14.20637839 1.33888875 19.9375 4.9375 C25.45309082 10.45309082 28.3201268 16.17278595 28.44287109 23.9675293 C28.45893402 24.89917404 28.47499695 25.83081879 28.49154663 26.79069519 C28.53631181 31.04884879 28.57706786 35.30685125 28.60009766 39.56518555 C28.6166339 41.80454925 28.64389283 44.04386068 28.68212891 46.28295898 C28.73716728 49.52615503 28.7588142 52.76811726 28.7734375 56.01171875 C28.79610687 57.00266037 28.81877625 57.99360199 28.84213257 59.01457214 C28.81901936 66.69783708 26.83589861 72.46237785 21.49423218 78.10453796 C15.04723423 84.15828107 8.49437469 85.81843489 -0.125 85.75 C-1.38908691 85.74033203 -1.38908691 85.74033203 -2.67871094 85.73046875 C-11.54046519 85.46912093 -16.489464 82.81227983 -22.625 76.5 C-28.43598124 70.04335417 -29.21179462 61.59929737 -29.18359375 53.28125 C-29.1888356 52.36089966 -29.19407745 51.44054932 -29.19947815 50.49230957 C-29.20586007 48.55949913 -29.20461145 46.62664965 -29.19604492 44.69384766 C-29.18752156 41.75742772 -29.21637155 38.8229479 -29.24804688 35.88671875 C-29.24965903 33.99739641 -29.24908109 32.10807067 -29.24609375 30.21875 C-29.25732773 29.35286255 -29.26856171 28.4869751 -29.28013611 27.59484863 C-29.18013508 18.73463977 -26.00455828 11.50455828 -19.75 5.25 C-13.25515014 0.68605145 -7.67541666 0.05016612 0 0 Z " fill="#030303" transform="translate(184.75,170.75)"/>
<path d="M0 0 C0.83496002 0.00424484 1.66992004 0.00848969 2.53018188 0.01286316 C5.17931285 0.02956542 7.8276641 0.067201 10.4765625 0.10546875 C12.27993688 0.12052655 14.08332326 0.13421304 15.88671875 0.14648438 C20.2922038 0.17688101 24.69601737 0.23561594 29.1015625 0.29296875 C29.1015625 7.22296875 29.1015625 14.15296875 29.1015625 21.29296875 C12.7665625 21.78796875 12.7665625 21.78796875 -3.8984375 22.29296875 C-4.2284375 24.60296875 -4.5584375 26.91296875 -4.8984375 29.29296875 C-2.10566585 32.0857404 -0.23477086 31.52555739 3.6640625 31.60546875 C12.18381971 32.11996791 17.72256694 34.40107363 23.4765625 40.73046875 C29.77445811 48.37265202 29.84133603 55.73756068 29.1015625 65.29296875 C27.96808105 71.35709452 24.68554847 76.2524979 20.1015625 80.29296875 C13.51816428 84.4789445 7.79162021 85.44423022 0.0546875 85.390625 C-0.71651428 85.38921005 -1.48771606 85.3877951 -2.2822876 85.38633728 C-4.73771088 85.38075409 -7.19304192 85.3682047 -9.6484375 85.35546875 C-11.31640493 85.35045158 -12.98437379 85.34588905 -14.65234375 85.34179688 C-18.73443886 85.33164241 -22.8163353 85.31206382 -26.8984375 85.29296875 C-26.8984375 78.36296875 -26.8984375 71.43296875 -26.8984375 64.29296875 C-15.6784375 63.96296875 -4.4584375 63.63296875 7.1015625 63.29296875 C7.1015625 60.65296875 7.1015625 58.01296875 7.1015625 55.29296875 C5.24555663 53.43696288 2.02875782 54.07287526 -0.4609375 53.98046875 C-8.13870647 53.47329905 -12.74111126 51.93631165 -18.5859375 47.04296875 C-25.09782642 39.29910084 -27.46208739 33.34698687 -27.23828125 23.203125 C-26.61041408 15.97904412 -23.79627216 10.71655144 -18.4609375 5.85546875 C-12.53882637 1.0749694 -7.4045644 -0.14327177 0 0 Z " fill="#010101" transform="translate(325.8984375,170.70703125)"/>
<path d="M0 0 C6.93 0 13.86 0 21 0 C21.11340757 8.43263829 21.20494748 16.86467391 21.25906086 25.29787254 C21.28504559 29.21465995 21.32023604 33.13089416 21.37719727 37.04736328 C21.43191985 40.83403507 21.46150398 44.62017813 21.47438622 48.40721512 C21.48355468 49.84481748 21.50145721 51.28239413 21.52865028 52.71976852 C21.70278908 62.31465353 21.03523691 70.54387285 14.24409485 77.90267944 C7.99931916 83.82241299 1.57408959 85.46021171 -6.77734375 85.29296875 C-7.99436729 85.28660149 -7.99436729 85.28660149 -9.23597717 85.28010559 C-11.80350256 85.26343867 -14.37021564 85.22581048 -16.9375 85.1875 C-18.68813963 85.1724376 -20.43879168 85.15875193 -22.18945312 85.14648438 C-26.46019298 85.11613805 -30.72919741 85.05739755 -35 85 C-35 78.07 -35 71.14 -35 64 C-32.62941406 63.93941406 -30.25882812 63.87882812 -27.81640625 63.81640625 C-25.52950709 63.75466102 -23.24265963 63.69125508 -20.95581055 63.62768555 C-19.362107 63.58427854 -17.7683552 63.54260781 -16.17456055 63.50268555 C-13.88836092 63.44512193 -11.60240551 63.38138851 -9.31640625 63.31640625 C-8.2413961 63.29133751 -8.2413961 63.29133751 -7.14466858 63.26576233 C-3.78472618 63.44981346 -3.78472618 63.44981346 -1 62 C-0.87642922 60.06776005 -0.82205542 58.13106201 -0.79467773 56.19506836 C-0.77473251 54.95385727 -0.75478729 53.71264618 -0.73423767 52.43382263 C-0.71725207 51.0691643 -0.70037331 49.70450463 -0.68359375 48.33984375 C-0.66303064 46.95121125 -0.64203434 45.5625851 -0.62062073 44.17396545 C-0.56533353 40.51285941 -0.51595374 36.85169627 -0.46777344 33.19049072 C-0.41760679 29.45702003 -0.36189554 25.72363262 -0.30664062 21.99023438 C-0.19897779 14.66022469 -0.0980632 7.33014555 0 0 Z " fill="#000000" transform="translate(121,171)"/>
<path d="M0 0 C0.2928186 0.82854492 0.2928186 0.82854492 0.59155273 1.67382812 C11.62174115 32.55451799 29.65056259 61.29993314 59.875 76.625 C60.90625 77.07875 61.9375 77.5325 63 78 C59.8364495 79.03609153 58.06296278 78.97292514 54.9453125 77.84765625 C54.17268066 77.57010498 53.40004883 77.29255371 52.60400391 77.0065918 C51.78593262 76.6950415 50.96786133 76.38349121 50.125 76.0625 C49.27728027 75.7425708 48.42956055 75.4226416 47.55615234 75.09301758 C24.23022502 66.01399793 4.11949825 49.34325082 -9 28 C-9.76953125 25.59375 -9.76953125 25.59375 -10 24 C-10.62648438 24.3609375 -11.25296875 24.721875 -11.8984375 25.09375 C-13.12433594 25.78984375 -13.12433594 25.78984375 -14.375 26.5 C-15.18710938 26.9640625 -15.99921875 27.428125 -16.8359375 27.90625 C-19 29 -19 29 -21 29 C-22.32742723 26.15254906 -23.6341183 23.29602773 -24.9375 20.4375 C-25.31068359 19.63763672 -25.68386719 18.83777344 -26.06835938 18.01367188 C-28.21508023 13.27541414 -29.56102502 9.19105332 -30 4 C-29.40050537 3.98541748 -28.80101074 3.97083496 -28.18334961 3.95581055 C-25.43412545 3.88076179 -22.68604111 3.78429248 -19.9375 3.6875 C-18.99455078 3.66494141 -18.05160156 3.64238281 -17.08007812 3.61914062 C-11.12621119 3.39094363 -5.42226188 0 0 0 Z " fill="#D3D9DE" transform="translate(132,252)"/>
<path d="M0 0 C0.98871094 -0.01417969 1.97742188 -0.02835938 2.99609375 -0.04296875 C5.5625 0.1875 5.5625 0.1875 7.5625 2.1875 C7.76248324 5.10499135 7.84224887 7.92551929 7.828125 10.84375 C7.83003845 11.70182251 7.8319519 12.55989502 7.83392334 13.44396973 C7.83528544 15.25968722 7.83158728 17.07541445 7.82324219 18.89111328 C7.81254291 21.6763285 7.82313653 24.46089868 7.8359375 27.24609375 C7.83461591 29.00781393 7.83205353 30.76953371 7.828125 32.53125 C7.83217346 33.36773071 7.83622192 34.20421143 7.84039307 35.06604004 C7.79241834 40.95758166 7.79241834 40.95758166 5.5625 43.1875 C3.25 43.453125 3.25 43.453125 0.5625 43.4375 C-0.7678125 43.44523437 -0.7678125 43.44523437 -2.125 43.453125 C-4.4375 43.1875 -4.4375 43.1875 -6.4375 41.1875 C-6.62526167 38.18614387 -6.69300182 35.27862854 -6.66796875 32.27734375 C-6.66751053 31.39470352 -6.66705231 30.51206329 -6.6665802 29.60267639 C-6.66355687 27.73567359 -6.65566817 25.86867333 -6.64331055 24.00170898 C-6.62505226 21.13321061 -6.62280084 18.26503479 -6.62304688 15.39648438 C-6.61813188 13.58593469 -6.61230364 11.77538721 -6.60546875 9.96484375 C-6.60435593 9.10132797 -6.6032431 8.23781219 -6.60209656 7.34812927 C-6.54341772 0.04254498 -6.54341772 0.04254498 0 0 Z " fill="#F0F0EE" transform="translate(184.4375,191.8125)"/>
<path d="M0 0 C7.15801225 5.82628904 13.52591766 12.4382985 20 19 C18.59155282 22.21524305 16.89655214 24.32183868 14.375 26.75 C13.74335938 27.36359375 13.11171875 27.9771875 12.4609375 28.609375 C11.97882813 29.06828125 11.49671875 29.5271875 11 30 C3.84198775 24.17371096 -2.52591766 17.5617015 -9 11 C-7.59155282 7.78475695 -5.89655214 5.67816132 -3.375 3.25 C-2.74335938 2.63640625 -2.11171875 2.0228125 -1.4609375 1.390625 C-0.73777344 0.70226562 -0.73777344 0.70226562 0 0 Z " fill="#A5B0C1" transform="translate(436,156)"/>
<path d="M0 0 C3.21524305 1.40844718 5.32183868 3.10344786 7.75 5.625 C8.67039062 6.57246094 8.67039062 6.57246094 9.609375 7.5390625 C10.06828125 8.02117187 10.5271875 8.50328125 11 9 C5.17371096 16.15801225 -1.4382985 22.52591766 -8 29 C-11.21524305 27.59155282 -13.32183868 25.89655214 -15.75 23.375 C-16.36359375 22.74335937 -16.9771875 22.11171875 -17.609375 21.4609375 C-18.06828125 20.97882813 -18.5271875 20.49671875 -19 20 C-13.17371096 12.84198775 -6.5617015 6.47408234 0 0 Z " fill="#A5B0C1" transform="translate(443,99)"/>
<path d="M0 0 C2.77282556 1.03674647 4.19719699 2.50813071 6.26416016 4.62207031 C7.3953125 5.76772461 7.3953125 5.76772461 8.54931641 6.93652344 C9.71527344 8.14018555 9.71527344 8.14018555 10.90478516 9.36816406 C12.09394531 10.57762695 12.09394531 10.57762695 13.30712891 11.81152344 C15.26325562 13.80300184 17.21204235 15.80114127 19.15478516 17.80566406 C17.64532004 20.98652925 16.07536691 23.10436312 13.52978516 25.55566406 C12.89814453 26.16925781 12.26650391 26.78285156 11.61572266 27.41503906 C11.13361328 27.87394531 10.65150391 28.33285156 10.15478516 28.80566406 C2.9967729 22.97937502 -3.3711325 16.36736557 -9.84521484 9.80566406 C-8.54076917 6.95451851 -7.13969053 4.75818661 -4.97021484 2.49316406 C-4.23158203 1.69458984 -4.23158203 1.69458984 -3.47802734 0.87988281 C-1.84521484 -0.19433594 -1.84521484 -0.19433594 0 0 Z " fill="#A5B0C1" transform="translate(378.84521484375,99.1943359375)"/>
<path d="M0 0 C10.49915863 -0.37055854 10.49915863 -0.37055854 12.83203125 1.35546875 C14.49776873 3.7008717 14.42147552 5.19016323 14 8 C12.83203125 9.64453125 12.83203125 9.64453125 11 11 C7.29631297 11.40199208 3.73655831 11.13187853 0 11 C0 7.37 0 3.74 0 0 Z " fill="#EAEAE8" transform="translate(249,224)"/>
<path d="M0 0 C10.49915863 -0.37055854 10.49915863 -0.37055854 12.83203125 1.35546875 C14.49776873 3.7008717 14.42147552 5.19016323 14 8 C12.83203125 9.64453125 12.83203125 9.64453125 11 11 C7.29631297 11.40199208 3.73655831 11.13187853 0 11 C0 7.37 0 3.74 0 0 Z " fill="#EAEAE8" transform="translate(249,192)"/>
</svg>
