<svg xmlns="http://www.w3.org/2000/svg" version="1.1" xmlns:xlink="http://www.w3.org/1999/xlink" xmlns:svgjs="http://svgjs.dev/svgjs" width="128" height="128" viewBox="0 0 128 128"><g transform="matrix(0.8046875,0,0,0.8046875,12.221578124999994,26.082089492268956)"><svg viewBox="0 0 96 70" data-background-color="#113826" preserveAspectRatio="xMidYMid meet" height="93" width="128" xmlns="http://www.w3.org/2000/svg" xmlns:xlink="http://www.w3.org/1999/xlink"><g id="tight-bounds" transform="matrix(1,0,0,1,0.25950000000000273,0.4676352593454567)"><svg viewBox="0 0 95.481 69.06472948130909" height="69.06472948130909" width="95.481"><g><svg viewBox="0 0 95.481 69.06472948130909" height="69.06472948130909" width="95.481"><g><svg viewBox="0 0 95.481 69.06472948130909" height="69.06472948130909" width="95.481"><g id="textblocktransform"><svg viewBox="0 0 95.481 69.06472948130909" height="69.06472948130909" width="95.481" id="textblock"><g><svg viewBox="0 0 95.481 69.06472948130909" height="69.06472948130909" width="95.481"><g><svg viewBox="0 0 95.481 69.06472948130909" height="69.06472948130909" width="95.481"><g><svg xmlns="http://www.w3.org/2000/svg" xmlns:xlink="http://www.w3.org/1999/xlink" version="1.1" x="0" y="0" viewBox="1.09 10.195217691607859 65.82 47.60989615169263" enable-background="new 0 0 68 68" xml:space="preserve" height="69.06472948130909" width="95.481" class="icon-icon-0" data-fill-palette-color="accent" id="icon-0"></svg></g></svg></g></svg></g></svg></g></svg></g></svg></g><defs></defs><mask id="6c2a7a10-1f83-41fe-95fd-67312a2b573c"><g id="SvgjsG4092"><svg viewBox="0 0 95.481 69.06472948130909" height="69.06472948130909" width="95.481"><g><svg viewBox="0 0 95.481 69.06472948130909" height="69.06472948130909" width="95.481"><g><svg viewBox="0 0 95.481 69.06472948130909" height="69.06472948130909" width="95.481"><g id="SvgjsG4091"><svg viewBox="0 0 95.481 69.06472948130909" height="69.06472948130909" width="95.481" id="SvgjsSvg4090"><g><svg viewBox="0 0 95.481 69.06472948130909" height="69.06472948130909" width="95.481"><g><svg viewBox="0 0 95.481 69.06472948130909" height="69.06472948130909" width="95.481"><g><svg xmlns="http://www.w3.org/2000/svg" xmlns:xlink="http://www.w3.org/1999/xlink" version="1.1" x="0" y="0" viewBox="1.09 10.195217691607859 65.82 47.60989615169263" enable-background="new 0 0 68 68" xml:space="preserve" height="69.06472948130909" width="95.481" class="icon-icon-0" data-fill-palette-color="accent" id="SvgjsSvg4089"><g fill="white"><g fill="white"><path d="M55.02 25.564V32.024C55.02 32.254 54.93 32.484 54.78 32.664 51.46 36.604 41.87 38.004 34 38.004 26.12 38.004 16.53 36.604 13.2 32.664 13.05 32.484 12.97 32.254 12.97 32.024V25.564L32.49 29.784C32.95 29.904 33.44 29.954 34 29.954 34.54 29.954 35.05 29.904 35.47 29.794z" fill="white"></path></g><path d="M66.91 19.074C66.91 20.194 66.17 21.104 65.08 21.344L61.68 22.084V33.124C63.2 33.704 64.29 35.594 64.3 37.894L64.06 37.654C63.5 37.154 62.79 36.874 62.05 36.874 61.91 36.874 61.77 36.884 61.65 36.904L57.07 37.504C57.2 35.384 58.25 33.664 59.68 33.124V22.514L35.05 27.844C34.71 27.924 34.35 27.954 34 27.954 33.64 27.954 33.29 27.924 32.96 27.844L2.91 21.344C1.82 21.104 1.09 20.194 1.09 19.074 1.09 17.964 1.82 17.054 2.91 16.814L32.96 10.304C33.63 10.164 34.36 10.154 35.05 10.304L65.08 16.814C66.17 17.054 66.91 17.964 66.91 19.074" fill="white"></path><g fill="white"><path d="M36.122 51.816L36.28 51.834V42.254L33.99 42.554 31.71 42.254V51.834L31.874 51.816 29.79 56.389A1 1 0 0 0 31.61 57.22L33.997 51.978 36.384 57.218A1 1 0 0 0 38.204 56.388z" fill="white"></path><path d="M29.71 41.994L6.09 38.884A0.98 0.98 0 0 0 5.29 39.134C3.55 40.694 3 44.944 3.22 48.454 3.33 50.264 3.77 53.464 5.39 54.584 5.56 54.704 5.76 54.764 5.96 54.764 6 54.764 6.04 54.764 6.07 54.754L29.71 52.064z" fill="white"></path><path d="M63.48 40.104C63.24 39.694 62.98 39.384 62.71 39.134A0.98 0.98 0 0 0 61.91 38.884L38.28 41.994V52.064L61.93 54.754C62.17 54.784 62.41 54.724 62.61 54.584 65.48 52.584 65.31 43.314 63.48 40.104" fill="white"></path></g></g></svg></g></svg></g></svg></g></svg></g></svg></g></svg></g><defs><mask></mask></defs></svg><rect width="95.481" height="69.06472948130909" fill="black" stroke="none" visibility="hidden"></rect></g></mask><linearGradient x1="0.054" x2="0.941" y1="0.5" y2="0.5" id="3dc0b3a9-6292-4d66-bf38-a26f49db74f0"><stop stop-color="#9c7945" offset="0"></stop><stop stop-color="#faf3aa" offset="0.498"></stop><stop stop-color="#9c7945" offset="1"></stop></linearGradient><rect width="95.481" height="69.06472948130909" fill="url(#3dc0b3a9-6292-4d66-bf38-a26f49db74f0)" mask="url(#6c2a7a10-1f83-41fe-95fd-67312a2b573c)" data-fill-palette-color="accent"></rect></svg><rect width="95.481" height="69.06472948130909" fill="none" stroke="none" visibility="hidden"></rect></g></svg></g></svg>