<?xml version="1.0" encoding="UTF-8"?>
<svg version="1.1" xmlns="http://www.w3.org/2000/svg" width="58" height="58">
<path d="M0 0 C0 1.32 0 2.64 0 4 C5.28 4 10.56 4 16 4 C16 10.27 16 16.54 16 23 C15.34 23 14.68 23 14 23 C14 17.72 14 12.44 14 7 C9.38 7 4.76 7 0 7 C0 23.83 0 40.66 0 58 C-6.67498512 57.39318317 -12.66484565 56.8265204 -19.125 55.5 C-20.40632813 55.2421875 -21.68765625 54.984375 -23.0078125 54.71875 C-26 54 -26 54 -27 53 C-27.09311889 51.49581261 -27.11746028 49.98728644 -27.11352539 48.48022461 C-27.11344986 47.51930405 -27.11337433 46.55838348 -27.11329651 45.56834412 C-27.10813522 44.523564 -27.10297394 43.47878387 -27.09765625 42.40234375 C-27.0962413 41.33834854 -27.09482635 40.27435333 -27.09336853 39.17811584 C-27.08775064 35.76454917 -27.07519511 32.351047 -27.0625 28.9375 C-27.05748731 26.62955824 -27.052924 24.32161545 -27.04882812 22.01367188 C-27.0377754 16.34242574 -27.02101987 10.67121747 -27 5 C-22.52468001 3.47116887 -18.13989425 2.30863726 -13.5 1.375 C-12.2315625 1.11460938 -10.963125 0.85421875 -9.65625 0.5859375 C-6.35313286 0.0565918 -3.33547798 -0.11324154 0 0 Z M-14.6875 4.4375 C-15.36361328 4.57220703 -16.03972656 4.70691406 -16.73632812 4.84570312 C-20.4742571 5.59621647 -20.4742571 5.59621647 -24 7 C-24 21.52 -24 36.04 -24 51 C-12.42635314 54.20110997 -12.42635314 54.20110997 -2 55 C-2 37.84 -2 20.68 -2 3 C-6.45629879 3 -10.36811617 3.53675555 -14.6875 4.4375 Z " fill="#071E36" transform="translate(29,0)"/>
<path d="M0 0 C3.36591866 1.44253657 5.51047079 3.33264727 8 6 C6.55922954 9.36179774 4.75249979 11.59156268 2 14 C1.34 14 0.68 14 0 14 C0 13.01 0 12.02 0 11 C-3.96 11 -7.92 11 -12 11 C-12 8.36 -12 5.72 -12 3 C-8.04 3 -4.08 3 0 3 C0 2.01 0 1.02 0 0 Z " fill="#081E36" transform="translate(48,22)"/>
<path d="M0 0 C0.66 0 1.32 0 2 0 C2 5.94 2 11.88 2 18 C-1.3 18 -4.6 18 -8 18 C-8 17.34 -8 16.68 -8 16 C-5.36 16 -2.72 16 0 16 C0 10.72 0 5.44 0 0 Z " fill="#071E36" transform="translate(43,35)"/>
<path d="M0 0 C0.66 0 1.32 0 2 0 C2 4.62 2 9.24 2 14 C1.34 14 0.68 14 0 14 C0 9.38 0 4.76 0 0 Z " fill="#061C33" transform="translate(19,22)"/>
<path d="M0 0 C0.99 0 1.98 0 3 0 C3 0.99 3 1.98 3 3 C2.01 2.67 1.02 2.34 0 2 C0 1.34 0 0.68 0 0 Z " fill="#061F36" transform="translate(31,51)"/>
</svg>
