<?xml version="1.0" encoding="UTF-8"?>
<svg version="1.1" xmlns="http://www.w3.org/2000/svg" width="577" height="433">
<path d="M0 0 C0 0.66 0 1.32 0 2 C1.65 2.66 3.3 3.32 5 4 C5 4.66 5 5.32 5 6 C5.5775 6.2475 6.155 6.495 6.75 6.75 C9.32939979 8.18299988 11.06121592 9.78424676 13 12 C13 12.66 13 13.32 13 14 C13.66 14 14.32 14 15 14 C15 14.66 15 15.32 15 16 C15.99 16.33 16.98 16.66 18 17 C19.59325022 19.20489123 20.99977299 21.35180614 22.375 23.6875 C22.77203125 24.35797363 23.1690625 25.02844727 23.578125 25.71923828 C28.77616754 34.77122168 32.7080885 44.45226435 33 55 C33.05027344 55.73992187 33.10054687 56.47984375 33.15234375 57.2421875 C33.78867942 72.76877792 28.80130662 87.60620684 18.6875 99.375 C16.69921875 101.5234375 16.69921875 101.5234375 15 103 C14.34 103 13.68 103 13 103 C13 103.66 13 104.32 13 105 C2.58855461 113.47103573 -10.65033465 117.44960013 -24 117 C-29.43570625 116.01899976 -34.2108488 114.11393559 -38 110 C-41.39485613 104.3493513 -42.6658822 99.54784161 -42 93 C-41 90.8125 -41 90.8125 -40 89 C-39.83249586 86.33290931 -39.83249586 86.33290931 -40 84 C-41.65 83.34 -43.3 82.68 -45 82 C-45 101.8 -45 121.6 -45 142 C-46.98 142.99 -46.98 142.99 -49 144 C-50.35144654 141.29710692 -50.11975165 139.19930194 -50.11352539 136.17333984 C-50.11341209 134.34166763 -50.11341209 134.34166763 -50.11329651 132.47299194 C-50.10818952 131.13564005 -50.10297352 129.79828857 -50.09765625 128.4609375 C-50.0957914 127.09616141 -50.09436781 125.73138466 -50.09336853 124.36660767 C-50.08954863 120.77284907 -50.07972283 117.17913083 -50.06866455 113.58538818 C-50.05843911 109.91891018 -50.05386848 106.25242565 -50.04882812 102.5859375 C-50.0381001 95.39060659 -50.02102999 88.19530895 -50 81 C-51.98 82.65 -53.96 84.3 -56 86 C-55.67644531 86.70253906 -55.35289062 87.40507812 -55.01953125 88.12890625 C-52.93506733 93.99894831 -53.16708821 100.58893954 -55.1875 106.4375 C-58.67297238 111.36523681 -62.21952793 115.0387684 -68 117 C-82.29457067 118.66736102 -95.63449272 114.61578778 -107 106 C-108.07507813 105.21496094 -108.07507813 105.21496094 -109.171875 104.4140625 C-120.9194152 95.07977668 -127.17708358 80.62779275 -129 66 C-130.63325833 48.92502659 -124.83365429 31.41013679 -114.39453125 17.92626953 C-103.77845219 5.19365526 -91.22815435 -4.78358718 -75.4375 -10.1875 C-74.70853516 -10.44724609 -73.97957031 -10.70699219 -73.22851562 -10.97460938 C-48.78246765 -19.49001943 -21.14283015 -14.0952201 0 0 Z M-45 -11 C-46.59231101 -7.81537798 -46.12929857 -4.37489467 -46.11352539 -0.87841797 C-46.11367142 -0.03931885 -46.11381744 0.79978027 -46.1139679 1.66430664 C-46.11326968 4.44550131 -46.10548155 7.22662949 -46.09765625 10.0078125 C-46.09579175 11.93309492 -46.094368 13.85837782 -46.09336853 15.78366089 C-46.08954591 20.8570079 -46.07971779 25.93032639 -46.06866455 31.00366211 C-46.05844495 36.17821873 -46.05386973 41.35277995 -46.04882812 46.52734375 C-46.03809531 56.68490838 -46.02102193 66.84245182 -46 77 C-45.44570312 77.25394531 -44.89140625 77.50789063 -44.3203125 77.76953125 C-43.23363281 78.28580078 -43.23363281 78.28580078 -42.125 78.8125 C-41.40570313 79.14894531 -40.68640625 79.48539062 -39.9453125 79.83203125 C-38 81 -38 81 -36 84 C-35.69942239 87.3814981 -35.88133822 89.67891517 -37.0625 92.875 C-38.24975877 96.83252923 -38.29035536 100.10642772 -37 104 C-34.14194713 108.62172474 -31.22923466 111.35071971 -26 113 C-16.18566807 114.19384448 -5.48567578 112.09140547 3 107 C3.69609375 106.59007812 4.3921875 106.18015625 5.109375 105.7578125 C10.77074846 102.24320146 15.01199893 98.33011681 19 93 C19.53625 92.28328125 20.0725 91.5665625 20.625 90.828125 C29.05164071 78.27243034 30.92774843 62.07250502 28.375 47.41015625 C24.37537868 31.53665915 15.06266634 15.08473135 1 6 C0.34 6 -0.32 6 -1 6 C-1 5.34 -1 4.68 -1 4 C-3.46632562 2.03658435 -6.26495712 0.55776583 -9 -1 C-9.73605469 -1.42796875 -10.47210938 -1.8559375 -11.23046875 -2.296875 C-21.62304308 -7.93706609 -33.23582134 -10.51084496 -45 -11 Z M-68 -8 C-68.93070313 -7.77054688 -69.86140625 -7.54109375 -70.8203125 -7.3046875 C-76.75671492 -5.68566866 -81.76147807 -3.19606573 -87 0 C-87.71414062 0.41507813 -88.42828125 0.83015625 -89.1640625 1.2578125 C-93.36001626 3.75652654 -96.61970114 6.43190676 -100 10 C-100.763125 10.556875 -101.52625 11.11375 -102.3125 11.6875 C-102.869375 12.120625 -103.42625 12.55375 -104 13 C-104 13.66 -104 14.32 -104 15 C-104.66 15 -105.32 15 -106 15 C-112.29002652 21.40336033 -116.3362514 28.89395622 -120 37 C-120.33 37.70640625 -120.66 38.4128125 -121 39.140625 C-123.89092083 45.53400761 -124.18209893 51.3474268 -124.1875 58.25 C-124.19974609 59.05824219 -124.21199219 59.86648437 -124.22460938 60.69921875 C-124.25982523 75.372491 -118.55911358 87.94512584 -109 99 C-103.92908234 103.77836472 -98.35946156 107.21421817 -92 110 C-91.175 110.391875 -90.35 110.78375 -89.5 111.1875 C-82.46411746 113.47416183 -73.12348065 114.5016259 -66.125 111.6875 C-61.8679348 109.38868479 -59.8688038 107.43840903 -58 103 C-57.72282975 100.44352617 -57.72282975 100.44352617 -57.8125 97.8125 C-57.81894531 96.93207031 -57.82539063 96.05164063 -57.83203125 95.14453125 C-57.76489536 93.01852688 -57.76489536 93.01852688 -59 92 C-59.14257189 88.66381769 -59.04228157 85.34024394 -59 82 C-56.03 80.35 -53.06 78.7 -50 77 C-49.67 48.29 -49.34 19.58 -49 -10 C-55.8599983 -11.37199966 -61.29225612 -9.65858875 -68 -8 Z " fill="#5F6741" transform="translate(200,152)"/>
<path d="M0 0 C22.97561025 -0.65093807 41.46181603 0.97454402 61 14 C61 14.66 61 15.32 61 16 C63.475 16.99 63.475 16.99 66 18 C66 18.66 66 19.32 66 20 C66.5775 20.2475 67.155 20.495 67.75 20.75 C70.32939979 22.18299988 72.06121592 23.78424676 74 26 C74 26.66 74 27.32 74 28 C74.66 28 75.32 28 76 28 C76 28.66 76 29.32 76 30 C77.485 30.495 77.485 30.495 79 31 C80.59325022 33.20489123 81.99977299 35.35180614 83.375 37.6875 C83.77203125 38.35797363 84.1690625 39.02844727 84.578125 39.71923828 C89.77616754 48.77122168 93.7080885 58.45226435 94 69 C94.05027344 69.73992187 94.10054688 70.47984375 94.15234375 71.2421875 C94.78867942 86.76877792 89.80130662 101.60620684 79.6875 113.375 C77.69921875 115.5234375 77.69921875 115.5234375 76 117 C75.34 117 74.68 117 74 117 C74 117.66 74 118.32 74 119 C63.45056141 127.58331075 50.46378092 131.18145257 37 131 C34.26006877 130.66094497 32.54587535 130.15721607 30 129 C29.67 128.01 29.34 127.02 29 126 C30.08796875 126.03480469 31.1759375 126.06960938 32.296875 126.10546875 C43.50556283 126.35489179 54.06891434 125.8683688 64 120 C64.62261719 119.66355469 65.24523437 119.32710938 65.88671875 118.98046875 C76.26222643 113.07137009 83.49657474 102.76984633 86.83911133 91.40380859 C91.66802417 73.12213857 88.87941944 56.08860881 79.41796875 39.69921875 C74.50878048 31.80744346 67.9877041 24.73129091 60 20 C60 19.34 60 18.68 60 18 C59.071875 17.731875 58.14375 17.46375 57.1875 17.1875 C54 16 54 16 52.67578125 14.58203125 C44.00693686 6.39815718 24.64003134 4.6369279 14 3 C14 32.37 14 61.74 14 92 C13.34 92 12.68 92 12 92 C11.67 62.96 11.34 33.92 11 4 C7.04 3.67 3.08 3.34 -1 3 C-0.67 2.01 -0.34 1.02 0 0 Z " fill="#8C956B" transform="translate(139,138)"/>
<path d="M0 0 C3.47528053 -0.55631961 6.54357537 -0.74733505 10 0 C12.73713016 2.58174722 14.24771699 5.70128957 16 9 C17.00466746 10.51087524 18.02535233 12.0112336 19.0625 13.5 C20.94301907 16.31352725 22.65703627 19.14028902 24.25 22.125 C27.99707085 29.0540097 32.58661103 35.4853692 37 42 C37.66 42.99 38.32 43.98 39 45 C39.33 40.71 39.66 36.42 40 32 C40.99 32 41.98 32 43 32 C45 34 45 34 45.22705078 36.52197266 C45.21657715 37.5588623 45.20610352 38.59575195 45.1953125 39.6640625 C45.18886719 40.78554688 45.18242187 41.90703125 45.17578125 43.0625 C45.15902344 44.238125 45.14226562 45.41375 45.125 46.625 C45.11597656 47.80835938 45.10695313 48.99171875 45.09765625 50.2109375 C45.07402812 53.14082523 45.04108514 56.0703134 45 59 C41.859375 59.52734375 41.859375 59.52734375 38 59 C35.5139081 56.54335285 33.95026738 53.59573976 32.25 50.5625 C31.21217272 48.81567179 30.17308274 47.06959324 29.1328125 45.32421875 C28.61364258 44.43524902 28.09447266 43.5462793 27.55957031 42.63037109 C25.1928273 38.63862263 22.6650497 34.75788696 20.125 30.875 C19.48353027 29.88415405 19.48353027 29.88415405 18.82910156 28.87329102 C15.59839846 23.88500021 12.3054805 18.93897798 9 14 C8.95054429 19.76577504 8.9142539 25.53142646 8.89013672 31.29736328 C8.88008217 33.25864818 8.86643667 35.21991811 8.84912109 37.18115234 C8.82484887 40.00101418 8.81351141 42.82067772 8.8046875 45.640625 C8.79436493 46.51680481 8.78404236 47.39298462 8.77340698 48.29571533 C8.77318039 49.52653839 8.77318039 49.52653839 8.77294922 50.78222656 C8.768508 51.50170471 8.76406677 52.22118286 8.75949097 52.96246338 C9.03800177 55.32194212 9.83410654 56.94641346 11 59 C7.98675805 60.50662097 5.31713623 60.17770373 2 60 C1.34 59.34 0.68 58.68 0 58 C0.66 57.34 1.32 56.68 2 56 C2.30616217 53.72419306 2.30616217 53.72419306 2.25878906 51.06298828 C2.26509338 50.03497101 2.27139771 49.00695374 2.27789307 47.94778442 C2.2738446 46.83321869 2.26979614 45.71865295 2.265625 44.5703125 C2.26753845 43.42843475 2.2694519 42.28655701 2.27142334 41.1100769 C2.27278643 38.69073263 2.26908139 36.27138107 2.26074219 33.85205078 C2.25006425 30.14729344 2.26062344 26.44302322 2.2734375 22.73828125 C2.27211554 20.39062393 2.2695524 18.04296691 2.265625 15.6953125 C2.26967346 14.58479523 2.27372192 13.47427795 2.27789307 12.33010864 C2.27158875 11.29578705 2.26528442 10.26146545 2.25878906 9.19580078 C2.25719788 8.28694122 2.25560669 7.37808167 2.25396729 6.44168091 C1.98567277 3.86225582 1.30434644 2.22104653 0 0 Z " fill="#C6CB90" transform="translate(246,219)"/>
<path d="M0 0 C0 6.93 0 13.86 0 21 C1.794375 20.5875 3.58875 20.175 5.4375 19.75 C11.69646556 18.70807067 15.77774856 19.37097781 21 23 C25.20787786 27.3130748 26.12891012 30.63598645 26.09765625 36.54296875 C26.09443359 37.61611328 26.09121094 38.68925781 26.08789062 39.79492188 C26.07532227 41.47424805 26.07532227 41.47424805 26.0625 43.1875 C26.05798828 44.31865234 26.05347656 45.44980469 26.04882812 46.61523438 C26.03703498 49.41020927 26.0205765 52.2050782 26 55 C26.66 55 27.32 55 28 55 C28.495 56.98 28.495 56.98 29 59 C26.27157939 60.36421031 24.39046682 59.87807211 21.375 59.5625 C20.37210937 59.46066406 19.36921875 59.35882813 18.3359375 59.25390625 C17.56507813 59.17011719 16.79421875 59.08632812 16 59 C16.57584432 56.61435923 17.22227595 54.33317216 18 52 C18.12320587 49.23789626 18.18513929 46.51203541 18.1875 43.75 C18.20586914 42.64205078 18.20586914 42.64205078 18.22460938 41.51171875 C18.23921202 35.9919195 18.01772514 30.39137794 14.3125 26 C10.88572371 24.51815079 8.57052921 25.1073677 5 26 C2.72683257 27.0989509 2.72683257 27.0989509 1 29 C0.43177915 31.7343728 0.43177915 31.7343728 0.57421875 34.83984375 C0.58259766 35.98517578 0.59097656 37.13050781 0.59960938 38.31054688 C0.62861328 39.50744141 0.65761719 40.70433594 0.6875 41.9375 C0.70200195 43.72704102 0.70200195 43.72704102 0.71679688 45.55273438 C0.77770374 50.26374831 0.85298494 54.41193977 2 59 C-2.29 59 -6.58 59 -11 59 C-10.34 57.68 -9.68 56.36 -9 55 C-8.67568723 52.53814031 -8.67568723 52.53814031 -8.68115234 49.86425781 C-8.66128265 48.84350159 -8.64141296 47.82274536 -8.62094116 46.77105713 C-8.60938995 45.67613953 -8.59783875 44.58122192 -8.5859375 43.453125 C-8.56657135 42.3267865 -8.5472052 41.200448 -8.5272522 40.03997803 C-8.46748479 36.44339566 -8.42108181 32.84678124 -8.375 29.25 C-8.33681766 26.81118398 -8.29776578 24.3723814 -8.2578125 21.93359375 C-8.16178551 15.95584856 -8.07672952 9.97802234 -8 4 C-8.99 4 -9.98 4 -11 4 C-11 3.34 -11 2.68 -11 2 C-9.73392393 1.46770674 -8.46189588 0.94955456 -7.1875 0.4375 C-6.47980469 0.14746094 -5.77210938 -0.14257812 -5.04296875 -0.44140625 C-3 -1 -3 -1 0 0 Z " fill="#80895D" transform="translate(338,155)"/>
<path d="M0 0 C-0.33 3.3 -0.66 6.6 -1 10 C-1.66 10 -2.32 10 -3 10 C-3.12375 9.360625 -3.2475 8.72125 -3.375 8.0625 C-3.58125 7.381875 -3.7875 6.70125 -4 6 C-4.66 5.67 -5.32 5.34 -6 5 C-6 4.34 -6 3.68 -6 3 C-8.0622048 2.945652 -10.12482816 2.90705039 -12.1875 2.875 C-13.33605469 2.85179687 -14.48460937 2.82859375 -15.66796875 2.8046875 C-18.91740372 2.99515848 -21.08660521 3.60639873 -24 5 C-24.22331199 6.58129029 -24.42804644 8.16521089 -24.625 9.75 C-24.74101562 10.63171875 -24.85703125 11.5134375 -24.9765625 12.421875 C-25.00436111 15.47972156 -24.94032296 16.61532827 -23 19 C-20.37051938 20.41293668 -17.61355925 21.41699574 -14.8125 22.4375 C-7.73560892 25.04606783 -0.9861778 27.54020641 2.9375 34.375 C4.92272983 41.14813706 4.29527068 45.76252336 1 52 C-2.77190178 56.6520122 -6.79148108 57.94453875 -12.5625 58.8125 C-18.88838086 59.35390422 -26.63837646 58.54451249 -31.83203125 54.61328125 C-33.79001285 51.90877824 -33.23364634 49.21263716 -33 46 C-32.67 45.34 -32.34 44.68 -32 44 C-31.34 44 -30.68 44 -30 44 C-29.54625 44.94875 -29.0925 45.8975 -28.625 46.875 C-26.71648796 50.67709875 -26.71648796 50.67709875 -23.15234375 52.609375 C-18.31371802 53.48752849 -13.70838295 53.70563643 -9.125 51.8125 C-6.59174778 49.65178487 -5.2668354 48.09670876 -4 45 C-4.06428414 41.33580388 -4.25894757 38.97395462 -6.50390625 36.0234375 C-10.57718842 32.72146541 -15.40997458 31.13852531 -20.26953125 29.26367188 C-25.8824574 26.94285299 -29.70790853 24.18649311 -33 19 C-34.2922727 14.74310169 -34.19359424 12.62380365 -32.875 8.375 C-25.80422572 -4.3523937 -12.62340536 -3.96028404 0 0 Z " fill="#CFCB8F" transform="translate(279,156)"/>
<path d="M0 0 C0 0.33 0 0.66 0 1 C2.31 1.33 4.62 1.66 7 2 C7 2.33 7 2.66 7 3 C5.65808594 3.27263672 5.65808594 3.27263672 4.2890625 3.55078125 C-5.82398608 5.65317408 -15.07549979 7.57991935 -24.01953125 12.8671875 C-26 14 -26 14 -29 15.1875 C-31.18437076 15.81846156 -31.18437076 15.81846156 -32 18 C-33.07669899 18.98909356 -34.18557389 19.94353645 -35.3125 20.875 C-37.43260697 22.64754845 -39.37999285 24.39026293 -41.3125 26.375 C-43 28 -43 28 -45 28 C-45.33 28.99 -45.66 29.98 -46 31 C-46.66 31 -47.32 31 -48 31 C-48.226875 31.680625 -48.45375 32.36125 -48.6875 33.0625 C-50 36 -50 36 -52.25 38.9375 C-59.3740069 48.54218787 -62.17832248 59.52113079 -62.1875 71.25 C-62.19974609 72.05824219 -62.21199219 72.86648437 -62.22460938 73.69921875 C-62.25845239 87.80047347 -56.95903029 100.15150598 -48 111 C-46.515 111.99 -46.515 111.99 -45 113 C-45 113.66 -45 114.32 -45 115 C-43.9171875 115.37125 -43.9171875 115.37125 -42.8125 115.75 C-39.75286734 117.10983674 -37.5326262 118.82917754 -35 121 C-36.485 121.495 -36.485 121.495 -38 122 C-35.69 122.99 -33.38 123.98 -31 125 C-32.671875 125.6875 -32.671875 125.6875 -35 126 C-48.58080118 119.58918702 -59.02147304 108.37348161 -64.375 94.375 C-70.24886069 76.20761672 -68.78748942 58.40402506 -60.125 41.375 C-50.40567968 23.40967341 -33.649547 9.44433104 -14.4375 2.75 C-13.70853516 2.481875 -12.97957031 2.21375 -12.22851562 1.9375 C-8.00718816 0.44806673 -4.54191836 -0.31570997 0 0 Z " fill="#48502E" transform="translate(139,139)"/>
<path d="M0 0 C3.7270483 2.32940519 4.63496929 3.70407282 6 7.875 C7.36501507 15.09201036 7.02398716 22.44318955 6.83984375 29.75 C6.65535969 32.97701852 6.65535969 32.97701852 9 34.875 C8.625 37 8.625 37 8 38.875 C5.36 38.875 2.72 38.875 0 38.875 C-0.33 37.885 -0.66 36.895 -1 35.875 C-1.56847656 36.0915625 -2.13695312 36.308125 -2.72265625 36.53125 C-8.64532487 38.66697024 -13.47134708 39.67696657 -19.75 38.25 C-22.97703457 36.27792332 -23.79243369 34.43061192 -25 30.875 C-25 26.58665079 -24.54487051 24.56410093 -21.875 21.1875 C-15.64731225 16.1782729 -9.64809138 13.90628383 -2 11.875 C-3.76118019 7.71794376 -3.76118019 7.71794376 -6.75 4.4375 C-10.85133974 3.41216506 -14.61575056 4.27160922 -18.4375 5.9375 C-18.953125 6.246875 -19.46875 6.55625 -20 6.875 C-20 7.865 -20 8.855 -20 9.875 C-20.99 9.875 -21.98 9.875 -23 9.875 C-23.3125 6.5625 -23.3125 6.5625 -23 2.875 C-16.78339617 -2.16548959 -7.42412966 -2.69679923 0 0 Z M-10.125 20.25 C-11.42824219 20.91128906 -11.42824219 20.91128906 -12.7578125 21.5859375 C-15.10387738 22.80515324 -15.10387738 22.80515324 -17 24.875 C-17.58345476 27.83246492 -17.58345476 27.83246492 -17 30.875 C-15.00155751 33.00853917 -15.00155751 33.00853917 -12 33.875 C-8.26906622 33.65252165 -8.26906622 33.65252165 -5 32.875 C-5 32.215 -5 31.555 -5 30.875 C-4.34 30.875 -3.68 30.875 -3 30.875 C-0.79086 27.56129 -0.77518447 26.5303979 -0.875 22.6875 C-0.89304687 21.78644531 -0.91109375 20.88539063 -0.9296875 19.95703125 C-0.95289063 19.26996094 -0.97609375 18.58289063 -1 17.875 C-5.103413 17.875 -6.58365983 18.42118851 -10.125 20.25 Z " fill="#6B6339" transform="translate(464,176.125)"/>
<path d="M0 0 C3.968493 2.32579713 6.09501037 5.09406805 7.5625 9.4375 C8.17253348 12.43441051 8.5953608 15.37487352 8.5625 18.4375 C7.5625 19.4375 7.5625 19.4375 4.78686523 19.55102539 C3.57716064 19.54578857 2.36745605 19.54055176 1.12109375 19.53515625 C-0.18408203 19.53193359 -1.48925781 19.52871094 -2.83398438 19.52539062 C-4.2226569 19.51703401 -5.61132877 19.50856905 -7 19.5 C-8.39257656 19.49498666 -9.78515481 19.49042347 -11.17773438 19.48632812 C-14.5976987 19.47449434 -18.01757844 19.4580088 -21.4375 19.4375 C-20.81341126 20.89790146 -20.18336654 22.35575876 -19.55078125 23.8125 C-19.20055908 24.62460937 -18.85033691 25.43671875 -18.48950195 26.2734375 C-17.17772953 28.97187118 -16.1812419 30.18321799 -13.4375 31.4375 C-7.65397054 32.911733 -3.05346873 31.97838938 2.5625 30.4375 C2.5625 29.7775 2.5625 29.1175 2.5625 28.4375 C3.2225 28.4375 3.8825 28.4375 4.5625 28.4375 C5.0575 26.9525 5.0575 26.9525 5.5625 25.4375 C6.2225 25.4375 6.8825 25.4375 7.5625 25.4375 C7.5625 27.7475 7.5625 30.0575 7.5625 32.4375 C-0.51247505 37.25142743 -6.75145697 38.49760972 -16.125 36.75 C-22.18817718 34.34760904 -26.14461881 30.73732763 -28.80078125 24.80859375 C-30.32026165 19.1501606 -29.88374063 13.20172139 -27.16015625 7.99609375 C-20.54891911 -1.13851635 -10.79112997 -4.74647446 0 0 Z M-19.4375 6.4375 C-21.51757422 9.4630625 -21.4375 10.58225109 -21.4375 14.4375 C-13.8475 14.4375 -6.2575 14.4375 1.5625 14.4375 C-0.13225978 7.68467491 -0.13225978 7.68467491 -4.4375 3.4375 C-10.12011274 0.59619363 -14.88566766 2.62666362 -19.4375 6.4375 Z " fill="#B7BD88" transform="translate(329.4375,241.5625)"/>
<path d="M0 0 C1.06345033 4.26204513 1.03947951 8.33122383 0.9375 12.6875 C0.86502177 18.90215262 0.93411613 25.05739579 3 31 C5.44988842 33.44988842 6.56604793 33.7658669 10 34 C13.35568925 32.81563909 15.38045531 31.92931703 17.375 28.9375 C18.97768142 21.40489732 18.44888473 12.53146685 17 5 C16.34 4.67 15.68 4.34 15 4 C15 3.34 15 2.68 15 2 C18.87684087 0.80712589 21.91621923 0 26 0 C26.029729 1.56681519 26.029729 1.56681519 26.06005859 3.1652832 C26.13612114 7.0400405 26.22483728 10.91442257 26.31738281 14.78881836 C26.35566993 16.46582634 26.39052331 18.14291638 26.421875 19.82006836 C26.46753179 22.23060432 26.5255241 24.64057557 26.5859375 27.05078125 C26.59748871 27.80087967 26.60903992 28.55097809 26.62094116 29.32380676 C26.72695459 33.06127713 26.87619082 34.81428623 29 38 C25.92186148 38.91204104 23.20874376 39.24682644 20 39 C19.01 38.34 18.02 37.68 17 37 C16.01 37.66 15.02 38.32 14 39 C8.10228851 40.53340499 3.32118455 39.86129459 -2 37 C-6.13554843 32.14073059 -7.06382638 28.00312326 -7.31640625 21.796875 C-7.35830078 20.8171875 -7.40019531 19.8375 -7.44335938 18.828125 C-7.48267578 17.81234375 -7.52199219 16.7965625 -7.5625 15.75 C-7.62727539 14.203125 -7.62727539 14.203125 -7.69335938 12.625 C-7.79925682 10.0834613 -7.90133443 7.54182804 -8 5 C-8.66 4.67 -9.32 4.34 -10 4 C-10 3.34 -10 2.68 -10 2 C-6.49223216 0.39644899 -3.85645121 -0.22036864 0 0 Z " fill="#69714B" transform="translate(395,240)"/>
<path d="M0 0 C5.51843324 5.12425944 7.93003059 9.26712221 8.25 16.9375 C8.00570149 22.96120337 6.67615126 26.96802333 2.625 31.4375 C-3.37652738 36.88074577 -8.58108935 37.0219747 -16.3671875 36.83984375 C-20.79999899 36.55137223 -23.63502769 35.34506234 -26.890625 32.26953125 C-31.10802719 27.06436907 -33.04399532 22.36600921 -32.6953125 15.6015625 C-31.7667129 9.32785299 -28.62384422 4.89360492 -24.375 0.4375 C-17.54593481 -4.18864093 -7.17561499 -3.32204398 0 0 Z M-20.375 4.4375 C-23.88309652 8.60929046 -25.28255433 11.98320537 -25.375 17.4375 C-24.24185032 23.26369438 -22.37932018 27.95623379 -17.375 31.4375 C-13.07752121 32.68767565 -9.66657033 32.9709747 -5.5 31.25 C-1.8821414 28.16417943 0.33808285 25.28460098 0.828125 20.421875 C0.96476713 13.90860031 0.02421875 8.97000868 -4.625 4.0625 C-10.34516871 0.68240031 -14.90298285 0.66788818 -20.375 4.4375 Z " fill="#8B8C5E" transform="translate(405.375,177.5625)"/>
<path d="M0 0 C1.64162109 -0.02513672 1.64162109 -0.02513672 3.31640625 -0.05078125 C6.80336841 0.35508543 8.6957581 1.13731731 11.4375 3.3125 C11.75 6.5 11.75 6.5 11.4375 9.3125 C8.4375 9.3125 8.4375 9.3125 5.8125 7.25 C1.33582443 4.68005662 -1.65561684 5.309315 -6.5625 6.3125 C-7.31207157 9.78397842 -7.31207157 9.78397842 -7.5625 13.3125 C-6.86125 13.48265625 -6.16 13.6528125 -5.4375 13.828125 C1.82966905 15.68441275 8.35397823 17.52980962 14 22.625 C15.98702711 26.33987678 15.58255971 28.304791 14.4375 32.3125 C12.18776097 35.80347435 10.28936809 37.8112591 6.4375 39.3125 C-0.90783322 40.1718678 -8.06593419 40.44734521 -14.20703125 35.890625 C-16.46263691 33.26450198 -16.5625 30.6646396 -16.5625 27.3125 C-12.5625 27.3125 -12.5625 27.3125 -9.9375 29.75 C-9.15375 30.595625 -8.37 31.44125 -7.5625 32.3125 C-5.03774538 33.57487731 -3.25049534 33.41106404 -0.4375 33.375 C0.47257812 33.36597656 1.38265625 33.35695313 2.3203125 33.34765625 C3.01898438 33.33605469 3.71765625 33.32445312 4.4375 33.3125 C5.63588209 30.98395537 5.63588209 30.98395537 6.4375 28.3125 C4.01318327 24.6760249 2.91365363 24.63690208 -1.1875 23.5 C-6.77908969 21.7236105 -11.61492388 19.79497803 -15.5625 15.3125 C-17.12922018 10.9256835 -16.98310486 9.2041823 -15 5 C-10.82760977 0.39967231 -6.00508287 0.02126948 0 0 Z " fill="#817A4F" transform="translate(445.5625,239.6875)"/>
<path d="M0 0 C2.19050021 0.09017996 4.378466 0.24666208 6.5625 0.4375 C7.76003906 0.53933594 8.95757812 0.64117187 10.19140625 0.74609375 C11.11824219 0.82988281 12.04507812 0.91367188 13 1 C13.28617187 1.93070313 13.57234375 2.86140625 13.8671875 3.8203125 C15.07497816 7.21045595 16.63486905 9.31951826 19 12 C20.01194706 10.92781799 21.00918057 9.84173622 22 8.75 C22.556875 8.14671875 23.11375 7.5434375 23.6875 6.921875 C25.37597443 4.837347 25.37597443 4.837347 25 1 C31.75 -0.125 31.75 -0.125 34 1 C33.67 1.99 33.34 2.98 33 4 C32.34 4 31.68 4 31 4 C31 4.66 31 5.32 31 6 C30.34 6 29.68 6 29 6 C28.7525 6.721875 28.505 7.44375 28.25 8.1875 C26.89016326 11.24713266 25.17082246 13.4673738 23 16 C24.43227625 20.13852452 26.47942543 23.21222014 29.125 26.6875 C33 31.78291815 33 31.78291815 33 34 C34.65 34.66 36.3 35.32 38 36 C38 36.99 38 37.98 38 39 C31.07 38.505 31.07 38.505 24 38 C23.67 36.02 23.34 34.04 23 32 C21.65009372 29.64291 21.65009372 29.64291 19.9375 27.625 C19.11572266 26.59246094 19.11572266 26.59246094 18.27734375 25.5390625 C17.85582031 25.03117187 17.43429687 24.52328125 17 24 C16.4225 24.721875 15.845 25.44375 15.25 26.1875 C13.79860827 28.00173966 12.32097049 29.79543457 10.8125 31.5625 C8.71273994 34.0603007 8.71273994 34.0603007 8 38 C5.03 38 2.06 38 -1 38 C-1 37.34 -1 36.68 -1 36 C-0.1028125 35.6596875 -0.1028125 35.6596875 0.8125 35.3125 C3.5551169 33.66692986 4.41968093 31.72964203 6 29 C6.66 29 7.32 29 8 29 C8.268125 28.278125 8.53625 27.55625 8.8125 26.8125 C9.990626 24.02220157 11.4188404 21.57750674 13 19 C11.42138562 16.7465581 9.83735779 14.49727057 8.25 12.25 C7.8065625 11.61578125 7.363125 10.9815625 6.90625 10.328125 C4.49332258 6.92163923 2.08022784 3.84993043 -1 1 C-0.67 0.67 -0.34 0.34 0 0 Z " fill="#82885B" transform="translate(342,240)"/>
<path d="M0 0 C2.29945469 1.37777244 2.73139135 2.27362378 3.453125 4.8203125 C3.5975 5.9134375 3.741875 7.0065625 3.890625 8.1328125 C2.203125 8.9453125 2.203125 8.9453125 -0.109375 9.1328125 C-2.734375 6.7578125 -2.734375 6.7578125 -5.109375 4.1328125 C-8.59969585 2.38765208 -12.39713724 3.28649923 -16.109375 4.1328125 C-18.92930217 5.95401546 -20.61282978 7.13972206 -22.109375 10.1328125 C-22.70565631 17.79273399 -22.68076629 23.81738136 -17.609375 29.9453125 C-13.9671712 32.82872384 -9.51773993 32.47191749 -5.109375 32.1328125 C-1.11951861 30.94663898 -0.1316502 28.6258333 1.890625 25.1328125 C2.550625 25.1328125 3.210625 25.1328125 3.890625 25.1328125 C4.32786983 30.46719944 4.32786983 30.46719944 3.890625 33.1328125 C1.515625 35.0703125 1.515625 35.0703125 -1.109375 36.1328125 C-2.099375 36.6278125 -2.099375 36.6278125 -3.109375 37.1328125 C-11.16799949 37.97827244 -17.80495681 38.07762133 -24.3359375 32.90625 C-28.85529793 28.38688957 -30.88691677 23.58410115 -31.109375 17.1328125 C-30.50264259 12.30355048 -29.7548605 7.62640277 -26.109375 4.1328125 C-25.449375 4.1328125 -24.789375 4.1328125 -24.109375 4.1328125 C-24.109375 3.4728125 -24.109375 2.8128125 -24.109375 2.1328125 C-15.55613062 -1.72217088 -9.07632693 -3.17980161 0 0 Z " fill="#B7BD87" transform="translate(319.109375,176.8671875)"/>
<path d="M0 0 C0.01213028 1.02690445 0.01213028 1.02690445 0.02450562 2.07455444 C0.11035007 9.17945406 0.20984415 16.28406817 0.31738281 23.38867188 C0.35574181 26.04259458 0.39058226 28.69657051 0.421875 31.35058594 C0.46737536 35.1583971 0.52539449 38.96583958 0.5859375 42.7734375 C0.59748871 43.96617279 0.60903992 45.15890808 0.62094116 46.38778687 C0.64081085 47.48877716 0.66068054 48.58976746 0.68115234 49.72412109 C0.69447601 50.69674896 0.70779968 51.66937683 0.7215271 52.67147827 C0.77960304 55.19169482 0.77960304 55.19169482 3 57 C3 57.99 3 58.98 3 60 C1.58366664 60.16947579 0.16691467 60.33545507 -1.25 60.5 C-2.03890625 60.5928125 -2.8278125 60.685625 -3.640625 60.78125 C-6 61 -6 61 -10 61 C-9.125 56.125 -9.125 56.125 -8 55 C-7.90673284 53.43452952 -7.88254418 51.86487228 -7.88647461 50.29663086 C-7.88655014 49.29566879 -7.88662567 48.29470673 -7.88670349 47.26341248 C-7.89186478 46.1748848 -7.89702606 45.08635712 -7.90234375 43.96484375 C-7.9037587 42.85645645 -7.90517365 41.74806915 -7.90663147 40.60609436 C-7.91224967 37.04986931 -7.92480525 33.49370617 -7.9375 29.9375 C-7.94251266 27.53320403 -7.94707597 25.12890708 -7.95117188 22.72460938 C-7.96222501 16.81638496 -7.97898083 10.9081969 -8 5 C-8.66 5 -9.32 5 -10 5 C-10 4.01 -10 3.02 -10 2 C-6.38026598 0.68373308 -3.90432869 0 0 0 Z " fill="#686F47" transform="translate(430,154)"/>
<path d="M0 0 C0.66 -0.33 1.32 -0.66 2 -1 C9.46666667 -1.35555556 9.46666667 -1.35555556 13 1 C12.67 2.65 12.34 4.3 12 6 C9.69107126 6.74215567 8.40934909 7.13204809 6.0625 6.375 C3.85875355 5.77934443 3.85875355 5.77934443 1.40161133 7.1027832 C-1.26038557 8.78841175 -1.26038557 8.78841175 -1.56762695 11.72729492 C-1.54144287 12.80084229 -1.51525879 13.87438965 -1.48828125 14.98046875 C-1.47216797 16.14384766 -1.45605469 17.30722656 -1.43945312 18.50585938 C-1.37661133 20.32827148 -1.37661133 20.32827148 -1.3125 22.1875 C-1.28994141 23.41404297 -1.26738281 24.64058594 -1.24414062 25.90429688 C-1.18513053 28.93741559 -1.10284592 31.96810222 -1 35 C-0.34 35 0.32 35 1 35 C0.67 36.32 0.34 37.64 0 39 C-1.62490954 39.02698189 -3.24994633 39.04638757 -4.875 39.0625 C-6.23238281 39.07990234 -6.23238281 39.07990234 -7.6171875 39.09765625 C-10 39 -10 39 -12 38 C-11.125 34.125 -11.125 34.125 -10 33 C-9.74619766 28.52668042 -9.81477279 24.0421654 -9.8125 19.5625 C-9.80025391 18.29599609 -9.78800781 17.02949219 -9.77539062 15.72460938 C-9.77345703 14.51740234 -9.77152344 13.31019531 -9.76953125 12.06640625 C-9.76542236 10.95209229 -9.76131348 9.83777832 -9.75708008 8.68969727 C-9.72412828 5.84878039 -9.72412828 5.84878039 -12 4 C-12 3.01 -12 2.02 -12 1 C-7.4830631 -0.82828398 -4.73926319 -0.96939474 0 0 Z " fill="#454E2E" transform="translate(492,176)"/>
<path d="M0 0 C0.66 0 1.32 0 2 0 C2.33 7.26 2.66 14.52 3 22 C3.66 22 4.32 22 5 22 C5 21.34 5 20.68 5 20 C6.32 20 7.64 20 9 20 C7.125 24.875 7.125 24.875 6 26 C5.90020307 27.87938339 5.86919286 29.76250114 5.8671875 31.64453125 C5.86589844 32.79630859 5.86460937 33.94808594 5.86328125 35.13476562 C5.86714844 36.34841797 5.87101562 37.56207031 5.875 38.8125 C5.87113281 40.01455078 5.86726563 41.21660156 5.86328125 42.45507812 C5.86521484 44.18854492 5.86521484 44.18854492 5.8671875 45.95703125 C5.86831543 47.01897705 5.86944336 48.08092285 5.87060547 49.17504883 C5.91713133 52.2292181 5.91713133 52.2292181 7 56 C2.71 56 -1.58 56 -6 56 C-6 55.34 -6 54.68 -6 54 C-3.03 53.505 -3.03 53.505 0 53 C0 35.51 0 18.02 0 0 Z " fill="#D6CC8D" transform="translate(333,158)"/>
<path d="M0 0 C4.54098283 1.25553664 7.84272242 3.20266301 10.4375 7.1875 C12.40968764 11.21041373 13.04786839 15.53866575 13 20 C12 21 12 21 9.22436523 21.11352539 C8.01466064 21.10828857 6.80495605 21.10305176 5.55859375 21.09765625 C4.25341797 21.09443359 2.94824219 21.09121094 1.60351562 21.08789062 C0.2148431 21.07953401 -1.17382877 21.07106905 -2.5625 21.0625 C-3.95507656 21.05748666 -5.34765481 21.05292347 -6.74023438 21.04882812 C-10.1601987 21.03699434 -13.58007844 21.0205088 -17 21 C-17.33 21.99 -17.66 22.98 -18 24 C-18 22.68 -18 21.36 -18 20 C-14.37 19.67 -10.74 19.34 -7 19 C-7 18.67 -7 18.34 -7 18 C-10.63 17.67 -14.26 17.34 -18 17 C-17.67 15.68 -17.34 14.36 -17 13 C-17 13.99 -17 14.98 -17 16 C-6.11 15.505 -6.11 15.505 5 15 C3.515 10.545 3.515 10.545 2 6 C-1.63 5.34 -5.26 4.68 -9 4 C-9 3.67 -9 3.34 -9 3 C-7.35 2.67 -5.7 2.34 -4 2 C-7.3 2 -10.6 2 -14 2 C-9.50203161 -0.9986456 -5.2713142 -0.56889866 0 0 Z " fill="#A2A673" transform="translate(325,240)"/>
<path d="M0 0 C4.29161047 -0.05783842 8.58312145 -0.0935412 12.875 -0.125 C14.09832031 -0.14175781 15.32164062 -0.15851563 16.58203125 -0.17578125 C17.74863281 -0.18222656 18.91523438 -0.18867188 20.1171875 -0.1953125 C21.19597168 -0.20578613 22.27475586 -0.21625977 23.38623047 -0.22705078 C26 0 26 0 28 2 C23.38 2 18.76 2 14 2 C14 31.37 14 60.74 14 91 C13.34 91 12.68 91 12 91 C11.67 61.96 11.34 32.92 11 3 C7.04 2.67 3.08 2.34 -1 2 C-0.67 1.34 -0.34 0.68 0 0 Z " fill="#999A6F" transform="translate(139,139)"/>
<path d="M0 0 C3.3 0 6.6 0 10 0 C10.66 3.3 11.32 6.6 12 10 C10.68 10 9.36 10 8 10 C7.67 25.51 7.34 41.02 7 57 C6.01 56.67 5.02 56.34 4 56 C3.67 38.51 3.34 21.02 3 3 C2.01 2.67 1.02 2.34 0 2 C0 1.34 0 0.68 0 0 Z " fill="#DCDFA6" transform="translate(246,219)"/>
<path d="M0 0 C1.32 0 2.64 0 4 0 C4.33 17.82 4.66 35.64 5 54 C3.68 54 2.36 54 1 54 C0.00706191 51.02118573 -0.12119785 49.08512761 -0.11352539 45.9777832 C-0.11344986 44.95695145 -0.11337433 43.93611969 -0.11329651 42.88435364 C-0.10813522 41.78427475 -0.10297394 40.68419586 -0.09765625 39.55078125 C-0.0962413 38.4230278 -0.09482635 37.29527435 -0.09336853 36.13334656 C-0.0877647 32.52637088 -0.07521153 28.91945696 -0.0625 25.3125 C-0.05748549 22.86914152 -0.0529225 20.42578207 -0.04882812 17.98242188 C-0.03779403 11.98826013 -0.02105215 5.99413448 0 0 Z " fill="#B29B61" transform="translate(424,158)"/>
<path d="M0 0 C0 7.59 0 15.18 0 23 C-0.33 23 -0.66 23 -1 23 C-1 16.4 -1 9.8 -1 3 C-1.66 3 -2.32 3 -3 3 C-2.67 20.82 -2.34 38.64 -2 57 C-3.98 57 -5.96 57 -8 57 C-7.67 56.34 -7.34 55.68 -7 55 C-6.88127427 53.36664808 -6.82290908 51.72872646 -6.79467773 50.09130859 C-6.77473251 49.07040131 -6.75478729 48.04949402 -6.73423767 46.99765015 C-6.71752518 45.89240997 -6.70081268 44.7871698 -6.68359375 43.6484375 C-6.66281265 42.5192691 -6.64203156 41.39010071 -6.62062073 40.22671509 C-6.55508665 36.60954028 -6.49622226 32.99229119 -6.4375 29.375 C-6.39431846 26.92707556 -6.35070429 24.47915872 -6.30664062 22.03125 C-6.19940133 16.0209125 -6.09764213 10.01050065 -6 4 C-6.99 4 -7.98 4 -9 4 C-9 3.34 -9 2.68 -9 2 C-5.62902617 0.50178941 -3.79557881 0 0 0 Z " fill="#D4D29B" transform="translate(336,155)"/>
<path d="M0 0 C2.0625 1.5625 2.0625 1.5625 4 4 C4 8.07911965 3.39914502 10.38063703 1.1875 13.8125 C-2.84127728 17.84127728 -6.09389328 18.33252859 -11.75 18.4375 C-17.2280193 18.34610447 -21.19926622 17.87653061 -25.64453125 14.578125 C-27.90013691 11.95200198 -28 9.3521396 -28 6 C-24 6 -24 6 -21.375 8.4375 C-20.59125 9.283125 -19.8075 10.12875 -19 11 C-16.47524538 12.26237731 -14.68799534 12.09856404 -11.875 12.0625 C-10.96492188 12.05347656 -10.05484375 12.04445313 -9.1171875 12.03515625 C-8.41851562 12.02355469 -7.71984375 12.01195312 -7 12 C-6.690625 11.21625 -6.38125 10.4325 -6.0625 9.625 C-5 7 -5 7 -4 5 C-3.71125 5.804375 -3.4225 6.60875 -3.125 7.4375 C-2.26737432 10.1326468 -2.26737432 10.1326468 0 11 C0 7.37 0 3.74 0 0 Z " fill="#5B5F37" transform="translate(457,261)"/>
<path d="M0 0 C1.9375 0.8125 1.9375 0.8125 4 2 C5.0394775 5.1184325 5.11494838 7.27475586 5.09765625 10.54296875 C5.09443359 11.61611328 5.09121094 12.68925781 5.08789062 13.79492188 C5.07951172 14.91447266 5.07113281 16.03402344 5.0625 17.1875 C5.05798828 18.31865234 5.05347656 19.44980469 5.04882812 20.61523438 C5.03703498 23.41020927 5.0205765 26.2050782 5 29 C5.66 29 6.32 29 7 29 C7 29.99 7 30.98 7 32 C3.37 32 -0.26 32 -4 32 C-3.34 30.68 -2.68 29.36 -2 28 C-1.7578206 25.35648984 -1.7578206 25.35648984 -1.875 22.5 C-1.89046875 21.448125 -1.9059375 20.39625 -1.921875 19.3125 C-1.94765625 18.219375 -1.9734375 17.12625 -2 16 C-2.05109587 13.83353519 -2.09313481 11.66683298 -2.125 9.5 C-2.14820313 8.5409375 -2.17140625 7.581875 -2.1953125 6.59375 C-1.99212791 3.89545867 -1.37887675 2.30174701 0 0 Z " fill="#BBB47D" transform="translate(359,181)"/>
<path d="M0 0 C2.56520056 0.76262719 5.12688885 1.53473386 7.6875 2.3125 C8.40873047 2.52583984 9.12996094 2.73917969 9.87304688 2.95898438 C13.90416626 4.19224921 17.62479309 5.38275702 21 8 C21.7421875 9.90234375 21.7421875 9.90234375 21.875 11.9375 C21.92269531 12.63746094 21.97039062 13.33742188 22.01953125 14.05859375 C21.99818161 16.18074832 21.74722702 18.00739462 21 20 C20.01 19.67 19.02 19.34 18 19 C17.7834375 18.0409375 17.7834375 18.0409375 17.5625 17.0625 C17.20848373 14.85815641 17.20848373 14.85815641 15.25 13.875 C14.13625 13.441875 14.13625 13.441875 13 13 C12.195625 12.67 11.39125 12.34 10.5625 12 C9.716875 11.67 8.87125 11.34 8 11 C6.327767 10.34742127 4.66072849 9.68132451 3 9 C2.2575 8.71125 1.515 8.4225 0.75 8.125 C-1 7 -1 7 -1.875 5.0625 C-2 3 -2 3 0 0 Z " fill="#807A4D" transform="translate(436,252)"/>
<path d="M0 0 C1.97558594 1.13989258 1.97558594 1.13989258 4 3 C4.45410156 5.63549805 4.45410156 5.63549805 4.390625 8.76171875 C4.37773437 9.87998047 4.36484375 10.99824219 4.3515625 12.15039062 C4.31804687 13.31763672 4.28453125 14.48488281 4.25 15.6875 C4.23195313 16.86634766 4.21390625 18.04519531 4.1953125 19.25976562 C4.14811859 22.17398926 4.08229077 25.08659031 4 28 C0.6640625 28.15234375 0.6640625 28.15234375 -3 28 C-5.625 25.5625 -5.625 25.5625 -7 22 C-6.42730494 18.79811399 -5.33983996 15.95552933 -4 13 C-3.34 13.33 -2.68 13.66 -2 14 C-1.93941406 13.07316406 -1.87882812 12.14632813 -1.81640625 11.19140625 C-1.73261719 9.99386719 -1.64882813 8.79632813 -1.5625 7.5625 C-1.48128906 6.36753906 -1.40007812 5.17257813 -1.31640625 3.94140625 C-1 1 -1 1 0 0 Z " fill="#CDD59D" transform="translate(287,250)"/>
<path d="M0 0 C0.66 0 1.32 0 2 0 C1.99419922 0.71833008 1.98839844 1.43666016 1.98242188 2.17675781 C1.94836508 9.71547224 2.15602975 17.21984057 2.5 24.75 C2.54769531 25.84054688 2.59539062 26.93109375 2.64453125 28.0546875 C2.76069571 30.70323714 2.87921196 33.3516579 3 36 C3.66 36.33 4.32 36.66 5 37 C1.37 37 -2.26 37 -6 37 C-5.34 35.68 -4.68 34.36 -4 33 C-3.64964127 29.83808969 -3.64964127 29.83808969 -3.62109375 26.3359375 C-3.58693359 25.04945313 -3.55277344 23.76296875 -3.51757812 22.4375 C-3.49023967 21.08334622 -3.46355435 19.7291791 -3.4375 18.375 C-3.37965295 15.71593232 -3.31416672 13.05728754 -3.24609375 10.3984375 C-3.21020142 8.62992432 -3.21020142 8.62992432 -3.17358398 6.82568359 C-3 4 -3 4 -2 2 C-1.34 2 -0.68 2 0 2 C0 1.34 0 0.68 0 0 Z " fill="#9A7A47" transform="translate(487,176)"/>
<path d="M0 0 C2.29945469 1.37777244 2.73139135 2.27362378 3.453125 4.8203125 C3.5975 5.9134375 3.741875 7.0065625 3.890625 8.1328125 C2.203125 8.9453125 2.203125 8.9453125 -0.109375 9.1328125 C-2.734375 6.7578125 -2.734375 6.7578125 -5.109375 4.1328125 C-8.59900393 2.38799804 -12.39790874 3.28521121 -16.109375 4.1328125 C-19.03797904 5.92326744 -19.03797904 5.92326744 -21.109375 8.1328125 C-21.769375 8.7928125 -22.429375 9.4528125 -23.109375 10.1328125 C-23.439375 9.1428125 -23.769375 8.1528125 -24.109375 7.1328125 C-24.563125 7.9578125 -25.016875 8.7828125 -25.484375 9.6328125 C-26.020625 10.4578125 -26.556875 11.2828125 -27.109375 12.1328125 C-27.769375 12.1328125 -28.429375 12.1328125 -29.109375 12.1328125 C-29.109375 16.0928125 -29.109375 20.0528125 -29.109375 24.1328125 C-31.55920488 19.23315275 -31.36264602 16.35623579 -30.109375 11.1328125 C-28.96451023 8.59278863 -27.65142603 6.47076083 -26.109375 4.1328125 C-25.449375 4.1328125 -24.789375 4.1328125 -24.109375 4.1328125 C-24.109375 3.4728125 -24.109375 2.8128125 -24.109375 2.1328125 C-15.55613062 -1.72217088 -9.07632693 -3.17980161 0 0 Z " fill="#BCC691" transform="translate(319.109375,176.8671875)"/>
<path d="M0 0 C1.5625 1.25 1.5625 1.25 3 3 C2.7181953 5.32488881 2.04553582 6.90892835 1 9 C1.66 9 2.32 9 3 9 C3.08078641 11.12438339 3.13909141 13.2496323 3.1875 15.375 C3.23970703 17.15003906 3.23970703 17.15003906 3.29296875 18.9609375 C3.19628906 19.96382812 3.09960938 20.96671875 3 22 C2.01 22.66 1.02 23.32 0 24 C0.66 19.71 1.32 15.42 2 11 C-0.59875 11.8971875 -0.59875 11.8971875 -3.25 12.8125 C-4.22453125 13.14894531 -5.1990625 13.48539063 -6.203125 13.83203125 C-8.90098341 14.95865089 -10.86048938 16.01545393 -13 18 C-13.66666667 21 -13.66666667 21 -13 24 C-11.11922127 25.91256712 -11.11922127 25.91256712 -9 27 C-11.875 26.6875 -11.875 26.6875 -15 26 C-16.9451 23.08235 -17.45276317 21.37462715 -18 18 C-18.66 18 -19.32 18 -20 18 C-20.33 19.98 -20.66 21.96 -21 24 C-21.33 24 -21.66 24 -22 24 C-21.75926055 19.90742938 -21.45019136 17.56935966 -18.875 14.3125 C-12.64731225 9.3032729 -6.64809138 7.03128383 1 5 C0.67 3.35 0.34 1.7 0 0 Z " fill="#877D50" transform="translate(461,183)"/>
<path d="M0 0 C0.66 0 1.32 0 2 0 C2.680625 1.423125 2.680625 1.423125 3.375 2.875 C5.28351204 6.67709875 5.28351204 6.67709875 8.84765625 8.609375 C13.70052222 9.49011293 18.32578702 9.81850412 22.8125 7.625 C23.534375 7.08875 24.25625 6.5525 25 6 C26.32608822 5.31903578 27.65686601 4.64669414 29 4 C29.3125 6.75 29.3125 6.75 29 10 C26.27900337 13.35589584 23.57925749 14.3105673 19.4375 14.9375 C13.12748875 15.34490313 5.33663177 14.52559548 0.16796875 10.61328125 C-1.79001285 7.90877824 -1.23364634 5.21263716 -1 2 C-0.67 1.34 -0.34 0.68 0 0 Z " fill="#9BA676" transform="translate(247,200)"/>
<path d="M0 0 C22.97561025 -0.65093807 41.46181603 0.97454402 61 14 C60.67 15.32 60.34 16.64 60 18 C54.34104628 16.36519115 54.34104628 16.36519115 52.67578125 14.58203125 C45.26102717 7.58208858 29.9817628 5.10908476 20 4 C20 3.67 20 3.34 20 3 C21.98 2.67 23.96 2.34 26 2 C13.13 1.505 13.13 1.505 0 1 C0 0.67 0 0.34 0 0 Z " fill="#697049" transform="translate(139,138)"/>
<path d="M0 0 C0.33 0.66 0.66 1.32 1 2 C-0.98 2 -2.96 2 -5 2 C-5 2.66 -5 3.32 -5 4 C-8.46153846 7 -8.46153846 7 -11 7 C-11.12375 7.556875 -11.2475 8.11375 -11.375 8.6875 C-12 11 -12 11 -14 16 C-6.74 16 0.52 16 8 16 C7.67 16.99 7.34 17.98 7 19 C0.07 19 -6.86 19 -14 19 C-14.33 19.66 -14.66 20.32 -15 21 C-15.66 19.35 -16.32 17.7 -17 16 C-17.66 16 -18.32 16 -19 16 C-18.79141773 10.05540543 -17.8183008 6.69388986 -13.67578125 2.34375 C-9.75234376 -0.80231642 -4.78211291 -0.11385983 0 0 Z " fill="#E4E5AD" transform="translate(321,241)"/>
<path d="M0 0 C0 0.33 0 0.66 0 1 C2.31 1.33 4.62 1.66 7 2 C7 2.33 7 2.66 7 3 C5.65808594 3.27263672 5.65808594 3.27263672 4.2890625 3.55078125 C-5.82398608 5.65317408 -15.07549979 7.57991935 -24.01953125 12.8671875 C-26 14 -26 14 -29 15.1875 C-31.18437076 15.81846156 -31.18437076 15.81846156 -32 18 C-32.66 17.67 -33.32 17.34 -34 17 C-31.94120661 11.94659805 -28.48405787 8.77711305 -23.6953125 6.26953125 C-22.51710938 5.78871094 -21.33890625 5.30789062 -20.125 4.8125 C-18.95195313 4.32394531 -17.77890625 3.83539063 -16.5703125 3.33203125 C-10.93646947 1.23012701 -6.04654493 -0.29495341 0 0 Z " fill="#4A5335" transform="translate(139,139)"/>
<path d="M0 0 C1.98 0 3.96 0 6 0 C6.88376862 4.08742988 7.34972126 6.95083621 6 11 C4.68 10.67 3.36 10.34 2 10 C1.03576974 11.39176632 0.07888398 12.7886223 -0.875 14.1875 C-1.40867187 14.96480469 -1.94234375 15.74210937 -2.4921875 16.54296875 C-3.98015439 18.9676609 -5.02428078 21.3333499 -6 24 C-8.97 24 -11.94 24 -15 24 C-15 23.34 -15 22.68 -15 22 C-14.1028125 21.6596875 -14.1028125 21.6596875 -13.1875 21.3125 C-10.4448831 19.66692986 -9.58031907 17.72964203 -8 15 C-7.34 15 -6.68 15 -6 15 C-5.731875 14.278125 -5.46375 13.55625 -5.1875 12.8125 C-4 10 -4 10 -2.4375 7.5 C-0.96737241 4.94325637 -0.41424836 2.89973855 0 0 Z " fill="#889166" transform="translate(356,254)"/>
<path d="M0 0 C0 11.55 0 23.1 0 35 C-2 33 -2 33 -2.22705078 30.11083984 C-2.21657715 28.90637207 -2.20610352 27.7019043 -2.1953125 26.4609375 C-2.18564453 24.50800781 -2.18564453 24.50800781 -2.17578125 22.515625 C-2.15906929 21.13541405 -2.14213939 19.75520571 -2.125 18.375 C-2.11497006 16.98698548 -2.10584423 15.59896411 -2.09765625 14.2109375 C-2.07401863 10.80711974 -2.04106867 7.40364494 -2 4 C-2.99 6.31 -3.98 8.62 -5 11 C-4.34 11.33 -3.68 11.66 -3 12 C-3.99 13.485 -3.99 13.485 -5 15 C-5.37379767 18.09657385 -5.50523185 21.17040694 -5.65625 24.28515625 C-6 27 -6 27 -8 29 C-7.98259766 27.78376953 -7.98259766 27.78376953 -7.96484375 26.54296875 C-7.74469976 15.71828501 -7.74469976 15.71828501 -9 5 C-9.66 4.67 -10.32 4.34 -11 4 C-11 3.34 -11 2.68 -11 2 C-7.12315913 0.80712589 -4.08378077 0 0 0 Z " fill="#697245" transform="translate(421,240)"/>
<path d="M0 0 C0.66 0 1.32 0 2 0 C2.02505615 0.85754883 2.0501123 1.71509766 2.07592773 2.59863281 C2.17123412 5.7893437 2.27045751 8.97990219 2.37231445 12.17041016 C2.4155455 13.54959378 2.45722866 14.92882685 2.49731445 16.30810547 C2.55530403 18.29406938 2.61937723 20.27985269 2.68359375 22.265625 C2.72025146 23.45961914 2.75690918 24.65361328 2.79467773 25.88378906 C2.96208994 28.42463255 3.26317859 30.5771424 4 33 C2.02 33 0.04 33 -2 33 C-2 31.68 -2 30.36 -2 29 C-2.66 29 -3.32 29 -4 29 C-4 29.66 -4 30.32 -4 31 C-4.99 31 -5.98 31 -7 31 C-6.34 29.02 -5.68 27.04 -5 25 C-4.34 25 -3.68 25 -3 25 C-2.95101563 24.02417969 -2.90203125 23.04835938 -2.8515625 22.04296875 C-2.77679688 20.77066406 -2.70203125 19.49835938 -2.625 18.1875 C-2.55539062 16.92292969 -2.48578125 15.65835937 -2.4140625 14.35546875 C-2 11 -2 11 0 8 C-0.29299023 6.32577014 -0.62690101 4.65821773 -1 3 C-0.67 2.01 -0.34 1.02 0 0 Z " fill="#B29F69" transform="translate(417,244)"/>
<path d="M0 0 C3.63 0 7.26 0 11 0 C10.34 1.32 9.68 2.64 9 4 C8.63443135 6.9988119 8.63443135 6.9988119 8.5859375 10.296875 C8.52792969 12.10478516 8.52792969 12.10478516 8.46875 13.94921875 C8.4378125 15.20347656 8.406875 16.45773438 8.375 17.75 C8.31699219 19.65458984 8.31699219 19.65458984 8.2578125 21.59765625 C8.16355778 24.7316257 8.07794834 27.86558949 8 31 C6.68 30.34 5.36 29.68 4 29 C3.98541748 28.2886792 3.97083496 27.5773584 3.95581055 26.84448242 C3.88138994 23.62493668 3.78471 20.40643482 3.6875 17.1875 C3.66494141 16.06794922 3.64238281 14.94839844 3.61914062 13.79492188 C3.58369141 12.72177734 3.54824219 11.64863281 3.51171875 10.54296875 C3.48553467 9.55321045 3.45935059 8.56345215 3.43237305 7.54370117 C2.9370333 4.62955953 2.17190976 3.89161674 0 2 C0 1.34 0 0.68 0 0 Z " fill="#E7EBB2" transform="translate(283,219)"/>
<path d="M0 0 C0.268125 0.639375 0.53625 1.27875 0.8125 1.9375 C1.88667752 4.33131686 1.88667752 4.33131686 5 5 C3.27592413 9.38855677 0.17026127 11.91486937 -4 14 C-6.66007481 14.15051566 -9.27654185 14.23127734 -11.9375 14.25 C-12.66646484 14.270625 -13.39542969 14.29125 -14.14648438 14.3125 C-19.53458545 14.35200945 -19.53458545 14.35200945 -22.00390625 12.484375 C-22.33261719 11.99453125 -22.66132813 11.5046875 -23 11 C-21.68 11 -20.36 11 -19 11 C-19.515625 10.21625 -20.03125 9.4325 -20.5625 8.625 C-21.036875 7.75875 -21.51125 6.8925 -22 6 C-21.67 5.34 -21.34 4.68 -21 4 C-20.525625 4.639375 -20.05125 5.27875 -19.5625 5.9375 C-15.9339652 8.85802801 -12.59265166 9.19718004 -8 9 C-4.15441271 7.5788047 -3.22429628 6.39445207 -1.1875 2.8125 C-0.795625 1.884375 -0.40375 0.95625 0 0 Z " fill="#808056" transform="translate(405,200)"/>
<path d="M0 0 C-0.33 3.3 -0.66 6.6 -1 10 C-1.66 10 -2.32 10 -3 10 C-3.12375 9.360625 -3.2475 8.72125 -3.375 8.0625 C-3.58125 7.381875 -3.7875 6.70125 -4 6 C-4.66 5.67 -5.32 5.34 -6 5 C-6 4.34 -6 3.68 -6 3 C-8.0622048 2.945652 -10.12482816 2.90705039 -12.1875 2.875 C-13.33605469 2.85179687 -14.48460937 2.82859375 -15.66796875 2.8046875 C-18.94654899 2.99686688 -21.10420602 3.48592856 -24 5 C-24.33 5.66 -24.66 6.32 -25 7 C-25.28875 6.360625 -25.5775 5.72125 -25.875 5.0625 C-26.82823451 2.84793921 -26.82823451 2.84793921 -29 2 C-19.85678328 -3.73692029 -10.08182248 -3.1629247 0 0 Z " fill="#D9E0A9" transform="translate(279,156)"/>
<path d="M0 0 C0.99 0.33 1.98 0.66 3 1 C3 18.49 3 35.98 3 54 C3.66 54 4.32 54 5 54 C5.33 38.49 5.66 22.98 6 7 C6.66 7.33 7.32 7.66 8 8 C7.99555878 8.55488098 7.99111755 9.10976196 7.98654175 9.68145752 C7.94229643 15.45639471 7.91212858 21.23128373 7.89013672 27.00634766 C7.8800789 29.16164099 7.86643101 31.31692068 7.84912109 33.47216797 C7.82486338 36.57002124 7.81351468 39.66769409 7.8046875 42.765625 C7.79436493 43.72929993 7.78404236 44.69297485 7.77340698 45.68585205 C7.77318039 47.03679962 7.77318039 47.03679962 7.77294922 48.41503906 C7.768508 49.20557678 7.76406677 49.9961145 7.75949097 50.81060791 C8.02803153 53.25517547 8.78117843 54.88156035 10 57 C6.98675805 58.50662097 4.31713623 58.17770373 1 58 C0.34 57.34 -0.32 56.68 -1 56 C-0.34 55.34 0.32 54.68 1 54 C1.29930007 51.70961541 1.29930007 51.70961541 1.24291992 49.03125 C1.24599655 47.99677734 1.24907318 46.96230469 1.25224304 45.89648438 C1.24505753 44.77564453 1.23787201 43.65480469 1.23046875 42.5 C1.23001053 41.35337891 1.22955231 40.20675781 1.2290802 39.02539062 C1.22605502 36.59764574 1.21816084 34.16990285 1.20581055 31.7421875 C1.18757611 28.01555544 1.18530066 24.28917197 1.18554688 20.5625 C1.18063101 18.20833117 1.17480239 15.85416404 1.16796875 13.5 C1.16685593 12.37916016 1.1657431 11.25832031 1.16459656 10.10351562 C1.15821671 9.06904297 1.15183685 8.03457031 1.14526367 6.96875 C1.14145187 6.05544922 1.13764008 5.14214844 1.13371277 4.20117188 C1.14177099 1.95674391 1.14177099 1.95674391 0 0 Z " fill="#46572F" transform="translate(247,221)"/>
<path d="M0 0 C3.58264181 -0.26214452 5.72558087 -0.1314925 9 1.4375 C13.94561672 3.65133955 19.09198136 3.80840987 24.4375 4.1875 C25.96407227 4.3102832 25.96407227 4.3102832 27.52148438 4.43554688 C30.01369063 4.63445536 32.50620673 4.82230487 35 5 C34.67 5.99 34.34 6.98 34 8 C24.98336006 10.40443732 16.70857266 8.78144526 8 6 C8 5.34 8 4.68 8 4 C7.4225 3.87625 6.845 3.7525 6.25 3.625 C3.97664233 2.99351176 2.0746471 2.11141809 0 1 C0 0.67 0 0.34 0 0 Z " fill="#535A38" transform="translate(100,260)"/>
<path d="M0 0 C0 8.91 0 17.82 0 27 C-0.33 27 -0.66 27 -1 27 C-1.33 23.37 -1.66 19.74 -2 16 C-3.01366092 19.04098275 -2.97447446 20.03848592 -2.4375 23.0625 C-2.293125 24.361875 -2.14875 25.66125 -2 27 C-2.66 27.66 -3.32 28.32 -4 29 C-5.42549088 23.33308952 -5.30871826 17.49639054 -5.4296875 11.68554688 C-5.460625 10.85732422 -5.4915625 10.02910156 -5.5234375 9.17578125 C-5.54325684 8.42208252 -5.56307617 7.66838379 -5.58349609 6.8918457 C-5.86056942 4.59221882 -5.86056942 4.59221882 -9 3 C-9 2.34 -9 1.68 -9 1 C-5.94152152 0.45627049 -3.11227195 0 0 0 Z " fill="#BCB07A" transform="translate(394,241)"/>
<path d="M0 0 C8.02800467 4.3873979 8.02800467 4.3873979 10 10 C12.52372901 11.36078035 12.52372901 11.36078035 15 12 C15 12.99 15 13.98 15 15 C8.07 14.505 8.07 14.505 1 14 C0.67 12.02 0.34 10.04 0 8 C-0.63305821 5.98910922 -1.29094062 3.98536627 -2 2 C-1.34 1.34 -0.68 0.68 0 0 Z " fill="#929467" transform="translate(365,264)"/>
<path d="M0 0 C2.19050021 0.09017996 4.378466 0.24666208 6.5625 0.4375 C7.76003906 0.53933594 8.95757812 0.64117187 10.19140625 0.74609375 C11.11824219 0.82988281 12.04507812 0.91367188 13 1 C13.99 4.96 14.98 8.92 16 13 C14.35 13.33 12.7 13.66 11 14 C11 13.34 11 12.68 11 12 C10.01 12 9.02 12 8 12 C6.5 10.35546875 6.5 10.35546875 5 8.1875 C3.15617635 5.55140838 1.34301325 3.21052143 -1 1 C-0.67 0.67 -0.34 0.34 0 0 Z " fill="#908E5C" transform="translate(342,240)"/>
<path d="M0 0 C0.45375 0.639375 0.9075 1.27875 1.375 1.9375 C2.83921726 4.09702406 2.83921726 4.09702406 5 5 C5.05418326 7.08304538 5.09287551 9.16649768 5.125 11.25 C5.14820313 12.41015625 5.17140625 13.5703125 5.1953125 14.765625 C5.00892712 17.85216691 4.78936323 19.51148161 3 22 C2.01 22.33 1.02 22.66 0 23 C-2 21 -2 21 -2.22705078 18.93701172 C-2.21657715 18.10959473 -2.20610352 17.28217773 -2.1953125 16.4296875 C-2.18886719 15.53378906 -2.18242187 14.63789063 -2.17578125 13.71484375 C-2.15902344 12.77769531 -2.14226562 11.84054688 -2.125 10.875 C-2.11597656 9.93011719 -2.10695313 8.98523438 -2.09765625 8.01171875 C-2.07404522 5.67422708 -2.04111516 3.33723877 -2 1 C-1.34 0.67 -0.68 0.34 0 0 Z " fill="#B5A673" transform="translate(408,183)"/>
<path d="M0 0 C0.66 0 1.32 0 2 0 C2 2.31 2 4.62 2 7 C-5.81398663 11.65833818 -11.95574702 12.98681681 -21.0625 11.5 C-21.701875 11.335 -22.34125 11.17 -23 11 C-22.01 10.67 -21.02 10.34 -20 10 C-20.33 8.68 -20.66 7.36 -21 6 C-19.700625 6.20625 -18.40125 6.4125 -17.0625 6.625 C-12.04592289 7.20628592 -7.81753028 6.37806422 -3 5 C-3 4.34 -3 3.68 -3 3 C-2.34 3 -1.68 3 -1 3 C-0.67 2.01 -0.34 1.02 0 0 Z " fill="#B1B686" transform="translate(335,267)"/>
<path d="M0 0 C2.7567722 2.7567722 4.64967532 5.30352513 6.75 8.5625 C7.38421875 9.53316406 8.0184375 10.50382813 8.671875 11.50390625 C9.11015625 12.32761719 9.5484375 13.15132812 10 14 C9.33738209 15.32523583 8.64992982 16.63836327 7.9375 17.9375 C6.79309853 20.07758805 6.79309853 20.07758805 7 23 C8.32 23 9.64 23 11 23 C10.67 24.65 10.34 26.3 10 28 C6.87376931 25.07434606 4.5477878 22.04620519 2.25 18.4375 C1.63640625 17.48746094 1.0228125 16.53742188 0.390625 15.55859375 C-1 13 -1 13 -1 10 C-0.34 9.67 0.32 9.34 1 9 C0.67 6.03 0.34 3.06 0 0 Z " fill="#A9B07C" transform="translate(256,220)"/>
<path d="M0 0 C0.928125 0.495 1.85625 0.99 2.8125 1.5 C2.4825 2.16 2.1525 2.82 1.8125 3.5 C1.235 3.17 0.6575 2.84 0.0625 2.5 C-2.38633862 1.22924102 -2.38633862 1.22924102 -6.1875 1.5 C-5.8575 2.49 -5.5275 3.48 -5.1875 4.5 C-7.0128125 4.1596875 -7.0128125 4.1596875 -8.875 3.8125 C-12.93118718 3.28124717 -14.84846892 4.04483009 -18.1875 6.5 C-18.8475 6.5 -19.5075 6.5 -20.1875 6.5 C-20.1875 7.49 -20.1875 8.48 -20.1875 9.5 C-21.1775 9.5 -22.1675 9.5 -23.1875 9.5 C-23.5 6.1875 -23.5 6.1875 -23.1875 2.5 C-16.88495723 -2.61016981 -7.36572621 -3.19332097 0 0 Z " fill="#46502E" transform="translate(464.1875,176.5)"/>
<path d="M0 0 C0.66 2.64 1.32 5.28 2 8 C7.94 8.99 7.94 8.99 14 10 C13.67 10.99 13.34 11.98 13 13 C7.50768164 15.55456668 3.58370787 14.86123596 -2 13 C-4.20080053 9.6987992 -4.21218749 9.10898842 -3.75 5.375 C-3.66234375 4.57835937 -3.5746875 3.78171875 -3.484375 2.9609375 C-3.24460937 1.99027344 -3.24460937 1.99027344 -3 1 C-1 0 -1 0 0 0 Z " fill="#A88F5D" transform="translate(444,200)"/>
<path d="M0 0 C3.61257024 1.4266201 4.83292962 2.93869186 6.5625 6.375 C8.15293997 9.49330526 9.83144283 12.24687524 12 15 C11.67 15.66 11.34 16.32 11 17 C7.6875 16.875 7.6875 16.875 4 16 C2.0625 12.9375 2.0625 12.9375 1 10 C1.66 10 2.32 10 3 10 C3 9.34 3 8.68 3 8 C1.68 8 0.36 8 -1 8 C-1.625 5.6875 -1.625 5.6875 -2 3 C-1.34 2.01 -0.68 1.02 0 0 Z " fill="#AFB581" transform="translate(264,235)"/>
<path d="M0 0 C3.465 1.485 3.465 1.485 7 3 C7 3.66 7 4.32 7 5 C7.5775 5.2475 8.155 5.495 8.75 5.75 C11.32939979 7.18299988 13.06121592 8.78424676 15 11 C15 11.66 15 12.32 15 13 C15.66 13 16.32 13 17 13 C17 13.66 17 14.32 17 15 C17.99 15.33 18.98 15.66 20 16 C20.8125 17.875 20.8125 17.875 21 20 C20.34 20.99 19.68 21.98 19 23 C18.5153125 22.35933594 18.030625 21.71867187 17.53125 21.05859375 C10.40968045 11.76874459 10.40968045 11.76874459 1 5 C0.375 2.4375 0.375 2.4375 0 0 Z " fill="#849064" transform="translate(198,153)"/>
<path d="M0 0 C0.33 0 0.66 0 1 0 C1 10.89 1 21.78 1 33 C-4.31086922 25.91884103 -4.59355143 19.63023783 -4 11 C-3.125 7.5625 -3.125 7.5625 -2 5 C-1.62875 4.05125 -1.2575 3.1025 -0.875 2.125 C-0.58625 1.42375 -0.2975 0.7225 0 0 Z " fill="#666844" transform="translate(75,195)"/>
<path d="M0 0 C0.33 0 0.66 0 1 0 C2.39046839 10.77613 2.05776597 20.30696612 0 31 C-0.33 31 -0.66 31 -1 31 C-1.33 29.35 -1.66 27.7 -2 26 C-2.33 26 -2.66 26 -3 26 C-3 17.75 -3 9.5 -3 1 C-2.01 2.485 -2.01 2.485 -1 4 C-0.67 2.68 -0.34 1.36 0 0 Z " fill="#65754B" transform="translate(231,198)"/>
<path d="M0 0 C2.6618004 2.6618004 2.29866602 4.04249263 2.3125 7.75 C2.18717536 14.30604515 0.8729239 17.83893396 -3.4375 22.8125 C-7.17142857 26 -7.17142857 26 -10 26 C-12.25 24.5625 -12.25 24.5625 -14 23 C-12.39125 22.443125 -12.39125 22.443125 -10.75 21.875 C-6.66169055 20.07912318 -4.94274048 18.10964332 -3 14 C-2.41260803 10.66978621 -2.13347749 7.37698059 -2 4 C-1.67 4 -1.34 4 -1 4 C-1 6.31 -1 8.62 -1 11 C-0.34 11 0.32 11 1 11 C0.67 7.37 0.34 3.74 0 0 Z " fill="#595F3C" transform="translate(144,241)"/>
<path d="M0 0 C0.66 0 1.32 0 2 0 C1.45276317 3.37462715 0.9451 5.08235 -1 8 C-1.35216294 10.77615678 -1.35216294 10.77615678 -1.37890625 13.91015625 C-1.41306641 15.06451172 -1.44722656 16.21886719 -1.48242188 17.40820312 C-1.50884766 18.61412109 -1.53527344 19.82003906 -1.5625 21.0625 C-1.62226595 23.44932323 -1.68587009 25.83605444 -1.75390625 28.22265625 C-1.77783447 29.28234619 -1.8017627 30.34203613 -1.82641602 31.43383789 C-2 34 -2 34 -3 36 C-1.68 36 -0.36 36 1 36 C1 28.08 1 20.16 1 12 C1.33 12 1.66 12 2 12 C2.33 19.92 2.66 27.84 3 36 C3.66 36.33 4.32 36.66 5 37 C1.37 37 -2.26 37 -6 37 C-5.34 35.68 -4.68 34.36 -4 33 C-3.64964127 29.83808969 -3.64964127 29.83808969 -3.62109375 26.3359375 C-3.58693359 25.04945313 -3.55277344 23.76296875 -3.51757812 22.4375 C-3.49023967 21.08334622 -3.46355435 19.7291791 -3.4375 18.375 C-3.37965295 15.71593232 -3.31416672 13.05728754 -3.24609375 10.3984375 C-3.21020142 8.62992432 -3.21020142 8.62992432 -3.17358398 6.82568359 C-3 4 -3 4 -2 2 C-1.34 2 -0.68 2 0 2 C0 1.34 0 0.68 0 0 Z " fill="#8D7D52" transform="translate(487,176)"/>
<path d="M0 0 C1.32 0 2.64 0 4 0 C5.3515625 1.49609375 5.3515625 1.49609375 6.625 3.4375 C8.56833818 5.92176737 9.52171111 6.87398377 12.609375 7.6875 C15.08858636 7.9116095 17.51163311 8.03442405 20 8 C20.33 8.99 20.66 9.98 21 11 C17.37 11 13.74 11 10 11 C10 10.34 10 9.68 10 9 C8.6078125 9.061875 8.6078125 9.061875 7.1875 9.125 C4 9 4 9 1 7 C0.3125 3.375 0.3125 3.375 0 0 Z " fill="#9F8F66" transform="translate(429,267)"/>
<path d="M0 0 C4.92058638 3.9364691 6.6165778 8.41105837 8.7890625 14.2578125 C9.94226695 16.86926258 10.95659941 18.09833818 13 20 C13 20.66 13 21.32 13 22 C12.01 21.67 11.02 21.34 10 21 C10 20.34 10 19.68 10 19 C9.40703125 18.94070312 8.8140625 18.88140625 8.203125 18.8203125 C4.22137844 17.33774729 3.06474684 13.48155986 1.1953125 9.87890625 C-0.3230949 6.221827 -0.5178092 3.88356902 0 0 Z " fill="#5A5D3C" transform="translate(76,229)"/>
<path d="M0 0 C0.99 0.33 1.98 0.66 3 1 C3 7.93 3 14.86 3 22 C4.918125 21.62875 6.83625 21.2575 8.8125 20.875 C14.625 19.75 14.625 19.75 18 22 C14.04 22.495 14.04 22.495 10 23 C11.32 23.66 12.64 24.32 14 25 C11.36 25.66 8.72 26.32 6 27 C6.33 26.01 6.66 25.02 7 24 C5.68 24 4.36 24 3 24 C3 24.66 3 25.32 3 26 C2.34 26 1.68 26 1 26 C0.67 17.42 0.34 8.84 0 0 Z " fill="#64704B" transform="translate(335,154)"/>
<path d="M0 0 C0.66 -0.33 1.32 -0.66 2 -1 C4.6723621 -1.13415472 7.32250488 -1.04318541 10 -1 C10 -0.67 10 -0.34 10 0 C9.39671875 0.12117187 8.7934375 0.24234375 8.171875 0.3671875 C6.97304688 0.61855469 6.97304688 0.61855469 5.75 0.875 C4.96109375 1.03742188 4.1721875 1.19984375 3.359375 1.3671875 C1.03168856 1.99150075 -0.89031952 2.84838542 -3 4 C-3 2.68 -3 1.36 -3 0 C-3.66 0 -4.32 0 -5 0 C-5 0.66 -5 1.32 -5 2 C-5.66 2 -6.32 2 -7 2 C-7.33 12.23 -7.66 22.46 -8 33 C-8.33 33 -8.66 33 -9 33 C-9.01981934 32.19256348 -9.03963867 31.38512695 -9.06005859 30.55322266 C-9.15505899 26.91014125 -9.26483912 23.26765314 -9.375 19.625 C-9.42140625 17.71847656 -9.42140625 17.71847656 -9.46875 15.7734375 C-9.50742187 14.56171875 -9.54609375 13.35 -9.5859375 12.1015625 C-9.6173584 10.98088379 -9.6487793 9.86020508 -9.68115234 8.70556641 C-9.73411203 5.85289588 -9.73411203 5.85289588 -12 4 C-12 3.01 -12 2.02 -12 1 C-7.4830631 -0.82828398 -4.73926319 -0.96939474 0 0 Z " fill="#5A5C39" transform="translate(492,176)"/>
<path d="M0 0 C3.3 0 6.6 0 10 0 C10.66 3.3 11.32 6.6 12 10 C10.68 10 9.36 10 8 10 C7.01 11.485 7.01 11.485 6 13 C5.690625 11.906875 5.38125 10.81375 5.0625 9.6875 C4.41662103 7.44592006 3.7376883 5.2130649 3 3 C2.01 2.67 1.02 2.34 0 2 C0 1.34 0 0.68 0 0 Z " fill="#AFB788" transform="translate(246,219)"/>
<path d="M0 0 C0 0.99 0 1.98 0 3 C-1.32 3 -2.64 3 -4 3 C-4 19.83 -4 36.66 -4 54 C-4.33 54 -4.66 54 -5 54 C-5.33 37.5 -5.66 21 -6 4 C-6.66 4 -7.32 4 -8 4 C-8 3.01 -8 2.02 -8 1 C-2.25 -1.125 -2.25 -1.125 0 0 Z " fill="#5B6242" transform="translate(428,155)"/>
<path d="M0 0 C0.33 0 0.66 0 1 0 C2.37327149 9.46031468 -1.50067197 16.03435292 -6 24 C-6.99 24 -7.98 24 -9 24 C-6.33731974 15.8420009 -3.44013465 7.86316491 0 0 Z " fill="#869167" transform="translate(229,222)"/>
<path d="M0 0 C0.33 0.66 0.66 1.32 1 2 C-0.98 2 -2.96 2 -5 2 C-5 2.66 -5 3.32 -5 4 C-8.46153846 7 -8.46153846 7 -11 7 C-11.33 8.32 -11.66 9.64 -12 11 C-13.65 10.01 -15.3 9.02 -17 8 C-15.7096828 5.12160009 -14.54593619 2.90945214 -12 1 C-7.97496732 0.01610312 -4.13055235 -0.09834648 0 0 Z " fill="#B9BF8F" transform="translate(321,241)"/>
<path d="M0 0 C0.92017937 8.4690583 0.92017937 8.4690583 -1.3359375 12.22265625 C-2.81972046 13.91890579 -4.32453303 15.49407433 -6 17 C-6.66 16.67 -7.32 16.34 -8 16 C-7.67 15.67 -7.34 15.34 -7 15 C-6.92820036 13.48071962 -6.91607993 11.95832518 -6.9375 10.4375 C-6.94652344 9.61121094 -6.95554687 8.78492188 -6.96484375 7.93359375 C-6.97644531 7.29550781 -6.98804688 6.65742188 -7 6 C-6.34 6 -5.68 6 -5 6 C-5 4.35 -5 2.7 -5 1 C-1.125 0 -1.125 0 0 0 Z " fill="#ACB581" transform="translate(282,195)"/>
<path d="M0 0 C1.47906892 -0.02689216 2.95827483 -0.04634621 4.4375 -0.0625 C5.26121094 -0.07410156 6.08492188 -0.08570313 6.93359375 -0.09765625 C9 0 9 0 10 1 C10.763125 0.938125 11.52625 0.87625 12.3125 0.8125 C15 1 15 1 17.25 2.875 C19 5 19 5 20 7 C19.34 7 18.68 7 18 7 C17.67 7.66 17.34 8.32 17 9 C14.36 8.01 11.72 7.02 9 6 C9 5.34 9 4.68 9 4 C8.2575 4.04125 7.515 4.0825 6.75 4.125 C3.91241048 3.99601866 2.41226062 3.42948778 0 2 C0 1.34 0 0.68 0 0 Z " fill="#E4DD9B" transform="translate(255,180)"/>
<path d="M0 0 C7.92 0.33 15.84 0.66 24 1 C19.90345299 5.09654701 16.85323528 4.69747932 11.25 5.00390625 C7.28797667 4.9991442 4.59884767 4.63583985 1 3 C0.67 2.01 0.34 1.02 0 0 Z " fill="#999C71" transform="translate(168,264)"/>
<path d="M0 0 C0.33 0 0.66 0 1 0 C0.835 1.258125 0.67 2.51625 0.5 3.8125 C-0.11073012 9.2144509 -0.09133564 14.57060338 0 20 C-0.99 20 -1.98 20 -3 20 C-5.28062828 16.57905758 -5.21925007 15.31812778 -5.125 11.3125 C-5.10695313 10.31863281 -5.08890625 9.32476562 -5.0703125 8.30078125 C-5.04710937 7.54152344 -5.02390625 6.78226563 -5 6 C-4.34 6 -3.68 6 -3 6 C-2.690625 5.195625 -2.38125 4.39125 -2.0625 3.5625 C-1 1 -1 1 0 0 Z " fill="#F7EFA7" transform="translate(295,183)"/>
<path d="M0 0 C0.66 0.33 1.32 0.66 2 1 C1.67 1.66 1.34 2.32 1 3 C1.99 3 2.98 3 4 3 C4 2.34 4 1.68 4 1 C4.66 1 5.32 1 6 1 C6 2.32 6 3.64 6 5 C7.98 5 9.96 5 12 5 C12.33 4.34 12.66 3.68 13 3 C13.99 4.485 13.99 4.485 15 6 C11.92186148 6.91204104 9.20874376 7.24682644 6 7 C5.01 6.34 4.02 5.68 3 5 C2.01 5.66 1.02 6.32 0 7 C-4.86213388 8.06082921 -6.43112384 8.28443808 -11 6 C-6.545 5.505 -6.545 5.505 -2 5 C-2.33 5 -2.66 5 -3 5 C-5.00405227 4.34561559 -7.00428677 3.67939174 -9 3 C-8.443125 2.87625 -7.88625 2.7525 -7.3125 2.625 C-4.90746492 2.03308138 -4.90746492 2.03308138 -2.375 0.875 C-1.59125 0.58625 -0.8075 0.2975 0 0 Z " fill="#5B683F" transform="translate(409,272)"/>
<path d="M0 0 C1.5625 1.25 1.5625 1.25 3 3 C2.7181953 5.32488881 2.04553582 6.90892835 1 9 C1.66 9 2.32 9 3 9 C3.08078641 11.12438339 3.13909141 13.2496323 3.1875 15.375 C3.23970703 17.15003906 3.23970703 17.15003906 3.29296875 18.9609375 C3.19628906 19.96382812 3.09960938 20.96671875 3 22 C2.01 22.66 1.02 23.32 0 24 C0.66 19.71 1.32 15.42 2 11 C-0.31 11.33 -2.62 11.66 -5 12 C-5 11.01 -5 10.02 -5 9 C-5.5775 9.350625 -6.155 9.70125 -6.75 10.0625 C-9.39786506 11.16577711 -10.33185326 10.80156509 -13 10 C-8.35855331 8.23945126 -3.72224516 6.53472968 1 5 C0.67 3.35 0.34 1.7 0 0 Z " fill="#4D552F" transform="translate(461,183)"/>
<path d="M0 0 C0.33 0 0.66 0 1 0 C1 3.3 1 6.6 1 10 C1.99 10 2.98 10 4 10 C9 15.34883721 9 15.34883721 9 18 C9.928125 17.95875 10.85625 17.9175 11.8125 17.875 C15 18 15 18 18 20 C18 20.66 18 21.32 18 22 C19.32 22.33 20.64 22.66 22 23 C20 24 20 24 16.953125 23.03125 C3.35829814 17.60178268 3.35829814 17.60178268 0 11 C-1.00974068 7.02835332 -1.40144398 3.89289993 0 0 Z " fill="#9CA675" transform="translate(246,164)"/>
<path d="M0 0 C0.33 0 0.66 0 1 0 C1.02505615 0.57032959 1.0501123 1.14065918 1.07592773 1.72827148 C1.19156549 4.29826157 1.31443624 6.86785527 1.4375 9.4375 C1.47681641 10.33533203 1.51613281 11.23316406 1.55664062 12.15820312 C1.59853516 13.01220703 1.64042969 13.86621094 1.68359375 14.74609375 C1.72025146 15.53685303 1.75690918 16.3276123 1.79467773 17.14233398 C1.80563257 19.01401441 1.80563257 19.01401441 3 20 C2.67 17.36 2.34 14.72 2 12 C2.99 11.34 3.98 10.68 5 10 C5.24809955 12.6244748 5.4741699 15.24767145 5.6875 17.875 C5.76033203 18.62136719 5.83316406 19.36773437 5.90820312 20.13671875 C6.07421875 22.3046875 6.07421875 22.3046875 6 26 C5.01 26.66 4.02 27.32 3 28 C-0.21314861 21.91947468 -0.36875119 16.86174336 -0.1875 10.0625 C-0.17396484 9.09248047 -0.16042969 8.12246094 -0.14648438 7.12304688 C-0.11138677 4.74810871 -0.06222275 2.37435622 0 0 Z " fill="#928C5B" transform="translate(388,246)"/>
<path d="M0 0 C0.66 0.33 1.32 0.66 2 1 C1.67 1.33 1.34 1.66 1 2 C1.66 2.66 2.32 3.32 3 4 C-2.5332147 7.60861828 -7.49200879 9.00481422 -14 10 C-14 9.67 -14 9.34 -14 9 C-15.65 8.67 -17.3 8.34 -19 8 C-19 7.67 -19 7.34 -19 7 C-18.20335937 6.81824219 -17.40671875 6.63648438 -16.5859375 6.44921875 C-7.63068379 4.68367168 -7.63068379 4.68367168 0 0 Z " fill="#7C855B" transform="translate(204,257)"/>
<path d="M0 0 C0.66 0 1.32 0 2 0 C2 0.99 2 1.98 2 3 C2.66 3 3.32 3 4 3 C4 3.99 4 4.98 4 6 C4.66 6 5.32 6 6 6 C8.29648649 8.5614657 9 9.47967572 9 13 C3.51923077 13.36538462 3.51923077 13.36538462 1.3125 11.8125 C-0.45312631 9.37425415 -0.30348915 7.78955493 -0.1875 4.8125 C-0.16042969 3.91144531 -0.13335937 3.01039063 -0.10546875 2.08203125 C-0.07066406 1.39496094 -0.03585937 0.70789063 0 0 Z " fill="#A6A171" transform="translate(377,198)"/>
<path d="M0 0 C4.20626034 1.50223584 5.73900021 4.28550034 8 8 C7.67 8.66 7.34 9.32 7 10 C6.34 10 5.68 10 5 10 C4.67 8.68 4.34 7.36 4 6 C3.34 6 2.68 6 2 6 C2.165 6.78375 2.33 7.5675 2.5 8.375 C3.12960847 12.93966142 3.08180527 17.40072601 3 22 C2.67 22 2.34 22 2 22 C1.85304688 20.69675781 1.85304688 20.69675781 1.703125 19.3671875 C0.57863906 10.46057877 0.57863906 10.46057877 -4 3 C-2.68 2.01 -1.36 1.02 0 0 Z " fill="#79774E" transform="translate(404,178)"/>
<path d="M0 0 C0.66 0.33 1.32 0.66 2 1 C1.01 1.33 0.02 1.66 -1 2 C-1 19.49 -1 36.98 -1 55 C-1.33 55 -1.66 55 -2 55 C-2 38.17 -2 21.34 -2 4 C-2.99 4 -3.98 4 -5 4 C-5 3.34 -5 2.68 -5 2 C-2.625 0.9375 -2.625 0.9375 0 0 Z " fill="#3A4724" transform="translate(332,155)"/>
<path d="M0 0 C0.66 0.61875 1.32 1.2375 2 1.875 C5.70411034 4.49874482 8.57924515 5.10086342 13 6 C13 6.33 13 6.66 13 7 C11.35 7 9.7 7 8 7 C8 7.66 8 8.32 8 9 C13.27315333 8.5547115 18.01770224 7.91626837 23 6 C20.06634227 9.06700581 18.80897511 9.95422557 14.41015625 10.203125 C12.96100967 10.22441641 11.51176711 10.23980287 10.0625 10.25 C9.33353516 10.270625 8.60457031 10.29125 7.85351562 10.3125 C2.46541455 10.35200945 2.46541455 10.35200945 -0.00390625 8.484375 C-0.49697266 7.74960938 -0.49697266 7.74960938 -1 7 C0.32 7 1.64 7 3 7 C2.505 6.21625 2.01 5.4325 1.5 4.625 C0 2 0 2 0 0 Z " fill="#6C724A" transform="translate(383,204)"/>
<path d="M0 0 C0.66 0 1.32 0 2 0 C2.680625 1.423125 2.680625 1.423125 3.375 2.875 C5.40113553 6.77141447 7.11628239 8.18759845 11 10 C9.68 10 8.36 10 7 10 C7 10.99 7 11.98 7 13 C4.64828869 12.40138258 2.3140622 11.73075648 0 11 C-1.49297212 8.01405576 -1.11755228 5.29146376 -1 2 C-0.67 1.34 -0.34 0.68 0 0 Z " fill="#85926B" transform="translate(247,200)"/>
<path d="M0 0 C3.63 0 7.26 0 11 0 C10.34 1.32 9.68 2.64 9 4 C8.63443135 6.9988119 8.63443135 6.9988119 8.5859375 10.296875 C8.52792969 12.10478516 8.52792969 12.10478516 8.46875 13.94921875 C8.4378125 15.20347656 8.406875 16.45773438 8.375 17.75 C8.31699219 19.65458984 8.31699219 19.65458984 8.2578125 21.59765625 C8.16355778 24.7316257 8.07794834 27.86558949 8 31 C7.67 31 7.34 31 7 31 C6.67 21.76 6.34 12.52 6 3 C5.67 3.66 5.34 4.32 5 5 C3 5 3 5 1.375 3.625 C0 2 0 2 0 0 Z " fill="#7F9167" transform="translate(283,219)"/>
<path d="M0 0 C0 0.33 0 0.66 0 1 C2.31 1.33 4.62 1.66 7 2 C7 2.33 7 2.66 7 3 C4.81619325 3.5361079 2.62771417 4.05320098 0.4375 4.5625 C-1.38974609 4.99755859 -1.38974609 4.99755859 -3.25390625 5.44140625 C-7.15134672 6.02256786 -10.14214714 5.67418788 -14 5 C-16.81237541 5.35974895 -16.81237541 5.35974895 -19 6 C-18 4 -18 4 -15.48828125 2.9296875 C-14.44027344 2.58164063 -13.39226562 2.23359375 -12.3125 1.875 C-11.27738281 1.52179688 -10.24226562 1.16859375 -9.17578125 0.8046875 C-5.97991734 -0.00508859 -3.28102369 -0.14757228 0 0 Z " fill="#555E39" transform="translate(139,139)"/>
<path d="M0 0 C6.93 0 13.86 0 21 0 C20.67 0.99 20.34 1.98 20 3 C14.28798075 4.52320513 6.61844972 5.17730568 1 3 C0.67 2.01 0.34 1.02 0 0 Z " fill="#747450" transform="translate(114,265)"/>
<path d="M0 0 C0.66 0 1.32 0 2 0 C2.43724483 5.33438694 2.43724483 5.33438694 2 8 C-0.375 9.9375 -0.375 9.9375 -3 11 C-3.99 11.495 -3.99 11.495 -5 12 C-6.99960012 12.039992 -9.00047242 12.04346799 -11 12 C-9.68 11.67 -8.36 11.34 -7 11 C-7 9.68 -7 8.36 -7 7 C-6.401875 6.773125 -5.80375 6.54625 -5.1875 6.3125 C-2.4448831 4.66692986 -1.58031907 2.72964203 0 0 Z " fill="#8D9C70" transform="translate(321,202)"/>
<path d="M0 0 C0.33 0 0.66 0 1 0 C1.02505615 0.76666992 1.0501123 1.53333984 1.07592773 2.32324219 C1.19201423 5.79899283 1.31468366 9.27448092 1.4375 12.75 C1.47681641 13.9565625 1.51613281 15.163125 1.55664062 16.40625 C1.61948242 18.14648438 1.61948242 18.14648438 1.68359375 19.921875 C1.72025146 20.99018555 1.75690918 22.05849609 1.79467773 23.15917969 C1.93440461 26.22486484 1.93440461 26.22486484 3 30 C-1.29 30 -5.58 30 -10 30 C-10 29.34 -10 28.68 -10 28 C-6.32431536 27.08107884 -4.83619425 27.04095144 -1 28 C-0.67 18.76 -0.34 9.52 0 0 Z " fill="#576B47" transform="translate(337,184)"/>
<path d="M0 0 C0.99 0 1.98 0 3 0 C2.93489583 1.953125 2.86979167 3.90625 2.8046875 5.859375 C3.04273418 8.46836662 3.48367443 9.84893349 5 12 C7.61554754 13.56233317 7.61554754 13.56233317 10.625 14.75 C11.62789063 15.17796875 12.63078125 15.6059375 13.6640625 16.046875 C14.43492187 16.36140625 15.20578125 16.6759375 16 17 C13 19 13 19 10.5625 18.75 C8.18047686 18.05282249 6.16453858 17.20252143 4 16 C4 15.01 4 14.02 4 13 C3.34 13 2.68 13 2 13 C2 12.34 2 11.68 2 11 C1.34 11 0.68 11 0 11 C0 7.37 0 3.74 0 0 Z " fill="#B9BB83" transform="translate(251,163)"/>
<path d="M0 0 C0.66 0 1.32 0 2 0 C2 2.31 2 4.62 2 7 C-3.2734375 10.22265625 -3.2734375 10.22265625 -5 11 C-5.66 10.67 -6.32 10.34 -7 10 C-7 9.67 -7 9.34 -7 9 C-8.65 8.67 -10.3 8.34 -12 8 C-12 7.67 -12 7.34 -12 7 C-9.03 6.34 -6.06 5.68 -3 5 C-3 4.34 -3 3.68 -3 3 C-2.34 3 -1.68 3 -1 3 C-0.67 2.01 -0.34 1.02 0 0 Z " fill="#7D8759" transform="translate(335,267)"/>
<path d="M0 0 C1.24546405 2.49092811 0.7767578 3.41080733 0 6 C0.99 5.67 1.98 5.34 3 5 C3.66 7.64 4.32 10.28 5 13 C4.01 13.33 3.02 13.66 2 14 C1.01 15.485 1.01 15.485 0 17 C-2.23313559 13.46634101 -2.10180918 10.91066666 -1.6875 6.8125 C-1.58824219 5.74644531 -1.48898437 4.68039063 -1.38671875 3.58203125 C-1 1 -1 1 0 0 Z " fill="#BCBC83" transform="translate(302,251)"/>
<path d="M0 0 C2.06183633 -0.08150744 4.12461349 -0.1394194 6.1875 -0.1875 C7.33605469 -0.22230469 8.48460937 -0.25710937 9.66796875 -0.29296875 C13.31510162 0.0277053 15.16173769 0.7124453 18 3 C18.3125 6.1875 18.3125 6.1875 18 9 C14.00095031 9 12.19799578 7.27413033 9 5 C9.99 4.01 10.98 3.02 12 2 C8.04 1.67 4.08 1.34 0 1 C0 0.67 0 0.34 0 0 Z " fill="#585D38" transform="translate(439,240)"/>
<path d="M0 0 C1.28571429 7.42857143 1.28571429 7.42857143 0 11 C-0.99 10.67 -1.98 10.34 -3 10 C-4.01529541 7.67328135 -5.01488198 5.3396553 -6 3 C-6.99 2.34 -7.98 1.68 -9 1 C-5.57367167 -0.61798838 -3.61944899 -1.34053666 0 0 Z " fill="#9A8A5A" transform="translate(457,261)"/>
<path d="M0 0 C-0.33 0.66 -0.66 1.32 -1 2 C-2.134375 2.12375 -3.26875 2.2475 -4.4375 2.375 C-6.2009375 2.684375 -6.2009375 2.684375 -8 3 C-9.51294288 4.93597032 -9.51294288 4.93597032 -10 7 C-10.66 7 -11.32 7 -12 7 C-12 7.99 -12 8.98 -12 10 C-12.99 10 -13.98 10 -15 10 C-15 7.69 -15 5.38 -15 3 C-9.89665983 1.094753 -5.53657294 -0.42589023 0 0 Z " fill="#7E7D54" transform="translate(456,176)"/>
<path d="M0 0 C0.66 0 1.32 0 2 0 C2.625 2.875 2.625 2.875 3 6 C2.34 6.66 1.68 7.32 1 8 C0.67 7.01 0.34 6.02 0 5 C-0.45375 5.825 -0.9075 6.65 -1.375 7.5 C-1.91125 8.325 -2.4475 9.15 -3 10 C-3.66 10 -4.32 10 -5 10 C-5 13.96 -5 17.92 -5 22 C-7.44982988 17.10034025 -7.25327102 14.22342329 -6 9 C-4.85513523 6.45997613 -3.54205103 4.33794833 -2 2 C-1.34 2 -0.68 2 0 2 C0 1.34 0 0.68 0 0 Z " fill="#93A071" transform="translate(295,179)"/>
<path d="M0 0 C1.4540625 0.0309375 1.4540625 0.0309375 2.9375 0.0625 C3.82126862 4.14992988 4.28722126 7.01333621 2.9375 11.0625 C2.2775 10.7325 1.6175 10.4025 0.9375 10.0625 C0.9375 9.4025 0.9375 8.7425 0.9375 8.0625 C-0.0525 7.7325 -1.0425 7.4025 -2.0625 7.0625 C-3.25 4 -3.25 4 -4.0625 1.0625 C-3.0625 0.0625 -3.0625 0.0625 0 0 Z " fill="#D2C587" transform="translate(359.0625,253.9375)"/>
<path d="M0 0 C1.87376865 3.7475373 2.3214079 5.03596919 2 9 C1 10 1 10 -1.77563477 10.11352539 C-2.98533936 10.10828857 -4.19504395 10.10305176 -5.44140625 10.09765625 C-6.74658203 10.09443359 -8.05175781 10.09121094 -9.39648438 10.08789062 C-10.7851569 10.07953401 -12.17382877 10.07106905 -13.5625 10.0625 C-14.95507656 10.05748666 -16.34765481 10.05292347 -17.74023438 10.04882812 C-21.1601987 10.03699434 -24.58007844 10.0205088 -28 10 C-28.33 10.99 -28.66 11.98 -29 13 C-29 11.68 -29 10.36 -29 9 C-19.76 9 -10.52 9 -1 9 C-0.67 6.03 -0.34 3.06 0 0 Z " fill="#445530" transform="translate(336,251)"/>
<path d="M0 0 C0 0.33 0 0.66 0 1 C-3.96 1 -7.92 1 -12 1 C-11.67 2.32 -11.34 3.64 -11 5 C-11.804375 5.28875 -12.60875 5.5775 -13.4375 5.875 C-16.1326468 6.73262568 -16.1326468 6.73262568 -17 9 C-17.28875 8.360625 -17.5775 7.72125 -17.875 7.0625 C-18.82823451 4.84793921 -18.82823451 4.84793921 -21 4 C-13.97563746 -0.40744316 -8.17367067 -0.4485551 0 0 Z " fill="#919B6D" transform="translate(271,154)"/>
<path d="M0 0 C4.30764815 1.56641751 8.06171464 3.68336156 12 6 C11.67 7.32 11.34 8.64 11 10 C7.15669809 8.88971278 4.64397692 8.02168791 2 5 C1.01 4.34 0.02 3.68 -1 3 C-0.34 3 0.32 3 1 3 C0.67 2.01 0.34 1.02 0 0 Z " fill="#707A54" transform="translate(188,146)"/>
<path d="M0 0 C4.3890815 0.51035831 7.33708062 1.52214277 11 4 C10.38125 4.12375 9.7625 4.2475 9.125 4.375 C6.80879168 4.87197356 6.80879168 4.87197356 5 7 C5 7.99 5 8.98 5 10 C0.05 8.02 0.05 8.02 -5 6 C-5 5.67 -5 5.34 -5 5 C-2.69 4.34 -0.38 3.68 2 3 C1.34 2.01 0.68 1.02 0 0 Z " fill="#6A6235" transform="translate(446,256)"/>
<path d="M0 0 C1.485 0.99 1.485 0.99 3 2 C4.66014616 2.36442233 6.32706064 2.69972883 8 3 C8.66 3.33 9.32 3.66 10 4 C9.67 7.3 9.34 10.6 9 14 C6.51600034 11.51600034 4.74074728 9.32749037 2.8125 6.4375 C2.28269531 5.65246094 1.75289063 4.86742187 1.20703125 4.05859375 C0 2 0 2 0 0 Z " fill="#D7D99C" transform="translate(266,248)"/>
<path d="M0 0 C0.33 0 0.66 0 1 0 C1.08086376 2.93804996 1.1404283 5.87388075 1.1875 8.8125 C1.21263672 9.64587891 1.23777344 10.47925781 1.26367188 11.33789062 C1.27333984 12.14033203 1.28300781 12.94277344 1.29296875 13.76953125 C1.3086792 14.50792236 1.32438965 15.24631348 1.34057617 16.00708008 C0.9047656 18.55727485 0.02623737 19.44175849 -2 21 C-2.66 21 -3.32 21 -4 21 C-4.33 21.66 -4.66 22.32 -5 23 C-5.625 21.1875 -5.625 21.1875 -6 19 C-5.01 17.515 -5.01 17.515 -4 16 C-3.31822584 14.67432801 -2.64808564 13.34246312 -2 12 C-1.67 12.33 -1.34 12.66 -1 13 C-0.67 8.71 -0.34 4.42 0 0 Z " fill="#7F8B59" transform="translate(286,251)"/>
<path d="M0 0 C0.66 0.33 1.32 0.66 2 1 C2 5.29 2 9.58 2 14 C0.68 14 -0.64 14 -2 14 C-1.85923685 12.0412957 -1.7122324 10.08303907 -1.5625 8.125 C-1.48128906 7.03445312 -1.40007812 5.94390625 -1.31640625 4.8203125 C-1 2 -1 2 0 0 Z " fill="#A0814C" transform="translate(466,197)"/>
<path d="M0 0 C0.66 0 1.32 0 2 0 C2.07654536 4.51617599 2.10228696 8.59085217 1 13 C0.34 13 -0.32 13 -1 13 C-1.33 12.34 -1.66 11.68 -2 11 C-2.66 12.32 -3.32 13.64 -4 15 C-4.125 8.375 -4.125 8.375 -3 5 C-2.01 5 -1.02 5 0 5 C0 3.35 0 1.7 0 0 Z " fill="#C8BC84" transform="translate(378,183)"/>
<path d="M0 0 C1.77174819 0.08723378 3.54247377 0.19541655 5.3125 0.3125 C6.29863281 0.37050781 7.28476562 0.42851562 8.30078125 0.48828125 C11.24384457 1.04622813 12.18182999 1.68540132 14 4 C11 6 11 6 8.08203125 5.5390625 C7.00308594 5.23742187 5.92414063 4.93578125 4.8125 4.625 C3.72582031 4.32851562 2.63914062 4.03203125 1.51953125 3.7265625 C0.68808594 3.48679688 -0.14335937 3.24703125 -1 3 C-0.67 2.01 -0.34 1.02 0 0 Z " fill="#828559" transform="translate(391,175)"/>
<path d="M0 0 C0.33 0 0.66 0 1 0 C1.08126087 2.08268593 1.13930839 4.16628658 1.1875 6.25 C1.22230469 7.41015625 1.25710938 8.5703125 1.29296875 9.765625 C0.97982934 13.22268407 0.34290892 14.51565563 -2 17 C-2 15.35 -2 13.7 -2 12 C-2.66 12 -3.32 12 -4 12 C-4 8.7 -4 5.4 -4 2 C-3.01 2.33 -2.02 2.66 -1 3 C-0.67 2.01 -0.34 1.02 0 0 Z " fill="#888451" transform="translate(412,188)"/>
<path d="M0 0 C4.65176347 0.45605524 8.41172418 0.8466667 12 4 C12.3125 7.1875 12.3125 7.1875 12 10 C11.67 10 11.34 10 11 10 C10.67 8.35 10.34 6.7 10 5 C9.01 5 8.02 5 7 5 C7 5.33 7 5.66 7 6 C6.67 6.99 6.34 7.98 6 9 C2.91910327 6.22719294 1.31224548 3.93673644 0 0 Z " fill="#82764D" transform="translate(457,177)"/>
<path d="M0 0 C0.33 0.66 0.66 1.32 1 2 C0.67 2.99 0.34 3.98 0 5 C0.66 5.33 1.32 5.66 2 6 C-2.30379747 10.66244726 -2.30379747 10.66244726 -5.0625 12 C-7.80347764 12 -9.00529627 10.78098547 -11 9 C-9.39125 8.443125 -9.39125 8.443125 -7.75 7.875 C-3.59695744 6.13122757 -2.1541217 3.87741907 0 0 Z " fill="#5F6744" transform="translate(141,255)"/>
<path d="M0 0 C4.29 0.33 8.58 0.66 13 1 C11 4 11 4 8 5 C7.34 5.66 6.68 6.32 6 7 C3.69 5.35 1.38 3.7 -1 2 C-0.67 1.34 -0.34 0.68 0 0 Z " fill="#C3C390" transform="translate(342,240)"/>
<path d="M0 0 C0.33 0.66 0.66 1.32 1 2 C1.66 2 2.32 2 3 2 C1.60846256 6.42761914 -0.52071486 8.9556255 -4 12 C-4.66 12 -5.32 12 -6 12 C-5.57405412 10.55903414 -5.13373367 9.12231288 -4.6875 7.6875 C-4.44386719 6.88699219 -4.20023437 6.08648437 -3.94921875 5.26171875 C-2.95817977 2.90035427 -1.91925057 1.66120007 0 0 Z " fill="#434D2C" transform="translate(88,168)"/>
<path d="M0 0 C4 0 4 0 5.484375 1.3125 C6.65625 2.875 7.828125 4.4375 9 6 C6 8 6 8 4 9 C3.01 8.34 2.02 7.68 1 7 C0.3125 3.375 0.3125 3.375 0 0 Z " fill="#656A47" transform="translate(429,267)"/>
<path d="M0 0 C2.4375 1.0625 2.4375 1.0625 5 3 C5.8125 6.6875 5.8125 6.6875 6 10 C4.68 9.67 3.36 9.34 2 9 C2 8.34 2 7.68 2 7 C1.34 7 0.68 7 0 7 C-0.66 5.35 -1.32 3.7 -2 2 C-1.34 1.34 -0.68 0.68 0 0 Z " fill="#CCBF84" transform="translate(365,264)"/>
<path d="M0 0 C2 1 2 1 2.625 2.625 C3.12095645 5.7660575 3.06103811 8.82601831 3 12 C2.566875 11.360625 2.13375 10.72125 1.6875 10.0625 C0.08760823 7.73253997 0.08760823 7.73253997 -3 7 C-3 8.65 -3 10.3 -3 12 C-5.18975773 8.71536341 -5.99806563 5.79303725 -7 2 C-5.68 2.33 -4.36 2.66 -3 3 C-3 3.66 -3 4.32 -3 5 C-2.34 5 -1.68 5 -1 5 C-0.67 3.35 -0.34 1.7 0 0 Z " fill="#899967" transform="translate(280,189)"/>
<path d="M0 0 C2.31 0.33 4.62 0.66 7 1 C6.67 4.3 6.34 7.6 6 11 C5.34 11 4.68 11 4 11 C3.87625 10.360625 3.7525 9.72125 3.625 9.0625 C3.41875 8.381875 3.2125 7.70125 3 7 C2.34 6.67 1.68 6.34 1 6 C1 5.34 1 4.68 1 4 C-0.32 3.67 -1.64 3.34 -3 3 C-1.02 3 0.96 3 3 3 C3 2.34 3 1.68 3 1 C2.01 0.67 1.02 0.34 0 0 Z " fill="#879B6F" transform="translate(272,155)"/>
<path d="M0 0 C0.99 0 1.98 0 3 0 C3 2.31 3 4.62 3 7 C0.03 7 -2.94 7 -6 7 C-6 6.34 -6 5.68 -6 5 C-5.38125 4.731875 -4.7625 4.46375 -4.125 4.1875 C-1.7004767 3.04443152 -1.7004767 3.04443152 0 0 Z " fill="#A3AA7C" transform="translate(347,271)"/>
<path d="M0 0 C-0.33 0.99 -0.66 1.98 -1 3 C-1.66 3 -2.32 3 -3 3 C-3 3.66 -3 4.32 -3 5 C-4.65 5.66 -6.3 6.32 -8 7 C-8.33 4.69 -8.66 2.38 -9 0 C-5.52176885 -1.15941038 -3.54104422 -0.70820884 0 0 Z " fill="#889167" transform="translate(376,241)"/>
<path d="M0 0 C1.32 0 2.64 0 4 0 C5.42944945 2.35438733 6.08661261 3.48032433 5.625 6.25 C5.41875 6.8275 5.2125 7.405 5 8 C3.33333333 8 1.66666667 8 0 8 C-0.38063221 5.6739143 -0.71269945 3.33944736 -1 1 C-0.67 0.67 -0.34 0.34 0 0 Z " fill="#EADE98" transform="translate(252,222)"/>
<path d="M0 0 C0.66 0 1.32 0 2 0 C3.21977329 2.43954658 3.20153813 4.15305849 3.25 6.875 C3.27578125 7.73867187 3.3015625 8.60234375 3.328125 9.4921875 C3 12 3 12 0 16 C0 10.72 0 5.44 0 0 Z " fill="#9BA877" transform="translate(230,205)"/>
<path d="M0 0 C0.99 0.66 1.98 1.32 3 2 C3 2.66 3 3.32 3 4 C4.32 4 5.64 4 7 4 C7 5.32 7 6.64 7 8 C5.68 8 4.36 8 3 8 C3 7.34 3 6.68 3 6 C1.35 5.67 -0.3 5.34 -2 5 C-1.34 3.35 -0.68 1.7 0 0 Z " fill="#AB9461" transform="translate(436,252)"/>
<path d="M0 0 C0 3 0 3 -1 5 C-0.34 5.33 0.32 5.66 1 6 C-0.65 7.98 -2.3 9.96 -4 12 C-4.66 11.34 -5.32 10.68 -6 10 C-6.99 10.66 -7.98 11.32 -9 12 C-7.54540242 8.60593897 -5.6345604 6.55472523 -3 4 C-1.97676564 2.68441297 -0.96873032 1.35622245 0 0 Z " fill="#7A8359" transform="translate(221,241)"/>
<path d="M0 0 C0.33 0 0.66 0 1 0 C1.33 8.25 1.66 16.5 2 25 C2.66 25.33 3.32 25.66 4 26 C1.36 26 -1.28 26 -4 26 C-3.67 25.34 -3.34 24.68 -3 24 C-2.34 24 -1.68 24 -1 24 C-0.67 16.08 -0.34 8.16 0 0 Z " fill="#91855B" transform="translate(468,187)"/>
<path d="M0 0 C0.66 0.33 1.32 0.66 2 1 C2 2.32 2 3.64 2 5 C1.01 5 0.02 5 -1 5 C-1.66 6.32 -2.32 7.64 -3 9 C-3.66 9 -4.32 9 -5 9 C-5.20086443 5.28400809 -5.1519437 4.22791555 -3 1 C-2.01 0.67 -1.02 0.34 0 0 Z " fill="#C2C48C" transform="translate(252,158)"/>
<path d="M0 0 C2.4375 0.125 2.4375 0.125 5 1 C6.3125 3.5625 6.3125 3.5625 7 6 C5.35 6.33 3.7 6.66 2 7 C2 6.34 2 5.68 2 5 C1.34 5 0.68 5 0 5 C-0.5625 3.0625 -0.5625 3.0625 -1 1 C-0.67 0.67 -0.34 0.34 0 0 Z " fill="#D2C98D" transform="translate(351,247)"/>
<path d="M0 0 C0 2.31 0 4.62 0 7 C-1.65 7.66 -3.3 8.32 -5 9 C-6.09658936 5.71023192 -5.79953138 4.28696233 -5 1 C-1.125 0 -1.125 0 0 0 Z " fill="#F1EDAB" transform="translate(282,195)"/>
<path d="M0 0 C1.43859375 -0.00773438 1.43859375 -0.00773438 2.90625 -0.015625 C5.5 0.25 5.5 0.25 8.5 2.25 C3.80614786 5.37923476 2.07971023 5.17995171 -3.5 4.25 C-3.5 3.92 -3.5 3.59 -3.5 3.25 C-1.85 2.92 -0.2 2.59 1.5 2.25 C-1.8 2.25 -5.1 2.25 -8.5 2.25 C-5.14802157 0.01534771 -3.92208754 -0.02108649 0 0 Z " fill="#818C5F" transform="translate(319.5,239.75)"/>
<path d="M0 0 C3.3 0 6.6 0 10 0 C10 0.99 10 1.98 10 3 C2.375 4.25 2.375 4.25 -1 2 C-0.67 1.34 -0.34 0.68 0 0 Z " fill="#CDD39A" transform="translate(304,210)"/>
<path d="M0 0 C0.66 0.33 1.32 0.66 2 1 C1.34 1.66 0.68 2.32 0 3 C-0.50010524 5.95769177 -0.50010524 5.95769177 0 9 C1.88077873 10.91256712 1.88077873 10.91256712 4 12 C1.125 11.6875 1.125 11.6875 -2 11 C-4.4294516 7.3558226 -4.16179575 5.28758728 -4 1 C-3.01 1 -2.02 1 -1 1 C-0.67 0.67 -0.34 0.34 0 0 Z " fill="#5C5934" transform="translate(448,198)"/>
<path d="M0 0 C0 0.33 0 0.66 0 1 C2.97 1.99 5.94 2.98 9 4 C7 5 7 5 3.6875 4.5 C0.33080689 4.04485517 -1.78134286 4.12218442 -5 5 C-5 4.34 -5 3.68 -5 3 C-5.99 2.34 -6.98 1.68 -8 1 C-5.29120665 -0.35439668 -2.99066732 -0.06501451 0 0 Z " fill="#757E52" transform="translate(391,176)"/>
<path d="M0 0 C0.66 -0.33 1.32 -0.66 2 -1 C4.6723621 -1.13415472 7.32250488 -1.04318541 10 -1 C10 -0.67 10 -0.34 10 0 C9.39671875 0.12117187 8.7934375 0.24234375 8.171875 0.3671875 C6.97304688 0.61855469 6.97304688 0.61855469 5.75 0.875 C4.96109375 1.03742188 4.1721875 1.19984375 3.359375 1.3671875 C1.03168856 1.99150075 -0.89031952 2.84838542 -3 4 C-3 2.68 -3 1.36 -3 0 C-5.97 0.66 -8.94 1.32 -12 2 C-8.18851941 -1.81148059 -5.0377709 -0.87613407 0 0 Z " fill="#29371C" transform="translate(492,176)"/>
<path d="M0 0 C0.125 2.875 0.125 2.875 0 6 C-0.66 6.66 -1.32 7.32 -2 8 C-2.99 8 -3.98 8 -5 8 C-5.75 6.25 -5.75 6.25 -6 4 C-2.77777778 0 -2.77777778 0 0 0 Z " fill="#CCD096" transform="translate(276,204)"/>
<path d="M0 0 C9.41002278 -0.3690205 9.41002278 -0.3690205 14 2 C12.68 2.33 11.36 2.66 10 3 C10.99 3.66 11.98 4.32 13 5 C8.02693484 4.50269348 4.36200187 3.44697666 0 1 C0 0.67 0 0.34 0 0 Z " fill="#7A835A" transform="translate(168,141)"/>
<path d="M0 0 C0.33 0 0.66 0 1 0 C0.67 2.97 0.34 5.94 0 9 C-1.32 8.34 -2.64 7.68 -4 7 C-4 10.3 -4 13.6 -4 17 C-4.33 17 -4.66 17 -5 17 C-5 13.37 -5 9.74 -5 6 C-4.34 6 -3.68 6 -3 6 C-2.690625 5.195625 -2.38125 4.39125 -2.0625 3.5625 C-1 1 -1 1 0 0 Z " fill="#ECEBAF" transform="translate(295,183)"/>
<path d="M0 0 C2.86724686 0.57344937 3.8614515 0.8614515 6 3 C6.33 3.66 6.66 4.32 7 5 C6.34 5 5.68 5 5 5 C4.67 5.66 4.34 6.32 4 7 C1.525 6.01 1.525 6.01 -1 5 C-0.67 3.35 -0.34 1.7 0 0 Z " fill="#EDE8A8" transform="translate(268,182)"/>
<path d="M0 0 C0.92232422 0.32484375 0.92232422 0.32484375 1.86328125 0.65625 C3.07564453 1.07390625 3.07564453 1.07390625 4.3125 1.5 C5.11300781 1.7784375 5.91351563 2.056875 6.73828125 2.34375 C9.08769422 3.13933107 9.08769422 3.13933107 12 3 C12 3.66 12 4.32 12 5 C9.03 5 6.06 5 3 5 C2.67 4.34 2.34 3.68 2 3 C1.01 3 0.02 3 -1 3 C-0.67 2.01 -0.34 1.02 0 0 Z " fill="#B6AE7D" transform="translate(396,273)"/>
<path d="M0 0 C0 2.31 0 4.62 0 7 C-3 7 -3 7 -6 5 C-5.1875 3.0625 -5.1875 3.0625 -4 1 C-1 0 -1 0 0 0 Z " fill="#CACA90" transform="translate(310,244)"/>
<path d="M0 0 C0.99 0 1.98 0 3 0 C4.28317892 3.84953676 4.06643637 6.94738135 4 11 C1.38726012 9.69363006 1.02763876 8.71590242 0 6 C-0.125 2.75 -0.125 2.75 0 0 Z " fill="#A8B283" transform="translate(227,192)"/>
<path d="M0 0 C0.66 0.33 1.32 0.66 2 1 C1.2884375 1.5878125 1.2884375 1.5878125 0.5625 2.1875 C-1.20773142 3.91711841 -1.20773142 3.91711841 -1.375 6.4375 C-2.23134741 9.9485244 -4.10202284 10.99370812 -7 13 C-7.66 12.67 -8.32 12.34 -9 12 C-7.71034824 10.62437146 -6.37310707 9.29233607 -5 8 C-4.34 8 -3.68 8 -3 8 C-3 7.34 -3 6.68 -3 6 C-3.99 5.67 -4.98 5.34 -6 5 C-4.02 3.35 -2.04 1.7 0 0 Z " fill="#334320" transform="translate(107,150)"/>
<path d="M0 0 C-0.99 0.495 -0.99 0.495 -2 1 C-2 1.66 -2 2.32 -2 3 C-9.625 5 -9.625 5 -13 5 C-13 4.34 -13 3.68 -13 3 C-4.57142857 -0.42857143 -4.57142857 -0.42857143 0 0 Z " fill="#7A7954" transform="translate(130,143)"/>
<path d="M0 0 C0.66 1.32 1.32 2.64 2 4 C-1.01324195 5.50662097 -3.68286377 5.17770373 -7 5 C-7.66 4.34 -8.32 3.68 -9 3 C-6.31795079 0.31795079 -3.73391546 0 0 0 Z " fill="#9DAD79" transform="translate(255,274)"/>
<path d="M0 0 C1.32 0 2.64 0 4 0 C4.33 2.64 4.66 5.28 5 8 C2.53199953 6.84826645 0.95216435 5.95216435 -1 4 C-0.625 1.875 -0.625 1.875 0 0 Z " fill="#EBE5A8" transform="translate(304,264)"/>
<path d="M0 0 C2.58787727 2.58787727 2.62709152 4.42007861 3 8 C2.67 8.66 2.34 9.32 2 10 C-0.52588702 7.63707344 -1.88820837 6.33537489 -3 3 C-2.34 3 -1.68 3 -1 3 C-0.67 2.01 -0.34 1.02 0 0 Z " fill="#EFE9A8" transform="translate(268,242)"/>
<path d="M0 0 C0.66 0.33 1.32 0.66 2 1 C1.3125 2.875 1.3125 2.875 0 5 C-0.845625 5.28875 -1.69125 5.5775 -2.5625 5.875 C-3.7690625 6.431875 -3.7690625 6.431875 -5 7 C-5.89830839 10.05272465 -5.89830839 10.05272465 -6 13 C-6.33 13 -6.66 13 -7 13 C-6.74126898 8.60157266 -6.43893111 6.50477078 -3.5 3.125 C-2.2625 2.073125 -2.2625 2.073125 -1 1 C-0.67 0.67 -0.34 0.34 0 0 Z " fill="#6D6D48" transform="translate(446,194)"/>
<path d="M0 0 C0.66 0 1.32 0 2 0 C2 2.31 2 4.62 2 7 C0.02 7 -1.96 7 -4 7 C-3.67 5.68 -3.34 4.36 -3 3 C-2.34 3 -1.68 3 -1 3 C-0.67 2.01 -0.34 1.02 0 0 Z " fill="#9DA67A" transform="translate(335,267)"/>
<path d="M0 0 C1.95803507 -0.05389087 3.91648909 -0.09274217 5.875 -0.125 C7.51082031 -0.15980469 7.51082031 -0.15980469 9.1796875 -0.1953125 C12 0 12 0 14 2 C9.38411065 3.013244 5.62927172 2.99847037 1 2 C0.67 1.34 0.34 0.68 0 0 Z " fill="#999167" transform="translate(439,241)"/>
<path d="M0 0 C0.66 0.33 1.32 0.66 2 1 C1.34 2.32 0.68 3.64 0 5 C-0.99 5 -1.98 5 -3 5 C-3 6.65 -3 8.3 -3 10 C-3.99 10 -4.98 10 -6 10 C-6.33 10.99 -6.66 11.98 -7 13 C-6.70876501 7.02968261 -3.97185616 4.105466 0 0 Z " fill="#818556" transform="translate(381,178)"/>
<path d="M0 0 C1.32 0.66 2.64 1.32 4 2 C2.74821404 4.50357192 1.00018842 6.06433379 -1 8 C-1.99 6.35 -2.98 4.7 -4 3 C-3.01 2.67 -2.02 2.34 -1 2 C-0.67 1.34 -0.34 0.68 0 0 Z " fill="#9F9F69" transform="translate(357,178)"/>
<path d="M0 0 C2.475 0.495 2.475 0.495 5 1 C4.67 3.64 4.34 6.28 4 9 C1.47740939 7.02579865 1.0070192 6.03254358 0.3125 2.8125 C0.209375 1.884375 0.10625 0.95625 0 0 Z " fill="#F3EEAC" transform="translate(278,262)"/>
<path d="M0 0 C1.65 0.99 3.3 1.98 5 3 C4.67 3.99 4.34 4.98 4 6 C3.21625 5.95875 2.4325 5.9175 1.625 5.875 C-1.16116119 5.71271266 -1.16116119 5.71271266 -3 8 C-3.99 6.35 -4.98 4.7 -6 3 C-5.34 3 -4.68 3 -4 3 C-4 3.66 -4 4.32 -4 5 C-2.35 4.67 -0.7 4.34 1 4 C0.67 2.68 0.34 1.36 0 0 Z " fill="#7B8052" transform="translate(357,249)"/>
<path d="M0 0 C3 2 3 2 4 5 C4.12781786 7.67394964 4.04391871 10.32095857 4 13 C3.34 13 2.68 13 2 13 C1.66127487 11.58461283 1.32925376 10.16762037 1 8.75 C0.814375 7.96109375 0.62875 7.1721875 0.4375 6.359375 C0 4 0 4 0 0 Z " fill="#94956A" transform="translate(141,239)"/>
<path d="M0 0 C1.5 1.1875 1.5 1.1875 3 3 C3.1875 5.6875 3.1875 5.6875 3 8 C1.68 8 0.36 8 -1 8 C-1.625 5.6875 -1.625 5.6875 -2 3 C-1.34 2.01 -0.68 1.02 0 0 Z " fill="#EBE4A2" transform="translate(264,235)"/>
<path d="M0 0 C0.33 0 0.66 0 1 0 C1.33 4.62 1.66 9.24 2 14 C1.01 13.67 0.02 13.34 -1 13 C-1.02708567 11.39592672 -1.04643483 9.7917215 -1.0625 8.1875 C-1.07410156 7.29417969 -1.08570313 6.40085938 -1.09765625 5.48046875 C-1 3 -1 3 0 0 Z " fill="#92A06F" transform="translate(295,189)"/>
<path d="M0 0 C0 0.66 0 1.32 0 2 C-3.63 2 -7.26 2 -11 2 C-11.33 1.34 -11.66 0.68 -12 0 C-7.6835078 -0.76173392 -4.25566547 -1.16063604 0 0 Z " fill="#E3E5AA" transform="translate(270,211)"/>
<path d="M0 0 C0.66 0.66 1.32 1.32 2 2 C2.66 1.67 3.32 1.34 4 1 C2.75023244 4.65316671 2.32901247 5.78065836 -1 8 C-1 7.01 -1 6.02 -1 5 C-1.66 5 -2.32 5 -3 5 C-1.125 1.125 -1.125 1.125 0 0 Z " fill="#747C52" transform="translate(367,245)"/>
<path d="M0 0 C0.33 0 0.66 0 1 0 C1 3.3 1 6.6 1 10 C0.01 10.33 -0.98 10.66 -2 11 C-2.25 3.375 -2.25 3.375 0 0 Z " fill="#A9B184" transform="translate(229,222)"/>
<path d="M0 0 C-1.70828921 2.10633718 -2.52148416 2.93801608 -5.26171875 3.29296875 C-6.06222656 3.25816406 -6.86273438 3.22335938 -7.6875 3.1875 C-8.89986328 3.14689453 -8.89986328 3.14689453 -10.13671875 3.10546875 C-11.05904297 3.05326172 -11.05904297 3.05326172 -12 3 C-12 2.34 -12 1.68 -12 1 C-7.9472484 0.01751476 -4.16138263 -0.08159574 0 0 Z " fill="#B2AF80" transform="translate(403,210)"/>
<path d="M0 0 C0.66 0 1.32 0 2 0 C2 0.99 2 1.98 2 3 C2.66 3 3.32 3 4 3 C4.33 4.32 4.66 5.64 5 7 C3.02 7.99 3.02 7.99 1 9 C0.08941469 5.92677456 -0.08886184 3.19902639 0 0 Z " fill="#C9BA7F" transform="translate(377,198)"/>
<path d="M0 0 C0 0.99 0 1.98 0 3 C-2.64 3.33 -5.28 3.66 -8 4 C-8 3.01 -8 2.02 -8 1 C-2.25 -1.125 -2.25 -1.125 0 0 Z " fill="#67754A" transform="translate(428,155)"/>
<path d="M0 0 C5.28 0.33 10.56 0.66 16 1 C16 1.33 16 1.66 16 2 C15.09507812 2.09087891 15.09507812 2.09087891 14.171875 2.18359375 C12.97304687 2.30927734 12.97304687 2.30927734 11.75 2.4375 C10.96109375 2.51871094 10.1721875 2.59992188 9.359375 2.68359375 C7.00603222 2.94200921 7.00603222 2.94200921 4.8125 3.62109375 C4.214375 3.74613281 3.61625 3.87117188 3 4 C1.25 2.625 1.25 2.625 0 1 C0 0.67 0 0.34 0 0 Z " fill="#81885E" transform="translate(168,264)"/>
<path d="M0 0 C5.75 -0.125 5.75 -0.125 8 1 C8 1.66 8 2.32 8 3 C8.99 3.33 9.98 3.66 11 4 C8 5 8 5 5.95703125 4.22265625 C5.24933594 3.83980469 4.54164062 3.45695312 3.8125 3.0625 C3.09707031 2.68222656 2.38164063 2.30195313 1.64453125 1.91015625 C1.10183594 1.60980469 0.55914062 1.30945313 0 1 C0 0.67 0 0.34 0 0 Z " fill="#77744E" transform="translate(100,260)"/>
<path d="M0 0 C1.0209375 0.2165625 1.0209375 0.2165625 2.0625 0.4375 C5.36273082 1.06945909 8.67144426 1.54313941 12 2 C12 2.33 12 2.66 12 3 C7.05 4.485 7.05 4.485 2 6 C1.34 4.02 0.68 2.04 0 0 Z " fill="#61613B" transform="translate(435,241)"/>
<path d="M0 0 C2.475 0.99 2.475 0.99 5 2 C4.34 3.65 3.68 5.3 3 7 C2.01 6.67 1.02 6.34 0 6 C-0.75 4.0625 -0.75 4.0625 -1 2 C-0.67 1.34 -0.34 0.68 0 0 Z " fill="#D8D392" transform="translate(259,229)"/>
<path d="M0 0 C1.9375 1.125 1.9375 1.125 4 3 C4.75 6.1875 4.75 6.1875 5 9 C4.01 9 3.02 9 2 9 C2 8.34 2 7.68 2 7 C1.34 7 0.68 7 0 7 C0 4.69 0 2.38 0 0 Z " fill="#706F4A" transform="translate(76,229)"/>
<path d="M0 0 C3.63 1.98 7.26 3.96 11 6 C6.72693453 7.06826637 5.68978531 7.13619149 2 5 C1.34 3.35 0.68 1.7 0 0 Z " fill="#56583A" transform="translate(440,208)"/>
<path d="M0 0 C1.32 0.66 2.64 1.32 4 2 C0.67692308 6.8 0.67692308 6.8 -2.75 7.8125 C-3.4925 7.874375 -4.235 7.93625 -5 8 C-5 7.34 -5 6.68 -5 6 C-4.01 6 -3.02 6 -2 6 C-2 5.34 -2 4.68 -2 4 C-2.66 3.34 -3.32 2.68 -4 2 C-2.68 2 -1.36 2 0 2 C0 1.34 0 0.68 0 0 Z " fill="#5D633B" transform="translate(459,207)"/>
<path d="M0 0 C0.99 0.33 1.98 0.66 3 1 C3.33 2.98 3.66 4.96 4 7 C2.68 7.33 1.36 7.66 0 8 C-0.99 6.35 -1.98 4.7 -3 3 C-2.01 3.33 -1.02 3.66 0 4 C0 2.68 0 1.36 0 0 Z " fill="#526848" transform="translate(319,178)"/>
<path d="M0 0 C3.465 1.485 3.465 1.485 7 3 C6.67 3.99 6.34 4.98 6 6 C4.35 5.67 2.7 5.34 1 5 C0.67 3.35 0.34 1.7 0 0 Z " fill="#838C64" transform="translate(198,153)"/>
<path d="M0 0 C2.0625 1.5625 2.0625 1.5625 4 4 C3.75 7.75 3.75 7.75 3 11 C2.34 10.67 1.68 10.34 1 10 C0.5859375 7.71484375 0.5859375 7.71484375 0.375 4.9375 C0.30023438 4.01839844 0.22546875 3.09929687 0.1484375 2.15234375 C0.09945313 1.44207031 0.05046875 0.73179687 0 0 Z " fill="#4E5A3A" transform="translate(457,261)"/>
<path d="M0 0 C1.32 0.33 2.64 0.66 4 1 C3.67 3.64 3.34 6.28 3 9 C2.34 9 1.68 9 1 9 C0.67 6.03 0.34 3.06 0 0 Z " fill="#A6874E" transform="translate(454,263)"/>
<path d="M0 0 C-0.33 0.99 -0.66 1.98 -1 3 C-3.64 3.33 -6.28 3.66 -9 4 C-8.67 3.01 -8.34 2.02 -8 1 C-5.29120665 -0.35439668 -2.99066732 -0.06501451 0 0 Z " fill="#9B855B" transform="translate(458,210)"/>
<path d="M0 0 C0.33 0 0.66 0 1 0 C1.02699725 2.27076842 1.04639453 4.54162821 1.0625 6.8125 C1.07410156 8.07707031 1.08570313 9.34164062 1.09765625 10.64453125 C1 14 1 14 0 17 C-1.32 16.67 -2.64 16.34 -4 16 C-3.51917969 15.64292969 -3.03835938 15.28585938 -2.54296875 14.91796875 C-0.31575162 12.14945328 -0.48605989 9.81840977 -0.3125 6.3125 C-0.21388672 4.54326172 -0.21388672 4.54326172 -0.11328125 2.73828125 C-0.07589844 1.83464844 -0.03851563 0.93101562 0 0 Z " fill="#928458" transform="translate(464,192)"/>
<path d="M0 0 C0 0.66 0 1.32 0 2 C0.66 2.33 1.32 2.66 2 3 C-3.28 2.67 -8.56 2.34 -14 2 C-14 1.67 -14 1.34 -14 1 C-12.22932584 0.83165067 -10.45845388 0.66538091 -8.6875 0.5 C-7.70136719 0.4071875 -6.71523438 0.314375 -5.69921875 0.21875 C-3 0 -3 0 0 0 Z " fill="#E1DCA1" transform="translate(332,257)"/>
<path d="M0 0 C2.475 0.495 2.475 0.495 5 1 C4.67 3.31 4.34 5.62 4 8 C3.67 7.34 3.34 6.68 3 6 C2.34 6 1.68 6 1 6 C0.67 4.02 0.34 2.04 0 0 Z " fill="#DBDEA3" transform="translate(303,249)"/>
<path d="M0 0 C-0.33 2.31 -0.66 4.62 -1 7 C-2.32 7.33 -3.64 7.66 -5 8 C-4.40138258 5.64828869 -3.73075648 3.3140622 -3 1 C-1 0 -1 0 0 0 Z " fill="#94A278" transform="translate(225,238)"/>
<path d="M0 0 C2.475 0.495 2.475 0.495 5 1 C5 3.31 5 5.62 5 8 C4.34 8 3.68 8 3 8 C2.01 5.36 1.02 2.72 0 0 Z " fill="#90916F" transform="translate(159,233)"/>
<path d="M0 0 C2.61500768 2.36595933 4.38999603 4.86049226 6 8 C5.67 8.66 5.34 9.32 5 10 C2 9 2 9 0.8125 6.6875 C0 4 0 4 0 0 Z " fill="#929E6F" transform="translate(256,220)"/>
<path d="M0 0 C0.33 1.65 0.66 3.3 1 5 C-1.97 4.505 -1.97 4.505 -5 4 C-5 3.34 -5 2.68 -5 2 C-5.66 1.67 -6.32 1.34 -7 1 C-4.53721199 -0.231394 -2.7204945 -0.07159196 0 0 Z " fill="#F1F0AB" transform="translate(280,189)"/>
<path d="M0 0 C0.99 0 1.98 0 3 0 C2.979375 1.2375 2.95875 2.475 2.9375 3.75 C2.93233319 6.6640825 3.06984442 9.20953327 4 12 C2.68 11.67 1.36 11.34 0 11 C0 7.37 0 3.74 0 0 Z " fill="#8F9465" transform="translate(251,163)"/>
<path d="M0 0 C4.3890815 0.51035831 7.33708062 1.52214277 11 4 C8.50935112 4.68707555 6.62113708 5 4 5 C4 4.01 4 3.02 4 2 C2.68 1.34 1.36 0.68 0 0 Z " fill="#5E5E3A" transform="translate(446,256)"/>
<path d="M0 0 C0.99 0 1.98 0 3 0 C3 1.65 3 3.3 3 5 C1.68 5.33 0.36 5.66 -1 6 C-1.042721 4.33388095 -1.04063832 2.66617115 -1 1 C-0.67 0.67 -0.34 0.34 0 0 Z " fill="#91996D" transform="translate(363,250)"/>
<path d="M0 0 C1.98 0.66 3.96 1.32 6 2 C5.67 3.32 5.34 4.64 5 6 C3.02 4.68 1.04 3.36 -1 2 C-0.67 1.34 -0.34 0.68 0 0 Z " fill="#82926B" transform="translate(342,240)"/>
<path d="M0 0 C0 0.99 0 1.98 0 3 C-0.66 3 -1.32 3 -2 3 C-2 3.66 -2 4.32 -2 5 C-1.34 5.33 -0.68 5.66 0 6 C-2.70879335 7.35439668 -5.00933268 7.06501451 -8 7 C-6.68 6.67 -5.36 6.34 -4 6 C-4 4.68 -4 3.36 -4 2 C-2.68 1.34 -1.36 0.68 0 0 Z " fill="#9DA979" transform="translate(318,207)"/>
<path d="M0 0 C1.32 0.33 2.64 0.66 4 1 C4 1.66 4 2.32 4 3 C4.66 3 5.32 3 6 3 C6 3.66 6 4.32 6 5 C5.34 5 4.68 5 4 5 C4 6.65 4 8.3 4 10 C1.81024227 6.71536341 1.00193437 3.79303725 0 0 Z " fill="#A6A778" transform="translate(273,191)"/>
<path d="M0 0 C0 0.66 0 1.32 0 2 C-1.63260714 3.37482707 -3.30225062 4.70647667 -5 6 C-5.66 6.66 -6.32 7.32 -7 8 C-7.33 7.01 -7.66 6.02 -8 5 C-3.375 0 -3.375 0 0 0 Z " fill="#7E784F" transform="translate(104,156)"/>
<path d="M0 0 C4.42105263 2.94736842 4.42105263 2.94736842 6 5 C5.578125 7.1015625 5.578125 7.1015625 5 9 C4.16094435 7.87926138 3.32892169 6.75325453 2.5 5.625 C2.0359375 4.99851563 1.571875 4.37203125 1.09375 3.7265625 C0 2 0 2 0 0 Z " fill="#99A371" transform="translate(266,248)"/>
<path d="M0 0 C1.09658936 3.28976808 0.79953138 4.71303767 0 8 C-1.32 8.33 -2.64 8.66 -4 9 C-2.94124926 5.59687262 -1.99097846 2.98646769 0 0 Z " fill="#74704F" transform="translate(81,181)"/>
<path d="M0 0 C-3.44450737 2.29633824 -5.93812283 2.54016485 -10 3 C-10 2.34 -10 1.68 -10 1 C-6.78548731 -0.60725635 -3.56387464 -0.05748185 0 0 Z " fill="#837548" transform="translate(504,176)"/>
<path d="M0 0 C0 0.33 0 0.66 0 1 C-1.65 1.33 -3.3 1.66 -5 2 C-3.68 2.66 -2.36 3.32 -1 4 C-2.98 4 -4.96 4 -7 4 C-7 3.34 -7 2.68 -7 2 C-8.32 1.67 -9.64 1.34 -11 1 C-7.32589215 -0.17571451 -3.83070817 -0.07366746 0 0 Z " fill="#7C8D5C" transform="translate(312,175)"/>
<path d="M0 0 C0.66 0 1.32 0 2 0 C1.62403791 2.78211944 1.32681541 4.5879284 -0.4375 6.8125 C-2 8 -2 8 -4 8 C-2.25 2.25 -2.25 2.25 0 0 Z " fill="#797854" transform="translate(86,172)"/>
<path d="M0 0 C2.0625 0.4375 2.0625 0.4375 4 1 C4.33 2.32 4.66 3.64 5 5 C3.125 4.6875 3.125 4.6875 1 4 C0.34 3.01 -0.32 2.02 -1 1 C-0.67 0.67 -0.34 0.34 0 0 Z " fill="#959E70" transform="translate(204,158)"/>
<path d="M0 0 C1.625 2 1.625 2 3 4 C2.01 4.33 1.02 4.66 0 5 C-0.33 5.66 -0.66 6.32 -1 7 C-1.433125 6.0409375 -1.433125 6.0409375 -1.875 5.0625 C-2.82823451 2.84793921 -2.82823451 2.84793921 -5 2 C-2 0 -2 0 0 0 Z " fill="#868E64" transform="translate(255,156)"/>
<path d="M0 0 C0.66 0.66 1.32 1.32 2 2 C1.75 4.5625 1.75 4.5625 1 7 C0.01 7.495 0.01 7.495 -1 8 C-1.93065133 5.39417629 -2.14917407 4.35801776 -1.0625 1.75 C-0.711875 1.1725 -0.36125 0.595 0 0 Z " fill="#B4A46D" transform="translate(392,266)"/>
<path d="M0 0 C0.66 0.33 1.32 0.66 2 1 C1.67 1.33 1.34 1.66 1 2 C1.66 2.66 2.32 3.32 3 4 C1.35 4.66 -0.3 5.32 -2 6 C-2.99 5.01 -3.98 4.02 -5 3 C-2.625 1.4375 -2.625 1.4375 0 0 Z " fill="#5E6C45" transform="translate(204,257)"/>
<path d="M0 0 C-0.66 0 -1.32 0 -2 0 C-2.33 1.32 -2.66 2.64 -3 4 C-4.32 3.34 -5.64 2.68 -7 2 C-7 1.34 -7 0.68 -7 0 C-3.86650268 -1.04449911 -3.01031744 -0.93423645 0 0 Z " fill="#6E6941" transform="translate(487,178)"/>
<path d="M0 0 C3.5 0.3125 3.5 0.3125 7 1 C7.33 1.66 7.66 2.32 8 3 C5.75 3.6875 5.75 3.6875 3 4 C0.6875 2.5625 0.6875 2.5625 -1 1 C-0.67 0.67 -0.34 0.34 0 0 Z " fill="#B7AD7D" transform="translate(397,177)"/>
<path d="M0 0 C0.66 0 1.32 0 2 0 C2 0.99 2 1.98 2 3 C1.01 3.495 1.01 3.495 0 4 C-0.99 5.485 -0.99 5.485 -2 7 C-2.66 6.67 -3.32 6.34 -4 6 C-2.84826645 3.53199953 -1.95216435 1.95216435 0 0 Z " fill="#757451" transform="translate(109,150)"/>
<path d="M0 0 C1.88343932 3.76687864 2.22057835 5.02958963 2 9 C1.01 9 0.02 9 -1 9 C-0.67 6.03 -0.34 3.06 0 0 Z " fill="#818F67" transform="translate(336,251)"/>
<path d="M0 0 C0.66 0 1.32 0 2 0 C2.33 0.99 2.66 1.98 3 3 C2.01 3.66 1.02 4.32 0 5 C-1.19232613 7.05003955 -1.19232613 7.05003955 -2 9 C-1.125 1.125 -1.125 1.125 0 0 Z " fill="#847847" transform="translate(490,179)"/>
<path d="M0 0 C1.9375 0.625 1.9375 0.625 4 2 C4.75 5.125 4.75 5.125 5 8 C2.27573689 5.64722731 1.1858237 3.37503669 0 0 Z " fill="#A7B581" transform="translate(275,262)"/>
<path d="M0 0 C1.875 0.625 1.875 0.625 4 2 C5.25 5.125 5.25 5.125 6 8 C5.01 7.67 4.02 7.34 3 7 C1.3125 3.4375 1.3125 3.4375 0 0 Z " fill="#7E865A" transform="translate(330,243)"/>
<path d="M0 0 C1.32 0 2.64 0 4 0 C2.25 4.875 2.25 4.875 0 6 C0 4.02 0 2.04 0 0 Z " fill="#AEB485" transform="translate(338,178)"/>
<path d="M0 0 C0.66 0.33 1.32 0.66 2 1 C2 2.32 2 3.64 2 5 C0.68 5 -0.64 5 -2 5 C-2 3.68 -2 2.36 -2 1 C-1.34 0.67 -0.68 0.34 0 0 Z " fill="#E1DFA1" transform="translate(252,158)"/>
</svg>
