<?xml version="1.0" encoding="UTF-8"?>
<svg version="1.1" xmlns="http://www.w3.org/2000/svg" width="64" height="64">
<path d="M0 0 C5.93431181 4.27133768 10.20568179 9.34232669 12.03515625 16.46484375 C13.04681569 25.45263916 12.4657593 33.03709197 7.03515625 40.46484375 C2.2754769 45.78980568 -3.04719702 49.03485813 -10.16796875 49.81640625 C-19.36512824 50.19464441 -26.15160915 48.8299187 -33.0625 42.5625 C-39.50376135 35.67154073 -40.45086305 29.20915183 -40.265625 19.9375 C-39.51985175 11.32720885 -35.75963599 6.67407018 -29.37890625 1.09375 C-21.20769726 -4.41983277 -8.67190296 -4.5547752 0 0 Z M-19.96484375 9.46484375 C-18.0994438 13.66199365 -15.24872781 16.73210097 -12.23046875 20.1484375 C-10.96484375 22.46484375 -10.96484375 22.46484375 -11.53515625 24.98828125 C-13.00572922 27.53566722 -14.57769511 29.51184818 -16.58984375 31.65234375 C-19.25024237 34.15448522 -19.25024237 34.15448522 -19.96484375 37.46484375 C-16.79629628 36.88792897 -15.18257916 36.04837488 -12.94921875 33.7421875 C-12.42070313 33.20400391 -11.8921875 32.66582031 -11.34765625 32.11132812 C-10.53941406 31.26538086 -10.53941406 31.26538086 -9.71484375 30.40234375 C-8.88339844 29.5505957 -8.88339844 29.5505957 -8.03515625 28.68164062 C-6.67150161 27.28271906 -5.31723958 25.87465261 -3.96484375 24.46484375 C-5.57814689 20.45545132 -8.38944073 17.70810594 -11.40234375 14.71484375 C-11.89283203 14.20824219 -12.38332031 13.70164062 -12.88867188 13.1796875 C-14.18769336 11.87891295 -15.57229498 10.66496007 -16.96484375 9.46484375 C-17.95484375 9.46484375 -18.94484375 9.46484375 -19.96484375 9.46484375 Z " fill="#FFFFFF" transform="translate(45.96484375,8.53515625)"/>
</svg>
