<?xml version="1.0" encoding="UTF-8"?>
<svg version="1.1" xmlns="http://www.w3.org/2000/svg" width="32" height="32">
<path d="M0 0 C0.83265381 0.00523682 1.66530762 0.01047363 2.52319336 0.01586914 C3.42231445 0.0190918 4.32143555 0.02231445 5.24780273 0.02563477 C6.66609375 0.03820312 6.66609375 0.03820312 8.11303711 0.05102539 C9.06243164 0.05553711 10.01182617 0.06004883 10.98999023 0.06469727 C13.34356776 0.07652429 15.69702188 0.09300514 18.05053711 0.11352539 C18.05053711 0.77352539 18.05053711 1.43352539 18.05053711 2.11352539 C16.2271582 2.2044043 16.2271582 2.2044043 14.36694336 2.29711914 C12.78229483 2.38150871 11.19766009 2.46615749 9.61303711 2.55102539 C8.8105957 2.5903418 8.0081543 2.6296582 7.18139648 2.67016602 C3.2981415 2.51895499 3.2981415 2.51895499 0.05053711 4.11352539 C-0.03578163 5.45619952 -0.05652762 6.80326861 -0.04711914 8.14868164 C-0.04389648 8.95756836 -0.04067383 9.76645508 -0.03735352 10.59985352 C-0.02897461 11.44999023 -0.0205957 12.30012695 -0.01196289 13.17602539 C-0.00745117 14.0300293 -0.00293945 14.8840332 0.00170898 15.76391602 C0.01353338 17.88048203 0.03146942 19.99701224 0.05053711 22.11352539 C0.38053711 22.11352539 0.71053711 22.11352539 1.05053711 22.11352539 C1.38053711 16.50352539 1.71053711 10.89352539 2.05053711 5.11352539 C10.46553711 4.61852539 10.46553711 4.61852539 19.05053711 4.11352539 C19.05053711 2.79352539 19.05053711 1.47352539 19.05053711 0.11352539 C20.37053711 0.44352539 21.69053711 0.77352539 23.05053711 1.11352539 C23.05053711 2.10352539 23.05053711 3.09352539 23.05053711 4.11352539 C23.85491211 4.25790039 24.65928711 4.40227539 25.48803711 4.55102539 C28.05053711 5.11352539 28.05053711 5.11352539 29.05053711 6.11352539 C28.68933936 12.49468572 28.68933936 12.49468572 26.05053711 15.05102539 C23.0625956 18.13234007 23.39632549 20.89490711 23.05053711 25.11352539 C21.33485919 26.82920331 19.07680976 26.24368364 16.73803711 26.24633789 C15.66295898 26.24762695 14.58788086 26.24891602 13.48022461 26.25024414 C12.34842773 26.24637695 11.21663086 26.24250977 10.05053711 26.23852539 C8.91874023 26.24239258 7.78694336 26.24625977 6.62084961 26.25024414 C5.54577148 26.24895508 4.47069336 26.24766602 3.36303711 26.24633789 C2.36916992 26.24520996 1.37530273 26.24408203 0.35131836 26.24291992 C-1.94946289 26.11352539 -1.94946289 26.11352539 -2.94946289 25.11352539 C-3.04892742 23.34493346 -3.08026506 21.57241088 -3.08227539 19.80102539 C-3.08356445 18.72594727 -3.08485352 17.65086914 -3.08618164 16.54321289 C-3.08038086 14.84551758 -3.08038086 14.84551758 -3.07446289 13.11352539 C-3.07833008 11.98172852 -3.08219727 10.84993164 -3.08618164 9.68383789 C-3.08489258 8.60875977 -3.08360352 7.53368164 -3.08227539 6.42602539 C-3.08114746 5.4321582 -3.08001953 4.43829102 -3.07885742 3.41430664 C-2.91753099 0.54574013 -2.86645481 0.16692567 0 0 Z M18.42553711 12.61352539 C17.64178711 13.43852539 16.85803711 14.26352539 16.05053711 15.11352539 C16.38053711 15.77352539 16.71053711 16.43352539 17.05053711 17.11352539 C19.03053711 14.80352539 21.01053711 12.49352539 23.05053711 10.11352539 C20.68774975 9.88364033 20.68774975 9.88364033 18.42553711 12.61352539 Z " fill="#071E36" transform="translate(2.949462890625,2.886474609375)"/>
</svg>
