<svg xmlns="http://www.w3.org/2000/svg"  viewBox="0 0 32 32" width="32px" height="32px" baseProfile="basic"><linearGradient id="6kBQqXTSCVx9jjC_XUwAYa" x1="16" x2="16" y1="2" y2="5" gradientUnits="userSpaceOnUse"><stop offset="0" stop-color="#ffd85c"/><stop offset="1" stop-color="#c98600"/></linearGradient><path fill="url(#6kBQqXTSCVx9jjC_XUwAYa)" d="M18,5h-4V3c0-0.552,0.448-1,1-1h2c0.552,0,1,0.448,1,1V5z"/><linearGradient id="6kBQqXTSCVx9jjC_XUwAYb" x1="16" x2="16" y1="2" y2="5" gradientUnits="userSpaceOnUse"><stop offset="0" stop-opacity=".02"/><stop offset="1" stop-opacity=".15"/></linearGradient><path fill="url(#6kBQqXTSCVx9jjC_XUwAYb)" d="M17,2.25c0.414,0,0.75,0.336,0.75,0.75	v1.75h-3.5V3c0-0.414,0.336-0.75,0.75-0.75H17 M17,2h-2c-0.552,0-1,0.448-1,1v2h4V3C18,2.448,17.552,2,17,2L17,2z"/><linearGradient id="6kBQqXTSCVx9jjC_XUwAYc" x1="16" x2="16" y1="23" y2="29" gradientUnits="userSpaceOnUse"><stop offset="0" stop-color="#a66f00"/><stop offset=".3" stop-color="#a66f00"/><stop offset=".643" stop-color="#ea9c00"/><stop offset="1" stop-color="#ffdc6e"/></linearGradient><circle cx="16" cy="26" r="3" fill="url(#6kBQqXTSCVx9jjC_XUwAYc)"/><linearGradient id="6kBQqXTSCVx9jjC_XUwAYd" x1="16" x2="16" y1="23" y2="29" gradientUnits="userSpaceOnUse"><stop offset="0" stop-opacity=".02"/><stop offset="1" stop-opacity=".15"/></linearGradient><path fill="url(#6kBQqXTSCVx9jjC_XUwAYd)" d="M16,23.25c1.516,0,2.75,1.234,2.75,2.75	s-1.234,2.75-2.75,2.75s-2.75-1.234-2.75-2.75S14.484,23.25,16,23.25 M16,23c-1.657,0-3,1.343-3,3s1.343,3,3,3s3-1.343,3-3	S17.657,23,16,23L16,23z"/><linearGradient id="6kBQqXTSCVx9jjC_XUwAYe" x1="3" x2="29" y1="15" y2="15" gradientUnits="userSpaceOnUse"><stop offset="0" stop-color="#fa0"/><stop offset=".166" stop-color="#ffb409"/><stop offset=".322" stop-color="#ffc216"/><stop offset=".384" stop-color="#ffc931"/><stop offset=".484" stop-color="#ffd763"/><stop offset=".61" stop-color="#ffc91c"/><stop offset=".666" stop-color="#f6bc15"/><stop offset=".787" stop-color="#e7a50a"/><stop offset=".901" stop-color="#de9702"/><stop offset="1" stop-color="#db9200"/></linearGradient><path fill="url(#6kBQqXTSCVx9jjC_XUwAYe)" d="M27,20.737L24.283,8.119	c-0.196-1.473-1.205-2.702-2.608-3.19C20.308,4.453,18.381,4,16,4s-4.308,0.453-5.674,0.929c-1.404,0.488-2.412,1.717-2.608,3.19	L5,20.737L3,22.78V24c0,1.105,0.895,2,2,2h22c1.105,0,2-0.895,2-2v-1.22L27,20.737z"/><linearGradient id="6kBQqXTSCVx9jjC_XUwAYf" x1="16" x2="16" y1="4" y2="26" gradientUnits="userSpaceOnUse"><stop offset="0" stop-opacity=".02"/><stop offset="1" stop-opacity=".15"/></linearGradient><path fill="url(#6kBQqXTSCVx9jjC_XUwAYf)" d="M16,4.25c1.966,0,3.847,0.308,5.592,0.915 c1.322,0.46,2.258,1.605,2.446,3.007l2.717,12.619l0.015,0.071l0.051,0.052l1.929,1.97V24c0,0.965-0.785,1.75-1.75,1.75H5 c-0.965,0-1.75-0.785-1.75-1.75v-1.118l1.929-1.97l0.051-0.052l0.015-0.071L7.965,8.152c0.184-1.383,1.12-2.527,2.443-2.987 C12.153,4.558,14.034,4.25,16,4.25 M16,4c-2.381,0-4.308,0.453-5.674,0.929c-1.404,0.488-2.412,1.717-2.608,3.19L5,20.737L3,22.78 V24c0,1.105,0.895,2,2,2h22c1.105,0,2-0.895,2-2v-1.22l-2-2.042L24.283,8.119c-0.196-1.473-1.205-2.702-2.608-3.19 C20.308,4.453,18.381,4,16,4L16,4z"/><polygon fill="#ffebab" points="26.902,21 5.098,21 3.248,22.884 3.248,23 28.752,23 28.752,22.884" opacity=".53"/><g opacity=".4"><path fill="#ffebab" d="M20.828,4.92C18.764,4.425,17.968,4.248,16,4.248s-2.764,0.177-4.828,0.671 C8.936,5.456,8.314,7,8.314,7h15.372C23.686,7,23.064,5.456,20.828,4.92z"/></g></svg>