<svg xmlns="http://www.w3.org/2000/svg" version="1.1" xmlns:xlink="http://www.w3.org/1999/xlink" xmlns:svgjs="http://svgjs.dev/svgjs" width="2000" height="601" viewBox="0 0 2000 601"><g transform="matrix(1,0,0,1,-1.2121212121212466,-1.8638546435020658)"><svg viewBox="0 0 396 119" data-background-color="#113826" preserveAspectRatio="xMidYMid meet" height="601" width="2000" xmlns="http://www.w3.org/2000/svg" xmlns:xlink="http://www.w3.org/1999/xlink"><g id="tight-bounds" transform="matrix(1,0,0,1,0.2400000000000091,0.3690494219247)"><svg viewBox="0 0 395.52 118.26190115615063" height="118.26190115615063" width="395.52"><g><svg viewBox="0 0 661.3967341580487 197.76" height="118.26190115615063" width="395.52"><g transform="matrix(1,0,0,1,265.87673415804875,0)"><svg viewBox="0 0 395.52 197.76" height="197.76" width="395.52"><g id="textblocktransform"><svg viewBox="0 0 395.52 197.76" height="197.76" width="395.52" id="textblock"><g><svg viewBox="0 0 395.52 197.76" height="197.76" width="395.52"><g transform="matrix(1,0,0,1,0,0)"><svg width="395.52" viewBox="1.8 -33.5 147.60000000000005 70.85" height="197.76" data-palette-color="url(#2df98378-b253-417b-877a-26c025caf901)"><svg></svg><svg></svg><g class="wordmark-text-0" data-fill-palette-color="primary" id="text-0"></g></svg></g></svg></g></svg></g></svg></g><g transform="matrix(1,0,0,1,0,10.477146263924368)"><svg viewBox="0 0 244.43135999999998 176.80570747215125" height="176.80570747215125" width="244.43135999999998"><g><svg xmlns="http://www.w3.org/2000/svg" xmlns:xlink="http://www.w3.org/1999/xlink" version="1.1" x="0" y="0" viewBox="1.09 10.195217691607859 65.82 47.60989615169263" enable-background="new 0 0 68 68" xml:space="preserve" height="176.80570747215125" width="244.43135999999998" class="icon-icon-0" data-fill-palette-color="accent" id="icon-0"></svg></g></svg></g></svg></g><defs></defs><mask id="5a6dc74b-1170-4a07-a9cc-f2def24f83ee"><g id="SvgjsG2146"><svg viewBox="0 0 395.52 118.26190115615063" height="118.26190115615063" width="395.52"><g><svg viewBox="0 0 661.3967341580487 197.76" height="118.26190115615063" width="395.52"><g transform="matrix(1,0,0,1,265.87673415804875,0)"><svg viewBox="0 0 395.52 197.76" height="197.76" width="395.52"><g id="SvgjsG2145"><svg viewBox="0 0 395.52 197.76" height="197.76" width="395.52" id="SvgjsSvg2144"><g><svg viewBox="0 0 395.52 197.76" height="197.76" width="395.52"><g transform="matrix(1,0,0,1,0,0)"><svg width="395.52" viewBox="1.8 -33.5 147.60000000000005 70.85" height="197.76" data-palette-color="url(#2df98378-b253-417b-877a-26c025caf901)"><svg></svg><svg></svg><g class="wordmark-text-0" data-fill-palette-color="primary" id="SvgjsG2143"><path d="M22.5-8.85v0c0 1.667-0.333 3.09-1 4.27-0.667 1.187-1.523 2.147-2.57 2.88-1.053 0.733-2.237 1.267-3.55 1.6-1.32 0.333-2.63 0.5-3.93 0.5v0c-1.333 0-2.483-0.133-3.45-0.4-0.967-0.267-1.85-0.517-2.65-0.75v0c-0.533-0.167-1.017-0.31-1.45-0.43-0.433-0.113-0.867-0.17-1.3-0.17v0-5.7h0.5c0 1.267 0.327 2.273 0.98 3.02 0.647 0.753 1.403 1.33 2.27 1.73 0.867 0.4 1.733 0.657 2.6 0.77 0.867 0.12 1.5 0.18 1.9 0.18v0c1.433 0 2.667-0.21 3.7-0.63 1.033-0.413 1.883-0.963 2.55-1.65 0.667-0.68 1.157-1.437 1.47-2.27 0.32-0.833 0.48-1.683 0.48-2.55v0c0-1.1-0.233-2.027-0.7-2.78-0.467-0.747-1.073-1.403-1.82-1.97-0.753-0.567-1.613-1.05-2.58-1.45-0.967-0.4-1.95-0.8-2.95-1.2v0c-1.133-0.433-2.25-0.883-3.35-1.35-1.1-0.467-2.083-1.043-2.95-1.73-0.867-0.68-1.567-1.497-2.1-2.45-0.533-0.947-0.8-2.12-0.8-3.52v0c0-1.467 0.283-2.743 0.85-3.83 0.567-1.08 1.327-1.97 2.28-2.67 0.947-0.7 2.03-1.227 3.25-1.58 1.213-0.347 2.453-0.52 3.72-0.52v0c0.867 0 1.683 0.057 2.45 0.17 0.767 0.12 1.5 0.263 2.2 0.43v0c0.567 0.133 1.117 0.24 1.65 0.32 0.533 0.087 1.05 0.13 1.55 0.13v0 5.15h-0.5c-0.067-1.733-0.75-2.91-2.05-3.53-1.3-0.613-3.1-0.92-5.4-0.92v0c-1.333 0-2.423 0.223-3.27 0.67-0.853 0.453-1.53 1.003-2.03 1.65-0.5 0.653-0.84 1.353-1.02 2.1-0.187 0.753-0.28 1.413-0.28 1.98v0c0 0.933 0.21 1.733 0.63 2.4 0.413 0.667 0.97 1.25 1.67 1.75 0.7 0.5 1.51 0.95 2.43 1.35 0.913 0.4 1.87 0.783 2.87 1.15v0c1.133 0.433 2.283 0.9 3.45 1.4 1.167 0.5 2.21 1.117 3.13 1.85 0.913 0.733 1.663 1.633 2.25 2.7 0.58 1.067 0.87 2.367 0.87 3.9zM45.2-5.7v3.9c-0.267 0-0.517 0.057-0.75 0.17-0.233 0.12-0.5 0.263-0.8 0.43v0c-0.567 0.333-1.283 0.673-2.15 1.02-0.867 0.353-2 0.53-3.4 0.53v0c-1.7 0-3.273-0.277-4.72-0.83-1.453-0.547-2.703-1.313-3.75-2.3-1.053-0.98-1.87-2.13-2.45-3.45-0.587-1.313-0.88-2.737-0.88-4.27v0c0-1.433 0.257-2.8 0.77-4.1 0.52-1.3 1.263-2.45 2.23-3.45 0.967-1 2.16-1.8 3.58-2.4 1.413-0.6 3.02-0.9 4.82-0.9v0c1.233 0 2.233 0.14 3 0.42 0.767 0.287 1.417 0.563 1.95 0.83v0c0.3 0.167 0.593 0.3 0.88 0.4 0.28 0.1 0.57 0.15 0.87 0.15v0 3.8h-0.5c-0.167-0.633-0.467-1.193-0.9-1.68-0.433-0.48-0.933-0.887-1.5-1.22-0.567-0.333-1.183-0.583-1.85-0.75-0.667-0.167-1.317-0.25-1.95-0.25v0c-1.367 0-2.567 0.24-3.6 0.72-1.033 0.487-1.883 1.12-2.55 1.9-0.667 0.787-1.167 1.68-1.5 2.68-0.333 1-0.5 2.033-0.5 3.1v0c0 1.233 0.2 2.44 0.6 3.62 0.4 1.187 0.977 2.247 1.73 3.18 0.747 0.933 1.653 1.683 2.72 2.25 1.067 0.567 2.267 0.85 3.6 0.85v0c0.933 0 1.793-0.133 2.58-0.4 0.78-0.267 1.447-0.617 2-1.05 0.547-0.433 0.987-0.91 1.32-1.43 0.333-0.513 0.533-1.003 0.6-1.47v0zM68.65-12.9v9.65c0 0.267 0.033 0.557 0.1 0.87 0.067 0.32 0.177 0.613 0.33 0.88 0.147 0.267 0.313 0.5 0.5 0.7 0.18 0.2 0.403 0.3 0.67 0.3v0 0.5h-6.45v-0.5c0.233 0 0.45-0.1 0.65-0.3 0.2-0.2 0.373-0.433 0.52-0.7 0.153-0.267 0.263-0.56 0.33-0.88 0.067-0.313 0.1-0.603 0.1-0.87v0-9.3c0-1.2-0.167-2.25-0.5-3.15-0.333-0.9-0.783-1.65-1.35-2.25-0.567-0.6-1.207-1.043-1.92-1.33-0.72-0.28-1.447-0.42-2.18-0.42v0c-0.733 0-1.46 0.14-2.18 0.42-0.713 0.287-1.343 0.68-1.89 1.18-0.553 0.5-1.007 1.107-1.36 1.82-0.347 0.72-0.52 1.513-0.52 2.38v0 10.65c0 0.267 0.033 0.557 0.1 0.87 0.067 0.32 0.173 0.613 0.32 0.88 0.153 0.267 0.32 0.5 0.5 0.7 0.187 0.2 0.413 0.3 0.68 0.3v0 0.5h-6.5v-0.5c0.233 0 0.45-0.1 0.65-0.3 0.2-0.2 0.373-0.433 0.52-0.7 0.153-0.267 0.263-0.56 0.33-0.88 0.067-0.313 0.1-0.603 0.1-0.87v0-25.55c0-0.567-0.083-1.1-0.25-1.6-0.167-0.5-0.65-0.767-1.45-0.8v0-0.5l5-1.55v14.45c0.233-0.267 0.533-0.56 0.9-0.88 0.367-0.313 0.807-0.613 1.32-0.9 0.52-0.28 1.12-0.513 1.8-0.7 0.687-0.18 1.497-0.27 2.43-0.27v0c1.567 0 2.9 0.267 4 0.8 1.1 0.533 2 1.223 2.7 2.07 0.7 0.853 1.207 1.787 1.52 2.8 0.32 1.02 0.48 2.013 0.48 2.98zM85.65 0.35v0c-1.667 0-3.167-0.277-4.5-0.83-1.333-0.547-2.473-1.297-3.42-2.25-0.953-0.947-1.687-2.07-2.2-3.37-0.52-1.3-0.78-2.717-0.78-4.25v0c0-1.633 0.283-3.127 0.85-4.48 0.567-1.347 1.35-2.503 2.35-3.47 1-0.967 2.183-1.717 3.55-2.25 1.367-0.533 2.85-0.8 4.45-0.8v0c1.6 0 3.067 0.257 4.4 0.77 1.333 0.52 2.483 1.247 3.45 2.18 0.967 0.933 1.717 2.04 2.25 3.32 0.533 1.287 0.8 2.697 0.8 4.23v0c0 1.433-0.24 2.823-0.72 4.17-0.487 1.353-1.203 2.547-2.15 3.58-0.953 1.033-2.12 1.867-3.5 2.5-1.387 0.633-2.997 0.95-4.83 0.95zM85.35-19.7v0c-1.2 0.067-2.257 0.36-3.17 0.88-0.92 0.513-1.687 1.18-2.3 2-0.62 0.813-1.087 1.737-1.4 2.77-0.32 1.033-0.48 2.083-0.48 3.15v0c0 1.233 0.193 2.423 0.58 3.57 0.38 1.153 0.93 2.18 1.65 3.08 0.713 0.9 1.57 1.617 2.57 2.15 1 0.533 2.117 0.8 3.35 0.8v0c1.233 0 2.327-0.267 3.28-0.8 0.947-0.533 1.737-1.223 2.37-2.07 0.633-0.853 1.11-1.813 1.43-2.88 0.313-1.067 0.47-2.133 0.47-3.2v0c0-1.1-0.167-2.21-0.5-3.33-0.333-1.113-0.85-2.13-1.55-3.05-0.7-0.913-1.573-1.653-2.62-2.22-1.053-0.567-2.28-0.85-3.68-0.85zM108.05 0h-6.55v-0.5c0.267 0 0.5-0.1 0.7-0.3 0.2-0.2 0.377-0.433 0.53-0.7 0.147-0.267 0.253-0.56 0.32-0.88 0.067-0.313 0.1-0.603 0.1-0.87v0-25.6c0-0.567-0.083-1.1-0.25-1.6-0.167-0.5-0.667-0.767-1.5-0.8v0-0.5l5.05-1.55v30.05c0 0.267 0.033 0.557 0.1 0.87 0.067 0.32 0.177 0.613 0.33 0.88 0.147 0.267 0.313 0.5 0.5 0.7 0.18 0.2 0.403 0.3 0.67 0.3v0zM130.9 0h-4.85v-2.55l-0.25 0.25c-0.833 0.833-1.79 1.483-2.87 1.95-1.087 0.467-2.397 0.7-3.93 0.7v0c-1.167 0-2.167-0.133-3-0.4-0.833-0.267-1.517-0.643-2.05-1.13-0.533-0.48-0.923-1.037-1.17-1.67-0.253-0.633-0.38-1.3-0.38-2v0c0-1.133 0.31-2.133 0.93-3 0.613-0.867 1.503-1.633 2.67-2.3 1.167-0.667 2.593-1.277 4.28-1.83 1.68-0.547 3.603-1.087 5.77-1.62v0c-0.067-1.3-0.333-2.35-0.8-3.15-0.467-0.8-1.017-1.427-1.65-1.88-0.633-0.447-1.3-0.747-2-0.9-0.7-0.147-1.3-0.22-1.8-0.22v0c-0.867 0-1.623 0.133-2.27 0.4-0.653 0.267-1.22 0.61-1.7 1.03-0.487 0.413-0.897 0.86-1.23 1.34-0.333 0.487-0.6 0.947-0.8 1.38v0h-0.45v-3.65c0.267-0.033 0.517-0.117 0.75-0.25 0.233-0.133 0.517-0.267 0.85-0.4v0c0.5-0.2 1.183-0.493 2.05-0.88 0.867-0.38 2.083-0.57 3.65-0.57v0c1.833 0 3.317 0.233 4.45 0.7 1.133 0.467 2.01 1.083 2.63 1.85 0.613 0.767 1.02 1.64 1.22 2.62 0.2 0.987 0.3 1.997 0.3 3.03v0 9.9c0 0.667 0.15 1.29 0.45 1.87 0.3 0.587 0.7 0.88 1.2 0.88v0zM125.5-4.15l0.55-0.6v-7.15l-0.5 0.1c-0.8 0.2-1.773 0.467-2.92 0.8-1.153 0.333-2.247 0.767-3.28 1.3-1.033 0.533-1.917 1.167-2.65 1.9-0.733 0.733-1.1 1.583-1.1 2.55v0c0 1.067 0.433 1.95 1.3 2.65 0.867 0.7 2 1.05 3.4 1.05v0c1.1 0 2.067-0.24 2.9-0.72 0.833-0.487 1.6-1.113 2.3-1.88zM149.4-20.4l-1.5 3.05c-0.4-0.667-0.817-1.083-1.25-1.25-0.433-0.167-0.933-0.25-1.5-0.25v0c-0.367 0-0.757 0.083-1.17 0.25-0.42 0.167-0.83 0.383-1.23 0.65-0.4 0.267-0.79 0.56-1.17 0.88-0.387 0.313-0.713 0.603-0.98 0.87v0 13c0 0.267 0.033 0.55 0.1 0.85 0.067 0.3 0.177 0.59 0.33 0.87 0.147 0.287 0.313 0.52 0.5 0.7 0.18 0.187 0.403 0.28 0.67 0.28v0 0.5h-6.5v-0.5c0.233 0 0.45-0.093 0.65-0.28 0.2-0.18 0.377-0.413 0.53-0.7 0.147-0.28 0.253-0.57 0.32-0.87 0.067-0.3 0.1-0.583 0.1-0.85v0-13.95c0-0.467-0.15-0.933-0.45-1.4-0.3-0.467-0.733-0.767-1.3-0.9v0-0.4l5.05-1.5v3c0.3-0.367 0.617-0.727 0.95-1.08 0.333-0.347 0.71-0.663 1.13-0.95 0.413-0.28 0.87-0.513 1.37-0.7 0.5-0.18 1.083-0.27 1.75-0.27v0c0.467 0 1.067 0.1 1.8 0.3 0.733 0.2 1.333 0.417 1.8 0.65z" fill="white" fill-rule="nonzero" stroke="none" stroke-width="1" stroke-linecap="butt" stroke-linejoin="miter" stroke-miterlimit="10" stroke-dasharray="" stroke-dashoffset="0" font-family="none" font-weight="none" font-size="none" text-anchor="none" style="mix-blend-mode: normal" opacity="1"></path><path transform="translate(0,36.9)" d="M7.5-0.5v0h0.25v0.5h-5.55v-0.5h0.25c0.233 0 0.46-0.1 0.68-0.3 0.213-0.2 0.387-0.433 0.52-0.7 0.133-0.267 0.243-0.56 0.33-0.88 0.08-0.313 0.12-0.603 0.12-0.87v0-26.65c0-0.233-0.023-0.5-0.07-0.8-0.053-0.3-0.147-0.583-0.28-0.85-0.133-0.267-0.317-0.493-0.55-0.68-0.233-0.18-0.517-0.27-0.85-0.27v0h-0.25v-0.5h5.05l18.15 28.6v-25.5c0-0.233-0.04-0.5-0.12-0.8-0.087-0.3-0.203-0.583-0.35-0.85-0.153-0.267-0.33-0.493-0.53-0.68-0.2-0.18-0.433-0.27-0.7-0.27v0h-0.25v-0.5h5.6v0.5h-0.25c-0.267 0-0.5 0.09-0.7 0.27-0.2 0.187-0.373 0.413-0.52 0.68-0.153 0.267-0.263 0.55-0.33 0.85-0.067 0.3-0.1 0.567-0.1 0.8v0 29.9h-3.1l-18.1-28.7v25.45c0 0.267 0.033 0.557 0.1 0.87 0.067 0.32 0.177 0.613 0.33 0.88 0.147 0.267 0.32 0.5 0.52 0.7 0.2 0.2 0.433 0.3 0.7 0.3zM53.75-10.1h-17.35c0.133 1.167 0.417 2.273 0.85 3.32 0.433 1.053 1.01 1.98 1.73 2.78 0.713 0.8 1.587 1.44 2.62 1.92 1.033 0.487 2.233 0.73 3.6 0.73v0c0.733 0 1.51-0.11 2.33-0.33 0.813-0.213 1.57-0.52 2.27-0.92 0.7-0.4 1.327-0.893 1.88-1.48 0.547-0.58 0.92-1.237 1.12-1.97v0h0.45v3.75c-0.2 0-0.423 0.067-0.67 0.2-0.253 0.133-0.547 0.3-0.88 0.5v0c-0.667 0.4-1.567 0.823-2.7 1.27-1.133 0.453-2.633 0.68-4.5 0.68v0c-1.5 0-2.923-0.217-4.27-0.65-1.353-0.433-2.547-1.1-3.58-2-1.033-0.9-1.857-2.05-2.47-3.45-0.62-1.4-0.93-3.067-0.93-5v0c0-1.233 0.21-2.483 0.63-3.75 0.413-1.267 1.047-2.41 1.9-3.43 0.847-1.013 1.937-1.837 3.27-2.47 1.333-0.633 2.933-0.95 4.8-0.95v0c1.667 0 3.127 0.283 4.38 0.85 1.247 0.567 2.28 1.35 3.1 2.35 0.813 1 1.42 2.183 1.82 3.55 0.4 1.367 0.6 2.867 0.6 4.5zM43.65-19.7v0c-1.167 0-2.173 0.233-3.02 0.7-0.853 0.467-1.58 1.067-2.18 1.8-0.6 0.733-1.067 1.567-1.4 2.5-0.333 0.933-0.55 1.867-0.65 2.8v0h14.25c-0.033-0.967-0.207-1.917-0.52-2.85-0.32-0.933-0.763-1.767-1.33-2.5-0.567-0.733-1.283-1.327-2.15-1.78-0.867-0.447-1.867-0.67-3-0.67zM70.75 0v-0.5c0.633 0 0.95-0.233 0.95-0.7v0c0-0.167-0.2-0.533-0.6-1.1v0l-5-6.9-5.2 7.05c-0.1 0.133-0.217 0.317-0.35 0.55-0.133 0.233-0.2 0.433-0.2 0.6v0c0 0.333 0.183 0.5 0.55 0.5v0 0.5h-4.7v-0.5c0.467 0 0.967-0.19 1.5-0.57 0.533-0.387 0.983-0.847 1.35-1.38v0l6.05-8.2-5.6-7.6c-0.167-0.2-0.357-0.433-0.57-0.7-0.22-0.267-0.47-0.517-0.75-0.75-0.287-0.233-0.57-0.427-0.85-0.58-0.287-0.147-0.547-0.22-0.78-0.22v0-0.5h7.3v0.5c-0.2 0-0.407 0.067-0.62 0.2-0.22 0.133-0.33 0.383-0.33 0.75v0c0 0.233 0.1 0.467 0.3 0.7v0l4.05 5.6 3.85-5.1c0.267-0.333 0.433-0.6 0.5-0.8 0.067-0.2 0.1-0.383 0.1-0.55v0c0-0.2-0.057-0.383-0.17-0.55-0.12-0.167-0.297-0.25-0.53-0.25v0-0.5h4.8v0.5c-0.533 0-1.033 0.257-1.5 0.77-0.467 0.52-0.883 1.013-1.25 1.48v0l-4.85 6.45 6.7 9.05c0.433 0.6 0.95 1.123 1.55 1.57 0.6 0.453 1.15 0.68 1.65 0.68v0 0.5zM101-21.55v18.3c0 0.233 0.033 0.507 0.1 0.82 0.067 0.32 0.16 0.62 0.28 0.9 0.113 0.287 0.27 0.53 0.47 0.73 0.2 0.2 0.433 0.3 0.7 0.3v0 0.5h-4.85v-2.75c-0.5 0.733-1.233 1.45-2.2 2.15-0.967 0.7-2.217 1.05-3.75 1.05v0c-1.933 0-3.467-0.333-4.6-1-1.133-0.667-2-1.517-2.6-2.55-0.6-1.033-0.983-2.16-1.15-3.38-0.167-1.213-0.25-2.353-0.25-3.42v0-7.15c0-0.3-0.007-0.593-0.02-0.88-0.02-0.28-0.09-0.537-0.21-0.77-0.113-0.233-0.287-0.427-0.52-0.58-0.233-0.147-0.567-0.22-1-0.22v0-0.45l5.05-1.6v12.75c0 2.533 0.55 4.4 1.65 5.6 1.1 1.2 2.45 1.8 4.05 1.8v0c0.867 0 1.643-0.193 2.33-0.58 0.68-0.38 1.263-0.837 1.75-1.37 0.48-0.533 0.847-1.083 1.1-1.65 0.247-0.567 0.37-1.033 0.37-1.4v0-10.65c0-0.3-0.007-0.593-0.02-0.88-0.02-0.28-0.087-0.537-0.2-0.77-0.12-0.233-0.297-0.427-0.53-0.58-0.233-0.147-0.567-0.22-1-0.22v0-0.45zM123.65-5.7v0c0 0.867-0.217 1.667-0.65 2.4-0.433 0.733-1.023 1.373-1.77 1.92-0.753 0.553-1.63 0.987-2.63 1.3-1 0.32-2.083 0.48-3.25 0.48v0c-1.433 0-2.6-0.193-3.5-0.58-0.9-0.38-1.667-0.77-2.3-1.17v0c-0.433-0.267-0.833-0.49-1.2-0.67-0.367-0.187-0.767-0.28-1.2-0.28v0-3.8h0.5c0.1 0.467 0.393 0.973 0.88 1.52 0.48 0.553 1.063 1.063 1.75 1.53 0.68 0.467 1.43 0.857 2.25 1.17 0.813 0.32 1.637 0.48 2.47 0.48v0c0.6 0 1.217-0.067 1.85-0.2 0.633-0.133 1.21-0.35 1.73-0.65 0.513-0.3 0.947-0.677 1.3-1.13 0.347-0.447 0.52-0.987 0.52-1.62v0c0-0.633-0.183-1.183-0.55-1.65-0.367-0.467-0.833-0.877-1.4-1.23-0.567-0.347-1.217-0.653-1.95-0.92-0.733-0.267-1.467-0.517-2.2-0.75v0c-0.867-0.267-1.74-0.567-2.62-0.9-0.887-0.333-1.68-0.727-2.38-1.18-0.7-0.447-1.267-0.997-1.7-1.65-0.433-0.647-0.65-1.42-0.65-2.32v0c0-0.767 0.143-1.5 0.43-2.2 0.28-0.7 0.747-1.31 1.4-1.83 0.647-0.513 1.487-0.93 2.52-1.25 1.033-0.313 2.283-0.47 3.75-0.47v0c1.3 0 2.31 0.107 3.03 0.32 0.713 0.22 1.303 0.447 1.77 0.68v0c0.3 0.167 0.6 0.29 0.9 0.37 0.3 0.087 0.633 0.13 1 0.13v0 3.5h-0.4c-0.6-1.1-1.517-1.933-2.75-2.5-1.233-0.567-2.5-0.85-3.8-0.85v0c-0.833 0-1.55 0.107-2.15 0.32-0.6 0.22-1.09 0.49-1.47 0.81-0.387 0.313-0.67 0.67-0.85 1.07-0.187 0.4-0.28 0.8-0.28 1.2v0c0 0.567 0.16 1.05 0.48 1.45 0.313 0.4 0.747 0.75 1.3 1.05 0.547 0.3 1.163 0.583 1.85 0.85 0.68 0.267 1.403 0.517 2.17 0.75v0c0.933 0.3 1.867 0.623 2.8 0.97 0.933 0.353 1.767 0.78 2.5 1.28 0.733 0.5 1.333 1.09 1.8 1.77 0.467 0.687 0.7 1.513 0.7 2.48z" fill="white" fill-rule="nonzero" stroke="none" stroke-width="1" stroke-linecap="butt" stroke-linejoin="miter" stroke-miterlimit="10" stroke-dasharray="" stroke-dashoffset="0" font-family="none" font-weight="none" font-size="none" text-anchor="none" style="mix-blend-mode: normal" opacity="1"></path></g></svg></g></svg></g></svg></g></svg></g><g transform="matrix(1,0,0,1,0,10.477146263924368)"><svg viewBox="0 0 244.43135999999998 176.80570747215125" height="176.80570747215125" width="244.43135999999998"><g><svg xmlns="http://www.w3.org/2000/svg" xmlns:xlink="http://www.w3.org/1999/xlink" version="1.1" x="0" y="0" viewBox="1.09 10.195217691607859 65.82 47.60989615169263" enable-background="new 0 0 68 68" xml:space="preserve" height="176.80570747215125" width="244.43135999999998" class="icon-icon-0" data-fill-palette-color="accent" id="SvgjsSvg2142"><g fill="black"><g fill="black"><path d="M55.02 25.564V32.024C55.02 32.254 54.93 32.484 54.78 32.664 51.46 36.604 41.87 38.004 34 38.004 26.12 38.004 16.53 36.604 13.2 32.664 13.05 32.484 12.97 32.254 12.97 32.024V25.564L32.49 29.784C32.95 29.904 33.44 29.954 34 29.954 34.54 29.954 35.05 29.904 35.47 29.794z" fill="black"></path></g><path d="M66.91 19.074C66.91 20.194 66.17 21.104 65.08 21.344L61.68 22.084V33.124C63.2 33.704 64.29 35.594 64.3 37.894L64.06 37.654C63.5 37.154 62.79 36.874 62.05 36.874 61.91 36.874 61.77 36.884 61.65 36.904L57.07 37.504C57.2 35.384 58.25 33.664 59.68 33.124V22.514L35.05 27.844C34.71 27.924 34.35 27.954 34 27.954 33.64 27.954 33.29 27.924 32.96 27.844L2.91 21.344C1.82 21.104 1.09 20.194 1.09 19.074 1.09 17.964 1.82 17.054 2.91 16.814L32.96 10.304C33.63 10.164 34.36 10.154 35.05 10.304L65.08 16.814C66.17 17.054 66.91 17.964 66.91 19.074" fill="black"></path><g fill="black"><path d="M36.122 51.816L36.28 51.834V42.254L33.99 42.554 31.71 42.254V51.834L31.874 51.816 29.79 56.389A1 1 0 0 0 31.61 57.22L33.997 51.978 36.384 57.218A1 1 0 0 0 38.204 56.388z" fill="black"></path><path d="M29.71 41.994L6.09 38.884A0.98 0.98 0 0 0 5.29 39.134C3.55 40.694 3 44.944 3.22 48.454 3.33 50.264 3.77 53.464 5.39 54.584 5.56 54.704 5.76 54.764 5.96 54.764 6 54.764 6.04 54.764 6.07 54.754L29.71 52.064z" fill="black"></path><path d="M63.48 40.104C63.24 39.694 62.98 39.384 62.71 39.134A0.98 0.98 0 0 0 61.91 38.884L38.28 41.994V52.064L61.93 54.754C62.17 54.784 62.41 54.724 62.61 54.584 65.48 52.584 65.31 43.314 63.48 40.104" fill="black"></path></g></g></svg></g></svg></g></svg></g><defs><mask></mask></defs></svg><rect width="395.52" height="118.26190115615063" fill="black" stroke="none" visibility="hidden"></rect></g></mask><linearGradient x1="0.054" x2="0.941" y1="0.5" y2="0.5" id="2df98378-b253-417b-877a-26c025caf901"><stop stop-color="#9c7945" offset="0"></stop><stop stop-color="#faf3aa" offset="0.498"></stop><stop stop-color="#9c7945" offset="1"></stop></linearGradient><rect width="395.52" height="118.26190115615063" fill="url(#2df98378-b253-417b-877a-26c025caf901)" mask="url(#5a6dc74b-1170-4a07-a9cc-f2def24f83ee)" data-fill-palette-color="primary"></rect><mask id="724fbecb-4a40-4ea3-ae82-48e414a7413b"><g id="SvgjsG2167"><svg viewBox="0 0 395.52 118.26190115615063" height="118.26190115615063" width="395.52"><g><svg viewBox="0 0 661.3967341580487 197.76" height="118.26190115615063" width="395.52"><g transform="matrix(1,0,0,1,265.87673415804875,0)"><svg viewBox="0 0 395.52 197.76" height="197.76" width="395.52"><g id="SvgjsG2166"><svg viewBox="0 0 395.52 197.76" height="197.76" width="395.52" id="SvgjsSvg2165"><g><svg viewBox="0 0 395.52 197.76" height="197.76" width="395.52"><g transform="matrix(1,0,0,1,0,0)"><svg width="395.52" viewBox="1.8 -33.5 147.60000000000005 70.85" height="197.76" data-palette-color="url(#2df98378-b253-417b-877a-26c025caf901)"><svg></svg><svg></svg><g class="wordmark-text-0" data-fill-palette-color="primary" id="SvgjsG2164"></g></svg></g></svg></g></svg></g></svg></g><g transform="matrix(1,0,0,1,0,10.477146263924368)"><svg viewBox="0 0 244.43135999999998 176.80570747215125" height="176.80570747215125" width="244.43135999999998"><g><svg xmlns="http://www.w3.org/2000/svg" xmlns:xlink="http://www.w3.org/1999/xlink" version="1.1" x="0" y="0" viewBox="1.09 10.195217691607859 65.82 47.60989615169263" enable-background="new 0 0 68 68" xml:space="preserve" height="176.80570747215125" width="244.43135999999998" class="icon-icon-0" data-fill-palette-color="accent" id="SvgjsSvg2163"><g fill="white"><g fill="white"><path d="M55.02 25.564V32.024C55.02 32.254 54.93 32.484 54.78 32.664 51.46 36.604 41.87 38.004 34 38.004 26.12 38.004 16.53 36.604 13.2 32.664 13.05 32.484 12.97 32.254 12.97 32.024V25.564L32.49 29.784C32.95 29.904 33.44 29.954 34 29.954 34.54 29.954 35.05 29.904 35.47 29.794z" fill="white"></path></g><path d="M66.91 19.074C66.91 20.194 66.17 21.104 65.08 21.344L61.68 22.084V33.124C63.2 33.704 64.29 35.594 64.3 37.894L64.06 37.654C63.5 37.154 62.79 36.874 62.05 36.874 61.91 36.874 61.77 36.884 61.65 36.904L57.07 37.504C57.2 35.384 58.25 33.664 59.68 33.124V22.514L35.05 27.844C34.71 27.924 34.35 27.954 34 27.954 33.64 27.954 33.29 27.924 32.96 27.844L2.91 21.344C1.82 21.104 1.09 20.194 1.09 19.074 1.09 17.964 1.82 17.054 2.91 16.814L32.96 10.304C33.63 10.164 34.36 10.154 35.05 10.304L65.08 16.814C66.17 17.054 66.91 17.964 66.91 19.074" fill="white"></path><g fill="white"><path d="M36.122 51.816L36.28 51.834V42.254L33.99 42.554 31.71 42.254V51.834L31.874 51.816 29.79 56.389A1 1 0 0 0 31.61 57.22L33.997 51.978 36.384 57.218A1 1 0 0 0 38.204 56.388z" fill="white"></path><path d="M29.71 41.994L6.09 38.884A0.98 0.98 0 0 0 5.29 39.134C3.55 40.694 3 44.944 3.22 48.454 3.33 50.264 3.77 53.464 5.39 54.584 5.56 54.704 5.76 54.764 5.96 54.764 6 54.764 6.04 54.764 6.07 54.754L29.71 52.064z" fill="white"></path><path d="M63.48 40.104C63.24 39.694 62.98 39.384 62.71 39.134A0.98 0.98 0 0 0 61.91 38.884L38.28 41.994V52.064L61.93 54.754C62.17 54.784 62.41 54.724 62.61 54.584 65.48 52.584 65.31 43.314 63.48 40.104" fill="white"></path></g></g></svg></g></svg></g></svg></g><defs><mask></mask></defs><mask><g id="SvgjsG2162"><svg viewBox="0 0 395.52 118.26190115615063" height="118.26190115615063" width="395.52"><g><svg viewBox="0 0 661.3967341580487 197.76" height="118.26190115615063" width="395.52"><g transform="matrix(1,0,0,1,265.87673415804875,0)"><svg viewBox="0 0 395.52 197.76" height="197.76" width="395.52"><g id="SvgjsG2161"><svg viewBox="0 0 395.52 197.76" height="197.76" width="395.52" id="SvgjsSvg2160"><g><svg viewBox="0 0 395.52 197.76" height="197.76" width="395.52"><g transform="matrix(1,0,0,1,0,0)"><svg width="395.52" viewBox="1.8 -33.5 147.60000000000005 70.85" height="197.76" data-palette-color="url(#2df98378-b253-417b-877a-26c025caf901)"><svg></svg><svg></svg><g class="wordmark-text-0" data-fill-palette-color="primary" id="SvgjsG2159"><path d="M22.5-8.85v0c0 1.667-0.333 3.09-1 4.27-0.667 1.187-1.523 2.147-2.57 2.88-1.053 0.733-2.237 1.267-3.55 1.6-1.32 0.333-2.63 0.5-3.93 0.5v0c-1.333 0-2.483-0.133-3.45-0.4-0.967-0.267-1.85-0.517-2.65-0.75v0c-0.533-0.167-1.017-0.31-1.45-0.43-0.433-0.113-0.867-0.17-1.3-0.17v0-5.7h0.5c0 1.267 0.327 2.273 0.98 3.02 0.647 0.753 1.403 1.33 2.27 1.73 0.867 0.4 1.733 0.657 2.6 0.77 0.867 0.12 1.5 0.18 1.9 0.18v0c1.433 0 2.667-0.21 3.7-0.63 1.033-0.413 1.883-0.963 2.55-1.65 0.667-0.68 1.157-1.437 1.47-2.27 0.32-0.833 0.48-1.683 0.48-2.55v0c0-1.1-0.233-2.027-0.7-2.78-0.467-0.747-1.073-1.403-1.82-1.97-0.753-0.567-1.613-1.05-2.58-1.45-0.967-0.4-1.95-0.8-2.95-1.2v0c-1.133-0.433-2.25-0.883-3.35-1.35-1.1-0.467-2.083-1.043-2.95-1.73-0.867-0.68-1.567-1.497-2.1-2.45-0.533-0.947-0.8-2.12-0.8-3.52v0c0-1.467 0.283-2.743 0.85-3.83 0.567-1.08 1.327-1.97 2.28-2.67 0.947-0.7 2.03-1.227 3.25-1.58 1.213-0.347 2.453-0.52 3.72-0.52v0c0.867 0 1.683 0.057 2.45 0.17 0.767 0.12 1.5 0.263 2.2 0.43v0c0.567 0.133 1.117 0.24 1.65 0.32 0.533 0.087 1.05 0.13 1.55 0.13v0 5.15h-0.5c-0.067-1.733-0.75-2.91-2.05-3.53-1.3-0.613-3.1-0.92-5.4-0.92v0c-1.333 0-2.423 0.223-3.27 0.67-0.853 0.453-1.53 1.003-2.03 1.65-0.5 0.653-0.84 1.353-1.02 2.1-0.187 0.753-0.28 1.413-0.28 1.98v0c0 0.933 0.21 1.733 0.63 2.4 0.413 0.667 0.97 1.25 1.67 1.75 0.7 0.5 1.51 0.95 2.43 1.35 0.913 0.4 1.87 0.783 2.87 1.15v0c1.133 0.433 2.283 0.9 3.45 1.4 1.167 0.5 2.21 1.117 3.13 1.85 0.913 0.733 1.663 1.633 2.25 2.7 0.58 1.067 0.87 2.367 0.87 3.9zM45.2-5.7v3.9c-0.267 0-0.517 0.057-0.75 0.17-0.233 0.12-0.5 0.263-0.8 0.43v0c-0.567 0.333-1.283 0.673-2.15 1.02-0.867 0.353-2 0.53-3.4 0.53v0c-1.7 0-3.273-0.277-4.72-0.83-1.453-0.547-2.703-1.313-3.75-2.3-1.053-0.98-1.87-2.13-2.45-3.45-0.587-1.313-0.88-2.737-0.88-4.27v0c0-1.433 0.257-2.8 0.77-4.1 0.52-1.3 1.263-2.45 2.23-3.45 0.967-1 2.16-1.8 3.58-2.4 1.413-0.6 3.02-0.9 4.82-0.9v0c1.233 0 2.233 0.14 3 0.42 0.767 0.287 1.417 0.563 1.95 0.83v0c0.3 0.167 0.593 0.3 0.88 0.4 0.28 0.1 0.57 0.15 0.87 0.15v0 3.8h-0.5c-0.167-0.633-0.467-1.193-0.9-1.68-0.433-0.48-0.933-0.887-1.5-1.22-0.567-0.333-1.183-0.583-1.85-0.75-0.667-0.167-1.317-0.25-1.95-0.25v0c-1.367 0-2.567 0.24-3.6 0.72-1.033 0.487-1.883 1.12-2.55 1.9-0.667 0.787-1.167 1.68-1.5 2.68-0.333 1-0.5 2.033-0.5 3.1v0c0 1.233 0.2 2.44 0.6 3.62 0.4 1.187 0.977 2.247 1.73 3.18 0.747 0.933 1.653 1.683 2.72 2.25 1.067 0.567 2.267 0.85 3.6 0.85v0c0.933 0 1.793-0.133 2.58-0.4 0.78-0.267 1.447-0.617 2-1.05 0.547-0.433 0.987-0.91 1.32-1.43 0.333-0.513 0.533-1.003 0.6-1.47v0zM68.65-12.9v9.65c0 0.267 0.033 0.557 0.1 0.87 0.067 0.32 0.177 0.613 0.33 0.88 0.147 0.267 0.313 0.5 0.5 0.7 0.18 0.2 0.403 0.3 0.67 0.3v0 0.5h-6.45v-0.5c0.233 0 0.45-0.1 0.65-0.3 0.2-0.2 0.373-0.433 0.52-0.7 0.153-0.267 0.263-0.56 0.33-0.88 0.067-0.313 0.1-0.603 0.1-0.87v0-9.3c0-1.2-0.167-2.25-0.5-3.15-0.333-0.9-0.783-1.65-1.35-2.25-0.567-0.6-1.207-1.043-1.92-1.33-0.72-0.28-1.447-0.42-2.18-0.42v0c-0.733 0-1.46 0.14-2.18 0.42-0.713 0.287-1.343 0.68-1.89 1.18-0.553 0.5-1.007 1.107-1.36 1.82-0.347 0.72-0.52 1.513-0.52 2.38v0 10.65c0 0.267 0.033 0.557 0.1 0.87 0.067 0.32 0.173 0.613 0.32 0.88 0.153 0.267 0.32 0.5 0.5 0.7 0.187 0.2 0.413 0.3 0.68 0.3v0 0.5h-6.5v-0.5c0.233 0 0.45-0.1 0.65-0.3 0.2-0.2 0.373-0.433 0.52-0.7 0.153-0.267 0.263-0.56 0.33-0.88 0.067-0.313 0.1-0.603 0.1-0.87v0-25.55c0-0.567-0.083-1.1-0.25-1.6-0.167-0.5-0.65-0.767-1.45-0.8v0-0.5l5-1.55v14.45c0.233-0.267 0.533-0.56 0.9-0.88 0.367-0.313 0.807-0.613 1.32-0.9 0.52-0.28 1.12-0.513 1.8-0.7 0.687-0.18 1.497-0.27 2.43-0.27v0c1.567 0 2.9 0.267 4 0.8 1.1 0.533 2 1.223 2.7 2.07 0.7 0.853 1.207 1.787 1.52 2.8 0.32 1.02 0.48 2.013 0.48 2.98zM85.65 0.35v0c-1.667 0-3.167-0.277-4.5-0.83-1.333-0.547-2.473-1.297-3.42-2.25-0.953-0.947-1.687-2.07-2.2-3.37-0.52-1.3-0.78-2.717-0.78-4.25v0c0-1.633 0.283-3.127 0.85-4.48 0.567-1.347 1.35-2.503 2.35-3.47 1-0.967 2.183-1.717 3.55-2.25 1.367-0.533 2.85-0.8 4.45-0.8v0c1.6 0 3.067 0.257 4.4 0.77 1.333 0.52 2.483 1.247 3.45 2.18 0.967 0.933 1.717 2.04 2.25 3.32 0.533 1.287 0.8 2.697 0.8 4.23v0c0 1.433-0.24 2.823-0.72 4.17-0.487 1.353-1.203 2.547-2.15 3.58-0.953 1.033-2.12 1.867-3.5 2.5-1.387 0.633-2.997 0.95-4.83 0.95zM85.35-19.7v0c-1.2 0.067-2.257 0.36-3.17 0.88-0.92 0.513-1.687 1.18-2.3 2-0.62 0.813-1.087 1.737-1.4 2.77-0.32 1.033-0.48 2.083-0.48 3.15v0c0 1.233 0.193 2.423 0.58 3.57 0.38 1.153 0.93 2.18 1.65 3.08 0.713 0.9 1.57 1.617 2.57 2.15 1 0.533 2.117 0.8 3.35 0.8v0c1.233 0 2.327-0.267 3.28-0.8 0.947-0.533 1.737-1.223 2.37-2.07 0.633-0.853 1.11-1.813 1.43-2.88 0.313-1.067 0.47-2.133 0.47-3.2v0c0-1.1-0.167-2.21-0.5-3.33-0.333-1.113-0.85-2.13-1.55-3.05-0.7-0.913-1.573-1.653-2.62-2.22-1.053-0.567-2.28-0.85-3.68-0.85zM108.05 0h-6.55v-0.5c0.267 0 0.5-0.1 0.7-0.3 0.2-0.2 0.377-0.433 0.53-0.7 0.147-0.267 0.253-0.56 0.32-0.88 0.067-0.313 0.1-0.603 0.1-0.87v0-25.6c0-0.567-0.083-1.1-0.25-1.6-0.167-0.5-0.667-0.767-1.5-0.8v0-0.5l5.05-1.55v30.05c0 0.267 0.033 0.557 0.1 0.87 0.067 0.32 0.177 0.613 0.33 0.88 0.147 0.267 0.313 0.5 0.5 0.7 0.18 0.2 0.403 0.3 0.67 0.3v0zM130.9 0h-4.85v-2.55l-0.25 0.25c-0.833 0.833-1.79 1.483-2.87 1.95-1.087 0.467-2.397 0.7-3.93 0.7v0c-1.167 0-2.167-0.133-3-0.4-0.833-0.267-1.517-0.643-2.05-1.13-0.533-0.48-0.923-1.037-1.17-1.67-0.253-0.633-0.38-1.3-0.38-2v0c0-1.133 0.31-2.133 0.93-3 0.613-0.867 1.503-1.633 2.67-2.3 1.167-0.667 2.593-1.277 4.28-1.83 1.68-0.547 3.603-1.087 5.77-1.62v0c-0.067-1.3-0.333-2.35-0.8-3.15-0.467-0.8-1.017-1.427-1.65-1.88-0.633-0.447-1.3-0.747-2-0.9-0.7-0.147-1.3-0.22-1.8-0.22v0c-0.867 0-1.623 0.133-2.27 0.4-0.653 0.267-1.22 0.61-1.7 1.03-0.487 0.413-0.897 0.86-1.23 1.34-0.333 0.487-0.6 0.947-0.8 1.38v0h-0.45v-3.65c0.267-0.033 0.517-0.117 0.75-0.25 0.233-0.133 0.517-0.267 0.85-0.4v0c0.5-0.2 1.183-0.493 2.05-0.88 0.867-0.38 2.083-0.57 3.65-0.57v0c1.833 0 3.317 0.233 4.45 0.7 1.133 0.467 2.01 1.083 2.63 1.85 0.613 0.767 1.02 1.64 1.22 2.62 0.2 0.987 0.3 1.997 0.3 3.03v0 9.9c0 0.667 0.15 1.29 0.45 1.87 0.3 0.587 0.7 0.88 1.2 0.88v0zM125.5-4.15l0.55-0.6v-7.15l-0.5 0.1c-0.8 0.2-1.773 0.467-2.92 0.8-1.153 0.333-2.247 0.767-3.28 1.3-1.033 0.533-1.917 1.167-2.65 1.9-0.733 0.733-1.1 1.583-1.1 2.55v0c0 1.067 0.433 1.95 1.3 2.65 0.867 0.7 2 1.05 3.4 1.05v0c1.1 0 2.067-0.24 2.9-0.72 0.833-0.487 1.6-1.113 2.3-1.88zM149.4-20.4l-1.5 3.05c-0.4-0.667-0.817-1.083-1.25-1.25-0.433-0.167-0.933-0.25-1.5-0.25v0c-0.367 0-0.757 0.083-1.17 0.25-0.42 0.167-0.83 0.383-1.23 0.65-0.4 0.267-0.79 0.56-1.17 0.88-0.387 0.313-0.713 0.603-0.98 0.87v0 13c0 0.267 0.033 0.55 0.1 0.85 0.067 0.3 0.177 0.59 0.33 0.87 0.147 0.287 0.313 0.52 0.5 0.7 0.18 0.187 0.403 0.28 0.67 0.28v0 0.5h-6.5v-0.5c0.233 0 0.45-0.093 0.65-0.28 0.2-0.18 0.377-0.413 0.53-0.7 0.147-0.28 0.253-0.57 0.32-0.87 0.067-0.3 0.1-0.583 0.1-0.85v0-13.95c0-0.467-0.15-0.933-0.45-1.4-0.3-0.467-0.733-0.767-1.3-0.9v0-0.4l5.05-1.5v3c0.3-0.367 0.617-0.727 0.95-1.08 0.333-0.347 0.71-0.663 1.13-0.95 0.413-0.28 0.87-0.513 1.37-0.7 0.5-0.18 1.083-0.27 1.75-0.27v0c0.467 0 1.067 0.1 1.8 0.3 0.733 0.2 1.333 0.417 1.8 0.65z" fill="black" fill-rule="nonzero" stroke="none" stroke-width="1" stroke-linecap="butt" stroke-linejoin="miter" stroke-miterlimit="10" stroke-dasharray="" stroke-dashoffset="0" font-family="none" font-weight="none" font-size="none" text-anchor="none" style="mix-blend-mode: normal" opacity="1"></path><path transform="translate(0,36.9)" d="M7.5-0.5v0h0.25v0.5h-5.55v-0.5h0.25c0.233 0 0.46-0.1 0.68-0.3 0.213-0.2 0.387-0.433 0.52-0.7 0.133-0.267 0.243-0.56 0.33-0.88 0.08-0.313 0.12-0.603 0.12-0.87v0-26.65c0-0.233-0.023-0.5-0.07-0.8-0.053-0.3-0.147-0.583-0.28-0.85-0.133-0.267-0.317-0.493-0.55-0.68-0.233-0.18-0.517-0.27-0.85-0.27v0h-0.25v-0.5h5.05l18.15 28.6v-25.5c0-0.233-0.04-0.5-0.12-0.8-0.087-0.3-0.203-0.583-0.35-0.85-0.153-0.267-0.33-0.493-0.53-0.68-0.2-0.18-0.433-0.27-0.7-0.27v0h-0.25v-0.5h5.6v0.5h-0.25c-0.267 0-0.5 0.09-0.7 0.27-0.2 0.187-0.373 0.413-0.52 0.68-0.153 0.267-0.263 0.55-0.33 0.85-0.067 0.3-0.1 0.567-0.1 0.8v0 29.9h-3.1l-18.1-28.7v25.45c0 0.267 0.033 0.557 0.1 0.87 0.067 0.32 0.177 0.613 0.33 0.88 0.147 0.267 0.32 0.5 0.52 0.7 0.2 0.2 0.433 0.3 0.7 0.3zM53.75-10.1h-17.35c0.133 1.167 0.417 2.273 0.85 3.32 0.433 1.053 1.01 1.98 1.73 2.78 0.713 0.8 1.587 1.44 2.62 1.92 1.033 0.487 2.233 0.73 3.6 0.73v0c0.733 0 1.51-0.11 2.33-0.33 0.813-0.213 1.57-0.52 2.27-0.92 0.7-0.4 1.327-0.893 1.88-1.48 0.547-0.58 0.92-1.237 1.12-1.97v0h0.45v3.75c-0.2 0-0.423 0.067-0.67 0.2-0.253 0.133-0.547 0.3-0.88 0.5v0c-0.667 0.4-1.567 0.823-2.7 1.27-1.133 0.453-2.633 0.68-4.5 0.68v0c-1.5 0-2.923-0.217-4.27-0.65-1.353-0.433-2.547-1.1-3.58-2-1.033-0.9-1.857-2.05-2.47-3.45-0.62-1.4-0.93-3.067-0.93-5v0c0-1.233 0.21-2.483 0.63-3.75 0.413-1.267 1.047-2.41 1.9-3.43 0.847-1.013 1.937-1.837 3.27-2.47 1.333-0.633 2.933-0.95 4.8-0.95v0c1.667 0 3.127 0.283 4.38 0.85 1.247 0.567 2.28 1.35 3.1 2.35 0.813 1 1.42 2.183 1.82 3.55 0.4 1.367 0.6 2.867 0.6 4.5zM43.65-19.7v0c-1.167 0-2.173 0.233-3.02 0.7-0.853 0.467-1.58 1.067-2.18 1.8-0.6 0.733-1.067 1.567-1.4 2.5-0.333 0.933-0.55 1.867-0.65 2.8v0h14.25c-0.033-0.967-0.207-1.917-0.52-2.85-0.32-0.933-0.763-1.767-1.33-2.5-0.567-0.733-1.283-1.327-2.15-1.78-0.867-0.447-1.867-0.67-3-0.67zM70.75 0v-0.5c0.633 0 0.95-0.233 0.95-0.7v0c0-0.167-0.2-0.533-0.6-1.1v0l-5-6.9-5.2 7.05c-0.1 0.133-0.217 0.317-0.35 0.55-0.133 0.233-0.2 0.433-0.2 0.6v0c0 0.333 0.183 0.5 0.55 0.5v0 0.5h-4.7v-0.5c0.467 0 0.967-0.19 1.5-0.57 0.533-0.387 0.983-0.847 1.35-1.38v0l6.05-8.2-5.6-7.6c-0.167-0.2-0.357-0.433-0.57-0.7-0.22-0.267-0.47-0.517-0.75-0.75-0.287-0.233-0.57-0.427-0.85-0.58-0.287-0.147-0.547-0.22-0.78-0.22v0-0.5h7.3v0.5c-0.2 0-0.407 0.067-0.62 0.2-0.22 0.133-0.33 0.383-0.33 0.75v0c0 0.233 0.1 0.467 0.3 0.7v0l4.05 5.6 3.85-5.1c0.267-0.333 0.433-0.6 0.5-0.8 0.067-0.2 0.1-0.383 0.1-0.55v0c0-0.2-0.057-0.383-0.17-0.55-0.12-0.167-0.297-0.25-0.53-0.25v0-0.5h4.8v0.5c-0.533 0-1.033 0.257-1.5 0.77-0.467 0.52-0.883 1.013-1.25 1.48v0l-4.85 6.45 6.7 9.05c0.433 0.6 0.95 1.123 1.55 1.57 0.6 0.453 1.15 0.68 1.65 0.68v0 0.5zM101-21.55v18.3c0 0.233 0.033 0.507 0.1 0.82 0.067 0.32 0.16 0.62 0.28 0.9 0.113 0.287 0.27 0.53 0.47 0.73 0.2 0.2 0.433 0.3 0.7 0.3v0 0.5h-4.85v-2.75c-0.5 0.733-1.233 1.45-2.2 2.15-0.967 0.7-2.217 1.05-3.75 1.05v0c-1.933 0-3.467-0.333-4.6-1-1.133-0.667-2-1.517-2.6-2.55-0.6-1.033-0.983-2.16-1.15-3.38-0.167-1.213-0.25-2.353-0.25-3.42v0-7.15c0-0.3-0.007-0.593-0.02-0.88-0.02-0.28-0.09-0.537-0.21-0.77-0.113-0.233-0.287-0.427-0.52-0.58-0.233-0.147-0.567-0.22-1-0.22v0-0.45l5.05-1.6v12.75c0 2.533 0.55 4.4 1.65 5.6 1.1 1.2 2.45 1.8 4.05 1.8v0c0.867 0 1.643-0.193 2.33-0.58 0.68-0.38 1.263-0.837 1.75-1.37 0.48-0.533 0.847-1.083 1.1-1.65 0.247-0.567 0.37-1.033 0.37-1.4v0-10.65c0-0.3-0.007-0.593-0.02-0.88-0.02-0.28-0.087-0.537-0.2-0.77-0.12-0.233-0.297-0.427-0.53-0.58-0.233-0.147-0.567-0.22-1-0.22v0-0.45zM123.65-5.7v0c0 0.867-0.217 1.667-0.65 2.4-0.433 0.733-1.023 1.373-1.77 1.92-0.753 0.553-1.63 0.987-2.63 1.3-1 0.32-2.083 0.48-3.25 0.48v0c-1.433 0-2.6-0.193-3.5-0.58-0.9-0.38-1.667-0.77-2.3-1.17v0c-0.433-0.267-0.833-0.49-1.2-0.67-0.367-0.187-0.767-0.28-1.2-0.28v0-3.8h0.5c0.1 0.467 0.393 0.973 0.88 1.52 0.48 0.553 1.063 1.063 1.75 1.53 0.68 0.467 1.43 0.857 2.25 1.17 0.813 0.32 1.637 0.48 2.47 0.48v0c0.6 0 1.217-0.067 1.85-0.2 0.633-0.133 1.21-0.35 1.73-0.65 0.513-0.3 0.947-0.677 1.3-1.13 0.347-0.447 0.52-0.987 0.52-1.62v0c0-0.633-0.183-1.183-0.55-1.65-0.367-0.467-0.833-0.877-1.4-1.23-0.567-0.347-1.217-0.653-1.95-0.92-0.733-0.267-1.467-0.517-2.2-0.75v0c-0.867-0.267-1.74-0.567-2.62-0.9-0.887-0.333-1.68-0.727-2.38-1.18-0.7-0.447-1.267-0.997-1.7-1.65-0.433-0.647-0.65-1.42-0.65-2.32v0c0-0.767 0.143-1.5 0.43-2.2 0.28-0.7 0.747-1.31 1.4-1.83 0.647-0.513 1.487-0.93 2.52-1.25 1.033-0.313 2.283-0.47 3.75-0.47v0c1.3 0 2.31 0.107 3.03 0.32 0.713 0.22 1.303 0.447 1.77 0.68v0c0.3 0.167 0.6 0.29 0.9 0.37 0.3 0.087 0.633 0.13 1 0.13v0 3.5h-0.4c-0.6-1.1-1.517-1.933-2.75-2.5-1.233-0.567-2.5-0.85-3.8-0.85v0c-0.833 0-1.55 0.107-2.15 0.32-0.6 0.22-1.09 0.49-1.47 0.81-0.387 0.313-0.67 0.67-0.85 1.07-0.187 0.4-0.28 0.8-0.28 1.2v0c0 0.567 0.16 1.05 0.48 1.45 0.313 0.4 0.747 0.75 1.3 1.05 0.547 0.3 1.163 0.583 1.85 0.85 0.68 0.267 1.403 0.517 2.17 0.75v0c0.933 0.3 1.867 0.623 2.8 0.97 0.933 0.353 1.767 0.78 2.5 1.28 0.733 0.5 1.333 1.09 1.8 1.77 0.467 0.687 0.7 1.513 0.7 2.48z" fill="black" fill-rule="nonzero" stroke="none" stroke-width="1" stroke-linecap="butt" stroke-linejoin="miter" stroke-miterlimit="10" stroke-dasharray="" stroke-dashoffset="0" font-family="none" font-weight="none" font-size="none" text-anchor="none" style="mix-blend-mode: normal" opacity="1"></path></g></svg></g></svg></g></svg></g></svg></g><g transform="matrix(1,0,0,1,0,10.477146263924368)"><svg viewBox="0 0 244.43135999999998 176.80570747215125" height="176.80570747215125" width="244.43135999999998"><g><svg xmlns="http://www.w3.org/2000/svg" xmlns:xlink="http://www.w3.org/1999/xlink" version="1.1" x="0" y="0" viewBox="1.09 10.195217691607859 65.82 47.60989615169263" enable-background="new 0 0 68 68" xml:space="preserve" height="176.80570747215125" width="244.43135999999998" class="icon-icon-0" data-fill-palette-color="accent" id="SvgjsSvg2158"><g fill="black"><g fill="black"><path d="M55.02 25.564V32.024C55.02 32.254 54.93 32.484 54.78 32.664 51.46 36.604 41.87 38.004 34 38.004 26.12 38.004 16.53 36.604 13.2 32.664 13.05 32.484 12.97 32.254 12.97 32.024V25.564L32.49 29.784C32.95 29.904 33.44 29.954 34 29.954 34.54 29.954 35.05 29.904 35.47 29.794z" fill="black"></path></g><path d="M66.91 19.074C66.91 20.194 66.17 21.104 65.08 21.344L61.68 22.084V33.124C63.2 33.704 64.29 35.594 64.3 37.894L64.06 37.654C63.5 37.154 62.79 36.874 62.05 36.874 61.91 36.874 61.77 36.884 61.65 36.904L57.07 37.504C57.2 35.384 58.25 33.664 59.68 33.124V22.514L35.05 27.844C34.71 27.924 34.35 27.954 34 27.954 33.64 27.954 33.29 27.924 32.96 27.844L2.91 21.344C1.82 21.104 1.09 20.194 1.09 19.074 1.09 17.964 1.82 17.054 2.91 16.814L32.96 10.304C33.63 10.164 34.36 10.154 35.05 10.304L65.08 16.814C66.17 17.054 66.91 17.964 66.91 19.074" fill="black"></path><g fill="black"><path d="M36.122 51.816L36.28 51.834V42.254L33.99 42.554 31.71 42.254V51.834L31.874 51.816 29.79 56.389A1 1 0 0 0 31.61 57.22L33.997 51.978 36.384 57.218A1 1 0 0 0 38.204 56.388z" fill="black"></path><path d="M29.71 41.994L6.09 38.884A0.98 0.98 0 0 0 5.29 39.134C3.55 40.694 3 44.944 3.22 48.454 3.33 50.264 3.77 53.464 5.39 54.584 5.56 54.704 5.76 54.764 5.96 54.764 6 54.764 6.04 54.764 6.07 54.754L29.71 52.064z" fill="black"></path><path d="M63.48 40.104C63.24 39.694 62.98 39.384 62.71 39.134A0.98 0.98 0 0 0 61.91 38.884L38.28 41.994V52.064L61.93 54.754C62.17 54.784 62.41 54.724 62.61 54.584 65.48 52.584 65.31 43.314 63.48 40.104" fill="black"></path></g></g></svg></g></svg></g></svg></g><defs><mask></mask></defs></svg><rect width="395.52" height="118.26190115615063" fill="black" stroke="none" visibility="hidden"></rect></g></mask></svg><rect width="395.52" height="118.26190115615063" fill="black" stroke="none" visibility="hidden"></rect></g></mask><linearGradient x1="0.054" x2="0.941" y1="0.5" y2="0.5" id="cbad4aca-cd37-42f8-b997-acd65ad5f97c"><stop stop-color="#9c7945" offset="0"></stop><stop stop-color="#faf3aa" offset="0.498"></stop><stop stop-color="#9c7945" offset="1"></stop></linearGradient><rect width="395.52" height="118.26190115615063" fill="url(#cbad4aca-cd37-42f8-b997-acd65ad5f97c)" mask="url(#724fbecb-4a40-4ea3-ae82-48e414a7413b)" data-fill-palette-color="accent"></rect></svg><rect width="395.52" height="118.26190115615063" fill="none" stroke="none" visibility="hidden"></rect></g></svg></g></svg>