<?xml version="1.0" encoding="UTF-8"?>
<svg version="1.1" xmlns="http://www.w3.org/2000/svg" width="48" height="48">
<path d="M0 0 C1.65 0 3.3 0 5 0 C4.67 0.99 4.34 1.98 4 3 C3.34 3 2.68 3 2 3 C2 4.65 2 6.3 2 8 C0.35 8 -1.3 8 -3 8 C-2.896875 8.763125 -2.79375 9.52625 -2.6875 10.3125 C-2.790625 11.199375 -2.89375 12.08625 -3 13 C-5.5 14.8125 -5.5 14.8125 -8 16 C-7.31292969 16.04898437 -6.62585938 16.09796875 -5.91796875 16.1484375 C-5.01691406 16.22320313 -4.11585937 16.29796875 -3.1875 16.375 C-2.29417969 16.44460937 -1.40085937 16.51421875 -0.48046875 16.5859375 C2 17 2 17 5 19 C5 19.99 5 20.98 5 22 C1.37 21.34 -2.26 20.68 -6 20 C-6.33 21.65 -6.66 23.3 -7 25 C-8.99365234 26.39379883 -8.99365234 26.39379883 -11.5859375 27.45703125 C-12.98199219 28.04194336 -12.98199219 28.04194336 -14.40625 28.63867188 C-15.3859375 29.02603516 -16.365625 29.41339844 -17.375 29.8125 C-18.83292969 30.42254883 -18.83292969 30.42254883 -20.3203125 31.04492188 C-27.51183036 34 -27.51183036 34 -31 34 C-30.06573201 28.77501977 -28.24731565 24.14782919 -26.25 19.25 C-25.91484375 18.37472656 -25.5796875 17.49945312 -25.234375 16.59765625 C-24.2806202 14.26745986 -23.3619283 12.11829734 -22 10 C-19.234375 8.921875 -19.234375 8.921875 -17 9 C-17.33 8.01 -17.66 7.02 -18 6 C-18.66 5.67 -19.32 5.34 -20 5 C-20 4.01 -20 3.02 -20 2 C-15.125 2.875 -15.125 2.875 -14 4 C-13.63239269 6.32817964 -13.29758419 8.6618385 -13 11 C-12.01 11.33 -11.02 11.66 -10 12 C-9.01 11.34 -8.02 10.68 -7 10 C-6.74969023 7.41619823 -6.74969023 7.41619823 -7 5 C-5.02 5 -3.04 5 -1 5 C-0.67 3.35 -0.34 1.7 0 0 Z " fill="#563832" transform="translate(37,6)"/>
<path d="M0 0 C1.29847256 1.94770884 2.55193845 3.92646812 3.75 5.9375 C6.19142525 9.26055104 8.48150779 10.90387698 12 13 C12.99 13.66 13.98 14.32 15 15 C11.56631406 16.50884213 8.12746451 18.00553401 4.6875 19.5 C3.71103516 19.92925781 2.73457031 20.35851562 1.72851562 20.80078125 C0.32182617 21.40986328 0.32182617 21.40986328 -1.11328125 22.03125 C-1.97735596 22.40830078 -2.84143066 22.78535156 -3.73168945 23.17382812 C-6 24 -6 24 -9 24 C-8.40227336 20.56506424 -7.52472216 17.55768504 -6.15234375 14.35546875 C-5.79462891 13.51435547 -5.43691406 12.67324219 -5.06835938 11.80664062 C-4.50858398 10.51016602 -4.50858398 10.51016602 -3.9375 9.1875 C-3.37192383 7.86202148 -3.37192383 7.86202148 -2.79492188 6.50976562 C-1.86751446 4.33798876 -0.93576366 2.16818633 0 0 Z " fill="#FDB302" transform="translate(15,16)"/>
<path d="M0 0 C4 6 4 6 3.86328125 8.40234375 C2.82875819 11.51527512 1.42487464 13.17569032 -0.8125 15.5625 C-1.84310547 16.67818359 -1.84310547 16.67818359 -2.89453125 17.81640625 C-4.90601562 19.90252826 -6.94166051 21.96016244 -9 24 C-8.40227336 20.56506424 -7.52472216 17.55768504 -6.15234375 14.35546875 C-5.79462891 13.51435547 -5.43691406 12.67324219 -5.06835938 11.80664062 C-4.50858398 10.51016602 -4.50858398 10.51016602 -3.9375 9.1875 C-3.37192383 7.86202148 -3.37192383 7.86202148 -2.79492188 6.50976562 C-1.86751446 4.33798876 -0.93576366 2.16818633 0 0 Z " fill="#FEB203" transform="translate(15,16)"/>
<path d="M0 0 C1.65 0 3.3 0 5 0 C4.67 0.99 4.34 1.98 4 3 C3.34 3 2.68 3 2 3 C2 4.65 2 6.3 2 8 C0.35 8 -1.3 8 -3 8 C-2.938125 8.78375 -2.87625 9.5675 -2.8125 10.375 C-2.874375 11.24125 -2.93625 12.1075 -3 13 C-5.90092502 14.93395001 -6.89674737 15.30131941 -10.1875 15.625 C-11.445625 15.74875 -12.70375 15.8725 -14 16 C-11.74259377 13.66475218 -9.7194239 11.81294927 -7 10 C-6.74969023 7.41619823 -6.74969023 7.41619823 -7 5 C-5.02 5 -3.04 5 -1 5 C-0.67 3.35 -0.34 1.7 0 0 Z " fill="#FB8C00" transform="translate(37,6)"/>
<path d="M0 0 C1.32 0 2.64 0 4 0 C4.33 0.66 4.66 1.32 5 2 C6.65 2 8.3 2 10 2 C10.33 3.65 10.66 5.3 11 7 C10.443125 6.814375 9.88625 6.62875 9.3125 6.4375 C6.56487353 5.91767878 4.72428435 6.41622478 2 7 C0.0003559 7.03772913 -2.00054061 7.04649906 -4 7 C-4 6.01 -4 5.02 -4 4 C-3.01 4 -2.02 4 -1 4 C-0.67 2.68 -0.34 1.36 0 0 Z " fill="#F50055" transform="translate(31,35)"/>
<path d="M0 0 C0.99 0 1.98 0 3 0 C4.85776765 3.13498292 5.20140476 5.37471432 5 9 C5.66 9 6.32 9 7 9 C6.67 10.65 6.34 12.3 6 14 C4.35 14.33 2.7 14.66 1 15 C0.83013455 13.43784452 0.66426036 11.8752548 0.5 10.3125 C0.4071875 9.44238281 0.314375 8.57226562 0.21875 7.67578125 C0.00840136 5.10276661 -0.03719144 2.58015636 0 0 Z " fill="#FF8E00" transform="translate(6,6)"/>
<path d="M0 0 C0.88429688 -0.01417969 1.76859375 -0.02835938 2.6796875 -0.04296875 C5.125 0.1875 5.125 0.1875 8.125 2.1875 C8.125 3.1775 8.125 4.1675 8.125 5.1875 C6.35273547 4.90465982 4.582212 4.61089502 2.8125 4.3125 C1.33330078 4.06886719 1.33330078 4.06886719 -0.17578125 3.8203125 C-2.875 3.1875 -2.875 3.1875 -5.875 1.1875 C-4.21846314 -0.46903686 -2.26849204 0.01643835 0 0 Z " fill="#1874CF" transform="translate(33.875,22.8125)"/>
<path d="M0 0 C0.66 0.33 1.32 0.66 2 1 C1.50128936 5.45673159 -0.02004362 7.57687178 -3.0625 10.8125 C-4.16271484 11.99779297 -4.16271484 11.99779297 -5.28515625 13.20703125 C-5.85105469 13.79871094 -6.41695312 14.39039063 -7 15 C-7.33 14.34 -7.66 13.68 -8 13 C-6.75506252 10.71025684 -5.47358472 8.55809966 -4.0625 6.375 C-3.67642578 5.76398437 -3.29035156 5.15296875 -2.89257812 4.5234375 C-1.93553674 3.0110758 -0.96867189 1.50493883 0 0 Z " fill="#FEDF71" transform="translate(17,21)"/>
<path d="M0 0 C4.875 0.875 4.875 0.875 6 2 C6.04092937 4.33297433 6.04241723 6.66705225 6 9 C5.01 9.495 5.01 9.495 4 10 C3.71125 9.030625 3.4225 8.06125 3.125 7.0625 C2.35785318 3.89335797 2.35785318 3.89335797 0 3 C0 2.01 0 1.02 0 0 Z " fill="#F40057" transform="translate(17,8)"/>
<path d="M0 0 C0.66 0.33 1.32 0.66 2 1 C1.319375 2.0828125 1.319375 2.0828125 0.625 3.1875 C-1.05070504 5.92046027 -1.05070504 5.92046027 -2.0625 8.75 C-3 11 -3 11 -5 12 C-4.37343743 7.73937456 -3.1323664 3.1323664 0 0 Z " fill="#FFBA15" transform="translate(11,28)"/>
<path d="M0 0 C0.99 0.33 1.98 0.66 3 1 C2.67 1.99 2.34 2.98 2 4 C1.01 3.67 0.02 3.34 -1 3 C-0.67 2.01 -0.34 1.02 0 0 Z " fill="#F50057" transform="translate(23,35)"/>
<path d="M0 0 C0.99 0.33 1.98 0.66 3 1 C2.67 1.99 2.34 2.98 2 4 C1.01 3.67 0.02 3.34 -1 3 C-0.67 2.01 -0.34 1.02 0 0 Z " fill="#FF8E00" transform="translate(39,31)"/>
<path d="M0 0 C0.99 0 1.98 0 3 0 C3 0.99 3 1.98 3 3 C2.01 3 1.02 3 0 3 C0 2.01 0 1.02 0 0 Z " fill="#1876D1" transform="translate(15,39)"/>
<path d="M0 0 C0.99 0 1.98 0 3 0 C3 0.99 3 1.98 3 3 C2.01 3 1.02 3 0 3 C0 2.01 0 1.02 0 0 Z " fill="#FAC02D" transform="translate(34,28)"/>
<path d="M0 0 C0.99 0 1.98 0 3 0 C3 0.99 3 1.98 3 3 C2.01 3 1.02 3 0 3 C0 2.01 0 1.02 0 0 Z " fill="#1876D1" transform="translate(6,24)"/>
<path d="M0 0 C0.99 0 1.98 0 3 0 C3 0.99 3 1.98 3 3 C2.01 3 1.02 3 0 3 C0 2.01 0 1.02 0 0 Z " fill="#F50057" transform="translate(39,17)"/>
<path d="M0 0 C0.99 0 1.98 0 3 0 C3 0.99 3 1.98 3 3 C2.01 3 1.02 3 0 3 C0 2.01 0 1.02 0 0 Z " fill="#FF8F00" transform="translate(25,12)"/>
<path d="M0 0 C0.99 0 1.98 0 3 0 C3 0.99 3 1.98 3 3 C2.01 3 1.02 3 0 3 C0 2.01 0 1.02 0 0 Z " fill="#1876D1" transform="translate(23,6)"/>
<path d="M0 0 C0.99 0 1.98 0 3 0 C3 0.99 3 1.98 3 3 C2.01 3 1.02 3 0 3 C0 2.01 0 1.02 0 0 Z " fill="#FAC02D" transform="translate(12,6)"/>
</svg>
