<?xml version="1.0" encoding="UTF-8"?>
<svg version="1.1" xmlns="http://www.w3.org/2000/svg" width="24" height="24">
<path d="M0 0 C2.64590014 -0.02684679 5.29153096 -0.04676357 7.9375 -0.0625 C8.69224609 -0.07087891 9.44699219 -0.07925781 10.22460938 -0.08789062 C12.14994313 -0.09652441 14.07535581 -0.05224333 16 0 C17 1 17 1 17.0625 3.5625 C17.041875 4.366875 17.02125 5.17125 17 6 C19.31 6 21.62 6 24 6 C24 10.62 24 15.24 24 20 C22.35 20.66 20.7 21.32 19 22 C18.67 21.67 18.34 21.34 18 21 C16.31816052 20.76712992 14.6287584 20.58735834 12.9375 20.4375 C12.01839844 20.35371094 11.09929688 20.26992188 10.15234375 20.18359375 C9.08693359 20.09271484 9.08693359 20.09271484 8 20 C7.34 18.35 6.68 16.7 6 15 C5.01 15 4.02 15 3 15 C2.01 14.67 1.02 14.34 0 14 C0 9.38 0 4.76 0 0 Z M2 2 C2 5.3 2 8.6 2 12 C3.97909398 12.02686553 5.95828971 12.04633375 7.9375 12.0625 C9.59072266 12.07990234 9.59072266 12.07990234 11.27734375 12.09765625 C13.91447634 12.31262571 13.91447634 12.31262571 15 11 C15.16053815 9.12678052 15.16053815 9.12678052 15.125 7 C15.12757812 6.278125 15.13015625 5.55625 15.1328125 4.8125 C15.19695276 2.97910585 15.19695276 2.97910585 14 2 C11.98035801 1.92755947 9.95832876 1.91622812 7.9375 1.9375 C6.83277344 1.94652344 5.72804688 1.95554688 4.58984375 1.96484375 C3.73519531 1.97644531 2.88054687 1.98804688 2 2 Z M17 8 C16.67 9.65 16.34 11.3 16 13 C13.69 13.33 11.38 13.66 9 14 C9.33 15.32 9.66 16.64 10 18 C13.96 18 17.92 18 22 18 C22 14.7 22 11.4 22 8 C20.35 8 18.7 8 17 8 Z " fill="#000000" transform="translate(0,2)"/>
<path d="M0 0 C2.475 0.495 2.475 0.495 5 1 C4.42415568 3.38564077 3.77772405 5.66682784 3 8 C2.34 8 1.68 8 1 8 C0.67 5.36 0.34 2.72 0 0 Z " fill="#000000" transform="translate(6,5)"/>
<path d="M0 0 C0.66 0 1.32 0 2 0 C2 0.66 2 1.32 2 2 C1.34 2 0.68 2 0 2 C0 1.34 0 0.68 0 0 Z " fill="#000000" transform="translate(18,17)"/>
<path d="M0 0 C0.66 0 1.32 0 2 0 C2 0.66 2 1.32 2 2 C1.34 2 0.68 2 0 2 C0 1.34 0 0.68 0 0 Z " fill="#000000" transform="translate(15,17)"/>
<path d="M0 0 C0.66 0 1.32 0 2 0 C2 0.66 2 1.32 2 2 C1.34 2 0.68 2 0 2 C0 1.34 0 0.68 0 0 Z " fill="#000000" transform="translate(12,17)"/>
</svg>
