<?xml version="1.0" encoding="UTF-8"?>
<svg version="1.1" xmlns="http://www.w3.org/2000/svg" width="48" height="48">
<path d="M0 0 C1.53333984 -0.00386719 1.53333984 -0.00386719 3.09765625 -0.0078125 C4.16886719 -0.00007812 5.24007813 0.00765625 6.34375 0.015625 C7.95056641 0.00402344 7.95056641 0.00402344 9.58984375 -0.0078125 C10.61207031 -0.00523437 11.63429688 -0.00265625 12.6875 0 C13.62787109 0.00225586 14.56824219 0.00451172 15.53710938 0.00683594 C17.84375 0.265625 17.84375 0.265625 19.84375 2.265625 C20.10253906 5.12304688 20.10253906 5.12304688 20.109375 8.734375 C20.11324219 10.67376953 20.11324219 10.67376953 20.1171875 12.65234375 C20.11090332 13.66433838 20.11090332 13.66433838 20.10449219 14.69677734 C20.0937907 16.75778657 20.10438943 18.81792419 20.1171875 20.87890625 C20.11460938 22.17183594 20.11203125 23.46476562 20.109375 24.796875 C20.10711914 25.98861328 20.10486328 27.18035156 20.10253906 28.40820312 C19.84375 31.265625 19.84375 31.265625 17.84375 33.265625 C15.53710937 33.52441406 15.53710937 33.52441406 12.6875 33.53125 C11.15416016 33.53511719 11.15416016 33.53511719 9.58984375 33.5390625 C8.51863281 33.53132813 7.44742187 33.52359375 6.34375 33.515625 C4.73693359 33.52722656 4.73693359 33.52722656 3.09765625 33.5390625 C2.07542969 33.53648438 1.05320312 33.53390625 0 33.53125 C-0.94037109 33.52899414 -1.88074219 33.52673828 -2.84960938 33.52441406 C-5.15625 33.265625 -5.15625 33.265625 -7.15625 31.265625 C-7.41503906 28.40820312 -7.41503906 28.40820312 -7.421875 24.796875 C-7.42445313 23.50394531 -7.42703125 22.21101563 -7.4296875 20.87890625 C-7.42549805 20.20424316 -7.42130859 19.52958008 -7.41699219 18.83447266 C-7.4062907 16.77346343 -7.41688943 14.71332581 -7.4296875 12.65234375 C-7.42710937 11.35941406 -7.42453125 10.06648437 -7.421875 8.734375 C-7.41961914 7.54263672 -7.41736328 6.35089844 -7.41503906 5.12304688 C-6.95041071 -0.00715149 -4.53340012 0.01087519 0 0 Z M1.84375 9.265625 C2.1622677 11.37383297 2.1622677 11.37383297 2.84375 13.265625 C3.17375 11.945625 3.50375 10.625625 3.84375 9.265625 C5.49375 9.265625 7.14375 9.265625 8.84375 9.265625 C8.534375 10.1525 8.225 11.039375 7.90625 11.953125 C7.0146829 14.73271655 6.34997993 17.39698875 5.84375 20.265625 C9.844817 16.92127112 9.844817 16.92127112 11.28125 12.078125 C11.10673437 9.13526498 11.10673437 9.13526498 8.84375 7.265625 C4.8762991 6.83092972 4.8762991 6.83092972 1.84375 9.265625 Z M4.84375 24.265625 C4.84375 24.925625 4.84375 25.585625 4.84375 26.265625 C5.83375 26.265625 6.82375 26.265625 7.84375 26.265625 C7.84375 25.605625 7.84375 24.945625 7.84375 24.265625 C6.85375 24.265625 5.86375 24.265625 4.84375 24.265625 Z " fill="#071E37" transform="translate(15.15625,4.734375)"/>
<path d="M0 0 C0.99 0.33 1.98 0.66 3 1 C3.14536813 5.39548491 3.23409948 9.79035087 3.3125 14.1875 C3.35439453 15.43337891 3.39628906 16.67925781 3.43945312 17.96289062 C3.56037584 26.98372517 3.56037584 26.98372517 1.15625 31.34375 C-3.50996881 33.79235987 -7.63156751 33.53866562 -12.8125 33.3125 C-13.79154297 33.28994141 -14.77058594 33.26738281 -15.77929688 33.24414062 C-18.18777455 33.18539727 -20.59309078 33.10332129 -23 33 C-23.33 32.01 -23.66 31.02 -24 30 C-22.81921875 29.93941406 -21.6384375 29.87882812 -20.421875 29.81640625 C-18.8645723 29.73197418 -17.30728121 29.64732751 -15.75 29.5625 C-14.58404297 29.50352539 -14.58404297 29.50352539 -13.39453125 29.44335938 C-12.64042969 29.40146484 -11.88632812 29.35957031 -11.109375 29.31640625 C-10.41811523 29.27974854 -9.72685547 29.24309082 -9.01464844 29.20532227 C-8.01739746 29.10368774 -8.01739746 29.10368774 -7 29 C-6.29649414 28.93159912 -5.59298828 28.86319824 -4.86816406 28.79272461 C-2.77483903 28.13120711 -2.77483903 28.13120711 -1.77587891 25.7824707 C-0.97802879 22.92120644 -0.68533412 20.44580124 -0.5859375 17.48046875 C-0.54726563 16.45888672 -0.50859375 15.43730469 -0.46875 14.38476562 C-0.4378125 13.32966797 -0.406875 12.27457031 -0.375 11.1875 C-0.33632813 10.11306641 -0.29765625 9.03863281 -0.2578125 7.93164062 C-0.16381387 5.28792912 -0.07815427 2.6442195 0 0 Z " fill="#071E37" transform="translate(37,10)"/>
</svg>
