<svg xmlns="http://www.w3.org/2000/svg"  viewBox="0 0 32 32" width="32px" height="32px" baseProfile="basic"><radialGradient id="bVy4vu3EgejdfTtcTRGfUa" cx="16" cy="16" r="13" gradientUnits="userSpaceOnUse"><stop offset=".437" stop-color="#969696"/><stop offset="1" stop-color="#dedede"/></radialGradient><path fill="url(#bVy4vu3EgejdfTtcTRGfUa)" d="M13.5,25h5c0,2-1.25,4-1.25,4h-2.5C14.75,29,13.5,27,13.5,25z M14.75,3c0,0-1.25,2-1.25,4h5 c0-2-1.25-4-1.25-4H14.75z M7,13.5c-2,0-4,1.25-4,1.25v2.5c0,0,2,1.25,4,1.25V13.5z M25,13.5v5c2,0,4-1.25,4-1.25v-2.5 C29,14.75,27,13.5,25,13.5z M5.924,24.308l1.768,1.768c0,0,2.298-0.53,3.712-1.945l-3.536-3.536 C6.454,22.01,5.924,24.308,5.924,24.308z M26.076,7.691l-1.768-1.768c0,0-2.298,0.53-3.712,1.945l3.536,3.536 C25.546,9.99,26.076,7.691,26.076,7.691z M5.924,7.691c0,0,0.53,2.298,1.945,3.712l3.536-3.536C9.99,6.454,7.691,5.924,7.691,5.924 L5.924,7.691z M20.596,24.132c1.414,1.414,3.712,1.945,3.712,1.945l1.768-1.768c0,0-0.53-2.298-1.945-3.712L20.596,24.132z"/><linearGradient id="bVy4vu3EgejdfTtcTRGfUb" x1="16" x2="16" y1="3" y2="29" gradientUnits="userSpaceOnUse"><stop offset="0" stop-opacity=".02"/><stop offset="1" stop-opacity=".15"/></linearGradient><path fill="url(#bVy4vu3EgejdfTtcTRGfUb)" d="M17.107,3.25	c0.244,0.426,1.054,1.946,1.136,3.5h-4.487c0.082-1.551,0.892-3.073,1.136-3.5H17.107 M7.767,6.201	c0.474,0.129,2.122,0.631,3.278,1.672l-3.172,3.173C6.834,9.891,6.33,8.242,6.201,7.767L7.767,6.201 M24.233,6.201l1.566,1.566	c-0.129,0.474-0.631,2.122-1.672,3.278l-3.172-3.173C22.109,6.834,23.758,6.331,24.233,6.201 M6.75,13.757v4.487	c-1.551-0.082-3.073-0.892-3.5-1.136v-2.215C3.676,14.648,5.196,13.838,6.75,13.757 M25.25,13.757	c1.551,0.082,3.073,0.892,3.5,1.136v2.215c-0.426,0.244-1.946,1.054-3.5,1.136V13.757 M24.127,20.954	c1.039,1.155,1.543,2.804,1.672,3.278l-1.566,1.566c-0.474-0.129-2.122-0.631-3.278-1.672L24.127,20.954 M7.873,20.954l3.172,3.172	c-1.155,1.039-2.804,1.542-3.278,1.672l-1.566-1.566C6.33,23.758,6.834,22.109,7.873,20.954 M18.243,25.25	c-0.082,1.551-0.892,3.073-1.136,3.5h-2.215c-0.244-0.426-1.054-1.946-1.136-3.5H18.243 M17.25,3h-2.5c0,0-1.25,2-1.25,4h5	C18.5,5,17.25,3,17.25,3L17.25,3z M24.309,5.924c0,0-2.298,0.53-3.712,1.945l3.536,3.536c1.414-1.414,1.945-3.712,1.945-3.712	L24.309,5.924L24.309,5.924z M7.691,5.924L5.924,7.691c0,0,0.53,2.298,1.945,3.712l3.536-3.536C9.99,6.454,7.691,5.924,7.691,5.924	L7.691,5.924z M25,13.5v5c2,0,4-1.25,4-1.25v-2.5C29,14.75,27,13.5,25,13.5L25,13.5z M7,13.5c-2,0-4,1.25-4,1.25v2.5	c0,0,2,1.25,4,1.25V13.5L7,13.5z M24.132,20.596l-3.536,3.536c1.414,1.414,3.712,1.945,3.712,1.945l1.768-1.768	C26.076,24.308,25.546,22.01,24.132,20.596L24.132,20.596z M7.868,20.596c-1.414,1.414-1.945,3.712-1.945,3.712l1.768,1.768	c0,0,2.298-0.53,3.712-1.945L7.868,20.596L7.868,20.596z M18.5,25h-5c0,2,1.25,4,1.25,4h2.5C17.25,29,18.5,27,18.5,25L18.5,25z"/><radialGradient id="bVy4vu3EgejdfTtcTRGfUc" cx="16" cy="16" r="11" gradientUnits="userSpaceOnUse"><stop offset="0" stop-color="#e6e6e6"/><stop offset=".18" stop-color="#d7d7d7"/><stop offset=".524" stop-color="#b0b0b0"/><stop offset=".681" stop-color="#9c9c9c"/><stop offset=".682" stop-color="#bababa"/><stop offset="1" stop-color="#c2c2c2"/></radialGradient><path fill="url(#bVy4vu3EgejdfTtcTRGfUc)" d="M16,5C9.925,5,5,9.925,5,16 s4.925,11,11,11s11-4.925,11-11S22.075,5,16,5z M16,20c-2.209,0-4-1.791-4-4c0-2.209,1.791-4,4-4s4,1.791,4,4 C20,18.209,18.209,20,16,20z"/><g><linearGradient id="bVy4vu3EgejdfTtcTRGfUd" x1="16" x2="16" y1="5" y2="27" gradientUnits="userSpaceOnUse"><stop offset="0" stop-opacity=".02"/><stop offset="1" stop-opacity=".15"/></linearGradient><path fill="url(#bVy4vu3EgejdfTtcTRGfUd)" d="M16,5.25c5.928,0,10.75,4.822,10.75,10.75 S21.928,26.75,16,26.75S5.25,21.928,5.25,16S10.072,5.25,16,5.25 M16,20.25c2.343,0,4.25-1.907,4.25-4.25s-1.907-4.25-4.25-4.25 s-4.25,1.907-4.25,4.25S13.657,20.25,16,20.25 M16,5C9.925,5,5,9.925,5,16s4.925,11,11,11s11-4.925,11-11S22.075,5,16,5L16,5z M16,20c-2.209,0-4-1.791-4-4c0-2.209,1.791-4,4-4s4,1.791,4,4C20,18.209,18.209,20,16,20L16,20z"/></g></svg>