<?xml version="1.0" encoding="UTF-8"?>
<svg version="1.1" xmlns="http://www.w3.org/2000/svg" width="94" height="94">
<path d="M0 0 C4.455 0.99 4.455 0.99 9 2 C9.32956743 6.91408572 9.61952966 11.82789543 9.87109375 16.74658203 C9.98620927 18.75892346 10.14631437 20.76857499 10.3125 22.77734375 C10.7572577 30.71812177 10.7572577 30.71812177 8.75390625 34.109375 C6.9546677 35.98756397 5.1011717 37.46805482 3 39 C1.81277344 39.97646484 1.81277344 39.97646484 0.6015625 40.97265625 C-5.57517396 46 -5.57517396 46 -8 46 C-8.04898438 46.78246094 -8.09796875 47.56492188 -8.1484375 48.37109375 C-8.22320312 49.38300781 -8.29796875 50.39492187 -8.375 51.4375 C-8.44460937 52.44683594 -8.51421875 53.45617187 -8.5859375 54.49609375 C-8.72257812 55.32238281 -8.85921875 56.14867187 -9 57 C-12.04213267 58.52106634 -15.28047572 58.37429338 -18.625 58.5625 C-19.33140625 58.60568359 -20.0378125 58.64886719 -20.765625 58.69335938 C-22.51018537 58.79944751 -24.25506697 58.90022889 -26 59 C-27.54130495 55.9173901 -27.22561558 52.69279069 -27.25 49.3125 C-27.270625 48.61705078 -27.29125 47.92160156 -27.3125 47.20507812 C-27.35009509 42.17203481 -26.59215786 38.44070679 -24 34 C-21.77987116 31.93457792 -19.36560825 30.31360204 -16.8125 28.6875 C-14.49720491 27.17058253 -12.24542931 25.6225229 -10 24 C-10 23.34 -10 22.68 -10 22 C-8.02 22 -6.04 22 -4 22 C-4.02320312 21.08476563 -4.04640625 20.16953125 -4.0703125 19.2265625 C-4.08835937 18.03804687 -4.10640625 16.84953125 -4.125 15.625 C-4.14820312 14.44164062 -4.17140625 13.25828125 -4.1953125 12.0390625 C-4 9 -4 9 -2 7 C-1.28072705 4.68234271 -0.6090107 2.34904126 0 0 Z " fill="#CA5F1C" transform="translate(78,25)"/>
<path d="M0 0 C3.54012923 -0.19667385 6.14489381 -0.24329772 9 2 C9.98429374 6.31819187 10.10756028 10.45909292 10.0625 14.875 C10.05347656 16.02742188 10.04445313 17.17984375 10.03515625 18.3671875 C10.02355469 19.23601563 10.01195312 20.10484375 10 21 C11.65 20.67 13.3 20.34 15 20 C15.33 20.99 15.66 21.98 16 23 C18.87602272 25.13678926 21.80277057 27.11825852 24.80859375 29.06445312 C28.94668056 31.86781256 31.37166225 34.09121539 33 39 C33.33942978 41.95402296 33.33100313 44.84322904 33.25 47.8125 C33.24484375 48.58787109 33.2396875 49.36324219 33.234375 50.16210938 C33.15482198 55.84517802 33.15482198 55.84517802 32 57 C29.30764224 57.23678716 26.63501844 57.42198025 23.9375 57.5625 C22.79958008 57.62727539 22.79958008 57.62727539 21.63867188 57.69335938 C19.75934562 57.79973633 17.87969756 57.90039934 16 58 C15.66269158 56.56342755 15.33030409 55.12569907 15 53.6875 C14.814375 52.88699219 14.62875 52.08648437 14.4375 51.26171875 C14 49 14 49 14 46 C11.78931323 44.09077052 9.5981025 42.34880541 7.25 40.625 C-1.97394154 33.80078309 -1.97394154 33.80078309 -4 30 C-4.40406239 25.99016177 -4.19012602 22.07805076 -3.9375 18.0625 C-3.89689453 16.99064453 -3.85628906 15.91878906 -3.81445312 14.81445312 C-3.52322886 9.14786047 -3.0898169 4.81475533 0 0 Z " fill="#C85C1B" transform="translate(10,26)"/>
<path d="M0 0 C3.71334635 0.22345801 4.83099828 0.81467897 7.38671875 3.6171875 C8.14597656 4.69226563 8.90523437 5.76734375 9.6875 6.875 C10.45449219 7.94492188 11.22148438 9.01484375 12.01171875 10.1171875 C15.92844093 15.79604992 17.38040054 18.93256709 16.5 25.72265625 C15.42411323 30.62298426 12.66612065 33.57678775 8.75 36.4375 C5.59420518 38.81180497 5.59420518 38.81180497 5.625 42.8125 C5.74875 43.864375 5.8725 44.91625 6 46 C3.625 46.625 3.625 46.625 1 47 C-1 45 -1 45 -1.625 41.75 C-3.29725235 37.18931177 -5.24977094 35.91696482 -9.22265625 33.359375 C-11 32 -11 32 -12 29 C-13.08980594 19.64323755 -10.90177663 12.95783601 -5.109375 5.59765625 C-3.4517258 3.68057821 -1.76359021 1.81949653 0 0 Z " fill="#139E4C" transform="translate(45,7)"/>
<path d="M0 0 C3.54012923 -0.19667385 6.14489381 -0.24329772 9 2 C9.98429374 6.31819187 10.10756028 10.45909292 10.0625 14.875 C10.05347656 16.02742188 10.04445313 17.17984375 10.03515625 18.3671875 C10.02355469 19.23601563 10.01195312 20.10484375 10 21 C11.65 20.67 13.3 20.34 15 20 C15.33 20.99 15.66 21.98 16 23 C18.30445208 24.75138358 20.59898621 26.39302227 23 28 C29.86486486 32.59459459 29.86486486 32.59459459 31 36 C25.37690223 35.08684737 21.86631031 34.41864035 18 30 C14.6011762 28.3005881 12.89635934 28 9 28 C9 29.98 9 31.96 9 34 C4.1377826 33.40704666 0.42866581 31.96420017 -4 30 C-3.91874844 26.12416586 -3.80593581 22.2498621 -3.6875 18.375 C-3.66494141 17.28058594 -3.64238281 16.18617187 -3.61914062 15.05859375 C-3.42632191 9.27403221 -3.20564752 4.89871068 0 0 Z " fill="#FBBA44" transform="translate(10,26)"/>
<path d="M0 0 C2.97 0.66 5.94 1.32 9 2 C10.46346185 23.82126149 10.46346185 23.82126149 10 32 C9 33 9 33 7.00390625 33.1328125 C6.19824219 33.13023438 5.39257812 33.12765625 4.5625 33.125 C3.75941406 33.12757812 2.95632812 33.13015625 2.12890625 33.1328125 C0 33 0 33 -2 32 C-2 30.68 -2 29.36 -2 28 C-8.17649504 28.95781307 -8.17649504 28.95781307 -13.5 32 C-17.0080867 34.80646936 -20.63892322 35.2779045 -25 36 C-21.13107568 31.74418325 -16.81108452 28.71065565 -12.01171875 25.55078125 C-11.34785156 25.03902344 -10.68398437 24.52726562 -10 24 C-10 23.34 -10 22.68 -10 22 C-8.02 22 -6.04 22 -4 22 C-4.02320312 21.08476563 -4.04640625 20.16953125 -4.0703125 19.2265625 C-4.08835937 18.03804687 -4.10640625 16.84953125 -4.125 15.625 C-4.14820312 14.44164062 -4.17140625 13.25828125 -4.1953125 12.0390625 C-4 9 -4 9 -2 7 C-1.28072705 4.68234271 -0.6090107 2.34904126 0 0 Z " fill="#FBB33F" transform="translate(78,25)"/>
<path d="M0 0 C0.33 0 0.66 0 1 0 C1.77528479 3.42573937 2.11918778 6.57239245 2.09765625 10.08203125 C2.09443359 11.01337891 2.09121094 11.94472656 2.08789062 12.90429688 C2.07951172 13.86400391 2.07113281 14.82371094 2.0625 15.8125 C2.05798828 16.79154297 2.05347656 17.77058594 2.04882812 18.77929688 C2.03708684 21.18626111 2.02066419 23.59309857 2 26 C1.34 26 0.68 26 0 26 C-0.33 27.32 -0.66 28.64 -1 30 C0.98491642 29.73323796 0.98491642 29.73323796 3 29 C3.33 28.01 3.66 27.02 4 26 C5.99609375 24.24609375 5.99609375 24.24609375 8.4375 22.4375 C10.77384317 20.69368046 12.93748351 19.06251649 15 17 C14.49280863 21.43792446 13.01168106 23.73734552 10 27 C9.0925 27.61875 8.185 28.2375 7.25 28.875 C4.5868774 30.91659983 4.5868774 30.91659983 4.6875 34.75 C4.790625 35.8225 4.89375 36.895 5 38 C2.625 38.625 2.625 38.625 0 39 C-2 37 -2 37 -2.625 33.75 C-4.29619387 29.19219853 -6.22474478 27.96566647 -10.22265625 25.45703125 C-12.3259925 23.7327578 -12.63160517 22.64677515 -13 20 C-10 21 -10 21 -8 24 C-5.95163118 23.43637698 -5.95163118 23.43637698 -4 22 C-3.30803455 19.18522204 -3.30803455 19.18522204 -3 16 C-2.67 15.0925 -2.34 14.185 -2 13.25 C-0.65528173 8.87966563 -0.34130006 4.54467975 0 0 Z " fill="#159342" transform="translate(46,15)"/>
<path d="M0 0 C3.71334635 0.22345801 4.83099828 0.81467897 7.38671875 3.6171875 C8.14597656 4.69226563 8.90523437 5.76734375 9.6875 6.875 C10.45449219 7.94492188 11.22148438 9.01484375 12.01171875 10.1171875 C15.93536122 15.80608365 15.93536122 15.80608365 17 19 C15.68 19 14.36 19 13 19 C11.35 16.03 9.7 13.06 8 10 C5.0745356 9.7763932 5.0745356 9.7763932 3 11 C3 9.35 3 7.7 3 6 C-0.1289835 8.81608515 -1.56421722 11.07552707 -3 15 C-4 16.66666667 -5 18.33333333 -6 20 C-6.33 20.9075 -6.66 21.815 -7 22.75 C-7.33 23.4925 -7.66 24.235 -8 25 C-8.99 25.33 -9.98 25.66 -11 26 C-11.33 26.66 -11.66 27.32 -12 28 C-12.86344316 18.98181589 -10.69721796 12.70555013 -5.109375 5.59375 C-3.45089017 3.67907646 -1.76272511 1.818604 0 0 Z " fill="#12C167" transform="translate(45,7)"/>
<path d="M0 0 C2.5625 1.3125 2.5625 1.3125 4.25 3.25 C7.3408081 6.00666668 10.43824036 6.56578579 14.41796875 7.50390625 C15.12566406 7.77074219 15.83335938 8.03757812 16.5625 8.3125 C17.85771242 12.19813725 17.70753464 15.89050269 17.6875 19.9375 C17.69330078 21.12085938 17.69330078 21.12085938 17.69921875 22.328125 C17.68915394 28.18584606 17.68915394 28.18584606 16.5625 29.3125 C13.87014224 29.54928716 11.19751844 29.73448025 8.5 29.875 C7.36208008 29.93977539 7.36208008 29.93977539 6.20117188 30.00585938 C4.32184562 30.11223633 2.44219756 30.21289934 0.5625 30.3125 C-0.0975 27.3425 -0.7575 24.3725 -1.4375 21.3125 C-0.1175 21.3125 1.2025 21.3125 2.5625 21.3125 C2.995625 21.828125 3.42875 22.34375 3.875 22.875 C5.63761565 24.70419991 5.63761565 24.70419991 9.0625 24.1875 C12.40946381 23.51452979 12.40946381 23.51452979 14.5625 22.1875 C16.24462223 19.03352082 15.47237645 16.64871364 14.5625 13.3125 C12.74548142 11.90395334 12.74548142 11.90395334 10.5625 11.3125 C9.5725 10.6525 8.5825 9.9925 7.5625 9.3125 C6.5725 8.9825 5.5825 8.6525 4.5625 8.3125 C1.5625 7.3125 1.5625 7.3125 -1.4375 5.3125 C-1.4375 4.6525 -1.4375 3.9925 -1.4375 3.3125 C-2.0975 3.3125 -2.7575 3.3125 -3.4375 3.3125 C-3.4375 2.6525 -3.4375 1.9925 -3.4375 1.3125 C-4.0975 0.9825 -4.7575 0.6525 -5.4375 0.3125 C-2.4375 -0.6875 -2.4375 -0.6875 0 0 Z " fill="#D25B23" transform="translate(25.4375,53.6875)"/>
<path d="M0 0 C2.97 0.66 5.94 1.32 9 2 C8.67 3.65 8.34 5.3 8 7 C6.35 7.33 4.7 7.66 3 8 C2.67 9.98 2.34 11.96 2 14 C1.67 14 1.34 14 1 14 C0.67 12.02 0.34 10.04 0 8 C-2.42130331 11.63195496 -2.21022785 13.38349348 -2.125 17.6875 C-2.09792969 19.45673828 -2.09792969 19.45673828 -2.0703125 21.26171875 C-2.04710938 22.16535156 -2.02390625 23.06898437 -2 24 C-0.68 24.33 0.64 24.66 2 25 C2 25.99 2 26.98 2 28 C1.01 28 0.02 28 -1 28 C-1 27.34 -1 26.68 -1 26 C-1.66 26 -2.32 26 -3 26 C-3.33 26.99 -3.66 27.98 -4 29 C-5.051875 29.0825 -6.10375 29.165 -7.1875 29.25 C-10.99943626 29.68924147 -10.99943626 29.68924147 -13.375 31.9375 C-16.96647417 34.75937256 -20.56475366 35.2656237 -25 36 C-21.13107568 31.74418325 -16.81108452 28.71065565 -12.01171875 25.55078125 C-11.34785156 25.03902344 -10.68398437 24.52726562 -10 24 C-10 23.34 -10 22.68 -10 22 C-8.02 22 -6.04 22 -4 22 C-4.02320312 21.08476563 -4.04640625 20.16953125 -4.0703125 19.2265625 C-4.08835937 18.03804687 -4.10640625 16.84953125 -4.125 15.625 C-4.14820312 14.44164062 -4.17140625 13.25828125 -4.1953125 12.0390625 C-4 9 -4 9 -2 7 C-1.28072705 4.68234271 -0.6090107 2.34904126 0 0 Z " fill="#FCD281" transform="translate(78,25)"/>
<path d="M0 0 C0 0.66 0 1.32 0 2 C-1.85625 2.680625 -1.85625 2.680625 -3.75 3.375 C-6.59245495 4.4384007 -9.32663046 5.55192483 -12 7 C-12 7.66 -12 8.32 -12 9 C-13.72526042 9.68359375 -15.45052083 10.3671875 -17.17578125 11.05078125 C-19.31925348 12.16612119 -20.54349547 13.05799395 -22 15 C-22.57775884 17.73230305 -22.57775884 17.73230305 -22.6875 20.6875 C-22.75324219 21.68136719 -22.81898437 22.67523438 -22.88671875 23.69921875 C-22.92410156 24.45847656 -22.96148437 25.21773437 -23 26 C-21.23050905 26.10815225 -19.45912513 26.18566083 -17.6875 26.25 C-16.20830078 26.31960937 -16.20830078 26.31960937 -14.69921875 26.390625 C-11.8864845 26.26781773 -11.8864845 26.26781773 -10.21875 24.125 C-9.06491008 22.11317654 -7.9767091 20.10368114 -7 18 C-6.34 18 -5.68 18 -5 18 C-5.11351517 19.81325551 -5.24112961 21.62563357 -5.375 23.4375 C-5.44460937 24.44683594 -5.51421875 25.45617187 -5.5859375 26.49609375 C-5.72257812 27.32238281 -5.85921875 28.14867188 -6 29 C-9.04213267 30.52106634 -12.28047572 30.37429338 -15.625 30.5625 C-16.33140625 30.60568359 -17.0378125 30.64886719 -17.765625 30.69335938 C-19.51018537 30.79944751 -21.25506697 30.90022889 -23 31 C-24.55647905 27.8870419 -24.18446048 24.60088167 -24.1875 21.1875 C-24.19974609 20.47529297 -24.21199219 19.76308594 -24.22460938 19.02929688 C-24.23601183 14.92061368 -24.01473341 11.62116536 -22 8 C-19 6 -19 6 -15.6875 5.125 C-11.93369301 4.18501853 -11.93369301 4.18501853 -8.9375 1.875 C-5.61704364 -0.24444023 -3.85903165 -0.36752682 0 0 Z " fill="#DD782C" transform="translate(75,53)"/>
<path d="M0 0 C0.66 0 1.32 0 2 0 C2 2.31 2 4.62 2 7 C1.67 7 1.34 7 1 7 C0.35334337 9.24976352 -0.29229523 11.49981967 -0.9375 13.75 C-1.29714844 15.00296875 -1.65679687 16.2559375 -2.02734375 17.546875 C-2.5706131 19.47559027 -3.0872029 21.41421375 -3.5 23.375 C-4 25 -4 25 -6.0625 26.25 C-6.701875 26.4975 -7.34125 26.745 -8 27 C-12 22.25 -12 22.25 -12 20 C-11.01 19.34 -10.02 18.68 -9 18 C-8.06887769 16.11667942 -8.06887769 16.11667942 -7.4375 14 C-6.53744405 11.23372636 -6.10771027 10.10771027 -4 8 C-2.98034573 5.67518826 -1.97940398 3.34205301 -1 1 C-0.67 0.67 -0.34 0.34 0 0 Z " fill="#0EC363" transform="translate(46,13)"/>
<path d="M0 0 C3.43945295 1.14648432 4.47500233 2.44814065 7 5 C9.61400065 6.98420257 12.25594368 8.91760178 14.9296875 10.8203125 C16.32089156 11.83458935 17.66505959 12.91273721 19 14 C19 14.66 19 15.32 19 16 C13.37690223 15.08684737 9.86631031 14.41864035 6 10 C3.06946805 8.60799732 0.16263206 7.70280713 -3 7 C-3.33 5.68 -3.66 4.36 -4 3 C-2.1875 1.4375 -2.1875 1.4375 0 0 Z " fill="#FDC869" transform="translate(22,46)"/>
<path d="M0 0 C0.66 0.33 1.32 0.66 2 1 C3.65730481 8.31715709 3.38191911 16.55257727 3 24 C2 25 2 25 0.00390625 25.1328125 C-0.80175781 25.13023438 -1.60742188 25.12765625 -2.4375 25.125 C-3.24058594 25.12757812 -4.04367188 25.13015625 -4.87109375 25.1328125 C-7 25 -7 25 -9 24 C-9.625 20.9375 -9.625 20.9375 -10 18 C-9.34 18 -8.68 18 -8 18 C-7.67 18.99 -7.34 19.98 -7 21 C-5.02 21 -3.04 21 -1 21 C-0.67 14.07 -0.34 7.14 0 0 Z " fill="#E4893B" transform="translate(85,33)"/>
<path d="M0 0 C2.5625 1.3125 2.5625 1.3125 4.25 3.25 C7.79166298 6.40878049 12.02803449 7.17023006 16.5625 8.3125 C16.8925 10.6225 17.2225 12.9325 17.5625 15.3125 C17.2325 14.3225 16.9025 13.3325 16.5625 12.3125 C15.634375 12.18875 14.70625 12.065 13.75 11.9375 C10.5625 11.3125 10.5625 11.3125 7.5625 9.3125 C6.5725 8.9825 5.5825 8.6525 4.5625 8.3125 C1.5625 7.3125 1.5625 7.3125 -1.4375 5.3125 C-1.4375 4.6525 -1.4375 3.9925 -1.4375 3.3125 C-2.0975 3.3125 -2.7575 3.3125 -3.4375 3.3125 C-3.4375 2.6525 -3.4375 1.9925 -3.4375 1.3125 C-4.0975 0.9825 -4.7575 0.6525 -5.4375 0.3125 C-2.4375 -0.6875 -2.4375 -0.6875 0 0 Z " fill="#E77C27" transform="translate(25.4375,53.6875)"/>
<path d="M0 0 C1.98 0 3.96 0 6 0 C6.33 1.98 6.66 3.96 7 6 C6.443125 6.12375 5.88625 6.2475 5.3125 6.375 C1.93643385 7.28745031 -1.06619999 8.19959999 -3.75 10.5 C-7.18315594 12.78877062 -10.98328513 13.27046845 -15 14 C-11.13107568 9.74418325 -6.81108452 6.71065565 -2.01171875 3.55078125 C-1.34785156 3.03902344 -0.68398437 2.52726562 0 2 C0 1.34 0 0.68 0 0 Z " fill="#FDDD8F" transform="translate(68,47)"/>
<path d="M0 0 C1.32 0 2.64 0 4 0 C4.1080023 2.10304477 4.18558987 4.20766909 4.25 6.3125 C4.29640625 7.48425781 4.3428125 8.65601563 4.390625 9.86328125 C4 13 4 13 1.984375 14.91796875 C1.32953125 15.27503906 0.6746875 15.63210937 0 16 C-2 14 -2 14 -2.265625 11.25 C-2.26046875 10.1775 -2.2553125 9.105 -2.25 8 C-2.25515625 6.9275 -2.2603125 5.855 -2.265625 4.75 C-2 2 -2 2 0 0 Z " fill="#F08A2F" transform="translate(16,35)"/>
<path d="M0 0 C3.53567531 -0.19642641 6.19227664 -0.30634419 9 2 C9.75 5.625 9.75 5.625 10 9 C8.68 8.34 7.36 7.68 6 7 C5.67 7.33 5.34 7.66 5 8 C2.66702567 8.04092937 0.33294775 8.04241723 -2 8 C-2 11.3 -2 14.6 -2 18 C-2.33 18 -2.66 18 -3 18 C-3.55353075 5.33029613 -3.55353075 5.33029613 0 0 Z " fill="#FDC863" transform="translate(10,26)"/>
<path d="M0 0 C0.33 1.32 0.66 2.64 1 4 C3.31 4.33 5.62 4.66 8 5 C5.44018031 7.9864563 2.51345275 9.31354268 -1 11 C-1.845625 11.53625 -2.69125 12.0725 -3.5625 12.625 C-6.0842208 14.04750917 -8.15068752 14.59295536 -11 15 C-9.64004663 11.8381084 -8.22140627 10.14391454 -5.5 8.0625 C-2.54575023 5.64873668 -1.00183473 3.784709 0 0 Z " fill="#D56B22" transform="translate(75,53)"/>
<path d="M0 0 C0.6875 1.625 0.6875 1.625 1 4 C-0.290985 7.03381476 -1.84781771 9.75042104 -3.5625 12.5625 C-5.08656431 14.97684542 -5.08656431 14.97684542 -6 17.75 C-6.33 18.4925 -6.66 19.235 -7 20 C-7.99 20.33 -8.98 20.66 -10 21 C-10.33 21.66 -10.66 22.32 -11 23 C-11 19.7 -11 16.4 -11 13 C-10.030625 12.7525 -9.06125 12.505 -8.0625 12.25 C-7.051875 11.8375 -6.04125 11.425 -5 11 C-4.28739925 9.24240782 -4.28739925 9.24240782 -4 7 C-2.76662633 4.60033992 -1.3826667 2.31931189 0 0 Z " fill="#06D26D" transform="translate(44,12)"/>
<path d="M0 0 C4.38889325 0.66498383 7.9811485 2.18757677 12 4 C12.33 2.68 12.66 1.36 13 0 C13.721875 0.7425 14.44375 1.485 15.1875 2.25 C17.90711047 5.01267269 17.90711047 5.01267269 20.8125 7.1875 C21.534375 7.785625 22.25625 8.38375 23 9 C23 9.66 23 10.32 23 11 C17.94744036 10.36843005 13.70406799 8.86540627 9 7 C9 6.34 9 5.68 9 5 C6.03 4.01 3.06 3.02 0 2 C0 1.34 0 0.68 0 0 Z " fill="#D66B20" transform="translate(7,56)"/>
<path d="M0 0 C0.66 0.33 1.32 0.66 2 1 C-2.49976642 6.24972749 -7.24557231 8.87523131 -13.48828125 11.80078125 C-15.88468508 12.77353743 -15.88468508 12.77353743 -17 14 C-17.23075082 15.34747084 -17.41153063 16.70377565 -17.5625 18.0625 C-17.706875 19.361875 -17.85125 20.66125 -18 22 C-17.01 22.33 -16.02 22.66 -15 23 C-16.32 23.33 -17.64 23.66 -19 24 C-19.77686484 14.1424483 -19.77686484 14.1424483 -16.875 9.875 C-13.79218363 7.86446758 -11.64629065 7.25439237 -8 7 C-8 6.34 -8 5.68 -8 5 C-6.3203125 3.67578125 -6.3203125 3.67578125 -4.125 2.3125 C-3.40570313 1.85488281 -2.68640625 1.39726563 -1.9453125 0.92578125 C-1.30335937 0.62027344 -0.66140625 0.31476562 0 0 Z " fill="#DE6C1E" transform="translate(71,55)"/>
<path d="M0 0 C2.92879371 0.62759865 5.36095629 1.58622659 8 3 C8 3.66 8 4.32 8 5 C8.804375 5.28875 9.60875 5.5775 10.4375 5.875 C13 7 13 7 14 9 C15.64363134 9.72159424 17.31050386 10.39351421 19 11 C19 12.32 19 13.64 19 15 C13.93892153 13.46135473 10.57792584 10.36315818 6.6875 6.9375 C6.04232422 6.38255859 5.39714844 5.82761719 4.73242188 5.25585938 C3.13088056 3.8644674 1.56222921 2.43539057 0 1 C0 0.67 0 0.34 0 0 Z " fill="#B55323" transform="translate(8,58)"/>
<path d="M0 0 C0 0.66 0 1.32 0 2 C-0.55429688 2.19335938 -1.10859375 2.38671875 -1.6796875 2.5859375 C-2.40414062 2.84632812 -3.12859375 3.10671875 -3.875 3.375 C-4.59429687 3.63023438 -5.31359375 3.88546875 -6.0546875 4.1484375 C-8.18157994 4.93877783 -8.18157994 4.93877783 -10 7 C-11.44024839 7.53105684 -12.90230007 8.00449686 -14.375 8.4375 C-17.75913006 9.50559902 -20.33657867 10.56818052 -23 13 C-22.6875 10.625 -22.6875 10.625 -22 8 C-19 6 -19 6 -15.6875 5.125 C-11.93369301 4.18501853 -11.93369301 4.18501853 -8.9375 1.875 C-5.61704364 -0.24444023 -3.85903165 -0.36752682 0 0 Z " fill="#F5A940" transform="translate(75,53)"/>
<path d="M0 0 C0.33 0.99 0.66 1.98 1 3 C-0.95565245 6.5984005 -2.96412992 9.07261013 -6.25 11.4375 C-9.40579482 13.81180497 -9.40579482 13.81180497 -9.375 17.8125 C-9.25125 18.864375 -9.1275 19.91625 -9 21 C-11 19 -11 19 -11.1875 15.5625 C-11 12 -11 12 -10 9 C-7.96875 7.24609375 -7.96875 7.24609375 -5.5 5.4375 C-2.2216853 3.168506 -2.2216853 3.168506 0 0 Z " fill="#357D35" transform="translate(60,32)"/>
<path d="M0 0 C0 3.77916655 -1.16667797 6.16963105 -2.6875 9.625 C-3.18636719 10.79289062 -3.68523438 11.96078125 -4.19921875 13.1640625 C-6 16 -6 16 -8.70703125 16.8984375 C-9.84205078 16.94871094 -9.84205078 16.94871094 -11 17 C-9.6736501 12.08813279 -7.6660829 8.98026854 -4.375 5.125 C-3.55773438 4.15820312 -2.74046875 3.19140625 -1.8984375 2.1953125 C-1.27195312 1.47085937 -0.64546875 0.74640625 0 0 Z " fill="#59E7B2" transform="translate(45,7)"/>
<path d="M0 0 C0.99 0.33 1.98 0.66 3 1 C1.41856529 2.43958847 -0.16522779 3.87658645 -1.75 5.3125 C-2.63171875 6.11300781 -3.5134375 6.91351563 -4.421875 7.73828125 C-9.05487449 11.80268535 -9.05487449 11.80268535 -11 13 C-11.99 12.67 -12.98 12.34 -14 12 C-12 9 -12 9 -9 8 C-7.31183067 6.35511706 -5.64646685 4.68662458 -4 3 C-1.875 1.125 -1.875 1.125 0 0 Z " fill="#BE5E28" transform="translate(83,58)"/>
<path d="M0 0 C2.64 0.66 5.28 1.32 8 2 C8 4.64 8 7.28 8 10 C6.68 10 5.36 10 4 10 C3.79503906 9.44570313 3.59007812 8.89140625 3.37890625 8.3203125 C3.10949219 7.59585938 2.84007812 6.87140625 2.5625 6.125 C2.29566406 5.40570313 2.02882812 4.68640625 1.75390625 3.9453125 C1.02083146 1.96351155 1.02083146 1.96351155 0 0 Z " fill="#2A8842" transform="translate(41,43)"/>
<path d="M0 0 C0.66 0 1.32 0 2 0 C2 1.32 2 2.64 2 4 C5.63 4.66 9.26 5.32 13 6 C13 6.66 13 7.32 13 8 C9.04 8 5.08 8 1 8 C-1 4 -1 4 -0.625 1.75 C-0.41875 1.1725 -0.2125 0.595 0 0 Z " fill="#DF8C40" transform="translate(25,74)"/>
<path d="M0 0 C0.99 0.33 1.98 0.66 3 1 C2.67 3.31 2.34 5.62 2 8 C-2.56454251 7.45660208 -5.9728176 6.20536179 -10 4 C-10 3.34 -10 2.68 -10 2 C-7.03 2.33 -4.06 2.66 -1 3 C-0.67 2.01 -0.34 1.02 0 0 Z " fill="#F3A033" transform="translate(17,52)"/>
<path d="M0 0 C1.14319652 3.35337646 0.85351312 5.20893732 -0.375 8.5 C-1.19718553 10.74372125 -1.97103637 12.86499598 -2.47265625 15.203125 C-3 17 -3 17 -5.0625 18.25 C-5.701875 18.4975 -6.34125 18.745 -7 19 C-7 16 -7 16 -5 14 C-4.44058674 12.39448394 -3.94775976 10.76516347 -3.5 9.125 C-2.60544597 5.86765652 -1.60597991 2.97660069 0 0 Z " fill="#0FA44F" transform="translate(45,21)"/>
<path d="M0 0 C2.5625 1.3125 2.5625 1.3125 4.25 3.25 C7.79166298 6.40878049 12.02803449 7.17023006 16.5625 8.3125 C16.2325 8.9725 15.9025 9.6325 15.5625 10.3125 C8.81454469 8.64248289 4.04112313 6.58582604 -1.4375 2.3125 C-2.75002882 1.60575371 -4.07302891 0.91286728 -5.4375 0.3125 C-2.4375 -0.6875 -2.4375 -0.6875 0 0 Z " fill="#F6AA3F" transform="translate(25.4375,53.6875)"/>
<path d="M0 0 C0.99 0.33 1.98 0.66 3 1 C3.33 1.99 3.66 2.98 4 4 C3.34 4 2.68 4 2 4 C1.67 5.32 1.34 6.64 1 8 C-0.32 7.67 -1.64 7.34 -3 7 C-3.33 5.68 -3.66 4.36 -4 3 C-2.1875 1.4375 -2.1875 1.4375 0 0 Z " fill="#FDE6A5" transform="translate(22,46)"/>
<path d="M0 0 C1.32 0 2.64 0 4 0 C4 4.29 4 8.58 4 13 C3.67 13 3.34 13 3 13 C2.67 10.03 2.34 7.06 2 4 C1.01 3.67 0.02 3.34 -1 3 C-1 6.63 -1 10.26 -1 14 C-1.33 14 -1.66 14 -2 14 C-2.05389087 12.04196493 -2.09274217 10.08351091 -2.125 8.125 C-2.14820313 7.03445312 -2.17140625 5.94390625 -2.1953125 4.8203125 C-2 2 -2 2 0 0 Z " fill="#F49A3B" transform="translate(16,35)"/>
<path d="M0 0 C4.31392226 0.4793247 6.16569547 1.7457985 9 5 C8.34 5 7.68 5 7 5 C6.67 5.66 6.34 6.32 6 7 C3 5.1875 3 5.1875 0 3 C0 2.01 0 1.02 0 0 Z " fill="#FDD67A" transform="translate(24,50)"/>
<path d="M0 0 C1.27351308 2.54702616 0.80191925 3.4282945 0.0625 6.125 C-0.13214844 6.84945313 -0.32679687 7.57390625 -0.52734375 8.3203125 C-0.68332031 8.87460937 -0.83929688 9.42890625 -1 10 C-1.66 10 -2.32 10 -3 10 C-3.33 10.66 -3.66 11.32 -4 12 C-4 8.7 -4 5.4 -4 2 C-2.68 1.34 -1.36 0.68 0 0 Z " fill="#29D888" transform="translate(37,23)"/>
<path d="M0 0 C1.98 0 3.96 0 6 0 C6.33 1.98 6.66 3.96 7 6 C5.68 6.33 4.36 6.66 3 7 C2.87625 6.360625 2.7525 5.72125 2.625 5.0625 C2.315625 4.0415625 2.315625 4.0415625 2 3 C1.34 2.67 0.68 2.34 0 2 C0 1.34 0 0.68 0 0 Z " fill="#FADDB5" transform="translate(68,47)"/>
<path d="M0 0 C2.37948772 0.17625835 3.70225849 0.69719773 5.37890625 2.40234375 C6.62115486 3.90649092 7.81376056 5.45129851 9 7 C8.67 7.66 8.34 8.32 8 9 C7.1646875 8.01 7.1646875 8.01 6.3125 7 C4.17274717 4.77202489 4.17274717 4.77202489 1.375 4.6875 C-1.01239747 4.87006966 -1.01239747 4.87006966 -3 6 C-2 4 -1 2 0 0 Z " fill="#3ACB96" transform="translate(46,7)"/>
<path d="M0 0 C0.36871508 6.51396648 0.36871508 6.51396648 -1.375 8.8125 C-1.91125 9.204375 -2.4475 9.59625 -3 10 C-3.66 10.66 -4.32 11.32 -5 12 C-5.36666667 4.66666667 -5.36666667 4.66666667 -3.625 1.5 C-2 0 -2 0 0 0 Z " fill="#02BA51" transform="translate(48,13)"/>
<path d="M0 0 C2.375 -0.1875 2.375 -0.1875 5 0 C5.66 0.99 6.32 1.98 7 3 C4.03 2.505 4.03 2.505 1 2 C1 2.66 1 3.32 1 4 C1.99 4.33 2.98 4.66 4 5 C3.67 5.66 3.34 6.32 3 7 C-1 7 -1 7 -3 6 C-2.01 4.02 -1.02 2.04 0 0 Z " fill="#FDE6A9" transform="translate(10,26)"/>
<path d="M0 0 C0.99 0.33 1.98 0.66 3 1 C3 1.66 3 2.32 3 3 C3.66 3 4.32 3 5 3 C8.09741625 5.78767463 10.26142784 8.23309364 12 12 C2.87822878 5.35793358 2.87822878 5.35793358 0 2 C0 1.34 0 0.68 0 0 Z " fill="#C84C18" transform="translate(19,54)"/>
<path d="M0 0 C1.1127563 3.3155596 0.9007397 5.32161249 -0.1875 8.625 C-0.42855469 9.40101562 -0.66960938 10.17703125 -0.91796875 10.9765625 C-2.23750029 13.44413411 -3.43218752 14.01115296 -6 15 C-5.566875 14.195625 -5.13375 13.39125 -4.6875 12.5625 C-2.74748505 8.46691288 -1.35281618 4.31749846 0 0 Z " fill="#0FB459" transform="translate(42,23)"/>
<path d="M0 0 C3.21946315 3.11214772 5.55891051 5.67673153 7 10 C5.68 10 4.36 10 3 10 C0.96564469 6.27034861 0 4.33094958 0 0 Z " fill="#39A674" transform="translate(55,16)"/>
<path d="M0 0 C0.515625 0.515625 1.03125 1.03125 1.5625 1.5625 C4.99819483 3.588679 7.19802931 2.84488238 11 2 C11.66 1.67 12.32 1.34 13 1 C13 2.65 13 4.3 13 6 C11.39504433 5.88557539 9.79101881 5.75805306 8.1875 5.625 C7.29417969 5.55539063 6.40085937 5.48578125 5.48046875 5.4140625 C3 5 3 5 0 3 C0 2.01 0 1.02 0 0 Z " fill="#D67324" transform="translate(27,75)"/>
<path d="M0 0 C0.33 0 0.66 0 1 0 C1.33 4.29 1.66 8.58 2 13 C3.32 13.33 4.64 13.66 6 14 C6 14.99 6 15.98 6 17 C5.01 17 4.02 17 3 17 C3 16.34 3 15.68 3 15 C2.01 15 1.02 15 0 15 C0 10.05 0 5.1 0 0 Z " fill="#FDC968" transform="translate(74,36)"/>
<path d="M0 0 C1.32 0.33 2.64 0.66 4 1 C1.36 2.98 -1.28 4.96 -4 7 C-3.6875 4.625 -3.6875 4.625 -3 2 C-2.01 1.34 -1.02 0.68 0 0 Z " fill="#FDBF4D" transform="translate(56,59)"/>
<path d="M0 0 C0.66 0.33 1.32 0.66 2 1 C-0.65654657 4.73884332 -2.58110387 6.64978174 -7 8 C-6.02133662 6.85373678 -5.04205413 5.70800212 -4.0625 4.5625 C-3.51722656 3.92441406 -2.97195312 3.28632812 -2.41015625 2.62890625 C-1.63204305 1.73008851 -0.84063472 0.84063472 0 0 Z " fill="#CD4918" transform="translate(73,55)"/>
<path d="M0 0 C3.40320742 1.01176437 4.75725331 1.64843582 6.8125 4.625 C7.204375 5.40875 7.59625 6.1925 8 7 C5.5625 6.1875 5.5625 6.1875 3 5 C2.67 4.01 2.34 3.02 2 2 C1.34 2 0.68 2 0 2 C0 1.34 0 0.68 0 0 Z " fill="#DF6E20" transform="translate(22,55)"/>
<path d="M0 0 C0.66 0 1.32 0 2 0 C1.67 3.63 1.34 7.26 1 11 C0.67 11 0.34 11 0 11 C-1.7578125 5.04296875 -1.7578125 5.04296875 -2 3 C-1.34 2.01 -0.68 1.02 0 0 Z " fill="#CE874F" transform="translate(68,71)"/>
<path d="M0 0 C0.66 0.66 1.32 1.32 2 2 C1.34 2 0.68 2 0 2 C0.33 2.99 0.66 3.98 1 5 C0.01 5.33 -0.98 5.66 -2 6 C-2.66 5.67 -3.32 5.34 -4 5 C-2.25 1.125 -2.25 1.125 0 0 Z " fill="#FDC456" transform="translate(17,50)"/>
<path d="M0 0 C0.33 0 0.66 0 1 0 C1 5.61 1 11.22 1 17 C0.67 17 0.34 17 0 17 C0 11.39 0 5.78 0 0 Z " fill="#DF6528" transform="translate(44,65)"/>
<path d="M0 0 C1.32 0 2.64 0 4 0 C3.67 1.32 3.34 2.64 3 4 C1.68 3.67 0.36 3.34 -1 3 C-0.67 2.01 -0.34 1.02 0 0 Z " fill="#FBDDC1" transform="translate(20,50)"/>
<path d="M0 0 C0.33 0 0.66 0 1 0 C1 4.95 1 9.9 1 15 C0.67 15 0.34 15 0 15 C0 10.05 0 5.1 0 0 Z " fill="#ED8632" transform="translate(49,66)"/>
<path d="M0 0 C0.33 0 0.66 0 1 0 C1 4.95 1 9.9 1 15 C0.67 15 0.34 15 0 15 C0 10.05 0 5.1 0 0 Z " fill="#FDC04C" transform="translate(5,33)"/>
<path d="M0 0 C4.29 0 8.58 0 13 0 C13 0.33 13 0.66 13 1 C8.71 1 4.42 1 0 1 C0 0.67 0 0.34 0 0 Z " fill="#D25F21" transform="translate(53,84)"/>
<path d="M0 0 C4.29 0 8.58 0 13 0 C13 0.33 13 0.66 13 1 C8.71 1 4.42 1 0 1 C0 0.67 0 0.34 0 0 Z " fill="#D25D20" transform="translate(28,84)"/>
<path d="M0 0 C0.33 0 0.66 0 1 0 C1 4.29 1 8.58 1 13 C0.67 13 0.34 13 0 13 C0 8.71 0 4.42 0 0 Z " fill="#DE8A45" transform="translate(89,44)"/>
<path d="M0 0 C0.33 0 0.66 0 1 0 C1 3.96 1 7.92 1 12 C0.67 12 0.34 12 0 12 C0 8.04 0 4.08 0 0 Z " fill="#E5883C" transform="translate(88,32)"/>
<path d="M0 0 C0.33 0 0.66 0 1 0 C1 3.96 1 7.92 1 12 C0.67 12 0.34 12 0 12 C0 8.04 0 4.08 0 0 Z " fill="#F49C43" transform="translate(21,34)"/>
<path d="M0 0 C0.33 0 0.66 0 1 0 C1 3.63 1 7.26 1 11 C0.67 11 0.34 11 0 11 C0 7.37 0 3.74 0 0 Z " fill="#FDC154" transform="translate(72,35)"/>
<path d="M0 0 C0.33 0 0.66 0 1 0 C1 3.3 1 6.6 1 10 C0.67 10 0.34 10 0 10 C0 6.7 0 3.4 0 0 Z " fill="#2ED588" transform="translate(31,25)"/>
<path d="M0 0 C0.33 0 0.66 0 1 0 C1 2.64 1 5.28 1 8 C0.67 8 0.34 8 0 8 C0 5.36 0 2.72 0 0 Z " fill="#D18042" transform="translate(70,73)"/>
<path d="M0 0 C0.33 0 0.66 0 1 0 C1 2.64 1 5.28 1 8 C0.67 8 0.34 8 0 8 C0 5.36 0 2.72 0 0 Z " fill="#F6B657" transform="translate(4,48)"/>
<path d="M0 0 C0.33 0 0.66 0 1 0 C1 2.64 1 5.28 1 8 C0.67 8 0.34 8 0 8 C0 5.36 0 2.72 0 0 Z " fill="#1F8543" transform="translate(62,26)"/>
<path d="M0 0 C0.33 0 0.66 0 1 0 C1 1.98 1 3.96 1 6 C0.67 6 0.34 6 0 6 C0 4.02 0 2.04 0 0 Z " fill="#318D4A" transform="translate(42,46)"/>
<path d="M0 0 C0.66 0 1.32 0 2 0 C1.67 0.99 1.34 1.98 1 3 C0.67 2.01 0.34 1.02 0 0 Z " fill="#B3562B" transform="translate(22,72)"/>
<path d="M0 0 C0.66 0.33 1.32 0.66 2 1 C1.01 1 0.02 1 -1 1 C-0.67 0.67 -0.34 0.34 0 0 Z " fill="#B65926" transform="translate(74,69)"/>
<path d="M0 0 C0.99 0.33 1.98 0.66 3 1 C2.01 1 1.02 1 0 1 C0 0.67 0 0.34 0 0 Z " fill="#AB4B20" transform="translate(17,68)"/>
<path d="M0 0 C4 1 4 1 4 1 Z " fill="#FDE6B6" transform="translate(80,24)"/>
<path d="M0 0 C4 1 4 1 4 1 Z " fill="#FDEFC0" transform="translate(11,24)"/>
<path d="M0 0 C0.99 0.495 0.99 0.495 2 1 C1.67 1.66 1.34 2.32 1 3 C0.67 2.01 0.34 1.02 0 0 Z " fill="#2DBD88" transform="translate(52,9)"/>
<path d="" fill="#EAAC5D" transform="translate(0,0)"/>
<path d="" fill="#FDC153" transform="translate(0,0)"/>
<path d="" fill="#F0802C" transform="translate(0,0)"/>
<path d="" fill="#FED97D" transform="translate(0,0)"/>
<path d="" fill="#FDE7A5" transform="translate(0,0)"/>
<path d="" fill="#50E6B0" transform="translate(0,0)"/>
<path d="M0 0 C3 1 3 1 3 1 Z " fill="#68D6BA" transform="translate(45,5)"/>
<path d="M0 0 C2 1 2 1 2 1 Z " fill="#B85723" transform="translate(79,65)"/>
<path d="M0 0 C2 1 2 1 2 1 Z " fill="#AF4319" transform="translate(12,64)"/>
<path d="M0 0 C2 1 2 1 2 1 Z " fill="#C75B24" transform="translate(84,61)"/>
<path d="" fill="#FDDB88" transform="translate(0,0)"/>
<path d="" fill="#FBAC48" transform="translate(0,0)"/>
<path d="M0 0 C2 1 2 1 2 1 Z " fill="#D1501E" transform="translate(7,60)"/>
<path d="" fill="#E16518" transform="translate(0,0)"/>
<path d="M0 0 C2 1 2 1 2 1 Z " fill="#FDE297" transform="translate(55,56)"/>
<path d="M0 0 C2 1 2 1 2 1 Z " fill="#FDC961" transform="translate(37,56)"/>
<path d="M0 0 C2 1 2 1 2 1 Z " fill="#FEDF89" transform="translate(59,53)"/>
<path d="M0 0 C2 1 2 1 2 1 Z " fill="#FDCF58" transform="translate(33,53)"/>
<path d="M0 0 C2 1 2 1 2 1 Z " fill="#FDE4A0" transform="translate(66,48)"/>
<path d="M0 0 C2 1 2 1 2 1 Z " fill="#FED977" transform="translate(26,48)"/>
<path d="" fill="#2E8237" transform="translate(0,0)"/>
<path d="M0 0 C2 1 2 1 2 1 Z " fill="#FDE087" transform="translate(70,46)"/>
<path d="M0 0 C2 1 2 1 2 1 Z " fill="#337830" transform="translate(39,44)"/>
<path d="" fill="#21722D" transform="translate(0,0)"/>
<path d="" fill="#FECF60" transform="translate(0,0)"/>
<path d="" fill="#FCBE6F" transform="translate(0,0)"/>
<path d="" fill="#FDEDB2" transform="translate(0,0)"/>
<path d="" fill="#1F9F65" transform="translate(0,0)"/>
<path d="" fill="#73EDC5" transform="translate(0,0)"/>
<path d="" fill="#25A96B" transform="translate(0,0)"/>
<path d="" fill="#1FA459" transform="translate(0,0)"/>
<path d="" fill="#47DFA6" transform="translate(0,0)"/>
<path d="" fill="#D88339" transform="translate(0,0)"/>
<path d="" fill="#D16532" transform="translate(0,0)"/>
<path d="" fill="#E07327" transform="translate(0,0)"/>
<path d="" fill="#B86231" transform="translate(0,0)"/>
<path d="" fill="#B55A28" transform="translate(0,0)"/>
<path d="" fill="#AD582D" transform="translate(0,0)"/>
<path d="" fill="#A94B1E" transform="translate(0,0)"/>
<path d="" fill="#B8622F" transform="translate(0,0)"/>
<path d="" fill="#B85D2B" transform="translate(0,0)"/>
<path d="" fill="#AD562B" transform="translate(0,0)"/>
<path d="" fill="#B75723" transform="translate(0,0)"/>
<path d="" fill="#AC5226" transform="translate(0,0)"/>
<path d="" fill="#AC481A" transform="translate(0,0)"/>
<path d="" fill="#BB6536" transform="translate(0,0)"/>
<path d="" fill="#BB5D2C" transform="translate(0,0)"/>
<path d="" fill="#B15C35" transform="translate(0,0)"/>
<path d="" fill="#C0551F" transform="translate(0,0)"/>
<path d="" fill="#B75125" transform="translate(0,0)"/>
<path d="" fill="#C14915" transform="translate(0,0)"/>
<path d="" fill="#C76532" transform="translate(0,0)"/>
<path d="" fill="#CB6734" transform="translate(0,0)"/>
<path d="" fill="#FEE9B7" transform="translate(0,0)"/>
<path d="" fill="#FEC681" transform="translate(0,0)"/>
<path d="" fill="#FEEAB9" transform="translate(0,0)"/>
<path d="" fill="#FECF91" transform="translate(0,0)"/>
<path d="" fill="#D65610" transform="translate(0,0)"/>
<path d="" fill="#D56926" transform="translate(0,0)"/>
<path d="" fill="#FDECBC" transform="translate(0,0)"/>
<path d="" fill="#FED18D" transform="translate(0,0)"/>
<path d="" fill="#FDE6A6" transform="translate(0,0)"/>
<path d="" fill="#FDD37B" transform="translate(0,0)"/>
<path d="" fill="#FDE8AE" transform="translate(0,0)"/>
<path d="" fill="#3A753B" transform="translate(0,0)"/>
<path d="" fill="#218445" transform="translate(0,0)"/>
<path d="" fill="#FED783" transform="translate(0,0)"/>
<path d="" fill="#FDE9B1" transform="translate(0,0)"/>
<path d="" fill="#00712B" transform="translate(0,0)"/>
<path d="" fill="#FDD97F" transform="translate(0,0)"/>
<path d="" fill="#FDEEC3" transform="translate(0,0)"/>
<path d="" fill="#FDDF9B" transform="translate(0,0)"/>
<path d="" fill="#FEE9AF" transform="translate(0,0)"/>
<path d="" fill="#FEDA83" transform="translate(0,0)"/>
<path d="" fill="#FDEEC2" transform="translate(0,0)"/>
<path d="" fill="#FDE1A2" transform="translate(0,0)"/>
<path d="" fill="#FEE5AD" transform="translate(0,0)"/>
<path d="" fill="#36782E" transform="translate(0,0)"/>
<path d="" fill="#287932" transform="translate(0,0)"/>
<path d="" fill="#257227" transform="translate(0,0)"/>
<path d="" fill="#006C1C" transform="translate(0,0)"/>
<path d="" fill="#478034" transform="translate(0,0)"/>
<path d="" fill="#4C722E" transform="translate(0,0)"/>
<path d="" fill="#2B8532" transform="translate(0,0)"/>
<path d="" fill="#456F2A" transform="translate(0,0)"/>
<path d="" fill="#178D31" transform="translate(0,0)"/>
<path d="" fill="#406E29" transform="translate(0,0)"/>
<path d="" fill="#139536" transform="translate(0,0)"/>
<path d="" fill="#47702D" transform="translate(0,0)"/>
<path d="" fill="#279C40" transform="translate(0,0)"/>
<path d="" fill="#1B7028" transform="translate(0,0)"/>
<path d="" fill="#22B456" transform="translate(0,0)"/>
<path d="" fill="#FEDD8E" transform="translate(0,0)"/>
<path d="" fill="#FDEFC2" transform="translate(0,0)"/>
<path d="" fill="#FEDD9D" transform="translate(0,0)"/>
<path d="" fill="#FBCCA3" transform="translate(0,0)"/>
<path d="" fill="#FEDDAD" transform="translate(0,0)"/>
<path d="" fill="#FEF7E7" transform="translate(0,0)"/>
<path d="" fill="#FBC9A5" transform="translate(0,0)"/>
<path d="" fill="#FEE0AA" transform="translate(0,0)"/>
<path d="" fill="#65EBBE" transform="translate(0,0)"/>
<path d="" fill="#2DA876" transform="translate(0,0)"/>
<path d="" fill="#81EFCC" transform="translate(0,0)"/>
<path d="" fill="#33AF83" transform="translate(0,0)"/>
<path d="" fill="#49E9B7" transform="translate(0,0)"/>
<path d="" fill="#7BEECB" transform="translate(0,0)"/>
<path d="" fill="#2CB283" transform="translate(0,0)"/>
<path d="" fill="#6AEBC5" transform="translate(0,0)"/>
<path d="" fill="#36B88A" transform="translate(0,0)"/>
<path d="" fill="#57E7BB" transform="translate(0,0)"/>
<path d="" fill="#88EACD" transform="translate(0,0)"/>
<path d="" fill="#47C6A1" transform="translate(0,0)"/>
<path d="" fill="#8EE8CE" transform="translate(0,0)"/>
<path d="" fill="#49C8A3" transform="translate(0,0)"/>
<path d="" fill="#80E3C8" transform="translate(0,0)"/>
<path d="" fill="#45C8A0" transform="translate(0,0)"/>
<path d="" fill="#6EE0C0" transform="translate(0,0)"/>
</svg>
