<?xml version="1.0" encoding="UTF-8"?>
<svg version="1.1" xmlns="http://www.w3.org/2000/svg" width="48" height="48">
<path d="M0 0 C8.25 0 16.5 0 25 0 C25 1.32 25 2.64 25 4 C16.75 4 8.5 4 0 4 C0 2.68 0 1.36 0 0 Z " fill="#1A5AB7" transform="translate(19,34)"/>
<path d="M0 0 C8.25 0 16.5 0 25 0 C25 1.32 25 2.64 25 4 C16.75 4 8.5 4 0 4 C0 2.68 0 1.36 0 0 Z " fill="#1A5AB7" transform="translate(19,22)"/>
<path d="M0 0 C8.25 0 16.5 0 25 0 C25 1.32 25 2.64 25 4 C16.75 4 8.5 4 0 4 C0 2.68 0 1.36 0 0 Z " fill="#1A5AB7" transform="translate(19,10)"/>
<path d="M0 0 C2.625 0.375 2.625 0.375 5 1 C3.4404735 4.82792868 1.16368164 7.36359864 -2 10 C-5.06731977 9.91236229 -5.81352381 9.18647619 -8 7 C-7.625 4.875 -7.625 4.875 -7 3 C-6.21625 2.87625 -5.4325 2.7525 -4.625 2.625 C-1.85942178 2.20882007 -1.85942178 2.20882007 0 0 Z " fill="#42A4EC" transform="translate(11,18)"/>
<path d="M0 0 C2.625 0.375 2.625 0.375 5 1 C3.4404735 4.82792868 1.16368164 7.36359864 -2 10 C-5.06731977 9.91236229 -5.81352381 9.18647619 -8 7 C-7.625 4.875 -7.625 4.875 -7 3 C-6.21625 2.87625 -5.4325 2.7525 -4.625 2.625 C-1.85942178 2.20882007 -1.85942178 2.20882007 0 0 Z " fill="#42A4EC" transform="translate(11,6)"/>
<path d="M0 0 C1.98 0 3.96 0 6 0 C6 1.98 6 3.96 6 6 C4.02 6 2.04 6 0 6 C0 4.02 0 2.04 0 0 Z " fill="#1C59B5" transform="translate(6,33)"/>
</svg>
