<?xml version="1.0" encoding="UTF-8"?>
<svg version="1.1" xmlns="http://www.w3.org/2000/svg" width="64" height="64">
<path d="M0 0 C1.25550659 -0.00477356 1.25550659 -0.00477356 2.53637695 -0.00964355 C3.48746338 -0.0222522 4.4385498 -0.03486084 5.41845703 -0.04785156 C6.44350342 -0.03975464 7.4685498 -0.03165771 8.5246582 -0.02331543 C9.5787085 -0.02714233 10.63275879 -0.03096924 11.71875 -0.03491211 C13.94800776 -0.03763494 16.17729726 -0.03024791 18.40649414 -0.0135498 C21.82420897 0.00785348 25.23982147 -0.01334006 28.6574707 -0.03894043 C30.82153786 -0.03629722 32.9856037 -0.03117239 35.1496582 -0.02331543 C36.17470459 -0.03141235 37.19975098 -0.03950928 38.25585938 -0.04785156 C39.68248901 -0.0289386 39.68248901 -0.0289386 41.13793945 -0.00964355 C41.97494385 -0.00646118 42.81194824 -0.00327881 43.67431641 0 C45.8371582 0.50793457 45.8371582 0.50793457 47.60957336 2.3168335 C49.42670608 5.56021132 49.20753757 8.72114754 49.13012695 12.33605957 C49.12588211 13.08506531 49.12163727 13.83407104 49.11726379 14.60577393 C49.10051566 16.99019832 49.06287218 19.3737671 49.0246582 21.75793457 C49.0096063 23.377714 48.99591877 24.99750672 48.98364258 26.61730957 C48.95062501 30.58117923 48.89887067 34.544412 48.8371582 38.50793457 C48.1771582 38.50793457 47.5171582 38.50793457 46.8371582 38.50793457 C46.8371582 39.16793457 46.8371582 39.82793457 46.8371582 40.50793457 C49.1471582 40.50793457 51.4571582 40.50793457 53.8371582 40.50793457 C54.32496598 45.87382012 54.32496598 45.87382012 52.16723633 48.67871094 C49.31245994 50.91984799 47.901608 51.01376301 44.3059082 51.0255127 C43.19795898 51.03812134 42.09000977 51.05072998 40.94848633 51.0637207 C39.75674805 51.05562378 38.56500977 51.04752686 37.3371582 51.03918457 C35.49541016 51.04492493 35.49541016 51.04492493 33.61645508 51.05078125 C31.02074361 51.05350299 28.42500484 51.04612368 25.8293457 51.02941895 C21.85216221 51.00801532 17.87678539 51.0292142 13.8996582 51.05480957 C11.37882088 51.05216634 8.85798467 51.04704148 6.3371582 51.03918457 C5.14541992 51.04728149 3.95368164 51.05537842 2.72583008 51.0637207 C1.06390625 51.04480774 1.06390625 51.04480774 -0.6315918 51.0255127 C-1.60547852 51.02233032 -2.57936523 51.01914795 -3.58276367 51.01586914 C-6.91170224 50.36050799 -8.11563208 49.16915755 -10.1628418 46.50793457 C-10.4128418 43.25793457 -10.4128418 43.25793457 -10.1628418 40.50793457 C-7.8528418 40.50793457 -5.5428418 40.50793457 -3.1628418 40.50793457 C-3.1628418 39.84793457 -3.1628418 39.18793457 -3.1628418 38.50793457 C-3.8228418 38.50793457 -4.4828418 38.50793457 -5.1628418 38.50793457 C-5.23709323 33.7390889 -5.29149115 28.97058098 -5.32763672 24.20129395 C-5.34270744 22.57948951 -5.36316772 20.95772573 -5.38916016 19.33605957 C-5.42562009 17.00262411 -5.44258494 14.66972826 -5.45581055 12.33605957 C-5.4712944 11.61299622 -5.48677826 10.88993286 -5.50273132 10.1449585 C-5.50428543 5.47835473 -5.14246192 1.2076862 0 0 Z " fill="#FBFBFC" transform="translate(10.162841796875,13.4920654296875)"/>
<path d="M0 0 C1.25550659 -0.00477356 1.25550659 -0.00477356 2.53637695 -0.00964355 C3.48746338 -0.0222522 4.4385498 -0.03486084 5.41845703 -0.04785156 C6.44350342 -0.03975464 7.4685498 -0.03165771 8.5246582 -0.02331543 C9.5787085 -0.02714233 10.63275879 -0.03096924 11.71875 -0.03491211 C13.94800776 -0.03763494 16.17729726 -0.03024791 18.40649414 -0.0135498 C21.82420897 0.00785348 25.23982147 -0.01334006 28.6574707 -0.03894043 C30.82153786 -0.03629722 32.9856037 -0.03117239 35.1496582 -0.02331543 C36.17470459 -0.03141235 37.19975098 -0.03950928 38.25585938 -0.04785156 C39.68248901 -0.0289386 39.68248901 -0.0289386 41.13793945 -0.00964355 C41.97494385 -0.00646118 42.81194824 -0.00327881 43.67431641 0 C45.8371582 0.50793457 45.8371582 0.50793457 47.60957336 2.3168335 C49.42670608 5.56021132 49.20753757 8.72114754 49.13012695 12.33605957 C49.12588211 13.08506531 49.12163727 13.83407104 49.11726379 14.60577393 C49.10051566 16.99019832 49.06287218 19.3737671 49.0246582 21.75793457 C49.0096063 23.377714 48.99591877 24.99750672 48.98364258 26.61730957 C48.95062501 30.58117923 48.89887067 34.544412 48.8371582 38.50793457 C47.5171582 38.17793457 46.1971582 37.84793457 44.8371582 37.50793457 C44.5071582 26.61793457 44.1771582 15.72793457 43.8371582 4.50793457 C29.3171582 4.50793457 14.7971582 4.50793457 -0.1628418 4.50793457 C-0.4928418 15.39793457 -0.8228418 26.28793457 -1.1628418 37.50793457 C-3.1428418 38.00293457 -3.1428418 38.00293457 -5.1628418 38.50793457 C-5.23709323 33.7390889 -5.29149115 28.97058098 -5.32763672 24.20129395 C-5.34270744 22.57948951 -5.36316772 20.95772573 -5.38916016 19.33605957 C-5.42562009 17.00262411 -5.44258494 14.66972826 -5.45581055 12.33605957 C-5.4712944 11.61299622 -5.48677826 10.88993286 -5.50273132 10.1449585 C-5.50428543 5.47835473 -5.14246192 1.2076862 0 0 Z " fill="#525860" transform="translate(10.162841796875,13.4920654296875)"/>
<path d="M0 0 C6.93 0 13.86 0 21 0 C21 0.99 21 1.98 21 3 C15.39 3 9.78 3 4 3 C4.99 4.485 4.99 4.485 6 6 C8.28336556 6.45863843 8.28336556 6.45863843 10.96875 6.38818359 C12.52045898 6.40236832 12.52045898 6.40236832 14.10351562 6.4168396 C15.22435547 6.41076691 16.34519531 6.40469421 17.5 6.3984375 C19.21993164 6.40274277 19.21993164 6.40274277 20.97460938 6.40713501 C23.40234876 6.40917933 25.83010449 6.40362393 28.2578125 6.39111328 C31.98474784 6.37506567 35.71059859 6.39095049 39.4375 6.41015625 C41.79166907 6.40817388 44.14583747 6.40433035 46.5 6.3984375 C48.18125977 6.40754654 48.18125977 6.40754654 49.89648438 6.4168396 C50.93095703 6.40738312 51.96542969 6.39792664 53.03125 6.38818359 C53.94455078 6.38579681 54.85785156 6.38341003 55.79882812 6.38095093 C56.52521484 6.25523712 57.25160156 6.12952332 58 6 C58.66 5.01 59.32 4.02 60 3 C54.39 3 48.78 3 43 3 C43 2.01 43 1.02 43 0 C49.93 0 56.86 0 64 0 C64 6 64 6 62.34570312 8.34265137 C59.48494022 10.36391375 57.95024318 10.50620164 54.46875 10.51757812 C53.36080078 10.53018677 52.25285156 10.54279541 51.11132812 10.55578613 C49.91958984 10.54768921 48.72785156 10.53959229 47.5 10.53125 C45.65825195 10.53699036 45.65825195 10.53699036 43.77929688 10.54284668 C41.18358541 10.54556842 38.58784664 10.53818911 35.9921875 10.52148438 C32.01500401 10.50008075 28.03962718 10.52127963 24.0625 10.546875 C21.54166267 10.54423177 19.02082647 10.53910691 16.5 10.53125 C15.30826172 10.53934692 14.11652344 10.54744385 12.88867188 10.55578613 C11.22674805 10.53687317 11.22674805 10.53687317 9.53125 10.51757812 C8.55736328 10.51439575 7.58347656 10.51121338 6.58007812 10.50793457 C3.17344737 9.83727832 1.99461997 8.82458323 0 6 C0 4.02 0 2.04 0 0 Z " fill="#454C55" transform="translate(0,54)"/>
<path d="M0 0 C0.99 0 1.98 0 3 0 C1.75971762 6.17222879 0.10396411 12.06682122 -2 18 C-2.99 18 -3.98 18 -5 18 C-4.42934122 11.58008874 -2.32655091 5.98410537 0 0 Z " fill="#83C9FF" transform="translate(33,28)"/>
<path d="M0 0 C-0.37125 0.9075 -0.7425 1.815 -1.125 2.75 C-2.30359299 5.88097015 -2.30359299 5.88097015 -1.125 8.375 C-0.75375 8.91125 -0.3825 9.4475 0 10 C-3.35595828 9.40072174 -5.37801226 8.15377564 -8 6 C-6.24081631 1.94034532 -4.71412298 0 0 0 Z " fill="#81C9FF" transform="translate(26,32)"/>
<path d="M0 0 C2.96175123 0.61277612 4.38058783 1.25372522 7 3 C6.6875 5.375 6.6875 5.375 6 8 C3 10 3 10 0 10 C0.37125 9.0925 0.7425 8.185 1.125 7.25 C2.30359299 4.11902985 2.30359299 4.11902985 1.125 1.625 C0.75375 1.08875 0.3825 0.5525 0 0 Z " fill="#7EC7FF" transform="translate(38,32)"/>
<path d="M0 0 C3.96 0 7.92 0 12 0 C12 0.99 12 1.98 12 3 C8.04 3 4.08 3 0 3 C0 2.01 0 1.02 0 0 Z " fill="#464D56" transform="translate(26,54)"/>
</svg>
