<?xml version="1.0" encoding="UTF-8"?>
<svg version="1.1" xmlns="http://www.w3.org/2000/svg" width="151" height="142">
<path d="M0 0 C1.15702171 -0.01467567 1.15702171 -0.01467567 2.3374176 -0.02964783 C4.88768819 -0.05953202 7.43790628 -0.08097447 9.98828125 -0.09985352 C10.86327271 -0.10642534 11.73826416 -0.11299717 12.63977051 -0.11976814 C17.27659488 -0.15234011 21.91339659 -0.17678958 26.55029297 -0.19628906 C30.36997353 -0.21405275 34.18890897 -0.248796 38.00830078 -0.29882812 C42.6360591 -0.35936595 47.26313049 -0.389811 51.89126587 -0.39946175 C53.6453959 -0.40796474 55.39951016 -0.42665379 57.15341187 -0.45620537 C69.56395849 -0.65395639 78.53439801 0.91815282 88.73828125 8.64624023 C96.21330309 16.12126208 99.28250931 24.07406156 99.73828125 34.70874023 C99.5160165 42.46577991 96.65932597 49.82535977 92.30078125 56.20874023 C91.64078125 56.20874023 90.98078125 56.20874023 90.30078125 56.20874023 C89.95080078 57.10206055 89.95080078 57.10206055 89.59375 58.01342773 C87.97820593 60.75643609 86.34989802 61.73284038 83.61328125 63.33374023 C82.36998047 64.08010742 82.36998047 64.08010742 81.1015625 64.84155273 C75.35540902 67.64650911 69.85280169 68.507623 63.52050781 68.49926758 C62.77637634 68.5059848 62.03224487 68.51270203 61.26556396 68.5196228 C58.82410867 68.53850101 56.38292984 68.54252203 53.94140625 68.54467773 C52.22898245 68.55111357 50.51655974 68.5578425 48.80413818 68.56484985 C45.21998549 68.57679781 41.635929 68.58053332 38.05175781 68.5793457 C33.48469868 68.57914285 28.91826413 68.60642123 24.35135269 68.64089012 C20.8148929 68.66325513 17.27858103 68.66718029 13.7420578 68.66612625 C12.05972903 68.6684687 10.37739532 68.67721476 8.69513702 68.69279099 C-3.65690449 68.79644023 -14.58841882 68.13865328 -23.91796875 59.11499023 C-30.81625188 51.73261706 -34.57468054 44.44921585 -35.07421875 34.14624023 C-34.08122167 23.71977092 -30.13003103 14.95119889 -22.26171875 7.89624023 C-15.09821015 2.1907909 -9.12085483 0.0734402 0 0 Z M-18.51171875 20.19702148 C-22.48262784 26.92405498 -23.482621 33.65051163 -21.69921875 41.20874023 C-19.74765376 48.16119052 -15.35314614 52.03187692 -9.69921875 56.20874023 C-3.65985912 59.29266856 3.98417498 59.17419097 10.42578125 57.20874023 C16.56240824 54.55741863 21.681587 49.41958355 24.30078125 43.27124023 C26.52989035 35.87465094 25.76540153 29.05415933 22.30078125 22.20874023 C19.16847989 16.39499908 15.48220539 13.49451537 9.30078125 11.20874023 C-1.33936056 8.11494654 -11.68597888 11.25762921 -18.51171875 20.19702148 Z M56.48828125 22.58374023 C52.83258928 26.97057059 51.87738905 30.4590745 52.05078125 36.22436523 C52.75791286 41.83722239 56.09666813 45.68901762 60.30078125 49.20874023 C64.39521103 51.03816631 67.83573815 51.51317499 72.30078125 51.20874023 C73.29078125 50.71374023 73.29078125 50.71374023 74.30078125 50.20874023 C74.30078125 49.54874023 74.30078125 48.88874023 74.30078125 48.20874023 C73.31078125 47.87874023 72.32078125 47.54874023 71.30078125 47.20874023 C70.97078125 47.53874023 70.64078125 47.86874023 70.30078125 48.20874023 C66.9534978 48.67735992 64.40201795 48.78694467 61.3515625 47.18530273 C57.05071671 43.92134849 55.1888512 40.78347753 54.390625 35.44702148 C54.24753063 31.88210519 54.80587633 29.44770089 56.30078125 26.20874023 C60.35295912 21.87385228 63.40649562 20.56239737 69.30078125 20.20874023 C67.98078125 21.52874023 66.66078125 22.84874023 65.30078125 24.20874023 C65.63078125 24.86874023 65.96078125 25.52874023 66.30078125 26.20874023 C67.24953125 25.40436523 68.19828125 24.59999023 69.17578125 23.77124023 C70.88010481 22.32627026 72.29559111 21.2113353 74.30078125 20.20874023 C74.30078125 19.54874023 74.30078125 18.88874023 74.30078125 18.20874023 C66.89725785 16.7799901 62.47111184 17.53157218 56.48828125 22.58374023 Z M64.30078125 26.20874023 C62.49847957 30.03863129 62.10455884 32.98995831 62.30078125 37.20874023 C64.6984131 34.81110838 64.64358711 33.87600525 64.92578125 30.58374023 C65.00054687 29.76647461 65.0753125 28.94920898 65.15234375 28.10717773 C65.20132813 27.48069336 65.2503125 26.85420898 65.30078125 26.20874023 C64.97078125 26.20874023 64.64078125 26.20874023 64.30078125 26.20874023 Z M63.30078125 37.20874023 C64.30078125 40.20874023 64.30078125 40.20874023 64.30078125 40.20874023 Z M64.30078125 40.20874023 C64.63078125 41.52874023 64.96078125 42.84874023 65.30078125 44.20874023 C66.29078125 44.20874023 67.28078125 44.20874023 68.30078125 44.20874023 C66.98078125 42.88874023 65.66078125 41.56874023 64.30078125 40.20874023 Z M67.30078125 46.20874023 C68.78578125 47.19874023 68.78578125 47.19874023 70.30078125 48.20874023 C70.30078125 47.54874023 70.30078125 46.88874023 70.30078125 46.20874023 C69.31078125 46.20874023 68.32078125 46.20874023 67.30078125 46.20874023 Z " fill="#25242B" transform="translate(49.69921875,36.791259765625)"/>
<path d="M0 0 C0.515625 0.2475 1.03125 0.495 1.5625 0.75 C0.9025 1.41 0.2425 2.07 -0.4375 2.75 C-0.7675 3.74 -1.0975 4.73 -1.4375 5.75 C-3.4175 5.75 -5.3975 5.75 -7.4375 5.75 C-7.2725 6.53375 -7.1075 7.3175 -6.9375 8.125 C-6.4375 10.75 -6.4375 10.75 -6.4375 12.75 C-5.7775 12.75 -5.1175 12.75 -4.4375 12.75 C-5.57991321 15.22522862 -6.79922918 17.23607359 -8.4375 19.4375 C-12.41954796 26.03276694 -12.99941435 32.30087001 -11.4375 39.75 C-9.48714118 46.28943841 -5.88074853 49.89480095 -0.4375 53.75 C4.59452431 56.15662032 10.05921962 56.33671017 15.5625 56.75 C15.5625 57.08 15.5625 57.41 15.5625 57.75 C12.9225 57.75 10.2825 57.75 7.5625 57.75 C7.418125 58.36875 7.27375 58.9875 7.125 59.625 C6.5625 61.75 6.5625 61.75 5.5625 63.75 C30.6425 64.08 55.7225 64.41 81.5625 64.75 C81.2325 65.41 80.9025 66.07 80.5625 66.75 C70.58262154 66.84304068 60.60284777 66.91393688 50.62262249 66.95724869 C45.9874346 66.97804547 41.35254536 67.00621693 36.7175293 67.05175781 C32.23710544 67.09549987 27.75696726 67.11919646 23.27634621 67.12950897 C21.57445599 67.1368498 19.87257984 67.15118362 18.17081261 67.17292023 C5.70887686 67.32563835 -5.18505639 66.81691267 -14.65625 57.65625 C-21.55453313 50.27387683 -25.31296179 42.99047562 -25.8125 32.6875 C-24.81950292 22.26103068 -20.86831228 13.49245865 -13 6.4375 C-4.31361763 -0.44242232 -4.31361763 -0.44242232 0 0 Z " fill="#29282E" transform="translate(40.4375,38.25)"/>
<path d="M0 0 C1.26130798 2.42559227 2.24100153 4.70961561 3.125 7.3125 C5.52124261 12.95644198 10.44910072 16.78000469 15.875 19.375 C20.225097 20.2450194 24.5792375 20.66800598 29 21 C29 21.33 29 21.66 29 22 C26.36 22 23.72 22 21 22 C20.855625 22.61875 20.71125 23.2375 20.5625 23.875 C20 26 20 26 19 28 C44.08 28.33 69.16 28.66 95 29 C94.67 29.66 94.34 30.32 94 31 C84.02012154 31.09304068 74.04034777 31.16393688 64.06012249 31.20724869 C59.4249346 31.22804547 54.79004536 31.25621693 50.1550293 31.30175781 C45.67460544 31.34549987 41.19446726 31.36919646 36.71384621 31.37950897 C35.01195599 31.3868498 33.31007984 31.40118362 31.60831261 31.42292023 C20.87330953 31.55447519 11.39441792 31.35138813 2.17578125 25.078125 C1.56089844 24.47484375 0.94601563 23.8715625 0.3125 23.25 C-0.33074219 22.63640625 -0.97398438 22.0228125 -1.63671875 21.390625 C-2.08660156 20.93171875 -2.53648438 20.4728125 -3 20 C-2.67 19.34 -2.34 18.68 -2 18 C-1.01 18 -0.02 18 1 18 C1 18.66 1 19.32 1 20 C1.66 19.67 2.32 19.34 3 19 C3.65555119 16.47266765 3.65555119 16.47266765 4 14 C1.03 13.505 1.03 13.505 -2 13 C-2 12.34 -2 11.68 -2 11 C-1.34 11 -0.68 11 0 11 C-0.185625 9.9275 -0.37125 8.855 -0.5625 7.75 C-0.9304568 4.59608454 -1.04465343 2.90181508 0 0 Z " fill="#36353A" transform="translate(27,74)"/>
<path d="M0 0 C-0.42152344 0.46148437 -0.84304687 0.92296875 -1.27734375 1.3984375 C-5.69013617 6.65225625 -7.53868252 11.07568509 -7 18 C-6.25582665 20.60925779 -5.30669276 22.59568532 -4 25 C-4.33 23.68 -4.66 22.36 -5 21 C2.71428571 25 2.71428571 25 4 29 C0.20806382 30.21341958 -3.04371287 30.52750495 -7 30 C-10.9700663 27.70985326 -14.08898936 24.986073 -16.01953125 20.77734375 C-17.35258313 15.76334861 -17.24946175 11.76885891 -15 7 C-10.27939261 1.98506218 -6.94251724 -0.15092429 0 0 Z M-3 27 C-1.515 27.99 -1.515 27.99 0 29 C0 28.34 0 27.68 0 27 C-0.99 27 -1.98 27 -3 27 Z " fill="#3A3941" transform="translate(120,56)"/>
<path d="M0 0 C-0.66 0.66 -1.32 1.32 -2 2 C-2.33 2.99 -2.66 3.98 -3 5 C-4.98 5 -6.96 5 -9 5 C-8.835 5.78375 -8.67 6.5675 -8.5 7.375 C-8 10 -8 10 -8 12 C-7.34 12 -6.68 12 -6 12 C-7.14787138 14.48705465 -8.4036308 16.56760582 -10 18.8125 C-12.18557452 22.29575939 -13.04886214 25.03692558 -14 29 C-15.5 27.875 -15.5 27.875 -17 26 C-17.1875 22.8125 -17.1875 22.8125 -17 20 C-18.15811388 21.05270463 -18.15811388 21.05270463 -19 23 C-19.33 21.68 -19.66 20.36 -20 19 C-21.32 19.33 -22.64 19.66 -24 20 C-21.65000199 11.54738937 -15.67796193 5.25221088 -8.1875 0.8125 C-5.02131736 -0.91188727 -3.42345033 -1.20782405 0 0 Z " fill="#2F2E34" transform="translate(42,39)"/>
<path d="M0 0 C0.77097015 -0.00014603 1.54194031 -0.00029205 2.33627319 -0.0004425 C4.88477389 0.0002542 7.43320152 0.00803529 9.98168945 0.01586914 C11.74860087 0.01773418 13.51551281 0.01915768 15.28242493 0.02015686 C19.93325223 0.02397527 24.58404831 0.03379981 29.23486328 0.04486084 C33.98054583 0.05508948 38.72623343 0.0596576 43.47192383 0.06469727 C52.7837865 0.07542266 62.09562601 0.092491 71.4074707 0.11352539 C71.4074707 0.44352539 71.4074707 0.77352539 71.4074707 1.11352539 C52.5974707 1.11352539 33.7874707 1.11352539 14.4074707 1.11352539 C14.4074707 1.77352539 14.4074707 2.43352539 14.4074707 3.11352539 C13.7680957 3.42290039 13.1287207 3.73227539 12.4699707 4.05102539 C10.47136249 4.9480417 10.47136249 4.9480417 9.4074707 6.11352539 C4.36986055 6.43070825 -0.69214042 6.42029576 -5.5925293 5.11352539 C-5.9225293 5.77352539 -6.2525293 6.43352539 -6.5925293 7.11352539 C-8.65893555 7.52758789 -8.65893555 7.52758789 -11.1550293 7.73852539 C-11.98131836 7.81329102 -12.80760742 7.88805664 -13.65893555 7.96508789 C-14.61606445 8.03856445 -14.61606445 8.03856445 -15.5925293 8.11352539 C-13.5925293 6.11352539 -13.5925293 6.11352539 -10.5925293 4.11352539 C-10.5925293 3.12352539 -10.5925293 2.13352539 -10.5925293 1.11352539 C-6.9998987 -0.08401814 -3.73796323 -0.01846214 0 0 Z " fill="#16151B" transform="translate(49.592529296875,37.886474609375)"/>
<path d="M0 0 C0.515625 0.2475 1.03125 0.495 1.5625 0.75 C0.9025 1.41 0.2425 2.07 -0.4375 2.75 C-0.7675 3.74 -1.0975 4.73 -1.4375 5.75 C-3.4175 5.75 -5.3975 5.75 -7.4375 5.75 C-7.2725 6.53375 -7.1075 7.3175 -6.9375 8.125 C-6.4375 10.75 -6.4375 10.75 -6.4375 12.75 C-5.7775 12.75 -5.1175 12.75 -4.4375 12.75 C-5.88003657 16.11591866 -7.77014727 18.26047079 -10.4375 20.75 C-11.0625 18.4375 -11.0625 18.4375 -11.4375 15.75 C-10.7775 14.76 -10.1175 13.77 -9.4375 12.75 C-10.0975 12.75 -10.7575 12.75 -11.4375 12.75 C-11.1075 11.1 -10.7775 9.45 -10.4375 7.75 C-11.4275 7.75 -12.4175 7.75 -13.4375 7.75 C-10.06114471 3.96848208 -5.37676858 -0.55146344 0 0 Z " fill="#343338" transform="translate(40.4375,38.25)"/>
<path d="M0 0 C-2.97 3.96 -2.97 3.96 -6 8 C-7.32 7.34 -8.64 6.68 -10 6 C-10 6.99 -10 7.98 -10 9 C-11.65 9 -13.3 9 -15 9 C-12.25938276 2.0238834 -6.99024321 -0.15196181 0 0 Z " fill="#58575C" transform="translate(120,56)"/>
<path d="M0 0 C8.57142857 0.71428571 8.57142857 0.71428571 12 4 C11.06027344 4.25523438 11.06027344 4.25523438 10.1015625 4.515625 C8.87566406 4.87914062 8.87566406 4.87914062 7.625 5.25 C6.81289062 5.48203125 6.00078125 5.7140625 5.1640625 5.953125 C2.50031506 7.24172484 2.10963236 8.32443787 1 11 C0.34 11.66 -0.32 12.32 -1 13 C-1.33 10.69 -1.66 8.38 -2 6 C-1.01 6 -0.02 6 1 6 C1.2981424 2.2236068 1.2981424 2.2236068 0 0 Z " fill="#35353C" transform="translate(104,51)"/>
<path d="M0 0 C0.99 0.33 1.98 0.66 3 1 C2.34 4.3 1.68 7.6 1 11 C-0.32 11 -1.64 11 -3 11 C-3 10.34 -3 9.68 -3 9 C-3.66 9 -4.32 9 -5 9 C-5 7.02 -5 5.04 -5 3 C-4.01 2.67 -3.02 2.34 -2 2 C-1.34 2.33 -0.68 2.66 0 3 C0 2.01 0 1.02 0 0 Z " fill="#1B1922" transform="translate(110,62)"/>
<path d="M0 0 C0.66 0.33 1.32 0.66 2 1 C1 3 0 5 -1 7 C-0.34 7 0.32 7 1 7 C0.4140625 13.15234375 0.4140625 13.15234375 0 15 C-0.99 15.495 -0.99 15.495 -2 16 C-2.12375 15.071875 -2.12375 15.071875 -2.25 14.125 C-2.81258459 11.81562433 -2.81258459 11.81562433 -5.0625 10.75 C-5.701875 10.5025 -6.34125 10.255 -7 10 C-6.67 9.01 -6.34 8.02 -6 7 C-5.01 6.67 -4.02 6.34 -3 6 C-3 4.68 -3 3.36 -3 2 C-2.01 1.34 -1.02 0.68 0 0 Z " fill="#1C1A22" transform="translate(30,44)"/>
<path d="M0 0 C1.464375 0.268125 2.92875 0.53625 4.4375 0.8125 C5.67306641 1.03873047 5.67306641 1.03873047 6.93359375 1.26953125 C7.61550781 1.51058594 8.29742187 1.75164063 9 2 C9.33 2.99 9.66 3.98 10 5 C6.26137967 6.65362053 2.98300973 8.00424757 -1 9 C-0.67 6.03 -0.34 3.06 0 0 Z " fill="#2B2B2E" transform="translate(33,44)"/>
<path d="M0 0 C0 0.66 0 1.32 0 2 C0.99 2 1.98 2 3 2 C3.79953138 5.28696233 4.09658936 6.71023192 3 10 C2.01 10 1.02 10 0 10 C-0.33 10.66 -0.66 11.32 -1 12 C-2.32 11.01 -3.64 10.02 -5 9 C-0.25 5 -0.25 5 2 5 C2 4.34 2 3.68 2 3 C-0.31 2.67 -2.62 2.34 -5 2 C-2 0 -2 0 0 0 Z " fill="#424248" transform="translate(122,52)"/>
<path d="M0 0 C1.86382956 3.58428762 3.41755568 7.28469595 5 11 C5.33 11.66 5.66 12.32 6 13 C5.34 13.66 4.68 14.32 4 15 C2.02 14.34 0.04 13.68 -2 13 C-2 12.34 -2 11.68 -2 11 C-1.34 11 -0.68 11 0 11 C-0.185625 9.9275 -0.37125 8.855 -0.5625 7.75 C-0.9304568 4.59608454 -1.04465343 2.90181508 0 0 Z " fill="#47464B" transform="translate(27,74)"/>
<path d="M0 0 C7.425 0.99 7.425 0.99 15 2 C15 2.33 15 2.66 15 3 C12.36 3 9.72 3 7 3 C7 3.99 7 4.98 7 6 C3.95613276 6.08226668 1.92824652 5.97608217 -1 5 C-0.67 3.35 -0.34 1.7 0 0 Z " fill="#3F3E43" transform="translate(41,93)"/>
<path d="M0 0 C0.33 0.66 0.66 1.32 1 2 C4.02934491 2.65772428 4.02934491 2.65772428 7 3 C7 4.65 7 6.3 7 8 C6.01 8.33 5.02 8.66 4 9 C4 8.34 4 7.68 4 7 C2.68 7.33 1.36 7.66 0 8 C0.33 6.68 0.66 5.36 1 4 C0.34 4 -0.32 4 -1 4 C-0.67 2.68 -0.34 1.36 0 0 Z " fill="#1C1B24" transform="translate(24,85)"/>
<path d="M0 0 C1.32 0.33 2.64 0.66 4 1 C3.67 2.65 3.34 4.3 3 6 C4.32 5.67 5.64 5.34 7 5 C6.67 5.66 6.34 6.32 6 7 C3.9375 7.625 3.9375 7.625 2 8 C2 7.34 2 6.68 2 6 C0.68 6 -0.64 6 -2 6 C-1.34 4.02 -0.68 2.04 0 0 Z " fill="#1F1E24" transform="translate(37,92)"/>
<path d="M0 0 C7.71428571 4 7.71428571 4 9 8 C7.68 8 6.36 8 5 8 C5 7.34 5 6.68 5 6 C3.35 6 1.7 6 0 6 C0.33 5.34 0.66 4.68 1 4 C0.60061233 1.90178785 0.60061233 1.90178785 0 0 Z " fill="#656567" transform="translate(115,77)"/>
<path d="M0 0 C2.97 0.495 2.97 0.495 6 1 C5.38125 1.2475 4.7625 1.495 4.125 1.75 C1.61104784 3.22879539 1.1465949 4.37921165 0 7 C-0.66 7.66 -1.32 8.32 -2 9 C-2.33 6.69 -2.66 4.38 -3 2 C-2.01 2 -1.02 2 0 2 C0 1.34 0 0.68 0 0 Z " fill="#4E4D54" transform="translate(105,55)"/>
<path d="M0 0 C-0.66 0.66 -1.32 1.32 -2 2 C-2.33 2.99 -2.66 3.98 -3 5 C-4.65 4.67 -6.3 4.34 -8 4 C-8 3.01 -8 2.02 -8 1 C-4.93251126 -0.86240388 -3.40254489 -1.2151946 0 0 Z " fill="#535256" transform="translate(42,39)"/>
<path d="M0 0 C0.99 0.99 1.98 1.98 3 3 C0.4345406 5.5654594 -1.47686668 5.54046087 -5 6 C-5 5.01 -5 4.02 -5 3 C-2.5 1.3125 -2.5 1.3125 0 0 Z " fill="#3A393E" transform="translate(127,98)"/>
<path d="M0 0 C1.66666667 0 3.33333333 0 5 0 C3.55746343 3.36591866 1.66735273 5.51047079 -1 8 C-1.625 5.6875 -1.625 5.6875 -2 3 C-1.34 2.01 -0.68 1.02 0 0 Z " fill="#4C4B4F" transform="translate(31,51)"/>
<path d="M0 0 C0.99 0.33 1.98 0.66 3 1 C2.01 1.66 1.02 2.32 0 3 C0.33 3.66 0.66 4.32 1 5 C-0.45945288 4.91291331 -1.91765868 4.80473093 -3.375 4.6875 C-4.18710938 4.62949219 -4.99921875 4.57148437 -5.8359375 4.51171875 C-8 4 -8 4 -10 1 C-7.98177083 1.03255208 -5.96354167 1.06510417 -3.9453125 1.09765625 C-1.91814596 1.12649242 -1.91814596 1.12649242 0 0 Z " fill="#18171E" transform="translate(115,49)"/>
<path d="M0 0 C1.65 0 3.3 0 5 0 C5.33 0.99 5.66 1.98 6 3 C3.69 3.33 1.38 3.66 -1 4 C-0.67 2.68 -0.34 1.36 0 0 Z " fill="#323135" transform="translate(37,46)"/>
<path d="M0 0 C0.66 0.33 1.32 0.66 2 1 C1.34 2.98 0.68 4.96 0 7 C-1.65 7 -3.3 7 -5 7 C-3.70700306 4.11562221 -2.34058637 2.12780579 0 0 Z " fill="#403F46" transform="translate(110,58)"/>
<path d="M0 0 C2.31 1.65 4.62 3.3 7 5 C5.1875 6.0625 5.1875 6.0625 3 7 C2.01 6.67 1.02 6.34 0 6 C0 4.02 0 2.04 0 0 Z " fill="#504F54" transform="translate(33,87)"/>
<path d="M0 0 C0.99 0 1.98 0 3 0 C3 0.66 3 1.32 3 2 C3.99 1.67 4.98 1.34 6 1 C5.34 2.65 4.68 4.3 4 6 C2.35 4.35 0.7 2.7 -1 1 C-0.67 0.67 -0.34 0.34 0 0 Z " fill="#393840" transform="translate(25,92)"/>
<path d="M0 0 C1.32 0 2.64 0 4 0 C3.34 2.97 2.68 5.94 2 9 C1.01 8.01 0.02 7.02 -1 6 C-0.6875 2.8125 -0.6875 2.8125 0 0 Z " fill="#616165" transform="translate(26,59)"/>
<path d="M0 0 C7.75 1.875 7.75 1.875 10 3 C10 3.66 10 4.32 10 5 C6.05140217 4.4359146 3.29120954 3.2568294 0 1 C0 0.67 0 0.34 0 0 Z " fill="#666569" transform="translate(29,98)"/>
<path d="M0 0 C0.33 0 0.66 0 1 0 C1 1.98 1 3.96 1 6 C1.66 6 2.32 6 3 6 C2.34 7.98 1.68 9.96 1 12 C-1.83022097 8.00439392 -0.76210446 4.57262677 0 0 Z " fill="#5C5C5E" transform="translate(104,65)"/>
<path d="M0 0 C1.65 0 3.3 0 5 0 C5 0.99 5 1.98 5 3 C6.65 2.67 8.3 2.34 10 2 C10.33 2.66 10.66 3.32 11 4 C4.6 4.49230769 4.6 4.49230769 1.5625 2 C1.046875 1.34 0.53125 0.68 0 0 Z " fill="#646368" transform="translate(109,82)"/>
<path d="M0 0 C0.625 1.8125 0.625 1.8125 1 4 C0.01 5.485 0.01 5.485 -1 7 C-2.65 5.02 -4.3 3.04 -6 1 C-3 0 -3 0 0 0 Z " fill="#424146" transform="translate(71,50)"/>
<path d="M0 0 C0.66 1.32 1.32 2.64 2 4 C0.02 4.66 -1.96 5.32 -4 6 C-2.84826645 3.53199953 -1.95216435 1.95216435 0 0 Z " fill="#434249" transform="translate(26,46)"/>
<path d="M0 0 C3.93673644 1.31224548 6.22719294 2.91910327 9 6 C6.5625 5.625 6.5625 5.625 4 5 C3.67 4.34 3.34 3.68 3 3 C2.01 3.495 2.01 3.495 1 4 C0.67 2.68 0.34 1.36 0 0 Z " fill="#69686C" transform="translate(130,41)"/>
<path d="M0 0 C0.97608217 2.92824652 1.08226668 4.95613276 1 8 C0.01 7.67 -0.98 7.34 -2 7 C-1.125 1.125 -1.125 1.125 0 0 Z " fill="#18171C" transform="translate(117,70)"/>
<path d="M0 0 C0.33 0 0.66 0 1 0 C2.42857143 8.57142857 2.42857143 8.57142857 0 12 C-1.28571429 3.42857143 -1.28571429 3.42857143 0 0 Z " fill="#818084" transform="translate(114,65)"/>
<path d="M0 0 C0.33 0 0.66 0 1 0 C1 1.65 1 3.3 1 5 C1.66 5 2.32 5 3 5 C2.67 7.64 2.34 10.28 2 13 C1.67 13 1.34 13 1 13 C-0.10228696 8.59085217 -0.07654536 4.51617599 0 0 Z " fill="#ABAAAD" transform="translate(15,67)"/>
<path d="" fill="#E3E3E3" transform="translate(0,0)"/>
</svg>
