<?xml version="1.0" encoding="UTF-8"?>
<svg version="1.1" xmlns="http://www.w3.org/2000/svg" width="151" height="142">
<path d="M0 0 C49.83 0 99.66 0 151 0 C151 46.86 151 93.72 151 142 C101.17 142 51.34 142 0 142 C0 95.14 0 48.28 0 0 Z " fill="#FEFEFE" transform="translate(0,0)"/>
<path d="M0 0 C1.07186806 -0.0098568 1.07186806 -0.0098568 2.16539001 -0.01991272 C4.52025478 -0.03955199 6.87505595 -0.05128933 9.22998047 -0.0612793 C10.03910763 -0.06535482 10.84823479 -0.06943035 11.68188095 -0.07362938 C15.96744273 -0.09445352 20.25297287 -0.10876915 24.53857422 -0.11816406 C28.93975454 -0.12920119 33.34042551 -0.16358009 37.74142647 -0.20333576 C41.14747992 -0.22962643 44.55341443 -0.23786702 47.95956039 -0.24144554 C49.58049827 -0.24628197 51.2014319 -0.25781077 52.82226944 -0.27648354 C65.35835468 -0.41189198 75.74993545 0.87722486 85.71435547 9.1809082 C92.36618178 15.79391062 96.0054656 22.97107383 96.03466797 32.36450195 C95.92959269 43.30563209 93.52886156 51.27953285 85.72216797 59.17700195 C75.05588516 68.09152298 64.04215316 68.63318778 50.78857422 68.57543945 C49.14387381 68.57746444 47.49917429 68.5803794 45.85447693 68.58413696 C42.41925448 68.5885416 38.98426721 68.58219049 35.54907227 68.56811523 C31.17036708 68.55103792 26.79221429 68.56086701 22.4135294 68.57883263 C19.02035955 68.58973263 15.62731817 68.58619558 12.23414421 68.57844925 C10.62078725 68.57646367 9.00741821 68.57884805 7.39407539 68.58588791 C-5.95808593 68.6313718 -16.94902249 67.45512225 -27.27783203 58.17700195 C-34.27017069 49.6099424 -37.04685916 41.31750312 -36.27783203 30.17700195 C-35.39798952 22.21514842 -32.20463091 14.96587608 -26.38720703 9.3527832 C-18.10083874 2.877019 -10.50845789 0.080311 0 0 Z " fill="#212027" transform="translate(52.27783203125,36.822998046875)"/>
<path d="M0 0 C5.32770244 3.20807889 10.36051164 8.64188003 12.5625 14.5 C13.35292803 22.4778085 13.89499399 30.99406026 8.5625 37.5 C3.7512208 42.54230096 -0.59465651 46.10515587 -7.70703125 46.8359375 C-15.9488755 46.92680679 -22.00341906 46.69056162 -28.14453125 40.88671875 C-34.36078339 34.06547856 -36.0182407 28.07387606 -35.77734375 18.91015625 C-34.99634594 11.07324717 -31.387657 6.94844436 -25.53515625 1.9453125 C-18.47077988 -2.92213491 -7.84396301 -3.47595223 0 0 Z " fill="#FBFBFB" transform="translate(62.4375,48.5)"/>
<path d="M0 0 C1.09570312 0.00902344 2.19140625 0.01804688 3.3203125 0.02734375 C4.16335937 0.03894531 5.00640625 0.05054688 5.875 0.0625 C5.875 1.0525 5.875 2.0425 5.875 3.0625 C3.88899663 4.4165932 1.88682457 5.74707624 -0.125 7.0625 C-3.34196615 10.11015214 -4.06800207 11.47352139 -4.5 15.9375 C-4.27696082 19.86298957 -3.59258262 23.39354346 -2.125 27.0625 C-0.30798142 28.47104666 -0.30798142 28.47104666 1.875 29.0625 C3.20833333 29.72916667 4.54166667 30.39583333 5.875 31.0625 C5.545 32.0525 5.215 33.0425 4.875 34.0625 C-7.09866727 34.62868041 -7.09866727 34.62868041 -11.125 31.0625 C-11.91197266 30.36640625 -11.91197266 30.36640625 -12.71484375 29.65625 C-16.7399611 25.64060352 -18.07044102 22.15285717 -18.28515625 16.484375 C-17.909766 10.80774203 -15.7157136 7.34648985 -11.5625 3.6875 C-7.52036178 0.43640388 -5.23887079 -0.05573267 0 0 Z " fill="#E8E7EB" transform="translate(119.125,53.9375)"/>
<path d="M0 0 C-0.54140625 0.65742187 -0.54140625 0.65742187 -1.09375 1.328125 C-4.92067086 6.55825017 -5.70167275 10.78063664 -5.43359375 17.22265625 C-4.81790406 21.16639833 -3.6064157 23.01028787 -1 26 C-0.34 26.99 0.32 27.98 1 29 C-5.16411455 28.63015313 -7.80005946 27.29761357 -12 23 C-14.2926391 19.03998701 -14.38954791 15.51875572 -14 11 C-12.67764585 6.66561695 -11.59543554 4.50482579 -8.125 1.5625 C-5.02339511 0.01169755 -3.39552589 -0.39947363 0 0 Z " fill="#1F1E26" transform="translate(118,57)"/>
<path d="M0 0 C0.66 2.31 1.32 4.62 2 7 C3.98 7 5.96 7 8 7 C8 7.33 8 7.66 8 8 C6.83984375 8.07347656 6.83984375 8.07347656 5.65625 8.1484375 C-0.46001367 8.58747623 -6.10692791 9.30007536 -12 11 C-12 10.01 -12 9.02 -12 8 C-13.32 7.67 -14.64 7.34 -16 7 C-16 6.34 -16 5.68 -16 5 C-16.66 4.67 -17.32 4.34 -18 4 C-11.54521713 0.17739293 -7.42455611 -1.78739314 0 0 Z " fill="#212127" transform="translate(48,39)"/>
<path d="M0 0 C0 0.66 0 1.32 0 2 C1.32 2 2.64 2 4 2 C3.67 2.66 3.34 3.32 3 4 C1.9275 4.103125 0.855 4.20625 -0.25 4.3125 C-4.77218432 5.14156713 -6.18453347 6.43926292 -9 10 C-10.96333866 14.53078152 -10.48326819 20.3647869 -9 25 C-10.32 24.67 -11.64 24.34 -13 24 C-14.08049731 17.53003418 -14.58033721 12.81804797 -11 7 C-4.14253394 0 -4.14253394 0 0 0 Z " fill="#D8D7DC" transform="translate(115,54)"/>
<path d="M0 0 C1.49080078 0.02707031 1.49080078 0.02707031 3.01171875 0.0546875 C3.77097656 0.07789062 4.53023437 0.10109375 5.3125 0.125 C5.3125 0.455 5.3125 0.785 5.3125 1.125 C4.24 1.16625 3.1675 1.2075 2.0625 1.25 C-2.73308356 2.3689695 -3.16169292 4.08370868 -5.6875 8.125 C-8.34627346 9.34659861 -9.79255052 9.42331649 -12.5625 8.5 C-14.29885731 7.77185016 -15.99684645 6.95375174 -17.6875 6.125 C-17.3575 5.135 -17.0275 4.145 -16.6875 3.125 C-13.56459365 3.61078543 -10.69169641 4.1236012 -7.6875 5.125 C-7.3575 4.795 -7.0275 4.465 -6.6875 4.125 C-7.3475 3.465 -8.0075 2.805 -8.6875 2.125 C-5.26655758 -0.15562828 -4.00562778 -0.09425007 0 0 Z " fill="#2D2C32" transform="translate(50.6875,94.875)"/>
<path d="M0 0 C0.103125 0.61875 0.20625 1.2375 0.3125 1.875 C0.87525373 4.36526484 0.87525373 4.36526484 4 6 C3.01 6.495 3.01 6.495 2 7 C1.525625 7.99 1.05125 8.98 0.5625 10 C-1 13 -1 13 -4 14 C-4.99 13.67 -5.98 13.34 -7 13 C-5.58832253 7.73829306 -3.25149768 4.27828642 0 0 Z " fill="#27262D" transform="translate(25,47)"/>
<path d="M0 0 C0.33 0 0.66 0 1 0 C1 1.65 1 3.3 1 5 C0.01 5 -0.98 5 -2 5 C-2 4.34 -2 3.68 -2 3 C-2.99 3 -3.98 3 -5 3 C-4.34 3.33 -3.68 3.66 -3 4 C-3 4.66 -3 5.32 -3 6 C-7.62 6 -12.24 6 -17 6 C-13.37097179 2.37097179 -8.61573067 1.05875384 -3.5625 0.875 C-2.716875 0.91625 -1.87125 0.9575 -1 1 C-0.67 0.67 -0.34 0.34 0 0 Z " fill="#27262C" transform="translate(125,48)"/>
<path d="M0 0 C2.64 0.33 5.28 0.66 8 1 C8.66 3.31 9.32 5.62 10 8 C11.98 8 13.96 8 16 8 C16 8.33 16 8.66 16 9 C12.04 9 8.08 9 4 9 C4.33 7.68 4.66 6.36 5 5 C4.01 4.34 3.02 3.68 2 3 C2 2.34 2 1.68 2 1 C1.34 0.67 0.68 0.34 0 0 Z " fill="#2E2D33" transform="translate(40,38)"/>
<path d="M0 0 C0.5775 0.165 1.155 0.33 1.75 0.5 C4.26664369 1.14462031 4.26664369 1.14462031 8 1 C9.484375 2.53125 9.484375 2.53125 10.75 4.5 C11.39195313 5.47453125 11.39195313 5.47453125 12.046875 6.46875 C12.36140625 6.9740625 12.6759375 7.479375 13 8 C6.87647862 7.63258872 4.21348564 6.21348564 0 2 C0 1.34 0 0.68 0 0 Z " fill="#2E2D34" transform="translate(106,78)"/>
<path d="M0 0 C3.3 0 6.6 0 10 0 C10 0.99 10 1.98 10 3 C7.41753857 4.90877584 4.87245509 6.56377246 2 8 C1.34 7.34 0.68 6.68 0 6 C1.32 5.34 2.64 4.68 4 4 C4 3.34 4 2.68 4 2 C2.68 2 1.36 2 0 2 C0 1.34 0 0.68 0 0 Z " fill="#E0DFE4" transform="translate(115,54)"/>
<path d="M0 0 C2.97 0.495 2.97 0.495 6 1 C6.33 2.32 6.66 3.64 7 5 C7.99 5 8.98 5 10 5 C7.36 6.98 4.72 8.96 2 11 C1.61866701 9.0085944 1.28674418 7.00720923 1 5 C1.33 4.67 1.66 4.34 2 4 C1.34 3.67 0.68 3.34 0 3 C0 2.01 0 1.02 0 0 Z " fill="#1B1A1D" transform="translate(30,44)"/>
<path d="M0 0 C0.99 0 1.98 0 3 0 C2.5359375 0.928125 2.5359375 0.928125 2.0625 1.875 C0.80371692 5.57730316 0.57371943 9.00414169 0.34375 12.890625 C0.2303125 13.58671875 0.116875 14.2828125 0 15 C-0.99 15.495 -0.99 15.495 -2 16 C-2.05423638 14.08364783 -2.09289963 12.16685075 -2.125 10.25 C-2.14820312 9.18265625 -2.17140625 8.1153125 -2.1953125 7.015625 C-2.00487687 4.07529894 -1.52670104 2.47638122 0 0 Z " fill="#ECEBEF" transform="translate(114,61)"/>
<path d="M0 0 C1.49080078 0.02707031 1.49080078 0.02707031 3.01171875 0.0546875 C3.77097656 0.07789062 4.53023437 0.10109375 5.3125 0.125 C5.3125 0.455 5.3125 0.785 5.3125 1.125 C4.24 1.16625 3.1675 1.2075 2.0625 1.25 C-1.92361251 1.75815935 -1.92361251 1.75815935 -4 5.1875 C-4.556875 6.156875 -5.11375 7.12625 -5.6875 8.125 C-6.3475 8.125 -7.0075 8.125 -7.6875 8.125 C-7.48125 7.50625 -7.275 6.8875 -7.0625 6.25 C-6.93875 5.54875 -6.815 4.8475 -6.6875 4.125 C-7.3475 3.465 -8.0075 2.805 -8.6875 2.125 C-5.26655758 -0.15562828 -4.00562778 -0.09425007 0 0 Z " fill="#3A393E" transform="translate(50.6875,94.875)"/>
<path d="M0 0 C1.65 0 3.3 0 5 0 C5 3.3 5 6.6 5 10 C4.34 9.01 3.68 8.02 3 7 C2.01 7.33 1.02 7.66 0 8 C0 7.34 0 6.68 0 6 C0.66 6 1.32 6 2 6 C1.34 5.34 0.68 4.68 0 4 C0 2.68 0 1.36 0 0 Z " fill="#2F2D37" transform="translate(107,65)"/>
<path d="M0 0 C-2.475 3.465 -2.475 3.465 -5 7 C-7 5 -7 5 -8 2 C-4.77208445 -0.1519437 -3.71599191 -0.20086443 0 0 Z " fill="#1D1D23" transform="translate(118,57)"/>
<path d="M0 0 C0 0.66 0 1.32 0 2 C1.32 2 2.64 2 4 2 C3.67 2.66 3.34 3.32 3 4 C0.67504723 4.38749213 -1.6599583 4.71758117 -4 5 C-4.99 5.33 -5.98 5.66 -7 6 C-6.75 4.125 -6.75 4.125 -6 2 C-3.85331506 0.61504198 -2.56128588 0 0 0 Z " fill="#CAC9CE" transform="translate(115,54)"/>
<path d="M0 0 C2 3 2 3 2.4375 5.125 C2.7159375 6.053125 2.7159375 6.053125 3 7 C3.99 7.33 4.98 7.66 6 8 C4.68 8.33 3.36 8.66 2 9 C0.4375 7.3125 0.4375 7.3125 -1 5 C-0.6875 2.25 -0.6875 2.25 0 0 Z " fill="#D7D6D9" transform="translate(114,74)"/>
<path d="M0 0 C0.99 0.33 1.98 0.66 3 1 C2.67 1.33 2.34 1.66 2 2 C2.66 2.66 3.32 3.32 4 4 C2.3125 5.125 2.3125 5.125 0 6 C-2.75 5.125 -2.75 5.125 -5 4 C-2.6875 1.9375 -2.6875 1.9375 0 0 Z " fill="#19181E" transform="translate(42,95)"/>
<path d="M0 0 C0.66 0.66 1.32 1.32 2 2 C2.99 1.34 3.98 0.68 5 0 C4.1875 2.4375 4.1875 2.4375 3 5 C2.01 5.33 1.02 5.66 0 6 C-0.99 5.34 -1.98 4.68 -3 4 C-2 2 -2 2 0 0 Z " fill="#15141B" transform="translate(25,57)"/>
<path d="M0 0 C0.33 0.66 0.66 1.32 1 2 C0.01 3.32 -0.98 4.64 -2 6 C-3.32 5.34 -4.64 4.68 -6 4 C-4.03617993 2.49440461 -2.21736634 1.10868317 0 0 Z " fill="#2F2D38" transform="translate(31,91)"/>
<path d="M0 0 C3.25543229 0.34879632 4.01873107 1.02133261 6.25 3.5625 C6.8275 4.366875 7.405 5.17125 8 6 C6.35 5.67 4.7 5.34 3 5 C2.87625 4.360625 2.7525 3.72125 2.625 3.0625 C2.315625 2.0415625 2.315625 2.0415625 2 1 C1.34 0.67 0.68 0.34 0 0 Z " fill="#29282C" transform="translate(111,80)"/>
<path d="M0 0 C3 3.75 3 3.75 3 6 C3.99 7.485 3.99 7.485 5 9 C2.09303901 7.93411431 1.15567038 7.29651501 -0.3125 4.5 C-1 2 -1 2 0 0 Z " fill="#17161C" transform="translate(22,85)"/>
</svg>
