<?xml version="1.0" encoding="UTF-8"?>
<svg version="1.1" xmlns="http://www.w3.org/2000/svg" width="24" height="24">
<path d="M0 0 C0.804375 -0.00128906 1.60875 -0.00257812 2.4375 -0.00390625 C3.283125 -0.00003906 4.12875 0.00382812 5 0.0078125 C6.2684375 0.00201172 6.2684375 0.00201172 7.5625 -0.00390625 C8.366875 -0.00261719 9.17125 -0.00132813 10 0 C10.7425 0.00112793 11.485 0.00225586 12.25 0.00341797 C14 0.1328125 14 0.1328125 15 1.1328125 C15.23527744 3.88168684 15.37111977 6.56667755 15.4375 9.3203125 C15.48326172 10.07634766 15.52902344 10.83238281 15.57617188 11.61132812 C15.66042372 15.8349098 15.26868494 18.44474778 12.3984375 21.65625 C9.11434962 24.48249997 6.53354181 24.80375703 2.1875 24.5703125 C1.04667969 24.52777344 -0.09414062 24.48523438 -1.26953125 24.44140625 C-4 24.1328125 -4 24.1328125 -5 23.1328125 C-5.0991657 21.51023706 -5.13079777 19.88341419 -5.1328125 18.2578125 C-5.13410156 17.27296875 -5.13539062 16.288125 -5.13671875 15.2734375 C-5.13285156 14.23703125 -5.12898437 13.200625 -5.125 12.1328125 C-5.13080078 10.57820312 -5.13080078 10.57820312 -5.13671875 8.9921875 C-5.13542969 8.00734375 -5.13414063 7.0225 -5.1328125 6.0078125 C-5.13168457 5.09773437 -5.13055664 4.18765625 -5.12939453 3.25 C-4.90219784 -0.46745227 -3.29687051 0.00500827 0 0 Z M-4 3.1328125 C-4.0983721 4.46324875 -4.13078592 5.79874594 -4.1328125 7.1328125 C-4.13410156 7.9371875 -4.13539062 8.7415625 -4.13671875 9.5703125 C-4.13285156 10.4159375 -4.12898437 11.2615625 -4.125 12.1328125 C-4.12886719 12.9784375 -4.13273438 13.8240625 -4.13671875 14.6953125 C-4.13542969 15.4996875 -4.13414063 16.3040625 -4.1328125 17.1328125 C-4.13168457 17.8753125 -4.13055664 18.6178125 -4.12939453 19.3828125 C-4.18942216 21.16107061 -4.18942216 21.16107061 -3 22.1328125 C-1.31391034 22.20486761 0.37500659 22.21667318 2.0625 22.1953125 C2.98160156 22.18628906 3.90070312 22.17726563 4.84765625 22.16796875 C5.55792969 22.15636719 6.26820312 22.14476563 7 22.1328125 C7 20.8128125 7 19.4928125 7 18.1328125 C6.34 18.1328125 5.68 18.1328125 5 18.1328125 C5 17.4728125 5 16.8128125 5 16.1328125 C7.97 16.1328125 10.94 16.1328125 14 16.1328125 C14.02685938 13.98704613 14.04633088 11.84118605 14.0625 9.6953125 C14.07410156 8.50035156 14.08570312 7.30539062 14.09765625 6.07421875 C14.33901792 3.24407909 14.33901792 3.24407909 13 2.1328125 C10.3226862 2.03300036 7.67695825 1.99401375 5 2.0078125 C4.24976563 2.00394531 3.49953125 2.00007812 2.7265625 1.99609375 C-0.93606117 1.65605709 -0.93606117 1.65605709 -4 3.1328125 Z " fill="#000000" transform="translate(7,-0.1328125)"/>
<path d="M0 0 C0.66 0.66 1.32 1.32 2 2 C1.01 2.99 0.02 3.98 -1 5 C-1.99 4.67 -2.98 4.34 -4 4 C-4 3.34 -4 2.68 -4 2 C-2.68 1.34 -1.36 0.68 0 0 Z " fill="#000000" transform="translate(9,14)"/>
<path d="M0 0 C-1.75 3.875 -1.75 3.875 -4 5 C-4.66 4.67 -5.32 4.34 -6 4 C-6 3.34 -6 2.68 -6 2 C-2.25 0 -2.25 0 0 0 Z " fill="#000000" transform="translate(11,5)"/>
<path d="M0 0 C2.31 0 4.62 0 7 0 C7 0.66 7 1.32 7 2 C4.69 2 2.38 2 0 2 C0 1.34 0 0.68 0 0 Z " fill="#000000" transform="translate(12,11)"/>
<path d="M0 0 C-1.485 1.485 -1.485 1.485 -3 3 C-3.99 2.67 -4.98 2.34 -6 2 C-6 1.34 -6 0.68 -6 0 C-2.25 -1.125 -2.25 -1.125 0 0 Z " fill="#000000" transform="translate(11,11)"/>
<path d="M0 0 C2.31 0 4.62 0 7 0 C7 0.33 7 0.66 7 1 C4.69 1 2.38 1 0 1 C0 0.67 0 0.34 0 0 Z " fill="#000000" transform="translate(12,7)"/>
</svg>
