<?xml version="1.0" encoding="UTF-8"?>
<svg version="1.1" xmlns="http://www.w3.org/2000/svg" width="50" height="50">
<path d="M0 0 C8.91 0 17.82 0 27 0 C27 0.66 27 1.32 27 2 C18.09 2 9.18 2 0 2 C0 1.34 0 0.68 0 0 Z " fill="#081F37" transform="translate(19,38)"/>
<path d="M0 0 C8.91 0 17.82 0 27 0 C27 0.66 27 1.32 27 2 C18.09 2 9.18 2 0 2 C0 1.34 0 0.68 0 0 Z " fill="#081F37" transform="translate(19,24)"/>
<path d="M0 0 C8.91 0 17.82 0 27 0 C27 0.66 27 1.32 27 2 C18.09 2 9.18 2 0 2 C0 1.34 0 0.68 0 0 Z " fill="#081F37" transform="translate(19,10)"/>
<path d="M0 0 C0.99 0.33 1.98 0.66 3 1 C1.6302836 4.99500618 -0.25722422 7.80009492 -3 11 C-4.875 10.75 -4.875 10.75 -7 10 C-8.25 7.9375 -8.25 7.9375 -9 6 C-7.88625 5.9071875 -7.88625 5.9071875 -6.75 5.8125 C-3.1814261 4.75814862 -2.07754772 3.00090227 0 0 Z " fill="#061E37" transform="translate(12,33)"/>
<path d="M0 0 C0.99 0.33 1.98 0.66 3 1 C1.6302836 4.99500618 -0.25722422 7.80009492 -3 11 C-4.875 10.75 -4.875 10.75 -7 10 C-8.25 7.9375 -8.25 7.9375 -9 6 C-7.88625 5.9071875 -7.88625 5.9071875 -6.75 5.8125 C-3.1814261 4.75814862 -2.07754772 3.00090227 0 0 Z " fill="#061E37" transform="translate(12,19)"/>
<path d="M0 0 C0.99 0.33 1.98 0.66 3 1 C1.6302836 4.99500618 -0.25722422 7.80009492 -3 11 C-4.875 10.75 -4.875 10.75 -7 10 C-8.25 7.9375 -8.25 7.9375 -9 6 C-7.88625 5.9071875 -7.88625 5.9071875 -6.75 5.8125 C-3.1814261 4.75814862 -2.07754772 3.00090227 0 0 Z " fill="#061E37" transform="translate(12,5)"/>
</svg>
