<?xml version="1.0" encoding="UTF-8"?>
<svg version="1.1" xmlns="http://www.w3.org/2000/svg" width="64" height="64">
<path d="M0 0 C5.94 0 11.88 0 18 0 C18 1.32 18 2.64 18 4 C14.7 4 11.4 4 8 4 C8 17.2 8 30.4 8 44 C22.52 44 37.04 44 52 44 C52 33.44 52 22.88 52 12 C41.11 12 30.22 12 19 12 C19 10.68 19 9.36 19 8 C31.21 8 43.42 8 56 8 C56 21.2 56 34.4 56 48 C37.52 48 19.04 48 0 48 C0 32.16 0 16.32 0 0 Z " fill="#FFFFFF" transform="translate(4,8)"/>
<path d="M0 0 C7.875 6.75 7.875 6.75 11 10 C9.52651292 13.42527887 7.59092154 15.64955058 4.9375 18.25 C4.22464844 18.95640625 3.51179688 19.6628125 2.77734375 20.390625 C1 22 1 22 0 22 C0 14.74 0 7.48 0 0 Z " fill="#FFFFFF" transform="translate(29,25)"/>
</svg>
