<?xml version="1.0" encoding="UTF-8"?>
<svg version="1.1" xmlns="http://www.w3.org/2000/svg" width="48" height="48">
<path d="M0 0 C0.36630156 3.93774177 0.30233203 5.56539771 -2 8.875 C-2.66 9.57625 -3.32 10.2775 -4 11 C-2.95081328 12.15803606 -1.88497451 13.30099716 -0.8125 14.4375 C-0.22082031 15.07558594 0.37085937 15.71367187 0.98046875 16.37109375 C3.23745114 18.44873054 3.23745114 18.44873054 8 19 C8 23.62 8 28.24 8 33 C4.60444897 33.19514661 1.20880436 33.38139358 -2.1875 33.5625 C-3.62706055 33.64661133 -3.62706055 33.64661133 -5.09570312 33.73242188 C-6.49272461 33.80493164 -6.49272461 33.80493164 -7.91796875 33.87890625 C-8.77156982 33.9260376 -9.6251709 33.97316895 -10.50463867 34.02172852 C-13.12353758 33.99892429 -15.45403152 33.59213206 -18 33 C-18 32.34 -18 31.68 -18 31 C-19.8253125 31.4640625 -19.8253125 31.4640625 -21.6875 31.9375 C-24.7782972 32.71157177 -27.86734334 33.41262688 -31 34 C-30.01 31.03 -29.02 28.06 -28 25 C-28.66 25 -29.32 25 -30 25 C-30.41341257 21.57546307 -30.15957184 20.23814098 -28.20703125 17.32421875 C-27.41683594 16.45410156 -26.62664063 15.58398438 -25.8125 14.6875 C-25.03519531 13.80449219 -24.25789063 12.92148437 -23.45703125 12.01171875 C-21 10 -21 10 -18.19921875 9.70703125 C-17.47347656 9.80371094 -16.74773438 9.90039062 -16 10 C-15.9071875 9.195625 -15.9071875 9.195625 -15.8125 8.375 C-12.86782652 -0.2325071 -8.3037381 -0.87068322 0 0 Z " fill="#FDB64E" transform="translate(35,7)"/>
<path d="M0 0 C0.4375 2.625 0.4375 2.625 0 6 C-1.64339555 7.72103628 -3.42292182 9.09972933 -5.30078125 10.55859375 C-7.56877587 12.48247884 -8.46199853 14.07942061 -9 17 C-8.23396041 19.2857711 -8.23396041 19.2857711 -7 21 C-10.38583802 24.13107836 -12.71109462 24.33550778 -17.25 24.1875 C-18.32765625 24.16042969 -19.4053125 24.13335938 -20.515625 24.10546875 C-21.33546875 24.07066406 -22.1553125 24.03585938 -23 24 C-22.896875 25.093125 -22.79375 26.18625 -22.6875 27.3125 C-22.8421875 29.1378125 -22.8421875 29.1378125 -23 31 C-25.84260487 33.38164192 -27.28405267 34 -31 34 C-30.01 31.03 -29.02 28.06 -28 25 C-28.66 25 -29.32 25 -30 25 C-30.41341257 21.57546307 -30.15957184 20.23814098 -28.20703125 17.32421875 C-27.41683594 16.45410156 -26.62664063 15.58398438 -25.8125 14.6875 C-25.03519531 13.80449219 -24.25789063 12.92148437 -23.45703125 12.01171875 C-21 10 -21 10 -18.19921875 9.70703125 C-17.47347656 9.80371094 -16.74773438 9.90039062 -16 10 C-15.9071875 9.195625 -15.9071875 9.195625 -15.8125 8.375 C-12.86782652 -0.2325071 -8.3037381 -0.87068322 0 0 Z " fill="#F7BD45" transform="translate(35,7)"/>
<path d="M0 0 C1.1446875 0.0928125 1.1446875 0.0928125 2.3125 0.1875 C2.75 2.8125 2.75 2.8125 2.3125 6.1875 C0.69999795 7.95605064 -1.03409677 9.33872829 -2.9296875 10.796875 C-4.9127639 12.36570877 -6.30633046 14.07512306 -7.6875 16.1875 C-9.625 15.375 -9.625 15.375 -11.6875 14.1875 C-12.0175 13.1975 -12.3475 12.2075 -12.6875 11.1875 C-11.359375 9.25 -11.359375 9.25 -9.4375 7.1875 C-8.81359375 6.506875 -8.1896875 5.82625 -7.546875 5.125 C-6.93328125 4.485625 -6.3196875 3.84625 -5.6875 3.1875 C-5.17058594 2.61386719 -4.65367188 2.04023438 -4.12109375 1.44921875 C-2.6875 0.1875 -2.6875 0.1875 0 0 Z " fill="#386B20" transform="translate(32.6875,6.8125)"/>
<path d="M0 0 C1.32 0.99 2.64 1.98 4 3 C2.84826645 5.46800047 1.95216435 7.04783565 0 9 C-3.625 9.125 -3.625 9.125 -7 9 C-5.44499019 5.18315774 -2.96404505 2.80804268 0 0 Z " fill="#52AF4F" transform="translate(18,21)"/>
<path d="M0 0 C3.01822323 3.38041002 3.01822323 3.38041002 2.9375 6.125 C1.70310264 8.59379473 0.57133403 9.09247034 -2 10 C-2.99 10 -3.98 10 -5 10 C-4.55090939 8.51800098 -4.09043436 7.03944764 -3.625 5.5625 C-3.36976562 4.73878906 -3.11453125 3.91507813 -2.8515625 3.06640625 C-2 1 -2 1 0 0 Z " fill="#4DA152" transform="translate(9,31)"/>
<path d="M0 0 C1.32 1.32 2.64 2.64 4 4 C2.375 6 2.375 6 0 8 C-3.25 8.25 -3.25 8.25 -6 8 C-4.55746343 4.63408134 -2.66735273 2.48952921 0 0 Z " fill="#E2972B" transform="translate(24,23)"/>
<path d="M0 0 C0.721875 0.12375 1.44375 0.2475 2.1875 0.375 C1.25159496 1.4805189 0.31370142 2.58435453 -0.625 3.6875 C-1.40810547 4.60982422 -1.40810547 4.60982422 -2.20703125 5.55078125 C-5.1498102 8.89452278 -5.1498102 8.89452278 -6.8125 10.375 C-7.4725 10.375 -8.1325 10.375 -8.8125 10.375 C-8.23889651 5.40376977 -5.07248525 0.67633137 0 0 Z " fill="#8FA3AD" transform="translate(27.8125,6.625)"/>
<path d="M0 0 C5.11365014 1.0681847 10.07227969 2.23107476 15 4 C15 4.33 15 4.66 15 5 C11.7 4.67 8.4 4.34 5 4 C5 3.34 5 2.68 5 2 C3.35 2 1.7 2 0 2 C0 1.34 0 0.68 0 0 Z " fill="#E4952B" transform="translate(12,36)"/>
</svg>
